<?xml version="1.0" encoding="UTF-8" standalone="no"?>
<!DOCTYPE svg PUBLIC "-//W3C//DTD SVG 1.1//EN" "http://www.w3.org/Graphics/SVG/1.1/DTD/svg11.dtd">
<svg width="100%" height="100%" viewBox="0 0 2048 1536" version="1.1" xmlns="http://www.w3.org/2000/svg" xmlns:xlink="http://www.w3.org/1999/xlink" xml:space="preserve" xmlns:serif="http://www.serif.com/" style="fill-rule:evenodd;clip-rule:evenodd;stroke-linejoin:round;stroke-miterlimit:2;">
    <path d="M712.311,1244.31C712.274,1243.87 712.567,1243.82 712.936,1243.63" style="fill:none;"/>
    <g transform="matrix(3.47414,0,0,1.14327,543.547,-225.584)">
        <rect x="165.5" y="90.876" width="308.626" height="1505.35" style="fill-opacity:0.93;"/>
    </g>
    <g id="Layer1">
        <g transform="matrix(1,0,0,1,12.2887,0.772517)">
            <path d="M667.209,645.82C668.376,656.346 728.661,753.509 750.047,772.519C754.708,776.662 782.587,803.003 789.904,799.345C796.645,795.974 809.509,778.232 814.813,772.519C834.777,751.021 889.825,707.003 905.795,699.225C916.126,694.193 930.988,687.655 944.908,687.079C946.626,687.008 965.8,687.214 966.071,687.079C967.719,686.255 979.279,650.322 980.181,648.405C985.937,636.172 1003.13,614.944 1003.13,614.944C1003.13,614.944 971.01,608.886 948.698,584.532C947.555,583.284 926.191,582.403 908.684,567.814C903.475,563.473 891.617,551.416 894.39,540.909C894.533,540.366 886.483,543.051 885.595,543.003C862.372,541.745 852.936,526.725 843.706,519.034C828.935,506.724 788.337,508.674 770.837,511.591C767.139,512.207 768.871,526.217 769.162,529.182C770.867,546.592 772.597,570.582 783.506,584.532C789.904,592.713 780.563,586.833 789.904,579.529C803.7,568.74 752.357,620.088 726.309,631.438C687.373,648.405 667.802,644.04 667.209,645.82Z" style="fill:rgb(255,175,0);"/>
        </g>
        <path d="M1024.69,378.105C1028.76,390.327 1029.92,403.597 1030.8,416.733C1031.41,426.005 1033.43,436.967 1037.08,445.691C1039.51,451.473 1050.61,455.918 1056.14,458.335C1057.14,458.772 1058.42,461.867 1058.15,462.585C1057.4,464.602 1059.55,464.907 1058.15,466.865C1053.8,472.956 1050.01,478.148 1046.87,485.109C1037.66,505.49 1039.69,523.374 1016.12,532.903C999.457,539.638 974.016,532.552 960.193,540.521C946.075,548.661 956.107,570.239 949.094,581.579C949.044,581.66 945.577,580.17 945.271,580.056C943.21,579.289 940.822,579.741 938.651,579.885C936.192,580.049 933.37,580.384 930.969,579.619C926.65,578.24 923.112,575.222 918.865,573.814C910.723,571.115 904.092,570.104 899.482,562.107C892.333,549.708 905.597,534.905 907.938,523.058C909.592,514.687 903.27,506.464 904.839,498.161C911.724,461.708 937.347,429.889 963.163,404.758C974.657,393.569 1005.77,365.809 1025.01,377.71" style="fill:white;"/>
        <path d="M1026.59,378.384C1026.92,377.615 1026.65,376.7 1025.91,376.247C1017.75,371.2 1007.57,372.709 997.522,377.303C983.111,383.889 968.952,396.722 961.963,403.526C935.904,428.893 910.099,461.046 903.148,497.842C902.315,502.255 903.514,506.654 904.766,511.055C905.868,514.93 907.025,518.806 906.25,522.725C905.098,528.556 901.229,535.104 898.556,541.732C895.635,548.974 894.146,556.296 897.992,562.966C902.849,571.391 909.746,572.603 918.324,575.447C922.576,576.857 926.121,579.877 930.446,581.257C933.047,582.087 936.102,581.779 938.765,581.602C940.702,581.473 942.833,580.984 944.671,581.668C944.954,581.773 947.864,583.016 948.481,583.204C949.782,583.602 950.459,582.642 950.557,582.484C952.448,579.425 953.23,575.687 953.517,571.646C953.786,567.872 953.632,563.825 953.699,559.879C953.822,552.676 954.558,545.756 961.052,542.012C967.742,538.154 977.258,538.034 987.103,537.969C997.498,537.901 1008.25,537.939 1016.76,534.497C1031.5,528.54 1036.66,519.469 1040.48,508.561C1042.91,501.626 1044.78,493.919 1048.43,485.817C1051.53,478.966 1055.27,473.86 1059.55,467.865C1060.6,466.4 1060.47,465.407 1060.16,464.529C1060.09,464.328 1060.01,464.134 1059.91,463.938C1059.82,463.737 1059.63,463.539 1059.76,463.186C1059.94,462.698 1059.92,461.535 1059.46,460.303C1059.1,459.354 1058.55,458.333 1058.01,457.689C1057.62,457.229 1057.2,456.922 1056.83,456.758C1053.58,455.337 1048.35,453.208 1044.18,450.501C1041.67,448.872 1039.53,447.074 1038.67,445.027C1035.08,436.468 1033.12,425.714 1032.51,416.619C1031.65,403.63 1030.49,390.513 1026.59,378.384ZM1023.03,378.561C1015.99,374.867 1007.43,376.559 998.952,380.432C984.924,386.843 971.166,399.368 964.363,405.991C938.789,430.886 913.35,462.369 906.529,498.481C905.794,502.371 906.971,506.234 908.075,510.113C909.328,514.518 910.505,518.939 909.625,523.391C908.437,529.406 904.503,536.183 901.746,543.019C899.237,549.24 897.669,555.519 900.972,561.248C905.336,568.817 911.7,569.627 919.406,572.182C923.647,573.587 927.179,576.603 931.492,577.98C933.693,578.682 936.283,578.319 938.537,578.169C940.943,578.009 943.587,577.593 945.872,578.444C946.033,578.504 947.313,579.026 948.304,579.431C949.42,577.072 949.878,574.322 950.086,571.402C950.35,567.687 950.193,563.704 950.259,559.821C950.403,551.364 951.709,543.427 959.334,539.031C966.467,534.919 976.583,534.598 987.08,534.529C997.027,534.464 1007.33,534.601 1015.47,531.308C1029.02,525.831 1033.72,517.451 1037.23,507.424C1039.69,500.402 1041.6,492.604 1045.3,484.401C1048.49,477.331 1052.33,472.051 1056.75,465.865C1056.81,465.787 1056.86,465.682 1056.89,465.62C1056.86,465.535 1056.79,465.375 1056.74,465.279C1056.63,465.047 1056.53,464.807 1056.44,464.548C1056.25,463.92 1056.15,463.198 1056.45,462.26C1056.39,462.045 1056.22,461.436 1056.04,461.035C1055.85,460.608 1055.42,459.995 1055.33,459.856C1051.93,458.377 1046.59,456.167 1042.31,453.386C1039.15,451.334 1036.58,448.935 1035.5,446.356C1031.77,437.465 1029.71,426.296 1029.08,416.847C1028.22,403.858 1027.09,390.734 1023.06,378.649C1023.05,378.62 1023.04,378.591 1023.03,378.561Z" style="fill:white;"/>
        <path d="M960.198,544.814C961.316,543.627 963.125,543.028 965.07,542.563C968.893,541.65 973.278,541.48 976.246,541.022C984.962,539.677 994.492,539.976 1003.81,539.64C1013.72,539.283 1023.38,538.202 1031.75,534.143C1035.77,532.191 1038.59,528.615 1040.53,524.339C1043.07,518.715 1044.05,511.862 1044.82,506.916C1047.29,490.975 1049.51,478.817 1061.58,467.035C1062.85,465.801 1062.87,463.773 1061.63,462.509C1060.4,461.246 1058.37,461.221 1057.11,462.455C1043.92,475.337 1041.2,488.506 1038.5,505.935C1037.8,510.406 1036.99,516.621 1034.69,521.704C1033.4,524.566 1031.65,527.078 1028.95,528.385C1021.36,532.068 1012.57,532.92 1003.58,533.244C994.009,533.589 984.222,533.315 975.269,534.697C972.165,535.177 967.581,535.383 963.583,536.338C960.313,537.12 957.419,538.43 955.539,540.426C954.328,541.712 954.389,543.739 955.675,544.95C956.96,546.16 958.987,546.1 960.198,544.814Z"/>
        <path d="M1055.12,463.051C1054.78,464.251 1055.16,465.594 1056.19,466.424C1057.57,467.531 1059.59,467.312 1060.69,465.935C1061.99,464.328 1062.14,462.524 1061.15,460.565C1060.64,459.569 1059.69,458.453 1058.37,457.345C1055.67,455.089 1051.16,452.587 1047.57,450.408C1045.73,449.296 1044.14,448.395 1043.57,447.607C1035.92,437.066 1036.14,424.379 1034.78,411.865C1034.39,408.272 1033.12,404.419 1032.07,400.739C1031.22,397.763 1030.43,394.94 1030.88,392.576C1031.2,390.84 1030.06,389.166 1028.32,388.84C1026.59,388.513 1024.91,389.658 1024.59,391.393C1024.09,394.026 1024.5,397.09 1025.33,400.328C1026.33,404.297 1027.98,408.592 1028.41,412.556C1029.9,426.179 1030.07,439.889 1038.39,451.364C1039.35,452.695 1042.05,454.576 1045.28,456.499C1048.9,458.659 1053.31,460.982 1055.12,463.051Z"/>
        <path d="M900.057,508.552C902.32,519.452 903.045,524.863 895.834,535.449C894.711,537.098 892.582,540.186 886.85,541.621C885.136,542.049 884.094,543.788 884.522,545.502C884.951,547.215 886.69,548.258 888.404,547.829C896.531,545.795 899.532,541.39 901.124,539.052C909.658,526.523 909.002,520.152 906.324,507.251C905.965,505.522 904.269,504.409 902.54,504.768C900.811,505.127 899.698,506.823 900.057,508.552Z"/>
        <path d="M960.335,537.16C945.519,545.064 941.052,563.522 945.559,578.432C946.743,582.348 947.146,586.91 951.691,591.883C952.882,593.187 954.908,593.278 956.212,592.087C957.515,590.896 957.607,588.87 956.415,587.566C952.738,583.542 952.643,579.748 951.685,576.58C948.012,564.428 951.272,549.249 963.348,542.806C964.906,541.975 965.496,540.035 964.665,538.477C963.834,536.918 961.894,536.328 960.335,537.16Z"/>
        <path d="M1026,393.461C1013.66,412.714 995.712,441.747 978.594,452.017C968.066,458.334 955.362,460.01 945.201,466.476C924.92,479.382 915.982,507.766 891.84,519.837C870.146,530.684 830.375,523.488 809.217,514.673C801.634,511.513 794.751,507.062 786.84,504.689C767.535,498.898 743.292,512.252 721.431,510.886C703.136,509.743 690.519,495.926 673.578,492.296C649.907,487.223 626.091,495.946 602.316,494.361C585.37,493.232 568.669,483.365 556.529,472.329C550.292,466.658 544.871,461.845 542.759,453.394C542.044,450.535 551.398,451.346 553.087,450.984C559.574,449.594 565.288,445.944 570.988,442.722C601.327,425.574 619.996,406.749 656.021,404.853C684.131,403.374 708.753,422.276 737.267,412.771C781.267,398.104 806.979,353.214 850.529,337.378C883.446,325.408 906.093,340.775 936.25,339.099C954.46,338.088 965.802,324.6 982.037,320.853C1024.53,311.047 1042.88,355.07 1026,393.461Z"/>
        <path d="M1028.48,395.048C1028.56,394.919 1028.63,394.784 1028.69,394.644C1039.33,370.437 1036.41,344.12 1022.91,329.149C1013.72,318.945 999.639,313.774 981.376,317.988C972.985,319.925 965.837,324.331 958.456,328.431C951.691,332.189 944.713,335.684 936.087,336.163C921.231,336.989 908.229,333.578 894.882,331.474C880.884,329.266 866.532,328.43 849.524,334.615C827.409,342.656 809.785,358.02 792.142,373.29C775.063,388.073 757.967,402.772 736.337,409.982C722.657,414.542 709.912,412.188 697.214,408.971C683.698,405.547 670.222,401.161 655.866,401.917C619.325,403.84 600.315,422.768 569.541,440.162C564.097,443.239 558.667,446.782 552.47,448.109C551.718,448.271 549.322,448.14 547.11,448.297C544.976,448.448 542.987,448.887 541.867,449.569C540.104,450.642 539.422,452.171 539.906,454.107C542.172,463.171 547.861,468.423 554.551,474.504C567.154,485.961 584.529,496.122 602.12,497.295C614.183,498.099 626.258,496.311 638.318,494.942C649.886,493.63 661.442,492.702 672.962,495.171C681.16,496.928 688.292,501.194 695.608,505.115C703.533,509.362 711.657,513.221 721.247,513.821C732.438,514.52 744.247,511.503 755.72,509.001C766.41,506.67 776.788,504.743 785.995,507.506C793.808,509.849 800.597,514.266 808.086,517.387C821.043,522.786 840.838,527.595 859.385,528.183C872.031,528.583 884.097,526.996 893.155,522.467C905.641,516.223 914.252,505.821 922.307,495.252C929.877,485.318 936.921,475.23 946.779,468.957C956.919,462.504 969.601,460.842 980.107,454.538C997.527,444.086 1015.92,414.641 1028.48,395.048ZM546.093,454.349C546.479,454.278 546.902,454.212 547.259,454.183C549.874,453.971 552.805,454.052 553.703,453.859C560.482,452.407 566.478,448.649 572.435,445.282C602.339,428.379 620.667,409.658 656.175,407.79C669.93,407.066 682.82,411.391 695.77,414.672C709.539,418.16 723.363,420.505 738.196,415.561C760.567,408.104 778.327,393.025 795.991,377.736C813.091,362.936 830.099,347.936 851.534,340.141C867.443,334.356 880.873,335.218 893.966,337.283C907.712,339.45 921.112,342.885 936.413,342.035C945.997,341.503 953.795,337.748 961.312,333.572C968.213,329.739 974.853,325.529 982.698,323.718C994.534,320.987 1004.36,322.665 1011.89,327.439C1029.71,338.749 1034.45,366.716 1023.4,392.065L1023.4,392.07C1011.28,410.984 993.838,439.441 977.081,449.496C966.532,455.826 953.805,457.516 943.622,463.995C933.199,470.628 925.634,481.184 917.63,491.687C910.11,501.554 902.181,511.379 890.525,517.207C882.228,521.355 871.154,522.672 859.571,522.305C841.776,521.741 822.78,517.139 810.348,511.959C802.671,508.76 795.693,504.275 787.685,501.873C777.587,498.843 766.192,500.698 754.467,503.255C743.528,505.641 732.284,508.618 721.614,507.951C712.91,507.407 705.578,503.786 698.386,499.932C690.584,495.751 682.937,491.294 674.194,489.421C662.044,486.817 649.856,487.715 637.655,489.099C625.945,490.428 614.224,492.208 602.512,491.427C586.211,490.341 570.185,480.769 558.507,470.153C553.145,465.278 548.328,461.164 546.093,454.349Z"/>
        <path d="M890.641,541.571C889.906,541.759 889.306,541.95 888.543,541.954C885.247,541.973 882.834,541.347 879.687,540.409C875.117,539.046 868.228,536.246 862.982,532.378C859.892,530.099 857.329,527.499 856.559,524.493C856.157,522.921 854.554,521.972 852.982,522.374C851.41,522.776 850.46,524.379 850.862,525.952C851.929,530.121 855.206,533.949 859.492,537.11C865.31,541.401 872.938,544.533 878.006,546.044C881.758,547.163 884.645,547.857 888.576,547.835C889.852,547.828 890.868,547.583 892.099,547.268C893.672,546.866 894.621,545.263 894.219,543.691C893.817,542.118 892.213,541.169 890.641,541.571Z"/>
        <path d="M891.688,541.489C891.862,557.931 905.167,570.17 918.085,576.946C924.85,580.495 934.365,584.907 947.728,586.89C949.334,587.128 950.83,586.018 951.068,584.413C951.307,582.808 950.197,581.311 948.591,581.073C936.068,579.215 927.156,575.064 920.817,571.739C909.653,565.883 897.719,555.636 897.568,541.426C897.551,539.804 896.219,538.5 894.596,538.518C892.974,538.535 891.67,539.866 891.688,541.489Z"/>
        <path d="M969.117,693.299C975.407,689.937 978.694,684.659 982.574,679.137C983.507,677.809 983.186,675.974 981.858,675.041C980.53,674.108 978.695,674.429 977.762,675.757C974.421,680.512 971.761,685.217 966.345,688.112C964.914,688.877 964.373,690.66 965.138,692.092C965.903,693.523 967.686,694.064 969.117,693.299Z"/>
        <path d="M1000.86,616.756C1000.82,617.568 1000.89,618.333 1000.95,619.09C1001,619.689 1001.09,620.282 1000.89,620.933C1000.43,622.488 1001.32,624.128 1002.87,624.593C1004.42,625.058 1006.06,624.174 1006.53,622.619C1007.12,620.631 1006.65,618.961 1006.73,617.005C1006.8,615.384 1005.54,614.012 1003.92,613.943C1002.3,613.874 1000.93,615.135 1000.86,616.756Z"/>
        <path d="M795.972,792.53C795.199,792.826 794.54,793.419 794.184,794.237C793.089,796.745 794.665,798.016 795.181,798.392C795.833,798.867 796.84,799.308 798.214,798.816C798.505,798.712 799.05,798.445 799.654,797.911C800.431,797.226 801.845,795.663 802.474,794.962C806.503,790.463 809.573,785.258 814.026,780.926C823.525,771.686 832.587,762.078 842.254,752.999C860.938,735.452 884.582,713.073 910.611,700.168C927.489,691.801 945.372,687.43 963.529,691.323C965.255,691.694 966.958,690.592 967.328,688.865C967.699,687.138 966.597,685.436 964.87,685.066C945.288,680.867 925.972,685.409 907.769,694.434C881.176,707.618 856.961,730.407 837.872,748.334C828.178,757.438 819.089,767.072 809.564,776.339C805.003,780.775 801.832,786.085 797.706,790.692C797.371,791.066 796.543,791.935 795.972,792.53ZM800.154,796.524L800.126,796.604L800.14,796.567L800.154,796.524ZM800.21,796.336L800.186,796.42L800.208,796.348L800.221,796.292L800.21,796.336ZM800.257,796.127L800.253,796.151L800.256,796.14L800.257,796.127Z"/>
        <path d="M946.869,584.246C948.679,590.263 954.057,594.263 958.683,597.849C973.991,609.716 982.61,610.908 998.976,618.108C1000.59,618.819 1002.48,618.084 1003.19,616.467C1003.9,614.851 1003.17,612.961 1001.55,612.25C985.753,605.299 977.383,604.247 962.604,592.791C958.971,589.975 954.419,587.128 952.997,582.402C952.488,580.71 950.702,579.75 949.011,580.259C947.32,580.768 946.36,582.554 946.869,584.246Z"/>
        <path d="M969.034,688.493C969.224,687.305 969.99,682.537 970.138,681.975C971.715,675.995 974.62,670.449 976.701,664.624C981.195,652.045 986.85,639.237 994.72,628.513C996.024,626.737 998.001,623.879 1000.1,621.601C1001.18,620.429 1002.24,619.377 1003.27,618.975C1004.92,618.335 1005.74,616.479 1005.1,614.833C1004.46,613.187 1002.6,612.37 1000.96,613.01C999.2,613.693 997.234,615.271 995.398,617.262C993.125,619.726 990.971,622.805 989.561,624.727C981.33,635.942 975.374,649.316 970.674,662.47C968.532,668.467 965.573,674.188 963.95,680.344C963.771,681.019 962.916,685.377 962.67,687.614C962.567,688.55 962.59,689.267 962.647,689.607C962.884,691.013 963.717,691.649 964.236,691.953C965.204,692.52 966.396,692.751 967.746,691.804C968.836,691.04 969.304,689.717 969.034,688.493ZM966.73,686.092C965.948,685.836 965.054,685.876 964.073,686.563C964.876,686 965.85,685.858 966.73,686.092Z"/>
        <path d="M796.549,570.461C787.289,576.977 780.348,587.359 771.513,594.551C747.463,614.13 716.204,636.256 685.246,642.015C683.51,642.338 682.362,644.01 682.685,645.746C683.008,647.483 684.68,648.63 686.417,648.307C718.367,642.364 750.733,619.72 775.554,599.514C784.276,592.414 791.091,582.127 800.232,575.696C801.676,574.679 802.024,572.681 801.007,571.237C799.991,569.793 797.993,569.445 796.549,570.461Z"/>
        <g transform="matrix(0.962232,0,0,0.99953,25.861,0.303981)">
            <path d="M797.193,796.022C796.81,795.909 796.421,795.779 796.095,795.645C792.784,794.282 788.906,791.872 787.664,790.842C774.946,780.3 762.164,771.135 751.356,758.382C731.846,735.362 712.799,706.265 700.207,678.728C695.19,667.757 693.452,655.551 687.682,644.772C686.841,643.201 684.834,642.583 683.202,643.393C681.571,644.202 680.929,646.134 681.77,647.705C687.478,658.367 689.157,670.456 694.12,681.308C706.943,709.351 726.334,738.987 746.202,762.43C757.265,775.482 770.308,784.904 783.324,795.694C784.793,796.912 789.293,799.768 793.234,801.429C795.211,802.263 797.084,802.783 798.483,802.853C800.653,802.96 802.179,802.158 803.077,800.93C803.8,799.941 804.321,798.355 803.595,795.96C803.08,794.264 801.232,793.289 799.47,793.785C798.318,794.109 797.486,794.982 797.193,796.022Z"/>
        </g>
        <path d="M781.934,586.018C781.911,587.06 782.398,588.093 783.321,588.727C784.757,589.712 785.863,589.46 786.349,589.325C787.148,589.102 787.752,588.646 788.188,587.993C788.503,587.523 788.787,586.863 788.74,585.961C788.721,585.596 788.589,584.916 788.19,584.091C787.675,583.026 786.357,581.033 786.012,580.011C784.485,575.492 783.004,570.959 781.041,566.668C776.382,556.479 773.327,540.012 772.857,528.84C772.691,524.883 772.688,520.767 772.172,516.861C772.066,516.06 771.541,513.133 771.31,511.859C771.781,510.619 771.444,509.164 770.369,508.266C769.572,507.601 768.814,507.467 768.248,507.454C767.378,507.434 766.614,507.716 765.961,508.307C765.536,508.69 764.727,509.766 764.817,511.557C764.897,513.122 765.683,516.609 765.827,517.699C766.319,521.419 766.304,525.34 766.463,529.108C766.962,540.991 770.266,558.493 775.221,569.33C777.092,573.422 778.492,577.75 779.948,582.059C780.234,582.904 781.278,584.838 781.934,586.018ZM786.721,583.312L786.762,583.335L786.742,583.323L786.721,583.312ZM767.782,513.877C767.242,513.786 766.718,513.555 766.268,513.18C766.8,513.624 767.312,513.821 767.782,513.877Z"/>
        <path d="M770.315,513.46C772.092,513.368 776.674,513.136 777.689,513.117C781.306,513.05 791.885,510.939 795.993,511.645C797.734,511.944 799.39,510.773 799.689,509.032C799.988,507.292 798.817,505.636 797.077,505.337C792.702,504.585 781.421,506.646 777.569,506.719C775.959,506.749 769.272,506.769 767.311,507.522C765.812,508.098 765.171,509.134 764.927,509.928C764.63,510.896 764.643,512.025 765.593,513.193C766.707,514.564 768.724,514.772 770.094,513.658C770.172,513.595 770.245,513.529 770.315,513.46ZM770.915,509.698L770.941,509.751L770.91,509.685L770.838,509.56L770.915,509.698ZM770.768,509.445L770.837,509.557L770.81,509.51L770.768,509.445ZM770.673,509.307L770.731,509.39L770.694,509.333L770.673,509.307Z"/>
        <path d="M682.731,648.319C685.47,645.381 675.516,651.889 671.747,653.281C662.293,656.774 652.261,659.194 642.307,660.7C619.855,664.098 612.802,664.515 590.1,664.815C583.74,664.899 577.371,664.893 571.021,664.516C568.695,664.378 566.408,662.539 564.162,663.163C557.865,664.912 562.85,676.234 563.323,682.752C565.294,709.949 567.345,743.986 577.914,770.27C578.345,771.342 579.969,771.391 581.097,771.638C587.738,773.092 590.641,771.719 598.002,772.91C616.147,775.848 634.13,779.721 652.243,782.85C652.277,782.856 671.771,784.843 672.331,786.159C675.297,793.122 672.836,801.293 673.466,808.834C675.385,831.833 676.319,854.955 677.013,878.54C677.41,891.995 676.532,898.574 682.731,905.584C688.096,911.652 698.948,905.048 707.031,905.584C716.261,906.197 725.412,907.704 734.568,909.026C757.273,912.305 757.067,912.259 779.68,915.154C781.53,915.391 783.262,916.701 785.114,916.482C786.14,916.36 787.181,915.285 787.271,914.256C787.924,906.785 787.362,899.257 787.276,891.758C786.921,860.808 787.019,827.697 796.865,797.975C796.865,797.975 744.097,756.054 725.075,731.112C706.278,706.464 682.731,648.319 682.731,648.319Z"/>
        <path d="M670.008,788.32C670.945,791.116 670.968,794.113 670.837,797.153C670.666,801.133 670.211,805.187 670.535,809.079C672.451,832.025 673.382,855.095 674.074,878.626C674.499,893.043 673.886,900.021 680.528,907.532C683.323,910.693 687.193,911.444 691.587,910.975C696.488,910.452 702.139,908.206 706.836,908.518C715.991,909.126 725.067,910.625 734.147,911.936C756.877,915.219 756.67,915.172 779.307,918.071C780.236,918.19 781.117,918.676 782.019,918.972C783.15,919.342 784.293,919.54 785.46,919.402C786.595,919.267 787.771,918.668 788.656,917.755C789.539,916.843 790.101,915.649 790.2,914.512C790.862,906.945 790.303,899.32 790.216,891.724C789.865,861.093 789.912,828.316 799.656,798.899C800.044,797.728 799.66,796.44 798.694,795.672C798.694,795.672 746.295,754.087 727.413,729.329C710.414,707.039 689.523,657.108 685.979,648.493L685.978,648.494C686.364,647.141 685.754,646.116 685.518,645.809C685.06,645.214 684.158,644.406 682.53,644.671C682.013,644.755 680.755,645.259 679.195,646.094C676.629,647.467 672.753,649.775 670.728,650.523C661.46,653.947 651.625,656.316 641.867,657.793C619.588,661.165 612.589,661.577 590.062,661.875C583.773,661.958 577.474,661.954 571.196,661.581C570.018,661.511 568.872,660.857 567.718,660.512C566.261,660.078 564.811,659.931 563.375,660.33C559.477,661.413 557.946,664.62 558.071,669.02C558.193,673.323 560.104,679.018 560.39,682.965C562.382,710.44 564.509,744.814 575.186,771.367C575.661,772.548 576.57,773.377 577.799,773.871C578.613,774.199 579.645,774.33 580.468,774.51C587.172,775.978 590.102,774.61 597.532,775.813C615.667,778.749 633.639,782.62 651.742,785.747C651.771,785.752 665.614,787.113 670.008,788.32ZM680.985,651.799C685.647,663.016 706.058,711.025 722.737,732.895C739.929,755.437 784.461,791.763 793.443,798.999C784.121,828.521 783.985,861.199 784.336,891.792C784.419,899.046 784.964,906.328 784.378,913.558C783.877,913.495 783.399,913.226 782.899,913.037C781.964,912.683 781.017,912.361 780.053,912.238C757.463,909.345 757.67,909.392 734.988,906.116C725.758,904.783 716.531,903.268 707.225,902.65C702.961,902.367 697.956,903.898 693.319,904.769C691.782,905.057 690.294,905.263 688.91,905.22C687.373,905.172 685.976,904.815 684.933,903.636C681.685,899.963 680.717,896.404 680.343,891.624C680.061,888.014 680.109,883.778 679.953,878.453C679.257,854.815 678.32,831.64 676.396,808.59C676.091,804.94 676.552,801.138 676.712,797.406C676.897,793.104 676.691,788.891 675.037,785.007C674.848,784.564 674.503,784.024 673.826,783.565C673.348,783.24 672.242,782.792 670.673,782.441C665.352,781.248 652.771,779.957 652.743,779.952C634.62,776.822 616.627,772.947 598.471,770.008C591.181,768.828 588.305,770.206 581.727,768.765C581.387,768.691 580.771,768.568 580.372,768.49C570.147,742.571 568.19,709.225 566.255,682.54C565.974,678.664 564.069,673.078 563.949,668.853C563.932,668.242 563.956,667.669 564.061,667.154C564.171,666.614 564.381,666.154 564.949,665.996C565.247,665.913 565.541,666.012 565.843,666.093C566.309,666.217 566.776,666.394 567.246,666.564C568.435,666.996 569.642,667.38 570.847,667.451C577.267,667.833 583.708,667.84 590.139,667.755C613.016,667.453 620.122,667.031 642.747,663.608C652.897,662.071 663.125,659.601 672.766,656.04C674.717,655.319 678.305,653.257 680.985,651.799Z"/>
        <path d="M686.731,909.204C690.011,937.503 691.603,977.411 693.651,1005.84C698.123,1067.88 706.532,1125.09 710.253,1187.13C710.887,1197.71 706.912,1229.83 707.073,1252.11C707.149,1262.5 708.3,1270.88 710.768,1274.66C711.735,1276.14 713.72,1276.55 715.198,1275.59C716.676,1274.62 717.092,1272.64 716.125,1271.16C715.392,1270.04 714.907,1268.34 714.511,1266.24C713.803,1262.49 713.513,1257.59 713.473,1252.06C713.311,1229.66 717.279,1197.38 716.641,1186.75C712.919,1124.68 704.508,1067.45 700.035,1005.38C697.98,976.87 696.378,936.847 693.089,908.467C692.885,906.713 691.296,905.454 689.541,905.657C687.787,905.86 686.528,907.45 686.731,909.204Z"/>
        <path d="M762.352,1271.44C761.767,1265.48 759.157,1238.85 758.868,1235.23C756.634,1207.26 756.84,1179.12 758.348,1151.08C761.663,1089.42 768.159,1027.46 771.228,965.835C771.865,953.045 775.045,930.05 776.546,917.277C776.752,915.523 775.495,913.932 773.741,913.726C771.987,913.52 770.396,914.777 770.189,916.531C768.676,929.415 765.478,952.614 764.836,965.516C761.767,1027.13 755.272,1089.08 751.957,1150.73C750.434,1179.06 750.231,1207.49 752.488,1235.74C752.825,1239.96 755.923,1273.05 756.328,1274.42C757.126,1277.14 759.561,1276.81 760.122,1276.68C760.784,1276.54 761.893,1276.16 762.44,1274.63C762.486,1274.5 762.673,1273.86 762.625,1272.61C762.608,1272.19 762.513,1271.8 762.352,1271.44Z"/>
        <path d="M563.384,670.64C560.266,670.451 557.046,671.383 553.841,672.309C551.465,672.996 549.103,673.723 546.794,673.342C541.437,672.458 536.093,671.762 530.746,670.696C506.85,665.93 482.558,665.404 459.143,657.555C403.477,638.895 349.215,615.767 294.034,596.16C284.065,592.619 271.1,583.997 258.401,578.004C249.307,573.712 240.315,570.783 232.532,571.418C230.772,571.562 229.46,573.107 229.603,574.868C229.747,576.628 231.293,577.94 233.053,577.797C239.874,577.24 247.698,580.03 255.67,583.792C268.57,589.88 281.764,598.593 291.891,602.191C347.108,621.81 401.407,644.951 457.109,663.623C480.784,671.559 505.333,672.154 529.494,676.972C534.911,678.053 540.325,678.761 545.752,679.657C548.974,680.188 552.302,679.416 555.618,678.458C558.105,677.739 560.578,676.882 562.997,677.028C564.76,677.135 566.278,675.79 566.385,674.028C566.491,672.265 565.147,670.747 563.384,670.64Z"/>
        <path d="M215.533,620.272C233.36,623.524 300.957,663.634 319.582,674.529C346.315,690.166 438.701,729.471 506.682,750.415C536.226,759.516 561.244,765.094 574.504,764.012C576.265,763.868 577.577,762.322 577.433,760.562C577.29,758.802 575.744,757.489 573.984,757.633C561.185,758.678 537.081,753.083 508.567,744.298C441.08,723.507 349.351,684.528 322.814,669.005C303.838,657.905 234.843,617.289 216.681,613.976C214.944,613.659 213.276,614.813 212.959,616.55C212.642,618.287 213.795,619.955 215.533,620.272Z"/>
        <path d="M713.259,1277.73C715.623,1278.4 722.567,1281.52 727.885,1283.34C730.652,1284.29 733.068,1284.87 734.489,1284.87C736.747,1284.87 739.625,1284.19 742.609,1283.27C746.376,1282.1 750.353,1280.54 753.158,1280.18C754.375,1280.03 758.71,1278.7 760.628,1277.95C761.605,1277.57 762.216,1277.15 762.404,1276.98C763.803,1275.73 763.592,1274.36 763.34,1273.58C763.143,1272.96 762.536,1271.33 760.199,1271.33C759.473,1271.33 758.803,1271.57 758.266,1271.98C757.063,1272.4 753.254,1273.72 752.364,1273.83C749.749,1274.16 746.205,1275.37 742.66,1276.53C739.686,1277.5 736.719,1278.47 734.489,1278.47C733.285,1278.47 731.125,1277.72 728.684,1276.84C724.356,1275.27 719.346,1273.11 716.544,1272.09C715.202,1271.6 714.193,1271.35 713.71,1271.32C712.869,1271.26 712.271,1271.47 711.887,1271.66C710.302,1272.44 709.649,1274.36 710.429,1275.94C710.978,1277.06 712.094,1277.71 713.259,1277.73ZM759.119,1277.54C759.366,1277.64 759.666,1277.71 760.027,1277.73C759.71,1277.71 759.405,1277.64 759.119,1277.54Z"/>
        <path d="M707.449,1270.93C711.853,1290.66 705.67,1316.31 702.287,1338.73C699.888,1354.63 698.944,1368.99 703.207,1378.93C705.686,1384.72 712.826,1389.77 722.128,1393.71C741.819,1402.07 771.22,1406.29 777.066,1408.01C778.76,1408.51 780.541,1407.54 781.04,1405.85C781.539,1404.15 780.569,1402.37 778.875,1401.87C773.104,1400.17 744.066,1396.07 724.629,1387.82C717.16,1384.65 711.08,1381.06 709.089,1376.41C705.196,1367.33 706.424,1354.2 708.615,1339.69C712.115,1316.49 718.25,1289.94 713.695,1269.54C713.31,1267.81 711.598,1266.73 709.875,1267.11C708.151,1267.49 707.064,1269.21 707.449,1270.93Z"/>
        <path d="M759.683,1278.69C759.789,1279.12 760.079,1280.37 760.178,1281.35C760.753,1287.07 760.232,1296.13 760.495,1298.23C762.417,1313.61 769.022,1333.46 779.064,1345.51C786.467,1354.39 796.827,1355.11 807.418,1355.27C816.238,1355.39 825.244,1355.01 831.823,1361.59C838.498,1368.26 840.922,1382.69 837.727,1393.83C835.736,1400.78 831.466,1406.52 824.138,1407.74C814.589,1409.33 786.073,1403.22 776.522,1401.41C774.787,1401.08 773.111,1402.22 772.782,1403.96C772.454,1405.69 773.596,1407.37 775.331,1407.7C785.325,1409.59 815.198,1415.72 825.19,1414.06C835.089,1412.4 841.19,1404.98 843.879,1395.6C847.706,1382.25 844.344,1365.06 836.349,1357.06C828.526,1349.24 818.001,1349.02 807.512,1348.87C798.794,1348.74 790.075,1348.72 783.98,1341.41C774.65,1330.21 768.631,1311.72 766.846,1297.44C766.542,1295.01 767.25,1283.43 766.179,1278.18C765.65,1275.59 764.397,1274.05 763.332,1273.51C761.761,1272.7 759.831,1273.32 759.024,1274.89C758.358,1276.19 758.667,1277.74 759.683,1278.69Z"/>
        <path d="M729.345,1392.78C728.945,1392.73 728.54,1392.76 728.15,1392.86C714.781,1396.4 707.851,1405.37 706.131,1414.48C704.529,1422.97 707.463,1431.66 714.052,1436.84C718.404,1440.25 724.377,1442.18 731.791,1441.35C744.677,1439.92 751.644,1432.27 753.532,1423.57C756.326,1410.68 747.752,1394.95 729.345,1392.78ZM729.199,1399.21C742.75,1401.12 749.365,1412.58 747.277,1422.21C745.891,1428.6 740.548,1433.94 731.085,1434.99C725.631,1435.6 721.204,1434.31 718.002,1431.8C713.26,1428.08 711.267,1421.78 712.42,1415.67C713.734,1408.7 719.161,1402.07 729.196,1399.21L729.199,1399.21Z"/>
        <path d="M774.871,1402.3C774.219,1401.93 773.439,1401.8 772.655,1401.97C762.135,1404.24 755.771,1410.02 752.952,1416.4C748.499,1426.47 752.662,1438.32 764.019,1442.65C772.283,1445.8 779.657,1445.44 784.894,1442.28C790.277,1439.04 793.708,1432.79 793.405,1423.58C793.217,1417.86 791.791,1413.91 789.74,1410.96C786.769,1406.68 782.359,1404.49 777.843,1402.24C776.867,1401.75 775.76,1401.81 774.871,1402.3ZM774.872,1407.9C774.607,1408.05 774.317,1408.16 774.007,1408.23C765.985,1409.96 760.956,1414.12 758.806,1418.98C755.804,1425.78 758.641,1433.75 766.297,1436.67C772.35,1438.98 777.754,1439.11 781.59,1436.8C785.282,1434.57 787.216,1430.11 787.008,1423.79C786.872,1419.65 785.97,1416.75 784.483,1414.61C782.148,1411.25 778.531,1409.74 774.98,1407.96L774.872,1407.9Z"/>
        <path d="M805.964,1408.69C805.765,1408.69 805.567,1408.71 805.372,1408.75C799.136,1409.92 794.594,1415.73 793.22,1422.43C792.004,1428.36 793.296,1434.8 797.507,1438.87C800.342,1441.62 804.52,1443.4 810.341,1443.09C817.795,1442.7 822.632,1439.66 825.363,1435.72C831.845,1426.37 826.403,1411.12 813.335,1408.74C812.136,1408.52 807.592,1408.69 805.964,1408.69ZM806.305,1415.09C807.888,1415.06 811.253,1414.87 812.191,1415.04C820.501,1416.55 824.224,1426.12 820.103,1432.07C818.29,1434.69 814.953,1436.44 810.005,1436.7C806.383,1436.89 803.721,1435.98 801.958,1434.28C799.27,1431.67 798.713,1427.5 799.49,1423.71C800.311,1419.7 802.637,1415.92 806.306,1415.09L806.305,1415.09Z"/>
        <g transform="matrix(0.999345,-0.0361898,0.0361898,0.999345,-41.8071,7.77327)">
            <path d="M144.713,1067.59C143.165,1066.06 142.17,1129.77 142.17,1137.79C142.17,1173.37 141.539,1180.15 142.17,1179.42C152.012,1168 175.864,1159.61 185.434,1153.99C224.942,1130.77 317.661,1107.17 317.304,1107.09C279.45,1098.43 254.002,1092.6 216.124,1083.93C182.353,1076.2 138.5,1067.59 144.713,1067.59Z" style="fill:rgb(238,60,91);"/>
            <path d="M143.88,1064.71C144.288,1064.6 144.698,1064.59 145.102,1064.65C145.632,1064.73 146.207,1064.95 146.742,1065.46C153.51,1066.94 189.61,1074.85 216.78,1081.07C254.658,1089.74 280.106,1095.56 317.96,1104.23C318.99,1104.46 319.486,1105.06 319.765,1105.48C320.135,1106.05 320.292,1106.67 320.235,1107.34C320.216,1107.56 320.189,1109.16 318.305,1109.86C318.157,1109.91 317.196,1110.19 315.533,1110.64C300.503,1114.7 222.279,1135.74 186.924,1156.52C181.165,1159.91 170.25,1164.3 160.306,1169.74C154.031,1173.17 148.135,1177 144.398,1181.34C143.472,1182.41 142.421,1182.49 141.673,1182.38C140.924,1182.28 139.876,1181.94 139.291,1180.5C139.171,1180.2 138.977,1179.39 138.955,1177.84C138.903,1174.13 139.23,1163.43 139.23,1137.79C139.23,1130.59 140.043,1078.72 141.324,1068.79C140.978,1067.88 141.227,1066.98 141.412,1066.54C141.552,1066.2 142.154,1065.01 143.88,1064.71ZM146.94,1071.63C158.114,1074.42 189.692,1080.9 215.468,1086.8L305.249,1107.35C279.272,1114.53 215.13,1133.12 183.944,1151.45C178.22,1154.82 167.368,1159.17 157.484,1164.58C152.887,1167.09 148.501,1169.84 144.861,1172.8C144.937,1166.91 145.111,1156.24 145.111,1137.79C145.111,1131.07 145.799,1085.02 146.94,1071.63Z" style="fill:rgb(238,60,91);"/>
        </g>
        <g transform="matrix(0.999993,-0.00372392,0.00372392,0.999993,-507.028,228.837)">
            <path d="M932.264,1036.6C941.392,1060.88 953.115,1113.93 939.564,1171.06C938.012,1177.6 1019.45,1126.71 1040.59,1114.97C1064.28,1101.82 1141.62,1065.45 1140.72,1065.22C1121.34,1060.19 1060.44,1059.79 1040.59,1056.79C1016,1053.06 932.845,1036.75 932.264,1036.6Z" style="fill:rgb(238,60,91);"/>
            <path d="M932.98,1033.75C931.919,1033.48 930.798,1033.83 930.07,1034.64C929.342,1035.46 929.127,1036.61 929.512,1037.63C938.523,1061.61 950.081,1113.98 936.703,1170.38C936.351,1171.86 936.855,1172.89 937.603,1173.61C938.206,1174.19 939.783,1174.94 942.27,1174.22C954.592,1170.61 1022.88,1128.16 1042.01,1117.54C1063.32,1105.71 1128.04,1075.11 1140.12,1068.93C1141.49,1068.23 1142.3,1067.75 1142.5,1067.59C1142.85,1067.31 1143.04,1067.06 1143.15,1066.89C1144.03,1065.62 1143.7,1064.54 1143.32,1063.84C1143.01,1063.25 1142.48,1062.64 1141.46,1062.37C1122.02,1057.33 1060.94,1056.89 1041.03,1053.88C1016.5,1050.16 933.559,1033.89 932.98,1033.75ZM1131.78,1066.51C1111.82,1076.3 1058.19,1101.83 1039.16,1112.4C1022.27,1121.78 966.861,1156.18 946.162,1166.22C945.143,1166.71 944.213,1167.15 943.383,1167.51C954.794,1114.87 945.409,1066.17 936.765,1040.49L936.765,1040.48C955.467,1044.15 1019.13,1056.51 1040.15,1059.69C1057.66,1062.35 1107.22,1062.93 1131.78,1066.51Z" style="fill:rgb(238,60,91);"/>
        </g>
        <path d="M158.779,552.945C158.014,557.108 160.453,561.292 164.592,562.604C169.08,564.027 173.879,561.539 175.302,557.05C175.922,555.095 175.762,556.082 175.762,554.087C175.762,549.379 171.94,545.556 167.232,545.556C162.911,545.556 159.336,548.776 158.779,552.945Z"/>
        <path d="M133.387,560.341C133.086,558.571 132.226,556.883 130.818,555.561C127.384,552.34 121.981,552.512 118.76,555.946C119.165,555.513 119.727,555.083 119.727,555.083C119.727,555.083 117.313,557.811 117.122,558.201C116.009,560.467 116.088,562.487 116.542,564.177C116.958,565.723 117.767,567.161 119.166,568.384C119.619,568.779 125.345,570.476 125.345,570.476C125.345,570.476 125.169,570.486 125.011,570.486C129.719,570.486 133.542,566.664 133.542,561.955C133.542,561.404 133.489,560.864 133.387,560.341Z"/>
        <path d="M110.387,618.597C110.4,618.759 110.667,621.981 110.934,622.66C111.593,624.33 112.61,625.547 113.925,626.483C114.776,627.09 119.804,628.022 119.804,628.022C119.804,628.022 119.394,628.06 119.062,628.06C123.77,628.06 127.592,624.237 127.592,619.529C127.592,616.568 126.081,613.958 123.787,612.429C122.532,611.541 121.022,610.983 119.375,610.886C114.778,610.617 110.813,614.049 110.387,618.597ZM110.387,618.597L110.386,618.591C110.386,618.591 110.369,618.774 110.361,618.904L110.387,618.597Z"/>
        <path d="M83.383,611.817C81.849,614.029 81.384,616.929 82.389,619.642C84.024,624.058 88.936,626.314 93.351,624.679C95.731,623.797 96.322,622.917 96.837,622.348C97.499,621.616 98.707,619.019 98.707,619.019C98.707,619.019 98.577,619.504 98.289,620.082C100.394,615.87 98.685,610.742 94.474,608.636C90.482,606.64 85.665,608.073 83.383,611.817ZM84.689,610.333C85.465,609.632 86.386,609.065 87.425,608.68C85.876,609.254 85.149,609.845 84.689,610.333Z"/>
        <path d="M118.604,643.437C117.168,644.963 116.288,647.017 116.288,649.275C116.288,652.65 117.699,654.177 117.852,654.393C118.202,654.889 128.869,662.116 132.854,652.357C134.633,647.998 132.539,643.014 128.18,641.235C124.754,639.836 120.942,640.83 118.604,643.437Z"/>
        <path d="M149.783,602.445C150.133,602.272 150.473,602.071 150.803,601.843C154.679,599.172 155.658,593.855 152.986,589.978C151.007,587.108 148.835,586.607 147.436,586.345C145.506,585.983 139.439,589.064 139.439,589.064C139.439,589.064 140.034,588.45 140.622,588.058C136.704,590.67 135.644,595.971 138.256,599.888C140.801,603.706 145.901,604.81 149.783,602.445ZM139.21,600.033C140.436,601.663 141.73,602.385 142.836,602.756C141.443,602.21 140.18,601.292 139.21,600.033Z"/>
        <path d="M107.99,581.852C105.072,583.206 103.046,586.164 103.046,589.591C103.046,594.299 106.869,598.121 111.577,598.121C114.668,598.121 116.711,597.098 118.694,594.881C121.834,591.372 121.534,585.975 118.025,582.836C115.184,580.294 111.106,580.007 107.99,581.852ZM107.829,581.952C107.174,582.332 106.57,582.845 105.979,583.505C106.533,582.886 107.156,582.368 107.829,581.952ZM108.101,581.802C109.162,581.324 110.339,581.06 111.577,581.06C110.21,581.06 109.094,581.289 108.101,581.802Z"/>
        <path d="M142.414,534.427C137.734,534.458 133.944,538.268 133.944,542.956C133.944,547.664 137.767,551.487 142.475,551.487C143.565,551.487 143.294,551.487 144.209,551.393C148.893,550.915 152.308,546.725 151.83,542.041C151.352,537.357 147.161,533.942 142.477,534.42L142.414,534.427ZM142.207,534.442C142.176,534.448 142.146,534.454 142.116,534.459L142.363,534.433L142.207,534.442Z"/>
        <path d="M186.705,595.975C185.199,594.85 183.313,594.216 181.291,594.293C176.586,594.473 172.913,598.439 173.093,603.144C173.227,606.671 174.658,608.166 175.559,609.099C176.634,610.213 178.22,611.747 182.201,611.747C186.909,611.747 190.731,607.925 190.731,603.216C190.731,600.162 189.122,597.48 186.705,595.975ZM189.324,599.16C189.746,600.045 190.019,601.015 190.112,602.04C190.012,600.8 189.704,599.874 189.324,599.16Z"/>
        <path d="M200.273,574.392C200.09,574.596 200.138,574.558 199.966,574.731C196.636,578.06 196.636,583.466 199.966,586.795C203.295,590.124 208.701,590.124 212.03,586.795C212.541,586.284 212.411,586.41 212.955,585.806C216.105,582.306 215.821,576.908 212.321,573.758C208.821,570.609 203.423,570.893 200.273,574.392Z"/>
        <path d="M184.817,545.188C184.796,545.212 184.776,545.236 184.755,545.259C181.684,548.828 182.087,554.219 185.655,557.29C189.224,560.361 194.615,559.958 197.686,556.39C197.707,556.366 197.727,556.342 197.747,556.318C200.819,552.75 200.416,547.359 196.847,544.288C193.279,541.216 187.888,541.62 184.817,545.188Z"/>
        <path d="M705.195,1374.32C705.192,1374.38 705.189,1374.44 705.187,1374.5C704.98,1379.2 708.632,1383.19 713.335,1383.39C718.039,1383.6 722.025,1379.95 722.232,1375.24C722.234,1375.18 722.237,1375.13 722.24,1375.07C722.446,1370.36 718.795,1366.38 714.091,1366.17C709.387,1365.96 705.401,1369.62 705.195,1374.32Z"/>
        <path d="M718.337,1353.02C718.373,1353.04 718.408,1353.06 718.444,1353.08C722.493,1355.48 727.731,1354.15 730.133,1350.1C732.535,1346.05 731.198,1340.81 727.149,1338.41C727.113,1338.39 727.077,1338.37 727.042,1338.34C722.992,1335.94 717.754,1337.28 715.352,1341.33C712.95,1345.38 714.288,1350.62 718.337,1353.02Z"/>
        <path d="M724.427,1314.3C725.707,1312.54 726.321,1310.3 725.965,1307.98C725.25,1303.33 720.892,1300.13 716.238,1300.84C712.686,1301.39 711.424,1303.01 710.694,1303.88C709.1,1305.76 708.891,1311.49 708.891,1311.49C708.891,1311.49 708.796,1311.03 708.763,1310.75C709.331,1315.42 713.587,1318.75 718.261,1318.18C720.895,1317.87 723.103,1316.37 724.427,1314.3ZM722.272,1316.37C721.386,1316.96 720.375,1317.4 719.274,1317.62C720.651,1317.36 721.595,1316.88 722.272,1316.37Z"/>
        <path d="M737.274,1280.94C732.877,1281.75 729.811,1285.86 730.358,1290.36C730.926,1295.03 735.182,1298.37 739.856,1297.8C739.25,1297.87 738.787,1297.84 738.787,1297.84C738.787,1297.84 741.128,1297.66 741.903,1297.39C742.567,1297.17 743.455,1297 745.101,1295.46C748.535,1292.24 748.708,1286.83 745.486,1283.4C743.316,1281.09 740.156,1280.25 737.274,1280.94ZM735.817,1281.43C735.318,1281.61 734.678,1281.92 733.786,1282.7C734.414,1282.17 735.098,1281.75 735.817,1281.43Z"/>
        <path d="M741.39,1310.18C738.826,1311.92 737.301,1315 737.7,1318.28C738.268,1322.95 742.524,1326.29 747.198,1325.72C747.086,1325.73 746.945,1325.74 746.945,1325.74C746.945,1325.74 750.834,1324.67 751.756,1323.96C752.541,1323.36 754.521,1320.32 754.521,1320.32C754.521,1320.32 754.453,1320.48 754.391,1320.6C756.477,1316.38 754.743,1311.26 750.522,1309.18C747.448,1307.66 743.897,1308.16 741.39,1310.18Z"/>
        <path d="M761.119,1336.71C759.039,1338.5 757.861,1341.27 758.217,1344.2C758.786,1348.87 763.042,1352.21 767.716,1351.64C767.567,1351.65 767.376,1351.67 767.376,1351.67C767.376,1351.67 772.019,1350.19 772.933,1349.32C773.807,1348.5 775.57,1344.1 775.57,1344.1C775.57,1344.1 775.541,1344.3 775.51,1344.46C776.462,1339.85 773.491,1335.33 768.88,1334.38C765.962,1333.77 763.081,1334.74 761.119,1336.71Z"/>
        <path d="M754.229,1373.75C756.297,1371.6 757.173,1368.42 756.247,1365.37C754.881,1360.86 750.115,1358.31 745.609,1359.68C744.491,1360.02 742.741,1361.08 741.99,1361.82C740.466,1363.31 739.88,1364.92 739.627,1366.04C738.893,1369.27 739.794,1371.97 742.097,1374.14C742.939,1374.94 744.849,1376.91 749.021,1376.41C751.096,1376.15 752.907,1375.17 754.229,1373.75ZM756.214,1365.66L756.24,1365.77L756.231,1365.73L756.214,1365.66ZM754.591,1362.54C755.318,1363.42 755.873,1364.46 756.197,1365.61C755.909,1364.49 755.385,1363.47 754.591,1362.54ZM752.546,1360.73C751.617,1360.07 750.038,1359.22 747.437,1359.43C749.295,1359.3 751.067,1359.79 752.546,1360.73Z"/>
        <path d="M779.3,1403.47C779.383,1403.34 779.462,1403.2 779.537,1403.06C781.755,1398.9 780.185,1393.73 776.032,1391.51C772.912,1389.85 770.959,1390.42 770.149,1390.58C768.441,1390.92 767.006,1391.69 765.778,1392.91C765.068,1393.62 763.307,1398.03 763.307,1398.03C763.307,1398.03 763.367,1397.48 763.564,1396.93C761.983,1401.37 764.299,1406.25 768.733,1407.83C772.891,1409.32 777.444,1407.37 779.3,1403.47ZM768.402,1406.77C769.889,1407.48 771.075,1407.62 771.957,1407.57C770.76,1407.56 769.548,1407.3 768.402,1406.77Z"/>
        <path d="M774.784,1368.42C771.638,1369.98 769.663,1373.4 770.111,1377.09C770.679,1381.76 774.935,1385.1 779.609,1384.53C782.188,1384.21 782.766,1383.67 783.309,1383.36C783.943,1382.98 785.773,1381.19 785.773,1381.19C785.773,1381.19 785.698,1381.28 785.634,1381.35C788.767,1377.84 788.457,1372.44 784.942,1369.31C782.059,1366.74 777.91,1366.49 774.784,1368.42Z"/>
        <path d="M806.464,1367.96C803.74,1371.66 804.436,1376.88 808.074,1379.73C811.583,1382.48 816.578,1382.04 819.562,1378.84C820.551,1377.89 821.323,1376.68 821.767,1375.28C822.658,1372.47 822.025,1370.84 821.868,1370.28C821.09,1367.53 819.432,1366.04 817.783,1365.13C815.968,1364.13 813.718,1363.6 811.004,1364.49C810.537,1364.64 806.586,1367.86 806.464,1367.96ZM805.214,1374.06C805.006,1372.78 805.087,1371.44 805.503,1370.13C804.93,1371.94 805.034,1373.24 805.214,1374.06ZM806.464,1367.96L806.618,1367.76C806.568,1367.82 806.461,1367.97 806.461,1367.97L806.464,1367.96Z"/>
        <path d="M795.606,1394.87C794.093,1396.62 793.296,1398.98 793.598,1401.46C794.166,1406.14 798.422,1409.47 803.096,1408.9C806.494,1408.49 807.8,1407.06 808.603,1406.23C810.026,1404.74 811.026,1399.93 811.026,1399.93C811.026,1399.93 811.022,1400.4 810.995,1400.68C811.435,1395.99 807.986,1391.83 803.299,1391.39C800.194,1391.1 797.32,1392.51 795.606,1394.87ZM800.599,1392.03C799.485,1392.21 798.663,1392.54 798.034,1392.92C798.818,1392.49 799.68,1392.19 800.599,1392.03Z"/>
        <path d="M821.43,1404.28C821.074,1407.15 822.19,1410.14 824.634,1412.05C828.341,1414.96 833.707,1414.3 836.61,1410.6C838.192,1408.58 838.426,1407.29 838.588,1406.44C838.913,1404.75 837.799,1400.8 837.799,1400.8C837.799,1400.8 837.905,1401.03 837.971,1401.21C836.354,1396.79 831.451,1394.52 827.03,1396.13C823.53,1397.41 821.373,1400.75 821.43,1404.28ZM822.386,1401.29L822.383,1401.3L822.394,1401.28L822.386,1401.29ZM822.487,1401.11C822.688,1400.75 822.919,1400.41 823.178,1400.08C822.889,1400.45 822.663,1400.79 822.487,1401.11Z"/>
        <path d="M828.79,1379.15C829.593,1383.56 833.707,1386.63 838.208,1386.08C842.882,1385.51 846.215,1381.26 845.647,1376.58C845.727,1377.25 845.684,1377.76 845.684,1377.76C845.684,1377.76 845.513,1375.34 845.255,1374.57C845.01,1373.84 844.843,1372.84 843.062,1371.09C839.702,1367.8 834.297,1367.85 830.998,1371.2C828.868,1373.38 828.135,1376.4 828.79,1379.15ZM829.266,1380.59C829.48,1381.22 829.878,1382.06 831.11,1383.27C830.304,1382.48 829.689,1381.57 829.266,1380.59Z"/>
        <path d="M987.129,473.35C986.262,473.17 985.397,473.319 985.442,474.58C985.442,474.585 985.443,474.615 985.443,474.685C985.443,475.134 985.615,475.543 985.898,475.85L985.922,475.881C986.538,476.603 987.624,476.69 988.347,476.074C988.91,475.594 989.087,474.827 988.845,474.17C988.668,473.084 987.893,473.046 987.129,473.35Z" style="fill:rgb(238,60,91);"/>
        <path d="M991.61,469.473C991.447,469.724 991.348,470.021 991.336,470.342C991.301,471.291 992.043,472.089 992.992,472.124C993.644,472.148 993.911,471.958 994.028,471.888C994.33,471.711 994.551,471.472 994.705,471.155C994.78,471.002 994.866,470.153 994.866,470.153C994.866,470.153 994.87,470.2 994.87,470.237C994.87,469.288 994.1,468.517 993.15,468.517C992.475,468.517 991.891,468.907 991.61,469.473Z" style="fill:rgb(238,60,91);"/>
        <path d="M992.116,478.837C992.139,479.765 992.901,480.511 993.835,480.511C994.784,480.511 995.555,479.74 995.555,478.791C995.555,478.535 995.544,478.4 995.542,478.385C995.464,477.803 995.18,477.525 995.066,477.408C994.685,477.019 994.256,476.893 993.842,476.891C993.807,476.891 992.349,476.906 992.126,478.417C992.105,478.559 992.102,478.7 992.116,478.837ZM995.512,479.017C995.431,479.407 995.222,479.742 994.935,479.983C995.194,479.789 995.421,479.487 995.512,479.017Z" style="fill:rgb(238,60,91);"/>
        <path d="M988.864,483.155C988.741,482.327 988.026,481.69 987.163,481.69C986.213,481.69 985.443,482.46 985.443,483.41C985.443,483.354 985.451,483.297 985.451,483.297C985.451,483.297 985.452,483.869 985.496,484.025C985.547,484.211 985.565,484.476 986.088,484.925C986.808,485.543 987.895,485.46 988.513,484.74C988.902,484.288 989.014,483.69 988.864,483.155Z" style="fill:rgb(238,60,91);"/>
        <path d="M979.971,478.266C979.951,478.296 979.931,478.327 979.911,478.357C979.388,479.149 979.607,480.217 980.399,480.74C981.192,481.263 982.259,481.044 982.782,480.251C982.802,480.221 982.822,480.191 982.842,480.161C983.365,479.368 983.146,478.3 982.354,477.778C981.561,477.255 980.493,477.474 979.971,478.266Z" style="fill:rgb(238,60,91);"/>
        <path d="M980.013,469.512C979.986,469.534 979.959,469.555 979.932,469.576C979.19,470.168 979.067,471.251 979.659,471.994C980.251,472.736 981.334,472.859 982.076,472.267C982.103,472.245 982.13,472.224 982.157,472.203C982.899,471.611 983.022,470.528 982.43,469.785C981.839,469.043 980.755,468.921 980.013,469.512Z" style="fill:rgb(238,60,91);"/>
        <path d="M988.655,465.277C989.032,464.62 988.94,463.766 988.379,463.205C987.708,462.533 986.618,462.533 985.947,463.205C985.978,463.173 986.018,463.144 986.018,463.144C986.018,463.144 985.328,464.055 985.289,464.298C985.252,464.522 985.089,465.038 985.762,465.798C986.392,466.509 987.48,466.575 988.19,465.946C988.404,465.757 988.559,465.526 988.655,465.277Z" style="fill:rgb(238,60,91);"/>
        <path d="M975.762,477.371C975.811,477.39 975.862,477.407 975.914,477.421C976.829,477.673 977.777,477.136 978.029,476.22C978.269,475.353 977.937,474.938 977.844,474.79C977.708,474.572 977.532,474.392 977.31,474.25C977.159,474.154 976.078,474.002 976.078,474.002C976.078,474.002 976.151,473.992 976.214,473.992C975.265,473.992 974.494,474.762 974.494,475.712C974.494,476.505 975.032,477.173 975.762,477.371Z" style="fill:rgb(238,60,91);"/>
        <path d="M982.207,464.815C982.146,463.921 981.4,463.214 980.491,463.214C979.542,463.214 978.771,463.985 978.771,464.934C978.771,464.912 978.774,464.891 978.774,464.891C978.774,464.891 978.77,465.262 978.789,465.377C978.81,465.502 978.816,465.645 979.032,466.019C979.508,466.84 980.561,467.121 981.383,466.646C982.038,466.266 982.35,465.519 982.207,464.815Z" style="fill:rgb(238,60,91);"/>
        <path d="M993.657,464.009C993.655,464.013 993.653,464.017 993.651,464.021C993.242,464.878 993.605,465.906 994.461,466.315C995.318,466.724 996.346,466.361 996.755,465.505C996.757,465.501 996.759,465.497 996.761,465.493C997.17,464.636 996.807,463.609 995.951,463.199C995.094,462.79 994.066,463.153 993.657,464.009Z" style="fill:rgb(238,60,91);"/>
        <path d="M998.052,473.876C998.044,473.898 998.036,473.92 998.029,473.943C997.713,474.838 998.184,475.821 999.079,476.136C999.975,476.452 1000.96,475.981 1001.27,475.086C1001.28,475.063 1001.29,475.041 1001.3,475.019C1001.61,474.124 1001.14,473.141 1000.25,472.825C999.351,472.51 998.367,472.981 998.052,473.876Z" style="fill:rgb(238,60,91);"/>
        <path d="M994.245,485.745C993.785,486.054 993.483,486.579 993.483,487.173C993.483,488.123 994.254,488.893 995.203,488.893C995.831,488.893 996.123,488.713 996.303,488.597C996.68,488.355 997.094,487.447 997.094,487.447C997.094,487.447 997.079,487.504 997.067,487.54C997.375,486.642 996.896,485.663 995.998,485.355C995.367,485.138 994.694,485.311 994.245,485.745ZM995.128,485.455L995.203,485.453C995.177,485.453 995.152,485.454 995.128,485.455Z" style="fill:rgb(238,60,91);"/>
        <path d="M981.317,487.707C981.399,487.412 981.402,487.092 981.312,486.777C981.094,486.02 980.68,485.829 980.588,485.768C980.261,485.552 979.941,485.485 979.653,485.482C979.24,485.478 978.843,485.604 978.489,485.922C978.318,486.074 978.07,486.344 977.959,486.816C977.94,486.899 977.916,487.208 977.916,487.344C977.916,488.294 978.686,489.065 979.636,489.065C980.461,489.065 981.151,488.483 981.317,487.707ZM978.034,487.816C978.135,488.122 978.277,488.307 978.398,488.422C978.239,488.252 978.114,488.048 978.034,487.816Z" style="fill:rgb(238,60,91);"/>
        <path d="M988.799,493.397C988.815,493.386 988.831,493.375 988.846,493.363C989.619,492.812 989.799,491.737 989.247,490.964C988.696,490.191 987.621,490.012 986.848,490.563C986.832,490.574 986.817,490.586 986.801,490.597C986.028,491.148 985.849,492.223 986.4,492.996C986.952,493.769 988.027,493.948 988.799,493.397Z" style="fill:rgb(238,60,91);"/>
        <path d="M973.525,484.757C974.204,485.187 975.116,485.092 975.69,484.487C976.543,483.59 976.181,482.844 976.053,482.552C975.886,482.171 974.206,481.524 974.206,481.524C974.206,481.524 974.295,481.519 974.333,481.519C973.383,481.519 972.612,482.289 972.612,483.239C972.612,483.896 972.982,484.468 973.525,484.757ZM972.856,482.64L972.854,482.644L972.864,482.619L972.856,482.64ZM973.135,482.186C973.001,482.34 972.917,482.487 972.864,482.618C972.931,482.465 973.021,482.319 973.135,482.186Z" style="fill:rgb(238,60,91);"/>
        <path d="M975.06,470.92C975.087,470.915 975.114,470.91 975.141,470.906C976.076,470.743 976.703,469.851 976.54,468.916C976.377,467.98 975.486,467.353 974.55,467.516C974.523,467.521 974.496,467.526 974.469,467.531C973.534,467.694 972.907,468.585 973.07,469.52C973.233,470.456 974.124,471.083 975.06,470.92Z" style="fill:rgb(238,60,91);"/>
        <path d="M1000.11,470.053C1000.12,470.055 1000.12,470.058 1000.12,470.06C1000.78,470.745 1001.87,470.767 1002.55,470.109C1003.24,469.452 1003.26,468.362 1002.6,467.677C1002.6,467.675 1002.6,467.672 1002.6,467.67C1001.94,466.985 1000.85,466.963 1000.16,467.621C999.478,468.278 999.456,469.368 1000.11,470.053Z" style="fill:rgb(238,60,91);"/>
        <path d="M1000.02,481.981C1000,481.993 999.989,482.007 999.974,482.022C999.303,482.694 999.303,483.784 999.974,484.455C1000.65,485.126 1001.74,485.126 1002.41,484.455C1002.42,484.441 1002.43,484.426 1002.45,484.411C1002.48,484.385 1002.51,484.356 1002.54,484.326C1002.96,483.891 1002.44,483.038 1001.74,482.457C1001.17,481.887 1000.46,481.532 1000.08,481.915C1000.06,481.937 1000.04,481.959 1000.02,481.981Z" style="fill:rgb(238,60,91);"/>
        <path d="M969.368,476.945C969.313,477.284 969.358,477.643 969.521,477.974C969.704,478.347 969.892,478.498 969.936,478.537C970.558,479.098 971.165,479.035 971.59,478.906C971.96,478.793 972.353,478.563 972.619,478.047C972.635,478.015 972.802,477.713 972.802,477.08C972.802,476.131 972.032,475.36 971.082,475.36C970.178,475.36 969.436,476.059 969.368,476.945ZM972.54,476.332L972.558,476.363L972.55,476.349L972.54,476.332ZM972.489,476.252L972.497,476.264L972.491,476.255L972.489,476.252Z" style="fill:rgb(238,60,91);"/>
        <path d="M233.929,572.787C233.077,573.748 230.787,576.345 230.452,576.846C228.677,579.498 227.078,583.537 224.941,585.579C221.598,588.771 219.364,593.495 217.787,598.619C215.694,605.422 214.758,612.936 213.113,617.515C212.516,619.177 213.381,621.011 215.044,621.608C216.706,622.205 218.54,621.34 219.137,619.678C220.544,615.76 221.472,609.754 222.98,603.818C224.305,598.604 226.026,593.392 229.361,590.207C231.785,587.892 233.758,583.413 235.771,580.405C236.142,579.851 238.39,577.589 239.302,576.361C240.037,575.371 240.275,574.477 240.315,574.047C240.421,572.904 240.005,572.08 239.447,571.481C238.936,570.934 238.188,570.432 237.009,570.434C235.538,570.436 234.299,571.433 233.929,572.787ZM235.127,576.217C235.544,576.555 236.092,576.795 236.828,576.828C236.194,576.791 235.609,576.57 235.127,576.217Z"/>
        <path d="M232.872,576.62C233.348,577.658 234.367,578.407 235.586,578.482C237.349,578.589 238.867,577.245 238.975,575.483C239.014,574.836 238.892,574.07 238.403,573.26C238.069,572.706 237.397,571.964 236.369,571.187C233.037,568.67 224.219,564.413 221.146,561.196C211.43,551.021 199.546,540.41 186.368,533.6C172.731,526.553 157.727,523.553 142.237,528.858C135.529,531.156 130.534,536.417 125.281,540.823C98.484,563.3 92.648,583.978 81.505,615.009C80.908,616.671 81.773,618.505 83.435,619.102C85.097,619.699 86.931,618.834 87.528,617.172C98.24,587.341 103.633,567.335 129.394,545.726C134.057,541.815 138.356,536.953 144.311,534.913C158.048,530.208 171.336,533.036 183.429,539.285C195.981,545.772 207.263,555.925 216.518,565.616C218.791,567.996 223.874,570.983 228.086,573.485C230.004,574.624 232.237,576.175 232.872,576.62Z"/>
        <path d="M216.226,616.584C215.596,616.553 214.834,616.121 214.013,615.683C212.041,614.632 209.985,613.217 208.633,612.532C196.936,606.604 182.125,604.786 170.494,611.405C162.226,616.111 154.786,626.34 147.206,635.562C143.697,639.831 140.148,643.86 136.401,646.846C133.07,649.5 129.614,651.33 125.836,651.465C110.437,652.016 98.242,642.92 91.009,629.904C89.56,627.295 87.744,624.823 86.576,622.399C85.978,621.157 85.526,619.959 85.705,618.735C85.88,617.542 86.695,616.429 88.187,615.209C89.554,614.091 89.756,612.073 88.638,610.706C87.52,609.339 85.502,609.137 84.135,610.255C81.046,612.782 79.734,615.337 79.373,617.807C79.015,620.247 79.618,622.702 80.81,625.176C82.028,627.705 83.903,630.293 85.415,633.012C93.828,648.152 108.154,658.501 126.064,657.861C133.933,657.579 141.011,652.202 147.622,644.907C156.336,635.292 164.325,622.28 173.659,616.968C183.446,611.398 195.897,613.252 205.739,618.241C207.063,618.912 209.073,620.303 211.004,621.331C212.786,622.281 214.552,622.911 215.919,622.976C217.684,623.061 219.184,621.697 219.269,619.933C219.353,618.169 217.99,616.668 216.226,616.584Z"/>
        <path d="M127.437,536.082C127.324,536.089 127.066,536.098 126.904,536.076C126.51,536.024 126.097,535.908 125.673,535.759C122.96,534.801 119.972,532.52 118.78,531.227C115.176,527.319 113.774,522.864 114.468,518.678C115.169,514.44 117.976,510.557 122.449,507.807C131.401,502.302 142.155,508.327 147.659,515.848C148.969,517.638 149.398,521.032 148.881,523.317C148.422,523.666 146.335,525.253 146.079,525.476C144.521,526.832 144.931,528.387 145.06,528.833C145.322,529.741 145.895,530.561 147.096,530.975C147.285,531.041 148.149,531.415 149.611,530.835C150.146,530.623 150.592,530.282 150.927,529.861C151.679,529.332 152.696,528.587 153.418,527.859C154.221,527.05 154.73,526.179 154.938,525.456C156.059,521.564 155.19,515.302 152.823,512.068C145.523,502.093 130.97,495.054 119.096,502.355C112.864,506.187 109.131,511.726 108.154,517.633C107.167,523.591 108.945,530.003 114.075,535.566C116.023,537.678 121.433,541.613 125.623,542.352C128.446,542.851 130.841,542.126 132.412,540.105C133.495,538.711 133.243,536.699 131.849,535.615C130.487,534.557 128.536,534.772 127.437,536.082ZM147.456,524.812L147.436,524.82L147.488,524.804L147.456,524.812ZM147.652,524.757L147.647,524.759L147.652,524.757Z"/>
        <path d="M109.311,548.364C109.365,548.525 109.962,550.314 110.124,551.592C110.242,552.534 110.109,554.031 110.041,554.665C108.7,555.097 107.759,556.387 107.829,557.861C107.913,559.625 109.413,560.99 111.178,560.906C113.775,560.782 115.54,559.136 116.27,556.373C116.84,554.218 116.658,551.162 116.113,548.724C115.698,546.868 115.043,545.359 114.517,544.64C105.603,532.459 89.99,531.097 78.734,541.972C75.048,545.533 72.842,551.129 72.576,556.838C72.308,562.602 74.017,568.413 77.801,572.329C79.938,574.541 83.435,577.444 87.112,578.879C91.653,580.652 96.406,580.413 100.043,575.733C101.127,574.339 100.875,572.327 99.48,571.243C98.086,570.159 96.074,570.411 94.99,571.806C93.443,573.796 91.371,573.671 89.439,572.917C86.645,571.826 84.028,569.563 82.403,567.882C79.792,565.179 78.784,561.113 78.969,557.135C79.157,553.102 80.576,549.091 83.181,546.574C91.394,538.64 102.787,539.51 109.311,548.364Z"/>
        <path d="M87.68,612.163C88.054,611.798 88.443,611.278 88.734,610.562C89.362,609.017 90.013,605.486 90.004,604.885C89.946,600.753 90.064,596.693 88.378,592.738C85.922,586.978 81.819,583.356 77.254,582.123C72.593,580.863 67.304,581.996 62.467,586.326C56.57,591.606 52.386,603.056 53.467,612.599C54.253,619.537 57.687,625.428 64.556,627.85C65.755,628.273 67.452,628.415 69.431,628.167C73.049,627.713 77.853,625.99 81.576,623.629C83.931,622.136 85.853,620.371 86.966,618.569C87.979,616.928 88.395,615.215 88.184,613.527C88.121,613.022 87.943,612.56 87.68,612.163ZM83.603,604.808C83.568,601.564 83.815,598.354 82.49,595.248C80.926,591.578 78.492,589.087 75.584,588.301C72.771,587.541 69.655,588.481 66.736,591.095C62.085,595.258 58.974,604.352 59.826,611.878C60.33,616.32 62.286,620.263 66.684,621.814C67.409,622.07 68.534,621.883 69.827,621.616C72.477,621.068 75.625,619.824 78.149,618.224C79.394,617.435 80.487,616.571 81.219,615.635C81.565,615.193 81.891,614.786 81.833,614.322C81.71,613.339 82.048,612.404 82.677,611.734C82.628,611.666 82.581,611.594 82.534,611.518C81.761,610.26 81.963,608.675 82.931,607.649L83.603,604.808ZM87.376,607.442C87.568,607.61 87.742,607.805 87.893,608.023C87.732,607.788 87.558,607.597 87.376,607.442ZM87.295,607.374L87.33,607.402L87.303,607.379L87.295,607.374Z"/>
        <path d="M969.57,672.319C987.867,672.528 1006.23,671.726 1024.58,672.516C1041.97,673.265 1058.87,667.899 1076.57,668.448C1099.56,669.161 1122.48,672.833 1145.4,673.82C1160.58,674.473 1175.81,672.342 1190.94,672.153C1219.53,671.797 1247.98,672.758 1276.55,670.72C1296.45,669.3 1315.31,675.733 1334.63,675.493C1337.18,675.461 1344.37,680.633 1347.65,681.682C1357.02,684.674 1368.09,685.766 1377.88,686.069C1385.73,686.313 1393.96,683.916 1401.65,682.719C1402.42,682.601 1414.13,683.142 1413.99,682.199C1413.84,681.265 1411.33,681.05 1410.79,680.773C1404.6,677.593 1398.21,674.572 1391.98,671.114C1391.91,671.074 1390.59,670.406 1390.63,670.275C1391.03,669.013 1411.64,668.908 1417.73,669.205C1418.54,669.244 1426.95,665.654 1425.99,664.949C1420.23,660.746 1410.22,659.708 1403.42,658.146C1400.7,657.518 1397.74,657.129 1394.98,656.663C1393.83,656.469 1390.51,656.507 1391.55,655.973C1401.69,650.741 1413.53,653.959 1424.24,652.634C1424.87,652.556 1432.45,651.262 1431.41,649.247C1429.46,645.474 1407.48,645.68 1402.89,644.594C1401.15,644.183 1395.91,643.45 1395.88,641.139C1395.87,639.584 1403.83,639.341 1404.17,639.326C1414.25,638.885 1424.91,636.89 1434.77,634.914C1435.5,634.768 1446.83,632.076 1446.45,631.348C1445.28,629.077 1438.06,630.487 1436.55,630.616C1428.17,631.334 1419.84,631.098 1411.4,631.907C1393.68,633.607 1375.36,630.84 1357.54,631.723C1344.58,632.365 1335.06,641.435 1321.37,640.846C1301.82,640.004 1282.38,636.778 1262.81,636.323C1251.66,636.064 1240.45,637.377 1229.33,635.763C1207.39,632.579 1188.8,633.153 1166.59,631.723C1141.62,630.115 1107.01,625.089 1082.02,625.995C1060.34,626.782 1039.3,628.247 1017.76,625.33C1015.08,624.966 998.993,619.838 996.355,622.543C994.248,624.703 994.047,629.652 992.445,632.241C990.713,635.04 987.857,636.908 986.062,639.528C981.766,645.796 980.646,653.656 977.036,660.161C975.24,663.395 974.001,668.714 971.434,671.346C969.882,672.937 966.227,673.682 965.506,675.939" style="fill:white;"/>
        <path d="M995.307,627.329C996.001,627.211 998.277,626.851 1000.31,626.773C1016.92,626.137 1057.67,630.063 1069.54,630.353C1127.16,631.758 1184.94,637.983 1242.66,640.262C1266.31,641.195 1322.91,644.054 1333.78,644.522C1335.54,644.599 1337.04,643.228 1337.11,641.463C1337.19,639.699 1335.82,638.205 1334.05,638.128C1323.18,637.659 1266.57,634.801 1242.91,633.867C1185.16,631.587 1127.35,625.361 1069.69,623.954C1057.76,623.663 1016.77,619.738 1000.07,620.377C996.674,620.507 994.155,620.875 992.822,621.381C991.14,622.02 990.369,623.088 990.057,623.969C989.468,625.634 990.342,627.464 992.007,628.053C993.192,628.473 994.462,628.151 995.307,627.329Z"/>
        <path d="M972.722,677.117C973.214,677.1 975.495,677.036 977.125,677.183C980.537,677.49 984.277,678.102 985.603,678.225C1005.39,680.071 1026.99,676.582 1046.82,674.696C1061.69,673.28 1075.89,675.48 1090.77,675.546C1128.87,675.716 1134.23,674.68 1172.25,674.71C1186.26,674.721 1223.08,674.039 1244.83,674.708C1257.71,675.105 1296.6,674.834 1305.13,674.71C1306.9,674.684 1308.31,673.229 1308.29,671.463C1308.26,669.697 1306.81,668.285 1305.04,668.31C1296.55,668.434 1257.84,668.706 1245.02,668.311C1223.22,667.641 1186.31,668.321 1172.25,668.31C1134.24,668.28 1128.88,669.316 1090.79,669.146C1075.71,669.079 1061.3,666.888 1046.21,668.324C1026.77,670.174 1005.6,673.662 986.197,671.853C984.153,671.662 976.588,670.399 972.796,670.658C970.921,670.786 969.6,671.395 968.944,671.992C967.638,673.181 967.542,675.206 968.731,676.513C969.769,677.653 971.444,677.871 972.722,677.117Z"/>
        <g transform="matrix(0.989995,0,0,0.955139,4.31742,20.856)">
            <path d="M769.077,514.359C768.306,514.535 766.884,514.84 765.648,515.002C760.009,515.74 751.727,516.109 750.125,516.146C726.662,516.692 704.299,513.085 680.941,510.489C621.946,503.935 562.028,496.665 505.104,479.538C487.118,474.126 469.246,469.34 450.87,465.362C444.633,464.012 438.392,462.866 432.152,461.618C430.4,461.267 428.703,462.457 428.365,464.273C428.027,466.088 429.175,467.847 430.927,468.197C437.135,469.438 443.344,470.578 449.548,471.921C467.762,475.864 485.475,480.609 503.302,485.973C560.588,503.209 620.882,510.556 680.252,517.152C703.891,519.778 726.525,523.398 750.27,522.845C751.94,522.806 760.578,522.419 766.458,521.65C769.56,521.244 772.002,520.583 772.915,520.001C773.967,519.33 774.424,518.462 774.622,517.745C774.877,516.814 774.812,515.852 774.251,514.881C773.334,513.295 771.348,512.778 769.817,513.728C769.534,513.904 769.286,514.118 769.077,514.359ZM768.472,517.833C768.533,517.996 768.61,518.16 768.705,518.324C768.613,518.164 768.535,518 768.472,517.833Z"/>
        </g>
        <path d="M778.63,574.33C777.088,574.276 769.833,574.011 768.051,573.756C758.448,572.385 748.694,572.591 739.075,571.218C711.938,567.341 684.236,567.16 657.278,562.203C573.938,546.876 502.703,515.533 419.113,503.592C417.364,503.342 415.742,504.559 415.492,506.307C415.242,508.056 416.459,509.678 418.207,509.928C501.712,521.856 572.867,553.187 656.12,568.497C683.162,573.47 710.949,573.665 738.17,577.553C747.789,578.927 757.543,578.72 767.146,580.092C769.456,580.422 778.803,580.805 779.719,580.69C781.06,580.521 781.643,579.786 781.844,579.546C782.693,578.527 782.795,577.447 782.376,576.35C782.264,576.057 781.854,574.73 779.954,574.329C779.503,574.233 779.054,574.239 778.63,574.33ZM776.822,579.491C777.135,579.924 777.677,580.389 778.632,580.591C777.893,580.435 777.267,580.034 776.822,579.491Z"/>
        <path d="M1444.7,631.955C1441.77,632.618 1437.02,633.288 1429.18,634.406C1415.79,636.313 1414.76,636.203 1401.35,637.874C1399.91,638.054 1399.3,638.817 1399.05,639.136C1398.48,639.866 1398.3,640.652 1398.39,641.459C1398.45,642.092 1398.69,643.023 1399.76,643.775C1400.03,643.97 1401.4,644.507 1403.57,644.949C1407.95,645.842 1416.96,647.4 1423.16,649.108C1415.61,650.779 1407.48,649.534 1401.69,649.771C1396.94,649.965 1393.47,651.246 1391.71,653.871C1390.85,655.152 1390.31,656.789 1390.31,658.921C1390.31,659.832 1390.61,660.852 1391.73,661.661C1392.07,661.903 1392.65,662.217 1393.54,662.413C1394.83,662.698 1397.63,662.892 1401.16,663.062C1407.39,663.363 1416.13,663.662 1422.11,664.814C1423.56,665.092 1425.2,665.695 1426.08,666.047C1425.9,666.183 1425.67,666.29 1425.44,666.403C1424.51,666.84 1423.33,667.109 1422.01,667.3C1415.86,668.182 1406.94,667.211 1400.79,666.918C1397.66,666.769 1395.13,666.829 1393.72,667.189C1392.19,667.583 1391.29,668.392 1390.83,669.149C1390.26,670.069 1390.05,671.141 1390.47,672.409C1391.03,674.094 1392.45,675.701 1394.64,677.001C1397.57,678.743 1402.11,680.086 1406.22,681.231C1389.07,682.358 1354.21,679.592 1351.3,679.009C1345.57,677.862 1342.68,675.596 1339.76,673.552C1336.13,671.019 1332.49,668.733 1325.32,668.207C1322.32,667.986 1307.99,667.62 1298.2,668.204C1296.44,668.309 1295.09,669.826 1295.19,671.589C1295.3,673.352 1296.82,674.698 1298.58,674.592C1308.06,674.027 1321.94,674.376 1324.85,674.59C1330.44,675 1333.27,676.823 1336.09,678.798C1339.61,681.261 1343.14,683.902 1350.05,685.285C1353.17,685.911 1392.01,689.007 1408.8,687.449C1412.18,687.135 1414.77,686.586 1416.24,685.902C1417.61,685.263 1418.4,684.391 1418.81,683.579C1419.71,681.77 1419.31,679.12 1415.7,677.505C1412.94,676.266 1407.2,675.063 1402.37,673.411C1410,673.843 1420.44,674.702 1426.3,672.906C1430.51,671.614 1432.83,669.064 1432.83,665.415C1432.83,663.252 1431.23,660.974 1427.63,659.662C1421.16,657.304 1406.32,657.054 1398.72,656.554C1399.66,656.318 1400.75,656.215 1401.95,656.166C1409.75,655.847 1421.39,657.624 1430.96,653.227C1432.85,652.362 1433.54,651.148 1433.78,650.234C1434.13,648.921 1433.88,647.369 1432.26,646.014C1431.15,645.081 1428.62,643.999 1425.34,643.073C1424.02,642.699 1422.55,642.331 1421.02,641.975C1423.42,641.67 1426.24,641.288 1430.08,640.742C1440.52,639.253 1445.74,638.473 1448.46,637.563C1450.16,636.993 1451.19,636.304 1451.91,635.561C1452.97,634.459 1453.44,633.139 1453.84,631.142C1454.09,629.907 1453.82,628.597 1452.44,627.501C1451.98,627.133 1451.23,626.723 1450.16,626.409C1448.74,625.991 1446.42,625.631 1443.41,625.367C1423.76,623.645 1371.86,625.308 1355.57,627.339C1349.11,628.145 1338.03,634.97 1332.64,638.335C1331.14,639.27 1330.68,641.246 1331.62,642.744C1332.55,644.242 1334.53,644.7 1336.03,643.765C1340.84,640.762 1350.6,634.409 1356.37,633.689C1372.4,631.69 1423.51,630.047 1442.85,631.743C1443.48,631.797 1444.1,631.872 1444.7,631.955Z"/>
        <path d="M379.241,446.129C366.756,441.681 346.154,431.981 331.661,427.712C326.471,426.184 321.988,425.341 318.775,425.477C315.624,425.61 313.412,426.703 312.147,428.367C310.242,430.872 310.608,434.021 314.013,437.095C317.031,439.819 322.987,442.862 329.413,445.628C335.588,448.286 342.198,450.725 346.64,452.474C341.106,451.26 335.197,449.833 330.293,448.467C320.506,445.742 313.887,443.864 310.153,444.222C308.016,444.428 306.485,445.223 305.415,446.444C304.414,447.584 303.75,449.199 303.705,451.487C303.687,452.406 303.966,453.435 304.758,454.466C305.552,455.499 307.172,456.745 309.498,457.969C318.939,462.935 341.888,469.42 350.539,471.875C348.098,471.569 345.621,471.268 343.239,470.991C333.141,469.819 322.998,469.325 317.568,470.982C313.858,472.114 311.875,474.285 311.522,476.965C311.319,478.5 311.769,480.049 313.082,481.495C314.172,482.694 316.078,483.922 318.677,485.027C328.404,489.164 349.335,492.599 363.096,496.019C366.479,496.86 369.394,497.63 371.453,498.44C371.054,498.495 370.668,498.537 370.324,498.559C367.7,498.721 365.185,498.641 364.65,498.653C363.942,498.669 363.497,498.848 363.298,498.943C363.089,498.969 360.167,499.32 357.839,499.429C352.856,499.662 346.69,499.943 343.571,501.11C341.2,501.996 340.009,503.526 339.709,505.04C339.436,506.423 339.752,508.41 342.123,510.546C343.639,511.911 345.889,513.051 348.766,513.878C352.443,514.936 357.255,515.542 362.703,515.788C382.958,516.705 412.384,512.742 422.698,511.339C424.448,511.101 425.675,509.487 425.437,507.737C425.199,505.987 423.585,504.76 421.835,504.998C411.719,506.373 382.859,510.294 362.993,509.395C358.124,509.175 353.82,508.672 350.535,507.728C349.5,507.43 348.579,507.103 347.807,506.715C348.712,506.524 349.743,506.34 350.645,506.257C354.578,505.893 359.178,505.847 362.156,505.571C363.385,505.457 364.408,505.27 365.16,505.052C366.561,505.061 370.314,505.11 373.409,504.691C375.185,504.45 376.773,504.028 377.838,503.471C379.785,502.454 380.604,500.913 380.574,499.272C380.553,498.141 380.049,496.557 378.089,494.896C376.316,493.393 372.234,491.8 366.81,490.364C355.639,487.407 338.299,484.504 326.949,481.14C323.745,480.19 321.05,479.224 319.203,478.181C318.9,478.01 318.566,477.769 318.297,477.558C318.388,477.508 318.486,477.461 318.588,477.415C319.362,477.068 320.338,476.834 321.465,476.658C326.686,475.844 334.608,476.433 342.502,477.349C355.161,478.818 367.76,481.084 370.415,480.766C372.534,480.512 373.293,479.18 373.553,478.416C373.798,477.697 373.833,476.895 373.501,476.027C373.249,475.368 372.401,474.231 370.743,473.229C366.616,470.733 355.458,466.625 354.411,466.323C349.162,464.808 328.576,459.212 316.733,454.267C314.459,453.318 312.526,452.404 311.138,451.546C310.819,451.348 310.461,451.076 310.201,450.868L310.229,450.728L310.235,450.702C310.347,450.67 310.562,450.615 310.715,450.598C311.145,450.552 311.634,450.562 312.182,450.608C315.747,450.903 321.145,452.563 328.576,454.633C339.364,457.637 354.859,460.897 361.309,461.747C362.933,461.961 364.104,462.012 364.679,461.955C365.296,461.895 365.738,461.729 366.027,461.587C366.83,461.193 367.313,460.594 367.59,459.898C367.837,459.278 367.993,458.44 367.545,457.422C367.496,457.309 367.169,456.534 366.075,455.824C364.273,454.653 354.707,449.046 354.087,448.719C349.945,446.536 330.709,440.259 321.239,434.451C320.062,433.729 318.816,432.65 318.078,431.97L318.09,431.969C318.73,431.855 319.474,431.839 320.308,431.884C322.886,432.025 326.155,432.763 329.853,433.852C348.587,439.369 377.407,453.649 386.542,454.728C387.448,454.835 388.131,454.58 388.651,454.253C389.314,453.835 389.829,453.22 390.059,452.311C390.134,452.012 390.336,450.701 389.253,449.062C387.284,446.082 377.892,434.359 373.478,424.959C372.63,423.154 371.972,421.449 371.641,419.934C371.526,419.406 371.434,418.914 371.414,418.468C372.367,418.973 373.91,419.853 375.127,420.834C384.992,428.787 400.185,447.853 405.299,452.461C411.32,457.887 421.003,463.932 430.552,468.257C432.16,468.985 434.058,468.271 434.787,466.662C435.515,465.053 434.801,463.155 433.192,462.427C424.273,458.387 415.208,452.774 409.583,447.706C406.094,444.562 397.893,434.649 389.91,426.183C384.25,420.179 378.647,414.913 374.765,412.852C372.412,411.603 370.378,411.404 368.918,411.858C367.489,412.301 366.299,413.276 365.597,415.069C364.46,417.969 365.295,422.59 367.685,427.679C370.572,433.828 375.501,440.952 379.241,446.129Z"/>
        <path d="M433.464,1451.22C433.425,1451.12 433.38,1451.01 433.329,1450.91C432.533,1449.34 430.607,1448.7 429.031,1449.5C426.577,1450.73 425.802,1452.18 425.623,1452.89C425.376,1453.87 425.53,1454.75 426.014,1455.56C426.358,1456.13 426.96,1456.77 428.024,1457.17C429.205,1457.62 432.279,1457.78 436.28,1457.52C444.136,1457.02 456.211,1455.38 462.044,1454.81C499.061,1451.17 498.332,1449.75 535.026,1447.71C594.692,1444.39 654.248,1444.23 713.981,1444.45C897.302,1445.1 1081.05,1459.31 1263.86,1472.01C1265.62,1472.13 1267.15,1470.8 1267.27,1469.04C1267.4,1467.27 1266.07,1465.74 1264.3,1465.62C1081.36,1452.92 897.465,1438.7 714.004,1438.05C654.145,1437.83 594.463,1438 534.671,1441.32C497.841,1443.37 498.572,1444.79 461.418,1448.44C455.634,1449.01 443.66,1450.63 435.87,1451.13C435.056,1451.19 434.226,1451.21 433.464,1451.22Z"/>
        <path d="M31.572,1264.84C128.339,1248.34 225.76,1252.05 323.02,1260.75C324.779,1260.91 326.335,1259.61 326.492,1257.85C326.65,1256.09 325.349,1254.53 323.59,1254.38C225.781,1245.62 127.811,1241.94 30.496,1258.53C28.755,1258.82 27.583,1260.48 27.88,1262.22C28.176,1263.96 29.831,1265.13 31.572,1264.84Z"/>
        <path d="M866.34,1232.59C934.016,1230.28 1004.02,1241.67 1071.36,1247.69C1104.45,1250.65 1143.06,1263.11 1176.43,1259.14C1178.18,1258.93 1179.44,1257.34 1179.23,1255.59C1179.02,1253.83 1177.43,1252.58 1175.67,1252.79C1142.72,1256.7 1104.61,1244.24 1071.93,1241.32C1004.34,1235.27 934.057,1223.87 866.122,1226.2C864.357,1226.26 862.973,1227.74 863.033,1229.5C863.093,1231.27 864.575,1232.65 866.34,1232.59Z"/>
        <path d="M146.74,1244.99C146.609,1243.64 146.348,1240.64 146.309,1237.76C146.168,1227.43 146.772,1211.71 146.582,1206.29C145.545,1176.78 141.331,1147.15 141.576,1117.73C141.627,1111.61 140.269,1088.37 140.806,1080.48C141.855,1079.57 142.229,1078.05 141.624,1076.72C140.248,1073.72 137.93,1074.13 136.947,1074.54C136.422,1074.76 135.847,1075.15 135.38,1075.86C135.083,1076.32 134.68,1077.35 134.515,1078.91C133.779,1085.88 135.23,1111.2 135.177,1117.68C134.931,1147.19 139.146,1176.91 140.186,1206.51C140.375,1211.91 139.77,1227.56 139.909,1237.84C139.977,1242.79 140.317,1246.62 140.828,1247.98C141.44,1249.6 142.55,1250.18 143.324,1250.39C144.312,1250.66 145.468,1250.61 146.606,1249.56C147.906,1248.37 147.99,1246.34 146.794,1245.04L146.74,1244.99ZM142.45,1244.7L142.419,1244.73L142.506,1244.66L142.45,1244.7ZM143.031,1244.33C142.868,1244.41 142.705,1244.51 142.543,1244.63C142.698,1244.52 142.862,1244.42 143.031,1244.33Z"/>
        <path d="M305.803,1105.62C274.786,1122.27 240.874,1133.48 207.947,1145.49C191.462,1151.51 174.662,1160.42 159.776,1169.78C158.662,1170.48 152.326,1175.8 147.493,1179.1C146.428,1179.82 145.049,1180.58 144.366,1180.94C143.655,1180.8 142.89,1180.89 142.203,1181.27C140.652,1182.11 140.079,1184.06 140.924,1185.61C141.455,1186.58 142.295,1187.24 143.509,1187.46C144.302,1187.61 145.648,1187.48 147.265,1186.7C151.801,1184.5 161.753,1176.09 163.182,1175.19C177.696,1166.07 194.068,1157.37 210.141,1151.51C243.94,1139.17 278.756,1127.64 310.489,1110.36C311.149,1110 312.254,1109.82 313.231,1109.56C314.414,1109.23 315.487,1108.83 316.2,1108.37C317.407,1107.59 318.018,1106.55 318.194,1105.47C318.323,1104.67 318.245,1103.78 317.706,1102.79C317.493,1102.39 317.153,1101.95 316.591,1101.54C316.095,1101.19 315.044,1100.72 313.562,1100.34C308.851,1099.13 297.873,1097.83 296.377,1097.39C269.416,1089.44 239.913,1086.98 212.351,1081.36C201.947,1079.24 176.459,1073.45 157.57,1071.6C148.977,1070.76 141.672,1070.79 137.462,1072.12C135.778,1072.65 134.842,1074.45 135.374,1076.13C135.905,1077.82 137.704,1078.75 139.388,1078.22C143.063,1077.06 149.444,1077.23 156.945,1077.97C175.61,1079.8 200.792,1085.53 211.072,1087.63C238.458,1093.21 267.779,1095.63 294.568,1103.53C295.489,1103.8 301.031,1104.79 305.803,1105.62ZM145.354,1181.32C145.839,1181.6 146.256,1182.02 146.544,1182.55C146.276,1182.05 145.905,1181.57 145.354,1181.32Z"/>
        <g transform="matrix(1,0,0,1,-503.084,214.57)">
            <path d="M927.184,1230.88C927.145,1230.98 927.11,1231.07 927.08,1231.18C926.935,1231.67 926.949,1231.97 926.948,1232.05C926.948,1232.06 927.041,1232.16 927.205,1232.31C927.314,1232.49 927.47,1232.62 927.664,1232.72C929.075,1233.91 932.181,1235.96 933.245,1232.93C933.761,1231.46 936.621,1223.01 937.355,1218.88C939.689,1205.76 939.346,1191.98 939.786,1178.64C940.699,1150.95 941.639,1117.01 937.784,1089.66C936.339,1079.41 929.289,1050.64 928.548,1045.17L928.546,1045.16C928.775,1043.59 927.812,1042.06 926.25,1041.62C925.297,1041.35 924.452,1041.51 923.697,1041.97C923.271,1042.22 922.834,1042.61 922.506,1043.23C922.365,1043.5 921.992,1044.46 922.206,1046.03C922.947,1051.5 930.001,1080.29 931.447,1090.55C935.253,1117.57 934.291,1151.09 933.39,1178.43C932.96,1191.46 933.335,1204.93 931.053,1217.76C930.371,1221.6 927.685,1229.44 927.205,1230.81L927.184,1230.88ZM933.282,1232.73L933.263,1232.82L933.265,1232.81L933.282,1232.73ZM933.339,1232.35L933.347,1232.2C933.345,1232.3 933.335,1232.46 933.296,1232.66L933.321,1232.51C933.327,1232.45 933.333,1232.4 933.339,1232.35ZM926.477,1047.71C925.866,1047.93 925.182,1047.97 924.509,1047.78C925.225,1047.98 925.878,1047.94 926.477,1047.71Z"/>
        </g>
        <g transform="matrix(1,0,0,1,-503.084,214.57)">
            <path d="M927.894,1044.57L928.29,1044.51C929.722,1044.27 931.499,1044.22 933.481,1044.28C943.795,1044.6 959.111,1047.97 963.764,1048.39C1001.86,1051.8 1040.14,1060.57 1078.23,1062.16C1092.8,1062.77 1106.68,1063.42 1121.14,1065.52C1123.56,1065.88 1134.49,1067.28 1138.4,1067.78C1139.11,1068.46 1140.13,1068.81 1141.18,1068.62C1144.09,1068.1 1144.44,1066 1144.47,1065.37C1144.51,1064.67 1144.22,1062.62 1141.66,1061.83C1138.72,1060.93 1125.18,1059.65 1122.06,1059.19C1107.38,1057.05 1093.29,1056.38 1078.5,1055.76C1040.51,1054.18 1002.33,1045.41 964.334,1042.02C959.625,1041.59 944.12,1038.21 933.682,1037.88C930.673,1037.79 928.042,1037.95 926.087,1038.43C924.197,1038.89 922.802,1039.68 921.915,1040.64C921.644,1040.93 920.855,1041.89 921.076,1043.6C921.321,1045.51 923.773,1053.85 924.095,1055.66C924.404,1057.4 926.067,1058.56 927.806,1058.25C929.545,1057.94 930.705,1056.28 930.395,1054.54C930.165,1053.25 928.673,1047.53 927.894,1044.57Z"/>
        </g>
        <g transform="matrix(1,0,0,1,-503.084,214.57)">
            <path d="M938.04,1178.42L938.041,1178.42C938.041,1178.42 938.083,1178.4 938.116,1178.38L938.127,1178.37C938.401,1178.24 938.756,1178.05 939.198,1177.81C939.338,1177.73 939.47,1177.65 939.593,1177.55C943.231,1175.53 951.83,1170.81 953.785,1169.91C968.928,1162.93 983.767,1155.47 998.826,1148.27C1014.83,1140.61 1073.57,1112.12 1110.54,1090.2C1120.16,1084.5 1128.32,1079.23 1133.92,1074.88C1138.04,1071.68 1140.83,1068.86 1142.07,1066.71C1142.94,1065.18 1142.42,1063.22 1140.88,1062.34C1139.35,1061.46 1137.39,1061.99 1136.52,1063.52C1135.54,1065.21 1133.23,1067.31 1129.99,1069.83C1124.56,1074.05 1116.62,1079.16 1107.28,1084.7C1070.48,1106.51 1012,1134.87 996.064,1142.5C981.032,1149.69 966.22,1157.13 951.104,1164.1C948.695,1165.21 936.49,1171.94 934.942,1172.82C933.669,1173.55 933.412,1174.47 933.397,1174.51C933.043,1175.4 933.142,1176.15 933.342,1176.73C933.627,1177.56 934.188,1178.3 935.264,1178.7C935.521,1178.79 936.267,1179.11 937.411,1178.72C937.434,1178.71 937.637,1178.62 938.04,1178.42Z"/>
        </g>
        <g transform="matrix(1,0,0,0.995924,-503.084,219.085)">
            <path d="M972.439,1074.84C968.258,1071.87 963.225,1071.82 958.779,1073.89C952.59,1076.79 947.612,1083.94 948.441,1092.37C949.537,1103.54 954.019,1110.22 959.179,1112.97C964.832,1115.98 971.661,1114.78 977.303,1109.01C978.541,1107.75 978.523,1105.71 977.264,1104.47C976.004,1103.22 973.976,1103.24 972.738,1104.51C969.416,1107.9 965.505,1109.06 962.177,1107.29C958.355,1105.26 955.622,1100.01 954.81,1091.74C954.272,1086.27 957.462,1081.6 961.481,1079.72C963.841,1078.62 966.521,1078.51 968.74,1080.09C970.181,1081.11 972.18,1080.77 973.201,1079.32C974.221,1077.88 973.88,1075.87 972.439,1074.84Z"/>
        </g>
        <g transform="matrix(1,0,0,1,-503.084,214.57)">
            <path d="M1034.18,1072.69C1033.42,1071.72 1031.11,1069.83 1028.38,1068.68C1026.41,1067.85 1024.25,1067.42 1022.33,1067.72C1017.58,1068.46 1011.19,1071.96 1011.37,1080.17C1011.43,1082.94 1011.24,1084.54 1012.4,1086.33C1013.4,1087.86 1015.67,1089.72 1021.4,1092.56C1023.22,1093.47 1024.76,1094.01 1026.03,1094.46C1026.94,1094.78 1027.68,1094.83 1028.1,1095.4C1028.35,1095.75 1028.41,1096.25 1028.49,1096.96C1028.7,1098.86 1027.71,1100.64 1026.31,1101.89C1024.9,1103.14 1023.04,1103.93 1021.26,1103.55C1019.75,1103.22 1018.45,1101.99 1017.5,1099.8C1016.8,1098.18 1014.92,1097.43 1013.3,1098.13C1011.68,1098.84 1010.93,1100.72 1011.63,1102.34C1013.61,1106.94 1016.73,1109.12 1019.92,1109.8C1023.63,1110.6 1027.63,1109.29 1030.56,1106.67C1033.49,1104.06 1035.3,1100.22 1034.86,1096.25C1034.4,1092.12 1032.9,1090.59 1030.6,1089.42C1029.15,1088.68 1027.07,1088.23 1024.24,1086.83C1021.57,1085.5 1019.82,1084.52 1018.68,1083.68C1018.19,1083.32 1017.86,1083.13 1017.76,1082.82C1017.5,1082.05 1017.79,1081.23 1017.76,1080.03C1017.68,1075.99 1020.98,1074.41 1023.31,1074.05C1024.41,1073.87 1025.63,1074.4 1026.69,1074.95C1027.84,1075.55 1028.83,1076.24 1029.17,1076.67C1030.27,1078.05 1032.28,1078.28 1033.66,1077.18C1035.05,1076.09 1035.28,1074.07 1034.18,1072.69Z"/>
        </g>
        <g transform="matrix(1,0,0,1,-531.915,216.12)">
            <path d="M1034.18,1072.69C1033.42,1071.72 1031.11,1069.83 1028.38,1068.68C1026.41,1067.85 1024.25,1067.42 1022.33,1067.72C1017.58,1068.46 1011.19,1071.96 1011.37,1080.17C1011.43,1082.94 1011.24,1084.54 1012.4,1086.33C1013.4,1087.86 1015.67,1089.72 1021.4,1092.56C1023.22,1093.47 1024.76,1094.01 1026.03,1094.46C1026.94,1094.78 1027.68,1094.83 1028.1,1095.4C1028.35,1095.75 1028.41,1096.25 1028.49,1096.96C1028.7,1098.86 1027.71,1100.64 1026.31,1101.89C1024.9,1103.14 1023.04,1103.93 1021.26,1103.55C1019.75,1103.22 1018.45,1101.99 1017.5,1099.8C1016.8,1098.18 1014.92,1097.43 1013.3,1098.13C1011.68,1098.84 1010.93,1100.72 1011.63,1102.34C1013.61,1106.94 1016.73,1109.12 1019.92,1109.8C1023.63,1110.6 1027.63,1109.29 1030.56,1106.67C1033.49,1104.06 1035.3,1100.22 1034.86,1096.25C1034.4,1092.12 1032.9,1090.59 1030.6,1089.42C1029.15,1088.68 1027.07,1088.23 1024.24,1086.83C1021.57,1085.5 1019.82,1084.52 1018.68,1083.68C1018.19,1083.32 1017.86,1083.13 1017.76,1082.82C1017.5,1082.05 1017.79,1081.23 1017.76,1080.03C1017.68,1075.99 1020.98,1074.41 1023.31,1074.05C1024.41,1073.87 1025.63,1074.4 1026.69,1074.95C1027.84,1075.55 1028.83,1076.24 1029.17,1076.67C1030.27,1078.05 1032.28,1078.28 1033.66,1077.18C1035.05,1076.09 1035.28,1074.07 1034.18,1072.69Z"/>
        </g>
        <path d="M150.56,1109.96C147.222,1115.94 146.043,1122.64 146.222,1127.58C146.449,1133.83 147.255,1137.72 149.556,1142.59C150.31,1144.19 152.219,1144.87 153.816,1144.12C155.413,1143.36 156.097,1141.45 155.343,1139.86C153.427,1135.8 152.807,1132.55 152.618,1127.34C152.473,1123.35 153.444,1117.92 156.148,1113.08C157.009,1111.54 156.456,1109.59 154.914,1108.73C153.372,1107.86 151.421,1108.42 150.56,1109.96Z"/>
        <path d="M166.059,1111.61C167.403,1120.12 167.932,1126.72 167.908,1127.24C167.748,1130.81 166.456,1137.15 165.355,1139.28C164.546,1140.85 165.164,1142.78 166.734,1143.59C168.304,1144.4 170.235,1143.78 171.044,1142.21C172.39,1139.6 174.105,1131.89 174.302,1127.53C174.327,1126.96 173.834,1119.82 172.38,1110.61C172.105,1108.87 170.465,1107.68 168.72,1107.95C166.976,1108.23 165.783,1109.87 166.059,1111.61Z"/>
        <path d="M152.785,1125.04C152.081,1124.31 151.049,1123.94 149.98,1124.11C148.521,1124.35 147.889,1125.21 147.56,1125.84C147.142,1126.64 146.989,1127.6 147.48,1128.69C147.648,1129.06 148.223,1129.99 149.621,1130.67C151.348,1131.52 155.768,1132.86 160.16,1132.4C166.451,1131.74 166.293,1131.09 169.397,1130.39C171.119,1130 172.201,1128.29 171.811,1126.56C171.421,1124.84 169.706,1123.76 167.983,1124.15C165.128,1124.8 165.282,1125.43 159.496,1126.04C156.961,1126.3 153.888,1125.4 152.785,1125.04ZM152.446,1129.81C152.088,1130.08 151.668,1130.29 151.203,1130.39C151.739,1130.27 152.14,1130.06 152.446,1129.81Z"/>
        <g transform="matrix(3.71966,0,0,0.945185,-498.758,61.0195)">
            <path d="M182.55,1113.71C182.643,1116.08 183.563,1125.01 183.563,1139.34C183.563,1141.21 183.948,1142.72 184.423,1142.72C184.898,1142.72 185.283,1141.21 185.283,1139.34C185.283,1124.44 184.347,1115.14 184.25,1112.68C184.178,1110.83 183.738,1109.56 183.269,1109.85C182.8,1110.13 182.477,1111.86 182.55,1113.71Z"/>
        </g>
        <path d="M176.686,1109.02C176.391,1108.91 176.075,1108.84 175.744,1108.82C172.692,1108.65 172.331,1111.44 172.307,1111.83C172.28,1112.28 172.189,1114.18 174.379,1115.02C174.813,1115.19 180.043,1116.25 183.527,1116.07C187.946,1115.85 189.04,1115.57 194.04,1112.71C195.573,1111.84 196.106,1109.88 195.23,1108.35C194.354,1106.81 192.397,1106.28 190.864,1107.16C187.21,1109.24 186.433,1109.52 183.204,1109.68C181.14,1109.78 177.525,1109.17 176.686,1109.02ZM177.415,1114.62C176.844,1115.03 176.135,1115.26 175.38,1115.21C176.398,1115.27 177.04,1114.93 177.415,1114.62Z"/>
        <g transform="matrix(0.836745,0,0,0.948855,32.3924,56.8275)">
            <path d="M202.227,1111.79C202.639,1110.06 201.443,1108.32 199.477,1107.85C197.438,1107.37 195.338,1108.43 194.79,1110.23C194.665,1110.64 194.558,1111.5 194.612,1112.63C194.736,1115.23 195.512,1120.34 195.564,1121.46C195.727,1125.03 197.518,1129.34 196.352,1137.53C196.089,1139.37 197.575,1141.06 199.67,1141.29C201.764,1141.52 203.678,1140.21 203.941,1138.37C205.188,1129.62 203.381,1125.01 203.206,1121.19C203.149,1119.95 202.242,1111.74 202.242,1111.74L202.227,1111.79Z"/>
        </g>
        <path d="M197.502,1113.74C198.171,1114.46 200.838,1117.31 201.018,1117.51C203.535,1120.39 206.026,1122.88 209.148,1125.08C210.591,1126.1 212.589,1125.76 213.608,1124.32C214.628,1122.87 214.284,1120.88 212.842,1119.86C210.144,1117.95 208.009,1115.79 205.835,1113.3C205.651,1113.09 203.927,1111.09 202.601,1109.75C201.753,1108.89 200.963,1108.26 200.559,1108.05C198.394,1106.88 196.952,1108.03 196.287,1108.92C195.228,1110.33 195.516,1112.34 196.929,1113.4C197.111,1113.54 197.303,1113.65 197.502,1113.74ZM199.698,1113.92C200.424,1113.75 200.981,1113.33 201.409,1112.76C200.967,1113.35 200.359,1113.74 199.698,1113.92Z"/>
        <path d="M214.154,1123.79C215.901,1120.12 219.589,1113.1 221.118,1109.16C221.757,1107.52 220.939,1105.66 219.292,1105.02C217.646,1104.38 215.79,1105.2 215.151,1106.85C213.667,1110.67 210.072,1117.48 208.376,1121.03C207.617,1122.63 208.294,1124.54 209.889,1125.3C211.483,1126.06 213.394,1125.38 214.154,1123.79Z"/>
        <g transform="matrix(0.879563,0,0,0.927358,26.2589,80.4872)">
            <path d="M214.924,1109.8C214.947,1110 215.179,1112.08 215.149,1113.4C215.088,1116.03 215.023,1118.62 215.351,1119.67C216.756,1124.2 217.622,1130.74 220.475,1135.97C221.397,1137.66 223.594,1138.33 225.377,1137.45C227.161,1136.58 227.86,1134.5 226.938,1132.8C224.327,1128.01 223.64,1122.01 222.363,1117.83C222.369,1117.6 222.454,1114.22 222.436,1112.14C222.415,1109.6 221.92,1107.31 221.052,1106.08C219.933,1104.5 217.671,1104.08 216.004,1105.14C214.381,1106.17 213.915,1108.23 214.924,1109.8Z"/>
        </g>
        <g transform="matrix(1,0,0,1,-5.39779,1.93287)">
            <path d="M227.973,1103.65C228.13,1107.06 229.434,1114.05 229.796,1116.49C230.441,1120.82 230.586,1122.6 231.474,1127.77C231.773,1129.52 233.429,1130.68 235.17,1130.39C236.911,1130.09 238.081,1128.43 237.782,1126.69C236.904,1121.58 236.763,1119.83 236.127,1115.55C235.782,1113.23 234.516,1106.59 234.366,1103.36C234.285,1101.59 232.786,1100.23 231.022,1100.31C229.258,1100.39 227.891,1101.89 227.973,1103.65Z"/>
        </g>
        <g transform="matrix(1,0,0,1,-5.0366,-0.155745)">
            <path d="M234.725,1133.48C240.83,1133.58 246.711,1131.02 249.811,1129.65C251.427,1128.94 252.16,1127.05 251.448,1125.43C250.736,1123.82 248.846,1123.09 247.229,1123.8C244.675,1124.92 239.86,1127.16 234.827,1127.08C233.061,1127.05 231.605,1128.46 231.576,1130.23C231.548,1132 232.959,1133.45 234.725,1133.48Z"/>
        </g>
        <path d="M693.034,1183.24C691.215,1183.49 687.24,1184.02 685.629,1184.11C654.996,1185.68 624.452,1184.9 593.797,1184.53C546.656,1183.96 499.614,1181.48 452.5,1182.74C451.516,1182.76 450.738,1183.58 450.765,1184.57C450.791,1185.55 451.611,1186.33 452.596,1186.3C499.663,1185.05 546.659,1187.53 593.754,1188.1C624.485,1188.47 655.104,1189.25 685.813,1187.67C688.179,1187.55 694.282,1186.77 695.113,1186.49C696.398,1186.06 696.429,1184.98 696.413,1184.66C696.39,1184.23 696.238,1183.77 695.772,1183.37C695.668,1183.29 695.165,1182.91 694.048,1182.92C693.67,1182.92 693.321,1183.04 693.034,1183.24Z"/>
        <path d="M899.084,1041.24C899.508,1041.27 899.944,1041.15 900.308,1040.87C901.337,1040.08 901.049,1039.12 900.902,1038.76C900.807,1038.52 900.399,1037.51 898.98,1037.64C898.029,1037.73 889.894,1039.54 858.821,1038.88C833.74,1038.34 808.88,1037.22 783.766,1037.48C782.782,1037.49 781.991,1038.3 782.001,1039.29C782.012,1040.27 782.819,1041.06 783.804,1041.05C808.88,1040.79 833.702,1041.91 858.745,1042.45C887.326,1043.06 897.493,1041.52 899.084,1041.24ZM897.437,1039.46C897.437,1038.92 897.677,1038.39 898.133,1038.04C897.528,1038.51 897.407,1039.04 897.437,1039.46Z"/>
        <path d="M282.018,463.081C282.397,463.394 282.904,463.55 283.428,463.469C284.401,463.318 285.068,462.405 284.917,461.432C284.843,460.956 284.58,460.316 283.72,459.895C283.102,459.592 281.391,459.283 278.759,459.106C267.384,458.343 236.368,458.673 206.882,457.396C130.495,454.088 53.912,452.874 -22.568,452.701C-23.553,452.699 -24.354,453.496 -24.356,454.481C-24.358,455.466 -23.561,456.267 -22.576,456.269C53.855,456.442 130.389,457.655 206.728,460.961C236.179,462.236 267.159,461.904 278.52,462.667C280.019,462.767 281.567,463.007 282.018,463.081ZM281.406,462.065L281.391,461.98C281.395,462.008 281.4,462.037 281.406,462.065Z"/>
        <path d="M227.281,730.072C227.657,730.595 228.306,730.896 228.988,730.796C230.634,730.555 231.515,730.267 231.754,730.121C232.289,729.795 232.484,729.378 232.576,729.081C232.746,728.535 232.685,728 232.321,727.488C232.174,727.281 231.912,726.988 231.41,726.804C231.185,726.721 230.652,726.614 229.824,726.568C222.879,726.186 185.704,727.607 152.752,727.247C120.557,726.895 89.09,724.311 56.866,725.523C55.882,725.56 55.114,726.389 55.151,727.373C55.188,728.357 56.017,729.126 57.001,729.089C89.166,727.879 120.576,730.463 152.713,730.815C182.852,731.145 216.531,729.975 227.281,730.072Z"/>
        <path d="M112.761,1086.09C112.303,1086.96 112.633,1088.03 113.5,1088.5C114.369,1088.96 115.45,1088.63 115.913,1087.76C116.593,1086.48 116.618,1085.45 116.347,1084.69C115.969,1083.62 114.813,1082.65 112.532,1082.42C107.384,1081.89 94.137,1084.39 74.748,1085.14C44.771,1086.3 27.783,1087.56 -2.045,1085.14C-3.027,1085.06 -3.888,1085.8 -3.967,1086.78C-4.047,1087.76 -3.315,1088.62 -2.333,1088.7C27.66,1091.13 44.743,1089.87 74.886,1088.7C91.391,1088.06 103.412,1086.13 109.729,1085.92C110.125,1085.91 110.498,1085.9 110.846,1085.9C111.147,1085.91 111.429,1085.91 111.692,1085.93C112.055,1085.95 112.461,1086.02 112.761,1086.09Z"/>
        <path d="M897.386,1163.14L897.431,1163.16C898.364,1163.48 899.377,1162.97 899.692,1162.04C899.823,1161.65 899.82,1161.27 899.689,1160.88C899.583,1160.57 899.364,1160.14 898.768,1159.84C898.64,1159.78 898.39,1159.68 898,1159.62C897.509,1159.55 896.371,1159.49 894.68,1159.45C874.899,1159.02 774.432,1160.88 770.241,1161.02C769.257,1161.06 768.486,1161.88 768.52,1162.87C768.553,1163.85 769.38,1164.62 770.364,1164.59C774.548,1164.45 874.853,1162.59 894.602,1163.02C895.902,1163.05 897.033,1163.12 897.386,1163.14ZM896.326,1162.08C896.191,1161.72 896.175,1161.3 896.31,1160.9C896.176,1161.3 896.174,1161.69 896.326,1162.08Z"/>
        <path d="M702.077,601.013C664.033,601.518 608.914,601.364 579.092,600.806C494.735,599.226 409.976,599.018 325.628,601.013C324.644,601.036 323.864,601.854 323.887,602.839C323.91,603.823 324.728,604.604 325.713,604.58C410.01,602.587 494.719,602.795 579.025,604.373C608.875,604.932 664.045,605.086 702.124,604.581C703.108,604.567 703.897,603.758 703.884,602.773C703.871,601.788 703.061,601 702.077,601.013Z"/>
        <path d="M999.12,444.337C999.556,444.252 1000.04,444.51 1000.55,444.708C1001.54,445.094 1002.55,445.518 1003.43,445.628C1007.94,446.191 1013.41,446.211 1017.97,444.654C1021.25,443.536 1024.07,441.619 1025.87,438.613C1026.24,438.004 1026.95,437.162 1027.47,436.311C1028,435.432 1028.33,434.523 1028.33,433.734C1028.33,432.749 1027.53,431.95 1026.54,431.95C1025.56,431.95 1024.76,432.749 1024.76,433.734C1024.76,434.08 1024.45,434.434 1024.19,434.815C1023.7,435.547 1023.13,436.248 1022.81,436.777C1021.09,439.644 1018.09,441.116 1014.79,441.837C1011.2,442.621 1007.24,442.508 1003.87,442.087C1003.08,441.988 1002.16,441.48 1001.27,441.171C1000.27,440.825 999.295,440.667 998.435,440.836C997.468,441.025 996.838,441.963 997.027,442.929C997.216,443.896 998.154,444.527 999.12,444.337Z"/>
        <path d="M1040.84,497.762C1040.65,497.881 1040.04,498.263 1039.57,498.437C1037.67,499.133 1035.12,499.432 1034.27,499.527C1027.37,500.293 1016.98,497.562 1012.84,491.634C1012.28,490.826 1011.16,490.628 1010.36,491.191C1009.55,491.754 1009.35,492.867 1009.91,493.675C1014.71,500.548 1026.67,503.962 1034.66,503.073C1035.84,502.943 1039.72,502.431 1041.95,501.289C1043.54,500.473 1044.39,499.265 1044.39,497.999C1044.39,497.014 1043.59,496.215 1042.61,496.215C1041.7,496.215 1040.95,496.889 1040.84,497.762Z"/>
        <path d="M990.534,452.203C989.611,452.271 988.882,453.042 988.882,453.982C988.882,454.966 989.682,455.766 990.666,455.766C991.187,455.766 991.844,455.593 992.559,455.17C993.555,454.578 994.827,453.395 996.059,451.948C997.806,449.893 999.496,447.31 1000.27,445.389C1000.74,444.248 1000.88,443.256 1000.77,442.575C1000.62,441.602 999.71,440.934 998.737,441.085C997.764,441.235 997.096,442.147 997.247,443.12C997.262,443.223 997.204,443.347 997.16,443.5C997.054,443.867 996.879,444.283 996.659,444.73C995.902,446.271 994.633,448.117 993.341,449.636C992.648,450.45 991.95,451.17 991.32,451.683C991.042,451.909 990.624,452.152 990.534,452.203Z"/>
        <path d="M1002.38,456.254C1002.06,456.575 1001.87,457.017 1001.87,457.503C1001.87,458.254 1002.23,458.647 1002.47,458.86C1002.82,459.17 1003.23,459.331 1003.72,459.316C1003.95,459.309 1004.61,459.272 1005.16,458.538C1005.7,457.827 1008.38,452.133 1008.71,450.339C1008.88,449.42 1008.67,448.242 1008.45,447.118C1008.39,446.811 1008.33,446.509 1008.29,446.226C1008.28,446.088 1008.28,445.859 1008.28,445.809C1008.63,444.92 1008.22,443.904 1007.33,443.519C1006.43,443.125 1005.38,443.539 1004.98,444.442C1004.67,445.162 1004.65,446.16 1004.84,447.25C1004.99,448.081 1005.33,449.002 1005.2,449.701C1004.96,451.022 1002.8,455.408 1002.38,456.254ZM1005.01,456.352C1005.28,456.663 1005.44,457.065 1005.44,457.503C1005.44,456.948 1005.24,456.589 1005.01,456.352Z"/>
        <path d="M1014.69,447.436C1015.12,450.046 1014.64,453.02 1014.86,455.67C1014.88,455.891 1014.9,457.161 1014.9,457.657C1014.73,457.931 1014.63,458.256 1014.63,458.603C1014.63,459.588 1015.43,460.388 1016.42,460.388C1017.11,460.388 1018.01,460.03 1018.35,458.796C1018.58,457.953 1018.45,455.805 1018.42,455.374C1018.18,452.552 1018.67,449.38 1018.17,446.62C1018.15,446.498 1018.09,446.267 1017.95,445.978C1017.83,445.712 1017.47,444.965 1017.36,444.726C1017.32,444.019 1016.85,443.375 1016.14,443.139C1015.2,442.83 1014.19,443.339 1013.88,444.274C1013.79,444.568 1013.73,445.034 1013.88,445.599C1014.01,446.074 1014.54,447.128 1014.69,447.436ZM1016.28,456.824L1016.27,456.826L1016.3,456.824L1016.28,456.824Z"/>
        <path d="M1020.24,444.9C1021.49,445.548 1022.52,446.725 1023.39,448.065C1024.88,450.351 1025.92,453.131 1026.61,455.206C1026.92,456.14 1027.93,456.646 1028.87,456.334C1029.8,456.023 1030.31,455.012 1029.99,454.078C1029.22,451.761 1028.05,448.667 1026.38,446.115C1025.15,444.229 1023.64,442.642 1021.88,441.731C1021.01,441.279 1019.93,441.621 1019.48,442.496C1019.02,443.371 1019.37,444.448 1020.24,444.9Z"/>
        <path d="M1029.2,435.723C1029.14,434.778 1028.34,434.036 1027.39,434.051C1026.4,434.067 1025.62,434.88 1025.63,435.864C1025.64,436.648 1026.35,438.319 1027.47,440.023C1028.99,442.329 1031.16,444.75 1032.12,445.233C1033.01,445.674 1034.08,445.316 1034.52,444.435C1034.96,443.555 1034.6,442.482 1033.72,442.042C1033.5,441.933 1033.22,441.606 1032.86,441.214C1032.09,440.366 1031.19,439.186 1030.45,438.064C1029.86,437.155 1029.25,435.837 1029.2,435.723Z"/>
    </g>
    <g id="Layer2">
    </g>
</svg>
