<?xml version="1.0" encoding="UTF-8" standalone="no"?>
<!DOCTYPE svg PUBLIC "-//W3C//DTD SVG 1.1//EN" "http://www.w3.org/Graphics/SVG/1.1/DTD/svg11.dtd">
<svg width="100%" height="100%" viewBox="0 0 1300 979" version="1.1" xmlns="http://www.w3.org/2000/svg" xmlns:xlink="http://www.w3.org/1999/xlink" xml:space="preserve" xmlns:serif="http://www.serif.com/" style="fill-rule:evenodd;clip-rule:evenodd;stroke-linecap:round;stroke-linejoin:round;stroke-miterlimit:1.5;">
    <g transform="matrix(0.933944,0,0,0.89696,-394.213,-157.056)">
        <path d="M437.455,454.481C437.455,603.53 450.735,879.689 437.455,1025.77C434.06,1063.11 436.456,1220.28 437.455,1225.62C441.151,1245.38 747.584,1250.27 803.347,1240.98C874.156,1229.17 1343.97,1250.54 1400.23,1246.52C1473.29,1241.3 1695.86,1224.96 1702.27,1225.62C1738.07,1229.32 1741.21,307.82 1738.54,305.147C1732.2,298.811 1554.93,367.519 1544.37,366.898C1502.62,364.442 1225.62,385.688 1123.04,374.29C1073.87,368.826 837.702,373.177 775.628,357.659C738.302,348.327 466.488,327.215 437.455,346.571C417.541,359.847 437.455,406.899 437.455,454.481Z" style="fill:rgb(252,70,87);"/>
    </g>
    <g transform="matrix(1,0,0,1,-471.942,-183.15)">
        <rect x="504.318" y="312.724" width="1171.09" height="835.515" style="fill:none;stroke:black;stroke-width:15.13px;"/>
    </g>
    <g transform="matrix(1,0,0,1,-431.485,-243.164)">
        <rect x="504.318" y="312.724" width="1171.09" height="835.515" style="fill:white;stroke:black;stroke-width:15.13px;"/>
    </g>
    <g transform="matrix(0.809321,0,0,0.827689,-298.903,-212.075)">
        <ellipse cx="671.691" cy="391.551" rx="57.732" ry="53.364" style="stroke:black;stroke-width:7.89px;stroke-miterlimit:3.79178;"/>
    </g>
    <g transform="matrix(0.791782,0,0,0.827689,-110.285,-212.102)">
        <ellipse cx="671.691" cy="391.551" rx="57.732" ry="53.364" style="stroke:black;stroke-width:7.97px;stroke-miterlimit:3.79178;"/>
    </g>
    <g transform="matrix(0.791782,0,0,0.827689,63.3318,-211.589)">
        <ellipse cx="671.691" cy="391.551" rx="57.732" ry="53.364" style="stroke:black;stroke-width:7.97px;stroke-miterlimit:3.79178;"/>
    </g>
    <g transform="matrix(0.791782,0,0,0.827689,239.814,-213.768)">
        <ellipse cx="671.691" cy="391.551" rx="57.732" ry="53.364" style="stroke:black;stroke-width:7.97px;stroke-miterlimit:3.79178;"/>
    </g>
    <g transform="matrix(0.791782,0,0,0.827689,403.436,-215.138)">
        <ellipse cx="671.691" cy="391.551" rx="57.732" ry="53.364" style="stroke:black;stroke-width:7.97px;stroke-miterlimit:3.79178;"/>
    </g>
    <g transform="matrix(0.791782,0,0,0.827689,550.333,-217.495)">
        <ellipse cx="671.691" cy="391.551" rx="57.732" ry="53.364" style="stroke:black;stroke-width:7.97px;stroke-miterlimit:3.79178;"/>
    </g>
    <g transform="matrix(0.611154,0,0,1,-151.696,-238.394)">
        <rect x="609.4" y="254.82" width="80.146" height="126.24" style="fill:white;stroke:black;stroke-width:18.26px;stroke-miterlimit:3.79178;"/>
    </g>
    <g transform="matrix(0.631245,0,0,1,11.4035,-240.11)">
        <rect x="609.4" y="254.82" width="80.146" height="126.24" style="fill:white;stroke:black;stroke-width:18.09px;stroke-miterlimit:3.79178;"/>
    </g>
    <g transform="matrix(0.571326,0,0,1,225.539,-242.742)">
        <rect x="609.4" y="254.82" width="80.146" height="126.24" style="fill:white;stroke:black;stroke-width:18.58px;stroke-miterlimit:3.79178;"/>
    </g>
    <g transform="matrix(0.612955,0,0,1,373.187,-243.363)">
        <rect x="609.4" y="254.82" width="80.146" height="126.24" style="fill:white;stroke:black;stroke-width:18.24px;stroke-miterlimit:3.79178;"/>
    </g>
    <g transform="matrix(0.650098,0,0,1,513.93,-244.284)">
        <rect x="609.4" y="254.82" width="80.146" height="126.24" style="fill:white;stroke:black;stroke-width:17.94px;stroke-miterlimit:3.79178;"/>
    </g>
    <g transform="matrix(0.639913,0,0,1,667.425,-242.334)">
        <rect x="609.4" y="254.82" width="80.146" height="126.24" style="fill:white;stroke:black;stroke-width:18.02px;stroke-miterlimit:3.79178;"/>
    </g>
    <g transform="matrix(0.962506,0,0,0.938188,-367.823,-243.188)">
        <rect x="572.426" y="460.297" width="276.051" height="196.968" style="fill:white;stroke:black;stroke-width:13.68px;stroke-miterlimit:3.79178;"/>
    </g>
    <g transform="matrix(0.237684,0,0,0.241587,67.8694,327.269)">
        <path d="M437.455,454.481C451.108,532.602 447.039,934.122 433.759,1080.2C430.364,1117.54 416.745,1171.84 433.759,1205.86C461.239,1260.82 747.584,1250.27 803.347,1240.98C874.156,1229.17 1343.97,1250.54 1400.23,1246.52C1473.29,1241.3 1546.92,1232.81 1618.29,1216.95C1622.32,1216.06 1639.34,1207.3 1642.31,1213.26C1643.72,1216.07 1643.21,1105.93 1646.01,1076.51C1654.47,987.63 1658.6,897.534 1662.64,808.556C1665.17,752.902 1650.55,703.907 1644.16,649.633C1634.52,567.643 1630.2,362.18 1627.53,359.506C1621.19,353.171 1554.93,367.519 1544.37,366.898C1502.62,364.442 1225.62,385.688 1123.04,374.29C1073.87,368.826 837.702,373.177 775.628,357.659C738.302,348.327 466.488,327.215 437.455,346.571C417.541,359.847 429.273,407.668 437.455,454.481Z" style="fill:rgb(252,70,87);"/>
    </g>
    <g transform="matrix(0.962506,0,0,0.938188,-367.581,-6.11716)">
        <rect x="572.426" y="460.297" width="276.051" height="196.968" style="fill:none;stroke:black;stroke-width:13.68px;stroke-miterlimit:3.79178;"/>
    </g>
    <g transform="matrix(0.962506,0,0,0.938188,-369.221,230.525)">
        <rect x="572.426" y="460.297" width="276.051" height="196.968" style="fill:white;stroke:black;stroke-width:13.68px;stroke-miterlimit:3.79178;"/>
    </g>
    <g transform="matrix(0.962506,0,0,0.938188,-24.3156,-245.315)">
        <rect x="572.426" y="460.297" width="276.051" height="196.968" style="fill:white;stroke:black;stroke-width:13.68px;stroke-miterlimit:3.79178;"/>
    </g>
    <g transform="matrix(1,0,0,1,-429.03,-250.372)">
        <path d="M951.263,671.677C952.52,671.132 954.289,679.604 954.444,681.025C956.249,697.566 954.252,798.962 953.468,829.55C953.222,839.14 947.697,856.556 953.071,865.498C957.247,872.449 981.516,873.798 988.181,874.051C1036.15,875.874 1096.54,867.996 1144.38,861.806C1160.65,859.7 1194.07,860.323 1207.74,852.107C1211.38,849.925 1209.95,833.27 1210.31,829.843C1213.17,801.985 1209.67,773.894 1212.03,746.229C1213.24,731.999 1211.7,687.004 1212.08,678.927C1212.35,673.19 1212.91,658.818 1211.64,659.102C1210.53,659.349 1169.99,660.916 1151,661.112C1114.42,661.49 1078.1,662.364 1041.32,661.656C1022.18,661.287 995.322,660.401 977.305,664.418C974.032,665.147 952.712,671.27 952.515,670.387" style="fill:rgb(254,175,0);"/>
    </g>
    <g transform="matrix(0.962506,0,0,0.938188,-25.6267,-9.61444)">
        <rect x="572.426" y="460.297" width="276.051" height="196.968" style="fill:none;stroke:black;stroke-width:13.68px;stroke-miterlimit:3.79178;"/>
    </g>
    <g transform="matrix(0.962506,0,0,0.938188,-29.425,232.845)">
        <rect x="572.426" y="460.297" width="276.051" height="196.968" style="fill:white;stroke:black;stroke-width:13.68px;stroke-miterlimit:3.79178;"/>
    </g>
    <g transform="matrix(1,0,0,1,-446.341,-235.664)">
        <path d="M1286.81,441.633C1286.77,440.969 1292.16,491.855 1292.96,505.393C1294.62,533.653 1295.62,561.601 1295.62,589.962C1295.62,596.488 1292.8,617.988 1295.17,622.728C1296.73,625.832 1309.38,625.384 1312.44,625.384C1330.21,625.384 1348.3,624.352 1366.02,623.17C1391.41,621.477 1419.02,620.151 1444.39,621.842C1482.36,624.374 1557.25,627.703 1558.62,607.116C1561.4,565.455 1561.3,523.503 1558.62,483.329C1558,473.909 1559.91,429.197 1558.62,427.908C1553.97,423.253 1476.77,428.573 1469.46,427.908C1457.93,426.859 1391.11,436.779 1371.31,439.42C1354.1,441.715 1286.81,434.971 1286.81,441.633Z" style="fill:rgb(254,175,0);"/>
        <path d="M1279.92,441.627L1279.71,441.633C1279.71,439.133 1280.68,436.606 1283.55,434.679C1285.18,433.585 1288.51,432.468 1293.24,432C1310.97,430.248 1356.64,434.213 1370.37,432.382C1390.49,429.7 1458.39,419.772 1470.1,420.837C1475.93,421.367 1526.3,418.053 1548.6,419.092C1553.2,419.307 1556.79,419.747 1558.91,420.326C1561.28,420.974 1562.79,422.029 1563.64,422.887C1564.16,423.401 1565.72,425.314 1566,428.975C1566.63,437.254 1565.14,474.367 1565.71,482.857C1568.41,523.337 1568.51,565.609 1565.71,607.588C1565.42,611.899 1563.46,615.703 1559.81,618.886C1556.01,622.206 1549.93,624.913 1542.16,626.761C1516.74,632.814 1471.09,630.737 1443.91,628.926C1418.85,627.255 1391.58,628.582 1366.49,630.254C1348.61,631.446 1330.37,632.484 1312.44,632.484C1309.61,632.484 1299.67,632.592 1294.89,630.883C1291.72,629.754 1289.77,627.805 1288.82,625.903C1287.82,623.901 1287.12,619.825 1287.12,614.782C1287.14,606.428 1288.52,594.528 1288.52,589.962C1288.52,561.741 1287.53,533.931 1285.87,505.81C1285.16,493.693 1280.74,451.493 1279.89,443.656C1279.87,443.437 1279.85,443.226 1279.85,443.023C1279.78,442.703 1279.74,442.374 1279.72,442.039C1279.72,441.986 1279.78,441.891 1279.9,441.765L1279.92,441.643L1279.92,441.627ZM1551.98,433.732C1552.17,446.083 1551.04,476.261 1551.54,483.801C1554.2,523.669 1554.3,565.301 1551.54,606.643C1551.47,607.666 1550.52,608.248 1549.48,608.943C1546.9,610.659 1543.24,611.908 1538.88,612.947C1514.55,618.74 1470.86,616.491 1444.86,614.758C1419.18,613.046 1391.25,614.373 1365.54,616.087C1347.98,617.257 1330.05,618.285 1312.44,618.285C1310.92,618.285 1304.68,617.862 1301.52,617.641C1301.42,615.878 1301.32,613.378 1301.4,611.296C1301.7,603.354 1302.71,593.928 1302.71,589.962C1302.71,561.461 1301.72,533.376 1300.05,504.976C1299.41,494.227 1295.9,460.066 1294.47,446.492C1299.55,446.164 1309.35,445.649 1317.92,445.863C1338.36,446.371 1362.76,447.722 1372.25,446.457C1391.74,443.859 1457.47,433.947 1468.82,434.978C1473.98,435.448 1513.7,433.005 1538.67,433.08C1543.45,433.094 1548.71,433.46 1551.98,433.732Z" style="fill:rgb(254,175,0);"/>
    </g>
    <g transform="matrix(0.962506,0,0,0.938188,308.949,-247.605)">
        <rect x="572.426" y="460.297" width="276.051" height="196.968" style="fill:none;stroke:black;stroke-width:13.68px;stroke-miterlimit:3.79178;"/>
    </g>
    <g transform="matrix(0.962506,0,0,0.938188,307.856,-9.6777)">
        <rect x="572.426" y="460.297" width="276.051" height="196.968" style="fill:white;stroke:black;stroke-width:13.68px;stroke-miterlimit:3.79178;"/>
    </g>
    <g transform="matrix(0.962506,0,0,0.938188,306.762,228.249)">
        <rect x="572.426" y="460.297" width="276.051" height="196.968" style="fill:white;stroke:black;stroke-width:13.68px;stroke-miterlimit:3.79178;"/>
    </g>
    <g transform="matrix(0.962506,0,0,0.938188,-367.823,-243.188)">
        <path d="M1411.07,457.324C1381.71,455.432 1361.06,488.565 1359.47,494.485C1358.59,497.768 1352.29,517.71 1355.35,532.568C1362.92,569.376 1389.02,590.69 1411.07,590.69C1447.01,590.69 1474.92,549.861 1469.69,494.485C1465.9,454.314 1411.71,458.354 1411.07,457.324Z" style="fill:white;"/>
        <path d="M1412.06,454.034C1411.81,453.955 1411.55,453.906 1411.29,453.889C1395.6,452.878 1382.19,461.092 1372.55,470.477C1362.89,479.869 1357.09,490.406 1356.24,493.569C1355.31,496.992 1348.88,517.791 1352.07,533.279C1360.04,572.033 1387.85,594.132 1411.07,594.132C1448.6,594.132 1478.49,551.979 1473.04,494.153C1471.18,474.482 1458.33,464.456 1444.57,459.382C1431.52,454.571 1417.72,454.328 1412.93,454.092C1412.62,454.077 1412.27,454.05 1412.06,454.034ZM1410.52,460.741C1411.42,460.881 1413.69,460.992 1416.88,461.165C1423.75,461.539 1435.67,462.612 1446.23,467.486C1456.21,472.096 1464.98,480.22 1466.36,494.817C1471.35,547.746 1445.42,587.248 1411.07,587.248C1390.18,587.248 1365.81,566.721 1358.63,531.857C1355.71,517.627 1361.86,498.545 1362.7,495.4C1363.44,492.644 1368.76,483.654 1377.16,475.473C1385.51,467.353 1396.99,460.002 1410.52,460.741Z"/>
    </g>
    <g transform="matrix(0.962506,0,0,0.938188,-367.823,-243.188)">
        <path d="M1411.42,561.639C1411.2,561.587 1408.99,561.045 1407.32,560.16C1403.89,558.349 1399.74,554.952 1397.46,549.568C1396.73,547.826 1394.75,547.024 1393.05,547.781C1391.35,548.537 1390.57,550.566 1391.31,552.308C1394.81,560.585 1401.63,565.33 1406.43,567.309C1408.95,568.349 1411.04,568.617 1412.12,568.49C1413.76,568.296 1417.05,566.947 1420.6,564.567C1425.56,561.241 1431.13,555.956 1433.49,550.083C1434.19,548.327 1433.38,546.313 1431.66,545.59C1429.95,544.866 1427.99,545.705 1427.28,547.461C1425.41,552.114 1420.86,556.168 1416.93,558.803C1414.6,560.365 1412.54,561.476 1411.42,561.639Z"/>
    </g>
    <g transform="matrix(0.962506,0,0,0.938188,-367.823,-243.188)">
        <path d="M1425.9,512.604C1426.05,512.735 1427.16,513.685 1427.85,514.333C1429.34,515.743 1431.03,517.138 1432.57,517.735C1438.8,520.152 1447.6,520.155 1454.23,516.932C1459.06,514.586 1462.77,510.616 1463.97,504.857C1464.36,502.999 1463.2,501.169 1461.39,500.772C1459.58,500.376 1457.8,501.563 1457.41,503.421C1456.48,507.912 1452.9,510.47 1448.8,511.7C1444.21,513.075 1438.9,512.83 1434.94,511.295C1433.84,510.866 1432.73,509.578 1431.7,508.611C1430.36,507.358 1429.07,506.425 1428.14,506.117C1426.38,505.534 1424.49,506.528 1423.92,508.336C1423.37,510.083 1424.25,511.953 1425.9,512.604Z"/>
    </g>
    <g transform="matrix(0.962506,0,0,0.938188,-367.823,-243.188)">
        <path d="M1424.3,520.316C1422.88,520.473 1421.67,521.549 1421.37,523.054C1421,524.916 1422.18,526.734 1423.99,527.112C1426.9,527.715 1428.94,526.373 1430.2,523.682C1431.38,521.173 1431.86,514.88 1431.88,514.57C1432.5,512.879 1431.74,510.961 1430.11,510.217C1428.41,509.444 1426.43,510.226 1425.68,511.962C1425.31,512.798 1425.1,515.133 1424.81,517.593C1424.72,518.421 1424.6,519.269 1424.39,520.013C1424.37,520.105 1424.33,520.212 1424.3,520.316Z"/>
    </g>
    <g transform="matrix(0.962506,0,0,0.938188,-367.823,-243.188)">
        <path d="M1444.85,522.068C1444.79,521.767 1444.72,521.314 1444.71,520.988C1444.64,519.496 1444.84,517.91 1444.94,517.145C1445.18,515.262 1443.9,513.527 1442.06,513.273C1440.23,513.019 1438.54,514.342 1438.29,516.225C1438.08,517.81 1437.72,521.875 1438.49,524.387C1439.17,526.632 1440.6,528.018 1442.48,528.409C1444.3,528.786 1446.07,527.581 1446.43,525.719C1446.73,524.241 1446.05,522.792 1444.85,522.068Z"/>
    </g>
    <g transform="matrix(0.962506,0,0,0.938188,-367.823,-243.188)">
        <path d="M1454.05,516.412C1453.93,515.343 1453.31,514.351 1452.32,513.8C1450.69,512.897 1448.65,513.519 1447.77,515.191C1447.46,515.787 1447.08,517.088 1447.71,518.744C1448.26,520.196 1450.09,523.077 1450.52,523.744C1451.56,525.32 1453.64,525.739 1455.18,524.678C1456.72,523.618 1457.13,521.477 1456.09,519.901C1455.81,519.477 1454.43,517.067 1454.05,516.412Z"/>
    </g>
    <g transform="matrix(0.962506,0,0,0.938188,-367.823,-243.188)">
        <path d="M1458.84,513.751C1459.07,514.035 1459.8,514.924 1460.26,515.398C1461.51,516.7 1463.06,517.669 1465.46,517.573C1467.31,517.499 1468.75,515.898 1468.68,513.999C1468.61,512.101 1467.05,510.62 1465.2,510.694C1464.94,510.704 1464.9,510.422 1464.78,510.275C1464.43,509.853 1464.1,509.419 1463.75,509.036C1462.78,507.985 1461.65,507.249 1460.21,507.021C1458.38,506.732 1456.66,508.022 1456.38,509.9C1456.12,511.657 1457.2,513.31 1458.84,513.751Z"/>
    </g>
    <g transform="matrix(0.962506,0,0,0.938188,-367.823,-243.188)">
        <path d="M1366.31,507.888C1366.54,506.126 1365.41,504.45 1363.68,504.073C1361.87,503.677 1360.09,504.863 1359.7,506.721C1359.28,508.754 1359.89,510.815 1361.39,512.678C1363.45,515.233 1367.6,517.481 1369.58,518.633C1374.26,521.354 1383.29,522.328 1390.62,520.521C1396.09,519.174 1400.52,516.248 1402.28,512.044C1403,510.297 1402.21,508.273 1400.51,507.526C1398.81,506.779 1396.83,507.591 1396.11,509.337C1395.09,511.78 1392.23,513.044 1389.06,513.827C1383.43,515.213 1376.48,514.732 1372.89,512.644C1371.73,511.971 1369.64,510.895 1367.93,509.565C1367.31,509.082 1366.51,508.128 1366.31,507.888Z"/>
    </g>
    <g transform="matrix(0.962506,0,0,0.938188,-367.823,-243.188)">
        <path d="M1361.03,516.156C1360.63,517.075 1360.03,517.566 1359.06,517.821C1357.27,518.296 1356.19,520.174 1356.65,522.014C1357.11,523.854 1358.95,524.962 1360.74,524.488C1363.99,523.627 1365.97,521.899 1367.25,518.729C1367.34,518.508 1368.06,516.172 1368.23,515.611C1368.31,515.462 1368.38,515.306 1368.43,515.142C1369.07,513.357 1368.17,511.38 1366.43,510.73C1365.81,510.5 1363.48,509.937 1362.22,512.494C1361.99,512.965 1361.13,515.806 1361.03,516.156ZM1366.43,517.2C1365.71,517.467 1364.9,517.487 1364.13,517.2C1364.82,517.458 1365.6,517.523 1366.43,517.2Z"/>
    </g>
    <g transform="matrix(0.962506,0,0,0.938188,-367.823,-243.188)">
        <path d="M1372.69,517.927C1372.04,520.346 1371.63,522.85 1371.12,525.304C1370.74,527.162 1371.89,528.992 1373.7,529.389C1375.51,529.785 1377.3,528.598 1377.68,526.74C1378.16,524.425 1378.54,522.059 1379.16,519.776C1379.66,517.946 1378.61,516.046 1376.83,515.536C1375.04,515.026 1373.19,516.097 1372.69,517.927Z"/>
    </g>
    <g transform="matrix(0.962506,0,0,0.938188,-367.823,-243.188)">
        <path d="M1385.32,521.965C1386.33,523.011 1386.54,523.696 1386.44,525.294C1386.32,527.19 1387.73,528.829 1389.57,528.952C1391.42,529.075 1393.02,527.636 1393.14,525.74C1393.4,521.588 1392.71,519.857 1390.11,517.139C1388.81,515.784 1386.68,515.765 1385.37,517.097C1384.04,518.429 1384.03,520.61 1385.32,521.965Z"/>
    </g>
    <g transform="matrix(0.962506,0,0,0.938188,-367.823,-243.188)">
        <path d="M1396.75,517.673C1397.88,518.37 1398.57,519.497 1399.43,520.496C1400.4,521.617 1401.46,522.663 1402.85,523.466C1404.46,524.403 1406.51,523.822 1407.42,522.17C1408.33,520.517 1407.77,518.414 1406.15,517.477C1404.95,516.777 1404.24,515.665 1403.42,514.691C1402.48,513.576 1401.47,512.548 1400.2,511.767C1398.61,510.791 1396.55,511.322 1395.6,512.951C1394.64,514.581 1395.16,516.697 1396.75,517.673Z"/>
    </g>
    <g transform="matrix(1,0,0,1,-433.766,-250.377)">
        <path d="M1409.6,555.259C1408.91,554.778 1408.18,554.752 1407.49,554.949C1407.3,555.003 1405.79,555.517 1405.55,557.492C1405.28,559.772 1404.77,572.142 1404.16,574.593C1403.65,576.6 1402.25,578.339 1400.52,579.84C1397.57,582.398 1393.61,584.236 1390.39,585.201C1383.67,587.218 1377.94,587.436 1371.03,588.012C1360.03,588.928 1347.27,590.093 1338.11,596.199C1328.79,602.411 1326.78,609.626 1326.54,612.597C1326.41,614.164 1326.84,615.149 1327.05,615.464C1327.44,616.052 1327.86,616.74 1329.75,617.262C1330.67,617.518 1332.26,617.778 1335.15,617.997C1347.39,618.93 1385.17,619.49 1505.4,619.49C1509.55,619.49 1511.51,618.072 1512.33,616.599C1513,615.392 1513.11,613.881 1512.54,612.178C1511.35,608.58 1506.33,603.434 1504.28,600.536C1502.69,598.273 1499.99,596.433 1496.52,594.981C1491.95,593.073 1486,591.762 1479.99,590.532C1474.27,589.362 1468.5,588.262 1463.97,586.685C1461.34,585.77 1459.14,584.741 1457.8,583.328C1454.61,579.984 1453.02,575.854 1451.92,571.364C1450.73,566.451 1450.12,561.116 1449,555.774C1448.87,555.119 1448.52,554.58 1447.94,554.18C1447.63,553.966 1447.18,553.733 1446.52,553.72C1446.41,553.718 1445.78,553.759 1444.83,554.195C1441.65,555.64 1425.24,563.337 1409.61,555.258L1409.6,555.259ZM1444.56,559.937C1445.34,564.284 1445.93,568.574 1446.91,572.586C1448.22,577.974 1450.23,582.877 1454.06,586.89C1455.87,588.789 1458.73,590.329 1462.27,591.559C1467,593.202 1473,594.369 1478.95,595.588C1484.61,596.746 1490.23,597.945 1494.52,599.742C1496.96,600.76 1498.95,601.92 1500.07,603.508C1501.65,605.751 1505.23,609.386 1507.02,612.473C1507.3,612.973 1507.56,613.69 1507.67,614.054C1507.57,614.094 1507.45,614.133 1507.35,614.156C1506.83,614.276 1506.19,614.329 1505.4,614.329C1385.45,614.329 1347.76,613.782 1335.54,612.852C1334.01,612.735 1332.73,612.55 1331.91,612.411C1332.56,610.186 1334.72,604.661 1340.98,600.492C1349.44,594.849 1361.29,594.001 1371.46,593.154C1378.75,592.547 1384.78,592.271 1391.88,590.143C1395.7,588.997 1400.39,586.782 1403.9,583.741C1406.48,581.509 1408.42,578.828 1409.16,575.845C1409.65,573.908 1410.11,566.004 1410.42,561.301C1424.51,566.948 1438.56,562.391 1444.56,559.937ZM1407.33,559.892L1407,559.718C1406.77,559.598 1406.56,559.446 1406.38,559.265C1406.69,559.572 1407.01,559.774 1407.33,559.892Z"/>
    </g>
    <g transform="matrix(0.962506,0,0,0.938188,-367.823,-243.188)">
        <path d="M1409.55,457.601C1378.78,457.601 1351.51,436.163 1337.88,492.167C1332.98,512.314 1330.19,521.233 1330.64,541.872C1330.99,557.633 1335.53,577.254 1327.37,591.286C1307.01,626.295 1309.6,650.589 1309.88,650.109C1316.96,637.936 1315.35,632.053 1330.64,627.084C1335.36,625.553 1355.88,619.218 1360.03,617.926C1366.33,615.963 1384.32,614.333 1388.48,609.061C1391,605.874 1397.27,591.286 1385.72,587.509C1378.99,585.311 1376.63,582.376 1372.82,576.565C1360.44,557.679 1354.53,539.261 1356.93,516.512C1358.02,506.247 1362.11,491.776 1372.68,489.66C1402.81,483.627 1409.55,457.601 1409.55,457.601C1409.55,457.601 1418.53,476.26 1423.31,480.913C1435.13,492.418 1455.03,488.625 1463.5,501.392C1473.33,516.215 1459.72,564.682 1452.07,570.233C1435.7,582.12 1433.69,596.331 1444.99,612.709C1452.93,624.219 1501.71,623.92 1501.71,650.109C1501.71,656.749 1529.67,655.23 1530.2,652.673C1532.64,640.925 1534.14,607.626 1530.2,596.331C1519.76,566.384 1503.65,537.457 1497.12,506.08C1495.89,500.131 1493.46,480.913 1473.09,457.601C1464.04,447.229 1429.74,457.601 1409.55,457.601Z"/>
        <path d="M1409.55,454.158C1398.9,454.158 1388.68,451.539 1379.31,450.538C1368.87,449.422 1359.43,450.284 1351.37,457.393C1344.74,463.244 1338.95,473.561 1334.62,491.333C1329.63,511.847 1326.83,520.934 1327.29,541.949C1327.46,549.826 1328.68,558.667 1328.84,567.293C1328.99,575.258 1328.26,583.046 1324.49,589.522C1305.51,622.167 1305.96,645.878 1306.42,649.919C1306.59,651.389 1307.13,652.112 1307.25,652.267C1308.06,653.297 1309,653.523 1309.73,653.555C1310.71,653.598 1311.91,653.335 1312.76,651.873C1314.95,648.115 1316.33,644.942 1317.62,642.2C1320.16,636.776 1322.32,633.4 1331.66,630.366C1336.36,628.836 1356.87,622.51 1361.01,621.22C1365.43,619.84 1375.6,618.618 1382.74,616.198C1386.53,614.915 1389.54,613.193 1391.09,611.229C1392.57,609.356 1395.2,604.155 1395.71,598.848C1396.3,592.818 1394.45,586.75 1386.74,584.229C1380.9,582.321 1378.91,579.69 1375.61,574.644C1363.69,556.474 1357.96,538.769 1360.27,516.884C1360.87,511.208 1362.41,504.119 1365.69,498.95C1367.56,496.012 1370,493.703 1373.32,493.038C1395.13,488.672 1405.47,474.489 1409.9,465.71C1413.11,471.819 1417.91,480.404 1421,483.411C1427.33,489.566 1435.75,491.77 1443.79,494.002C1450.49,495.863 1456.94,497.63 1460.72,503.328C1462.41,505.874 1463.19,509.606 1463.47,513.938C1463.94,521.219 1462.87,530.086 1461.06,538.553C1459.24,547.08 1456.67,555.206 1454.1,560.921C1452.66,564.117 1451.38,566.521 1450.13,567.424C1441.05,574.017 1436.11,581.367 1434.84,589.228C1433.58,597.084 1435.99,605.617 1442.25,614.697C1444.12,617.416 1447.83,619.744 1452.71,621.709C1458.96,624.22 1467.28,626.361 1475.24,629.161C1481.45,631.345 1487.45,633.917 1491.87,637.529C1495.75,640.698 1498.35,644.698 1498.35,650.109C1498.35,652.227 1499.42,654.142 1501.69,655.53C1504.54,657.261 1510.08,658.178 1515.69,658.282C1521.9,658.397 1528.14,657.592 1530.54,656.591C1532.55,655.755 1533.29,654.331 1533.48,653.392C1536.01,641.252 1537.43,606.843 1533.36,595.172C1522.97,565.367 1506.9,536.59 1500.41,505.361C1499.13,499.219 1496.62,479.375 1475.59,455.303C1472.39,451.635 1466.61,449.843 1459.3,449.587C1444.81,449.077 1423.71,454.158 1409.55,454.158ZM1527.23,650.345C1525.24,650.672 1519.88,651.474 1515.82,651.398C1512.6,651.339 1509.39,651.04 1506.99,650.354C1506.3,650.159 1505.44,649.729 1505.06,649.523C1504.88,642.13 1501.42,636.527 1496.05,632.142C1491.08,628.085 1484.39,625.101 1477.41,622.648C1469.55,619.883 1461.33,617.779 1455.16,615.299C1451.77,613.936 1449.03,612.606 1447.73,610.72C1442.69,603.422 1440.45,596.661 1441.46,590.346C1442.48,584.035 1446.72,578.337 1454.01,573.043C1455.44,572.007 1457.13,569.848 1458.77,566.73C1461.95,560.678 1465.35,550.65 1467.62,540.026C1469.56,530.897 1470.67,521.332 1470.16,513.482C1469.79,507.727 1468.51,502.838 1466.27,499.455C1461.58,492.385 1453.86,489.666 1445.54,487.356C1438.56,485.417 1431.12,483.766 1425.62,478.416C1422.57,475.444 1417.76,466.47 1414.91,460.841C1426.46,460.059 1440.9,457.203 1452.8,456.558C1457.1,456.325 1461.05,456.382 1464.34,457.003C1467.01,457.508 1469.22,458.32 1470.6,459.898C1490.29,482.451 1492.65,501.043 1493.84,506.798C1500.4,538.324 1516.56,567.401 1527.04,597.49C1530.68,607.931 1529.41,637.819 1527.23,650.345ZM1404.73,460.881C1401.51,468.006 1392.64,482.155 1372.03,486.281C1366.9,487.31 1362.96,490.647 1360.07,495.19C1356.23,501.241 1354.3,509.498 1353.6,516.141C1351.1,539.753 1357.18,558.883 1370.04,578.487C1374.35,585.063 1377.09,588.301 1384.7,590.789C1388.54,592.045 1389.33,595.159 1389.04,598.165C1388.68,601.892 1386.91,605.579 1385.87,606.893C1385.31,607.605 1384.33,608.14 1383.16,608.676C1381.57,609.403 1379.67,610.017 1377.63,610.564C1370.9,612.373 1362.86,613.446 1359.06,614.632C1354.9,615.926 1334.35,622.269 1329.63,623.802C1320.78,626.678 1316.97,629.911 1314.26,634.158C1316.11,624.162 1320.45,609.903 1330.26,593.05C1334.65,585.494 1335.72,576.455 1335.55,567.162C1335.39,558.529 1334.17,549.679 1334,541.795C1333.56,521.533 1336.32,512.781 1341.13,493.001C1344.99,477.171 1349.84,467.825 1355.74,462.613C1362.32,456.815 1370.1,456.475 1378.62,457.385C1386.78,458.257 1395.57,460.296 1404.73,460.881Z"/>
    </g>
    <g transform="matrix(0.962506,0,0,0.938188,-367.823,-243.188)">
        <path d="M654.307,771.582C653.933,773.904 647.471,779.016 645.94,781.489C641.471,788.704 640.659,797.558 635.724,804.422C634.433,806.219 634.011,808.231 631.925,809.327C625.612,812.644 620.205,812.879 613.505,813.132C612.052,813.187 610.825,814.216 611.076,815.75C611.43,817.912 613.435,819.707 614.405,821.553C615.95,824.494 616.495,828.512 617.025,831.757C619.294,845.637 617.007,873.338 634.942,877.782C639.689,878.958 645.209,877.579 650.043,877.455C656.771,877.283 663.062,877.707 669.741,876.616C671.53,876.323 682.037,872.439 682.42,872.639C684.548,873.751 684.542,877.796 684.78,879.791C685.592,886.606 679.331,906.082 679.654,906.429C681.047,907.924 728.533,906.429 744.277,906.429C745.676,906.429 744.871,889.089 744.277,884.108C743.959,881.435 743.111,878.894 743.542,876.215C743.658,875.496 743.672,870.937 743.92,870.758C751.917,864.98 754.902,855.187 760.033,847.019C768.657,833.293 775.734,819.489 777.665,802.959C779.578,786.577 768.439,766.867 756.286,756.628C751.183,752.328 745.526,747.405 739.408,744.629C718.783,735.27 696.894,738.587 676.521,745.785C667.679,748.909 662.444,759.672 657.339,766.772C655.653,769.117 653.991,770.884 652.98,773.594C652.651,774.475 652.189,775.457 651.569,776.125C651.21,776.513 650.035,777.578 650.394,777.19C650.675,776.887 650.988,776.617 651.285,776.33" style="fill:white;"/>
        <path d="M649.914,772.186C649.687,772.46 649.451,772.732 649.232,772.964C646.971,775.358 644.102,778.037 643.108,779.643C640.738,783.469 639.308,787.718 637.846,791.933C636.578,795.588 635.294,799.222 633.024,802.378C632.428,803.207 631.982,804.069 631.52,804.894C631.233,805.408 630.994,805.949 630.395,806.264C624.57,809.324 619.565,809.459 613.381,809.692C609.851,809.825 607.158,812.592 607.767,816.32C607.984,817.646 608.557,818.904 609.321,820.091C610.012,821.166 610.913,822.161 611.452,823.187C612.832,825.815 613.242,829.426 613.716,832.326C615.101,840.799 614.874,854.326 618.367,864.775C621.04,872.771 625.777,879.052 634.155,881.128C639.174,882.371 645.014,881.028 650.127,880.897C657.007,880.72 663.439,881.131 670.269,880.015C671.496,879.815 677.884,877.696 681.034,876.637C681.3,877.918 681.34,879.297 681.449,880.208C681.71,882.403 681.074,886.055 680.266,889.857C678.913,896.222 676.932,902.94 676.47,905.017C675.961,907.304 677.037,908.602 677.229,908.807C677.534,909.136 678.141,909.658 679.229,909.935C680.128,910.164 682.272,910.357 685.305,910.444C698.7,910.828 731.662,909.871 744.277,909.871C745.341,909.871 747.083,909.393 747.831,906.981C748.148,905.956 748.37,903.684 748.402,900.852C748.466,895.178 747.992,886.915 747.608,883.691C747.328,881.345 746.474,879.127 746.853,876.776C746.924,876.335 747.033,873.975 747.091,872.62C750.843,869.566 753.573,865.692 755.948,861.522C758.311,857.373 760.314,852.926 762.853,848.884C771.757,834.712 779.003,820.435 780.996,803.369C783.033,785.931 771.351,764.866 758.415,753.967C753.087,749.478 747.153,744.379 740.766,741.481C719.337,731.758 696.594,735.052 675.428,742.53C671.361,743.967 667.921,746.758 664.925,750.175C660.944,754.715 657.76,760.388 654.639,764.728C652.799,767.288 651.042,769.268 649.914,772.186ZM741.595,902.998C741.643,902.309 741.684,901.516 741.692,900.772C741.752,895.401 741.31,887.578 740.947,884.526C740.589,881.524 739.747,878.661 740.232,875.654C740.339,874.986 740.382,871.113 740.572,870.21C740.862,868.832 741.637,868.197 741.988,867.944C745.581,865.348 748.009,861.815 750.154,858.048C752.566,853.814 754.621,849.28 757.213,845.154C765.557,831.873 772.465,818.543 774.333,802.55C776.124,787.222 765.527,768.867 754.156,759.288C749.279,755.178 743.899,750.43 738.051,747.777C718.228,738.782 697.193,742.121 677.614,749.039C673.786,750.392 670.805,753.483 668.163,756.919C665.134,760.858 662.572,765.292 660.04,768.815C659.212,769.966 658.373,770.947 657.637,772.002L657.618,772.143C657.461,773.117 656.784,774.494 655.64,775.95C655.201,776.886 654.647,777.801 654,778.498C653.58,778.951 652.376,780.014 652.188,780.141C651.822,780.388 651.47,780.55 651.136,780.646C650.106,781.675 649.216,782.618 648.772,783.335C646.673,786.723 645.463,790.509 644.168,794.241C642.679,798.533 641.09,802.759 638.425,806.465C637.832,807.289 637.45,808.17 636.966,808.964C636.131,810.332 635.104,811.524 633.454,812.391C627.1,815.73 621.612,816.242 615.031,816.516C615.215,816.769 615.415,817.017 615.6,817.271C616.252,818.162 616.897,819.041 617.359,819.92C619.068,823.173 619.747,827.598 620.334,831.188C621.462,838.085 621.446,848.417 623.387,857.576C625.054,865.439 628.079,872.54 635.73,874.436C640.203,875.544 645.403,874.131 649.959,874.014C656.535,873.846 662.685,874.283 669.213,873.216C670.792,872.958 679.287,869.821 681.246,869.344C682.735,868.982 683.686,869.437 683.943,869.572C685.56,870.416 686.698,872.024 687.307,874.046C687.849,875.847 687.949,878.023 688.11,879.373C688.738,884.644 685.426,897.189 683.785,903.486C684.33,903.518 684.911,903.546 685.492,903.562C697.982,903.92 727.538,903.105 741.595,902.998Z"/>
    </g>
    <g transform="matrix(0.962506,0,0,0.938188,-367.823,-243.188)">
        <path d="M678.759,735.967C679.867,732.58 673.074,729.657 670.367,729.494C664.908,729.166 660.123,735.234 660.086,740.378C660.078,741.617 660.589,743.408 661.451,744.36C661.63,744.558 663.203,746.047 663.005,745.614C659.803,738.601 645.332,740.293 641.264,745.121C638.504,748.397 635.362,755.356 637.963,759.387C639.374,761.573 641.601,763.717 644.178,764.401C644.647,764.525 647.058,765.206 647.23,764.14C647.297,763.722 641.533,763.718 640.921,764.378C638.817,766.646 636.77,772.737 636.831,775.757C636.956,781.994 644.095,785.75 649.497,784.319C649.816,784.234 658.49,781.818 658.028,781.179C656.839,779.532 653.782,784.573 653.613,785.233C652.471,789.699 654.609,796.198 659.189,798.019C663.562,799.758 669.208,798.232 673.503,797.215C674.094,797.075 681.182,793.436 681.135,793.428C679.333,793.138 677.99,795.639 677.327,796.828C675.024,800.96 671.391,806.74 672.202,811.697C672.767,815.156 675.663,820.07 679.169,821.202C680.78,821.722 685.021,820.685 685.343,818.685C685.455,817.989 683.894,818.775 683.269,819.103C681.368,820.102 679.961,821.998 679.225,823.97C677.419,828.811 677.814,836.549 683.053,839.133C685.139,840.162 688.15,840.203 690.299,839.297C690.455,839.231 692.309,837.893 692.081,837.578C690.941,835.999 687.889,839.473 687.413,840.086C685.436,842.639 684.422,847.798 685.681,850.842C687.061,854.183 689.936,858.256 693.623,859.144C694.284,859.304 702.252,859.856 701.351,857.881C700.289,855.555 697.966,859.797 697.905,860.587C697.582,864.799 700.853,870.321 704.487,872.394C707.095,873.883 710.036,873.021 712.622,871.986C713.689,871.559 715.027,868.072 714.356,869.005C713.321,870.446 715.269,872.474 716.171,873.311C718.767,875.718 722.765,877.347 726.368,876.96C730.768,876.486 734.21,872.947 737.035,869.9C737.565,869.329 738.064,868.731 738.573,868.141C738.961,867.69 740.269,866.483 739.787,866.832C735.414,869.992 744.177,876.057 747.352,875.937C751.352,875.786 754.462,872.598 757.309,870.156C757.983,869.579 760.324,864.738 759.035,865.669C757.865,866.514 760.783,869.474 761.623,869.848C764.051,870.928 767.553,869.235 769.468,867.851C771.528,866.363 774.235,862.269 773.82,859.523C773.619,858.195 771.603,856.157 771.603,856.157C771.603,856.157 774.538,858.542 776.256,858.411C779.996,858.125 784.253,854.516 786.008,851.367C787.197,849.233 787.898,846.69 788.066,844.262C788.114,843.57 788.006,841.11 787.718,840.193C787.629,839.909 786.822,839.412 787.064,839.586C791.971,843.114 797.199,836.303 799.443,832.802C801.244,829.991 802.075,826.788 802.445,823.504C802.583,822.285 800.563,820.083 801.774,819.885C807.089,819.016 809.354,811.802 810.903,806.809C811.948,803.442 810.85,799.8 809.789,796.597C809.524,795.795 808.804,793.575 807.896,792.781C807.579,792.504 806.298,792.273 806.713,792.34C813.934,793.503 818.185,782.379 814.635,776.987C814.146,776.245 812.304,773.794 811.78,773.342C811.092,772.749 808.355,773.441 809.091,772.909C814.349,769.11 809.934,761.504 806.606,757.49C805.966,756.718 802.249,754.161 801.383,755.365C800.724,756.281 804.543,756.046 804.819,755.93C806.993,755.013 809.917,751.833 809.113,749.269C808.126,746.122 803.559,741.649 800.568,740.185C799.556,739.69 798.044,739.417 796.941,739.35C796.572,739.328 795.585,739.898 795.884,739.682C798.7,737.647 797.814,734.325 795.843,732.151C793.62,729.698 790.163,725.566 786.581,724.989C785.526,724.819 782.001,726.14 782.752,727.785C783.073,728.488 783.998,726.091 783.635,725.419C783.121,724.468 780.583,722.861 780.078,722.589C776.474,720.646 771.596,719.318 767.484,719.808C765.797,720.009 762.42,723.221 762.69,721.543C763.377,717.279 757.374,716.945 754.049,717.229C752.429,717.368 745.826,719.579 744.844,718.669C742.657,716.64 742.241,713.839 738.368,713.606C734.774,713.39 732.53,716.96 729.412,717.938C728.833,718.12 728.094,716.467 727.693,716.156C726.051,714.885 725.846,715.069 723.694,714.509C718.933,713.269 717.594,714.619 714.334,715.008C708.774,715.67 699.641,717.2 695.717,720.034C695.523,720.175 692.521,719.244 692.334,719.239C689.761,719.169 687.632,720.114 685.466,721.393C683.798,722.378 682.301,724.436 682.889,726.495C683.333,728.052 683.379,728.318 684.451,729.255C684.785,729.547 686.033,730.011 685.594,729.941C683.49,729.602 681.354,729.818 679.617,731.235C678.095,732.477 675.974,735.915 678.79,736.369"/>
        <path d="M730.091,713.802C729.936,713.621 729.801,713.476 729.715,713.409C727.568,711.747 727.334,711.905 724.52,711.173C719.144,709.773 717.627,711.15 713.947,711.588C708.458,712.242 699.801,713.82 695.074,716.415C694.077,716.171 692.54,715.801 692.423,715.798C689.198,715.71 686.506,716.807 683.793,718.409C680.95,720.088 678.737,723.732 679.613,727.247C678.896,727.571 678.206,727.992 677.554,728.521C675.144,727.095 672.249,726.159 670.563,726.058C666.837,725.834 663.286,727.671 660.714,730.565C658.868,732.641 657.558,735.238 657.013,737.825C656.516,737.728 656.007,737.652 655.49,737.597C649.116,736.912 641.69,739.353 638.726,742.87C636.759,745.205 634.636,749.119 633.914,752.907C633.328,755.977 633.663,758.959 635.165,761.287C635.732,762.165 636.407,763.03 637.167,763.831C635.128,767.233 633.415,772.797 633.476,775.829C633.564,780.172 635.997,783.712 639.446,785.857C642.573,787.802 646.512,788.537 649.962,787.743C649.959,789.792 650.359,791.945 651.151,793.925C652.469,797.22 654.846,799.984 657.976,801.228C661.935,802.802 666.818,802.185 671.107,801.282C670.632,802.289 670.194,803.318 669.834,804.352C668.903,807.02 668.478,809.732 668.893,812.266C669.316,814.853 670.755,818.107 672.806,820.589C673.724,821.701 674.763,822.653 675.871,823.372C674.725,826.873 674.5,831.405 675.743,835.176C676.747,838.22 678.656,840.784 681.599,842.235C681.908,842.388 682.232,842.525 682.569,842.645C681.653,845.88 681.527,849.609 682.592,852.186C684.341,856.418 688.184,861.37 692.856,862.495C693.044,862.541 693.727,862.623 694.645,862.684C695.316,867.599 698.884,873.137 702.856,875.403C706.231,877.328 710.03,876.651 713.412,875.359C713.593,875.55 713.765,875.72 713.921,875.864C717.174,878.881 722.203,880.869 726.717,880.383C730.979,879.925 734.575,877.189 737.572,874.234C738.997,875.812 741.02,877.265 742.921,878.19C744.656,879.034 746.323,879.421 747.476,879.377C752.228,879.198 756.078,875.698 759.461,872.797C759.515,872.752 759.577,872.689 759.646,872.611C759.9,872.795 760.12,872.931 760.287,873.006C761.873,873.711 763.733,873.794 765.602,873.372C767.769,872.884 769.95,871.714 771.4,870.666C773,869.51 774.941,867.171 776.091,864.691C776.538,863.725 776.86,862.739 777.041,861.785C781.638,861.151 786.786,856.906 788.921,853.075C790.355,850.501 791.21,847.436 791.413,844.506C791.423,844.359 791.427,844.152 791.422,843.904C792.463,843.707 793.488,843.312 794.485,842.761C797.752,840.958 800.665,837.16 802.246,834.693C804.34,831.425 805.348,827.717 805.778,823.899C805.84,823.352 805.8,822.733 805.637,822.081C807.149,821.201 808.447,819.924 809.549,818.372C811.704,815.337 813.072,811.166 814.1,807.853C815.363,803.784 814.248,799.361 812.966,795.49C812.885,795.246 812.766,794.914 812.615,794.533C814.808,793.249 816.58,791.129 817.748,788.59C819.78,784.171 819.786,778.661 817.416,775.061C816.934,774.33 815.338,772.247 814.426,771.214C814.906,769.749 814.99,768.164 814.77,766.527C814.292,762.964 812.091,759.074 809.951,756.259C810.539,755.62 811.065,754.916 811.48,754.179C812.569,752.245 812.906,750.124 812.307,748.215C811.107,744.388 805.649,738.857 802.012,737.078C801.728,736.939 801.414,736.811 801.083,736.696C801.167,734.265 800.073,731.762 798.3,729.807C796.859,728.217 794.924,725.99 792.782,724.315C790.991,722.915 789.043,721.902 787.102,721.589C786.573,721.504 785.742,721.521 784.814,721.737C783.655,720.76 782.062,719.77 781.639,719.542C777.481,717.3 771.841,715.823 767.097,716.388C766.49,716.461 765.736,716.71 764.949,717.086C764.317,716.245 763.451,715.568 762.422,715.032C760.02,713.78 756.294,713.583 753.77,713.799C752.826,713.88 750.308,714.581 748.03,715.084C747.524,715.195 746.869,715.295 746.392,715.361C745.783,714.619 745.317,713.829 744.733,713.162C743.357,711.593 741.656,710.356 738.564,710.17C736.403,710.04 734.542,710.738 732.816,711.816C731.874,712.405 731.01,713.183 730.091,713.802ZM759.353,721.186C759.119,721.08 758.732,720.917 758.452,720.852C758.051,720.759 757.629,720.698 757.205,720.658C756.186,720.562 755.156,720.589 754.327,720.66C753.012,720.772 748.454,722.214 746.175,722.32C744.423,722.402 743.207,721.791 742.594,721.222C741.768,720.455 741.128,719.613 740.525,718.784C739.958,718.006 739.547,717.125 738.171,717.042C736.818,716.961 735.871,717.966 734.825,718.731C733.415,719.763 731.978,720.733 730.393,721.23C729.385,721.546 728.277,721.459 727.192,720.719C726.69,720.377 725.775,719.194 725.411,718.71C724.497,718.053 724.239,718.202 722.869,717.846C720.329,717.184 719.067,717.495 717.686,717.839C716.787,718.063 715.854,718.292 714.721,718.427C709.635,719.033 701.238,720.256 697.649,722.849C697.31,723.094 696.551,723.573 695.33,723.479C694.788,723.437 692.665,722.876 691.933,722.68C690.151,722.715 688.67,723.473 687.14,724.376C686.847,724.549 686.566,724.796 686.351,725.09C686.247,725.231 686.059,725.353 686.109,725.528C686.258,726.049 686.227,726.229 686.489,726.504C686.851,726.706 687.745,727.211 687.849,727.302C689.353,728.614 689.121,730.113 688.921,730.857C688.8,731.307 688.1,733.829 685.074,733.341C684.031,733.173 682.955,733.142 682.048,733.69C682.273,734.53 682.309,735.397 682.144,736.272C682.15,736.479 682.137,736.69 682.105,736.903C681.818,738.779 680.099,740.064 678.27,739.769C676.601,739.5 675.604,738.711 674.974,737.858C674.264,736.895 673.941,735.705 674.09,734.367C672.736,733.562 671.119,732.987 670.171,732.93C668.438,732.826 666.868,733.858 665.673,735.203C664.359,736.681 663.454,738.609 663.442,740.403C663.441,740.511 663.446,740.63 663.46,740.754C664.554,741.69 665.437,742.825 666.044,744.154C666.507,745.169 666.394,745.925 666.313,746.346C666.107,747.413 665.544,748.122 664.803,748.601C664.254,748.956 663.058,749.563 661.471,748.765C660.998,748.527 659.229,746.963 658.994,746.704C658.618,746.29 658.279,745.777 657.984,745.211C657.057,744.785 655.939,744.567 654.791,744.444C652.15,744.16 649.227,744.581 646.868,745.487C645.587,745.98 644.47,746.58 643.803,747.372C642.458,748.969 640.993,751.638 640.499,754.228C640.274,755.412 640.181,756.589 640.761,757.487C641.48,758.602 642.467,759.749 643.649,760.469C645.517,760.419 647.517,760.55 648.131,760.756C650.612,761.59 650.709,763.653 650.54,764.701C650.253,766.48 649.119,767.694 647.219,768.07C645.937,768.324 643.866,767.874 643.338,767.733C643.136,767.68 642.936,767.62 642.737,767.553C641.335,769.695 640.144,773.616 640.185,775.686C640.223,777.58 641.421,779.035 642.924,779.97C644.634,781.033 646.792,781.48 648.658,780.986C648.818,780.943 651.268,780.272 653.402,779.57C653.811,779.103 654.231,778.694 654.641,778.396C655.798,777.554 656.978,777.316 657.943,777.44C658.972,777.572 659.944,778.049 660.724,779.129C661.267,779.881 661.468,780.701 661.385,781.574C661.321,782.249 661.057,783.266 659.975,784.133C659.59,784.441 658.698,784.913 657.536,785.374L656.791,786.4C656.485,787.918 656.721,789.715 657.359,791.311C657.97,792.838 658.951,794.233 660.401,794.809C664.105,796.282 668.851,794.8 672.531,793.914L675.591,792.395L676.726,791.829C676.805,791.747 676.886,791.669 676.969,791.593C678.312,790.359 679.927,789.749 681.656,790.028C683.659,790.351 684.286,791.694 684.458,792.949C684.521,793.408 684.747,794.845 683.259,796.094C683.223,796.124 682.974,796.332 682.495,796.588C682.221,796.733 681.693,797.003 681.029,797.336C680.737,797.757 680.386,798.274 680.24,798.537C679.142,800.507 677.718,802.865 676.674,805.326C675.85,807.268 675.206,809.264 675.511,811.127C675.766,812.692 676.684,814.636 677.924,816.137C678.41,816.725 678.937,817.26 679.518,817.612C680.193,816.996 680.937,816.462 681.74,816.04C682.377,815.705 683.652,815.14 684.422,815.017C685.254,814.885 685.948,815.023 686.447,815.222C687.341,815.579 687.965,816.2 688.353,817.027C688.617,817.589 688.804,818.312 688.654,819.246C688.37,821.005 687.013,822.715 684.895,823.713C684.209,824.036 683.453,824.279 682.691,824.446C682.564,824.693 682.453,824.946 682.359,825.2C681.656,827.084 681.383,829.531 681.794,831.758C682.122,833.538 682.877,835.227 684.506,836.031C684.993,836.271 685.561,836.422 686.151,836.487C687.097,835.574 688.358,834.526 689.459,834.093C691.608,833.248 693.475,833.727 694.777,835.528C695.375,836.356 695.69,837.419 695.295,838.723C695.149,839.204 694.724,840.019 693.955,840.753C693.106,841.563 691.741,842.411 691.574,842.481C690.925,842.755 690.219,842.965 689.481,843.111C688.503,844.966 688.045,847.744 688.77,849.499C689.771,851.921 691.639,855.066 694.295,855.768C694.474,855.782 695.524,855.865 696.682,855.883C697.337,855.11 698.078,854.482 698.74,854.167C699.898,853.617 701.039,853.618 702.089,854.066C702.888,854.407 703.766,855.056 704.389,856.421C704.856,857.444 704.861,858.374 704.647,859.197C704.39,860.18 703.758,861.163 702.521,861.832C702.2,862.005 701.793,862.164 701.321,862.298C701.765,865.062 703.877,868.108 706.117,869.386C707.611,870.238 709.251,869.649 710.77,869.036C710.894,868.317 711.182,867.621 711.656,866.962C712.928,865.194 714.387,865.381 714.807,865.418C715.773,865.505 716.569,865.939 717.178,866.744C717.501,867.171 717.976,867.949 717.881,869.188C717.87,869.331 717.812,869.6 717.709,869.943C717.952,870.242 718.26,870.608 718.421,870.757C720.36,872.555 723.327,873.826 726.018,873.536C729.621,873.149 732.291,870.022 734.605,867.527C735.106,866.987 735.578,866.419 736.059,865.861L736.189,865.718C736.587,865.114 737.131,864.541 737.855,864.018C740.449,862.143 742.273,864.328 742.457,864.552C742.851,865.032 744.06,866.7 742.619,868.783C742.579,868.841 742.436,868.996 742.248,869.191C742.458,869.475 742.74,869.83 742.991,870.063C743.934,870.939 745.139,871.702 746.216,872.162C746.614,872.332 746.958,872.508 747.229,872.497C748.594,872.446 749.783,871.81 750.897,871.045C752.33,870.061 753.638,868.834 754.895,867.743L755.408,866.693C755.204,865.075 755.871,863.745 757.103,862.855C758.97,861.506 760.387,862.181 761.102,862.629C761.888,863.122 762.689,863.994 762.766,865.547C762.775,865.725 762.757,865.974 762.709,866.274L763.146,866.753C763.629,866.87 764.183,866.668 764.724,866.492C765.794,866.144 766.814,865.559 767.536,865.037C768.408,864.407 769.404,863.085 770.03,861.734C770.27,861.216 770.511,860.708 770.517,860.248L769.248,858.608C767.978,857.324 767.909,855.246 769.09,853.876C770.271,852.506 772.29,852.323 773.687,853.459L776.208,854.957C778.908,854.632 781.834,851.921 783.095,849.658C784.039,847.965 784.586,845.945 784.719,844.018C784.742,843.684 784.733,842.74 784.654,841.999C784.313,841.666 784.197,841.415 784.164,841.359C783.486,840.232 783.624,839.287 783.764,838.713C783.969,837.874 784.42,837.202 785.129,836.706C785.324,836.569 786.714,835.472 788.62,836.523C788.689,836.562 788.877,836.681 789.104,836.844C790.19,837.527 791.26,836.832 792.234,836.079C794.113,834.629 795.682,832.405 796.639,830.911C798.055,828.701 798.719,826.189 799.051,823.613C798.839,823.151 798.34,822.041 798.207,821.558C798.011,820.849 797.997,820.212 798.077,819.688C798.217,818.774 798.621,818.029 799.263,817.438C799.723,817.015 800.346,816.633 801.246,816.486C802.913,816.213 803.95,814.766 804.843,813.175C806.147,810.853 806.997,808.05 807.706,805.765C808.534,803.098 807.453,800.241 806.613,797.704C806.472,797.279 805.803,795.743 805.639,795.368C804.898,794.905 803.843,794.244 803.834,794.228C803.087,793.072 803.151,791.987 803.516,791.05C803.744,790.465 804.306,789.179 806.178,788.917C806.226,788.911 806.562,788.831 807.234,788.939C809.32,789.275 810.799,787.566 811.679,785.653C812.691,783.452 813.035,780.707 811.855,778.914C811.599,778.526 810.651,777.311 810.054,776.552C809.727,776.562 809.369,776.57 809.203,776.568C808.666,776.56 808.254,776.464 807.994,776.378C806.187,775.781 805.695,774.431 805.619,773.285C805.579,772.673 805.518,771.28 807.159,770.095C808.448,769.163 808.284,767.703 807.861,766.292C807.144,763.9 805.518,761.507 804.126,759.814L803.564,759.474C803.295,759.485 803.02,759.488 802.749,759.479C801.464,759.435 800.288,759.083 799.717,758.728C798.718,758.104 798.235,757.238 798.042,756.378C797.848,755.512 797.867,754.456 798.683,753.322C799.637,751.995 801.379,751.209 803.629,751.819C803.909,751.895 804.201,751.998 804.5,752.124C804.826,751.844 805.138,751.507 805.402,751.147C805.6,750.877 805.822,750.35 805.879,750.21C805.032,747.75 801.434,744.422 799.124,743.292C798.615,743.044 797.91,742.904 797.283,742.834C797.066,742.922 796.817,743.022 796.77,743.036C794.912,743.585 793.85,742.549 793.516,742.224C792.765,741.491 792.337,740.538 792.503,739.27C792.528,739.078 792.512,737.908 793.952,736.867C794.865,736.207 794.025,735.2 793.386,734.495C792.343,733.344 791.017,731.794 789.526,730.469C788.57,729.621 787.57,728.814 786.511,728.495C786.045,729.563 785.349,730.395 784.906,730.708C783.856,731.45 782.806,731.485 781.894,731.202C781.148,730.971 780.28,730.485 779.714,729.245C779.243,728.213 779.144,727.2 779.385,726.243C778.988,725.95 778.634,725.699 778.517,725.636C775.512,724.016 771.472,722.847 768.026,723.211L765.637,724.594C764.463,725.269 763.397,725.489 762.796,725.466C761.665,725.422 760.831,724.936 760.218,724.219C759.722,723.638 759.164,722.71 759.353,721.186ZM806.351,795.813L806.248,795.748L806.244,795.748L806.351,795.813ZM806.086,795.651L806.243,795.747L806.247,795.748L805.896,795.529L806.086,795.651Z"/>
    </g>
    <g transform="matrix(0.962506,0,0,0.938188,-367.823,-243.188)">
        <path d="M618.742,857.214C621.312,858.177 624.282,857.543 627.129,855.36C631.877,851.718 636.505,843.385 637.563,836.816C637.865,834.942 636.627,833.168 634.8,832.859C632.973,832.549 631.244,833.819 630.942,835.694C630.244,840.029 627.549,845.378 624.493,848.585C623.799,849.314 623.093,849.925 622.38,850.342C621.904,850.621 621.473,850.908 621.043,850.747C619.303,850.096 617.376,851.015 616.741,852.8C616.105,854.585 617.002,856.563 618.742,857.214Z"/>
    </g>
    <g transform="matrix(0.962506,0,0,0.938188,-367.823,-243.188)">
        <path d="M662.331,798.771C662.265,798.881 661.67,799.871 661.152,800.488C659.732,802.178 657.614,804.066 655.514,805.448C654.393,806.186 652.686,806.828 652.038,807.057C651.225,806.108 648.98,803.483 648.558,802.976C647.452,801.649 646.238,801.654 646.106,801.645C644.258,801.521 642.659,802.959 642.538,804.855C642.473,805.865 642.841,806.803 643.479,807.478C643.708,807.768 645.615,810.184 646.823,811.496C647.705,812.454 648.551,813.131 649.051,813.393C650.244,814.015 651.78,814.221 653.544,813.832C655.197,813.468 657.173,812.536 659.139,811.242C662.255,809.191 665.38,806.243 667.114,803.864C668.18,802.401 668.765,801.027 668.928,800.017C669.23,798.143 667.992,796.37 666.165,796.06C664.379,795.757 662.686,796.964 662.331,798.771Z"/>
    </g>
    <g transform="matrix(0.962506,0,0,0.938188,-367.823,-243.188)">
        <path d="M644.305,809.483C644.229,809.924 643.853,810.272 643.476,810.622C642.517,811.512 641.205,812.179 640.143,812.353C638.314,812.652 637.066,814.418 637.357,816.294C637.649,818.17 639.37,819.451 641.199,819.152C643.348,818.8 646.039,817.527 647.978,815.727C649.536,814.281 650.599,812.505 650.913,810.681C651.236,808.81 650.017,807.023 648.193,806.692C646.37,806.362 644.628,807.612 644.305,809.483Z"/>
    </g>
    <g transform="matrix(0.962506,0,0,0.938188,-367.823,-243.188)">
        <path d="M652.488,810.056C651.979,812.945 651.695,815.86 650.871,818.681C650.34,820.501 651.348,822.421 653.122,822.966C654.896,823.512 656.768,822.477 657.299,820.657C658.195,817.587 658.537,814.423 659.091,811.28C659.421,809.411 658.208,807.619 656.386,807.281C654.564,806.943 652.817,808.186 652.488,810.056Z"/>
    </g>
    <g transform="matrix(0.962506,0,0,0.938188,-367.823,-243.188)">
        <path d="M658.084,810.469C659.129,813.197 660.12,814.826 662.387,816.736C663.818,817.942 665.934,817.729 667.11,816.261C668.285,814.793 668.077,812.622 666.646,811.416C665.403,810.369 664.903,809.446 664.33,807.951C663.653,806.183 661.704,805.311 659.98,806.006C658.257,806.701 657.407,808.701 658.084,810.469Z"/>
    </g>
    <g transform="matrix(0.962506,0,0,0.938188,-367.823,-243.188)">
        <path d="M669.785,801.318C669.318,799.855 667.929,798.845 666.364,798.956C664.517,799.088 663.121,800.733 663.249,802.628C663.422,805.19 664.928,806.891 667.181,807.758C669.258,808.558 672.13,808.461 673.884,808.002C675.678,807.533 676.764,805.658 676.306,803.817C675.849,801.976 674.021,800.862 672.226,801.331C671.672,801.476 670.379,801.376 669.785,801.318Z"/>
    </g>
    <g transform="matrix(0.962506,0,0,0.938188,-376.497,-266.996)">
        <ellipse cx="1067.1" cy="831.53" rx="62.015" ry="59.054" style="fill:white;stroke:black;stroke-width:13.68px;stroke-miterlimit:3.79178;"/>
    </g>
    <g transform="matrix(0.764445,0.0177962,-0.0172992,0.706019,-145.326,-75.3833)">
        <path d="M1086.49,779.146C1082.22,785.007 1065.25,804.187 1053.98,815.911C1052.38,817.577 1050.68,819.249 1049.24,820.631C1042.85,816.504 1031.46,809.151 1028.99,807.57C1024.57,804.752 1018.87,806.344 1016.28,811.123C1013.68,815.902 1015.15,822.07 1019.57,824.889C1023.2,827.205 1041.25,839.194 1045.23,841.383C1049.82,843.909 1053.23,842.274 1053.82,842.005C1055.06,841.432 1058.17,839.131 1062.08,835.268C1073.37,824.128 1096.33,798.21 1101.26,791.364C1104.05,787.482 1104.16,784.177 1104.13,783.295C1104.05,780.746 1103.2,778.828 1102.13,777.348C1098.95,772.987 1093.11,772.231 1089.09,775.661C1087.95,776.629 1087.08,777.827 1086.49,779.146ZM1087.16,789.212L1087.22,789.3L1087.06,789.036L1087.16,789.212ZM1085.71,785.405C1085.93,786.747 1086.38,787.884 1086.95,788.852C1086.33,787.772 1085.92,786.602 1085.71,785.405Z"/>
    </g>
</svg>
