<?xml version="1.0" encoding="UTF-8" standalone="no"?>
<!DOCTYPE svg PUBLIC "-//W3C//DTD SVG 1.1//EN" "http://www.w3.org/Graphics/SVG/1.1/DTD/svg11.dtd">
<svg width="100%" height="100%" viewBox="0 0 1372 1536" version="1.1" xmlns="http://www.w3.org/2000/svg" xmlns:xlink="http://www.w3.org/1999/xlink" xml:space="preserve" xmlns:serif="http://www.serif.com/" style="fill-rule:evenodd;clip-rule:evenodd;stroke-linecap:round;stroke-linejoin:round;stroke-miterlimit:1.5;">
    <g transform="matrix(0.772335,0,0,0.789647,-8.05821,-8.56017)">
        <g id="Layer3">
            <path d="M138.831,209.541C74.786,294.934 71.702,384.115 78.291,489.539C87.863,642.692 185.537,823.887 234.687,971.337C256.754,1037.54 229.903,1179.13 461.973,1262.84C686.59,1343.86 922.772,1156.08 1162.97,1168.09C1280.61,1173.98 1394.27,1212.33 1511.07,1170.62C1565.42,1151.21 1630.68,1082.61 1664.95,1036.92C1775.38,889.675 1549.6,754.203 1531.25,625.754C1522.33,563.261 1522.84,497.743 1548.91,439.089C1587.2,352.948 1725.93,208.293 1589.27,126.298C1517.32,83.126 1443.82,79.045 1364.77,63.235C1091.18,8.517 925.354,224.731 676.125,252.423C623.041,258.321 569.333,255.83 517.207,244.856C414.477,223.228 254.317,89.011 161.534,181.793C156.09,187.237 138.831,202.578 138.831,209.541Z" style="fill:rgb(245,166,1);fill-opacity:0.22;"/>
        </g>
    </g>
    <g id="Layer1" transform="matrix(1,0,0,1,-306.029,-125.462)">
        <g transform="matrix(1,0,0,1,-325.588,22.6985)">
            <rect x="679.799" y="143.745" width="1257.45" height="931.765" style="fill:none;stroke:black;stroke-width:22.07px;"/>
        </g>
        <g transform="matrix(1,0,0,1,-47.2646,133.261)">
            <ellipse cx="1063.78" cy="509.922" rx="351.441" ry="346.581" style="fill:rgb(238,61,90);"/>
        </g>
        <g transform="matrix(0.87482,0,0,0.887959,-113.229,26.082)">
            <ellipse cx="1279.67" cy="672.53" rx="422.234" ry="398.594" style="fill:none;stroke:black;stroke-width:25.04px;"/>
        </g>
        <g transform="matrix(0.897177,0,0,1.1392,-141.178,-89.0144)">
            <path d="M1117.79,454.787L1119,766.769L1546.29,604.743L1117.79,454.787Z" style="fill:rgb(245,166,1);"/>
        </g>
        <g transform="matrix(0.897177,0,0,1.1392,-154.791,-60.2337)">
            <path d="M1117.79,454.787L1119,766.769L1546.29,604.743L1117.79,454.787Z" style="fill:none;stroke:black;stroke-width:21.52px;"/>
        </g>
    </g>
    <g id="Layer2">
        <g transform="matrix(1,0,0,1,-325.588,22.6985)">
            <path d="M563.995,462.404C563.135,479.422 545.626,517.465 553.341,533.429C583.834,596.524 590.037,707.816 563.995,776.468C557.29,794.143 529.872,969.544 536.094,981.986C542.769,995.337 640.687,985.332 684.18,981.986C703.154,980.526 726.927,976.864 749.074,972.478C781.821,965.993 811.013,957.928 815.876,953.065C820.616,948.325 750.802,748.385 743.479,704.448C739.288,679.3 756.744,585.118 749.074,562.108C745.234,550.587 737.864,522.873 734.454,510.938C730.045,495.505 748.133,457.588 743.479,452.934C741.911,451.366 724.984,443.464 724.984,443.464C709.849,458.6 721.136,484.008 708.412,496.733C700.957,504.187 668.071,506.713 643.816,506.713C589.579,506.713 590.037,467.243 590.037,452.934C590.037,445.714 568.671,462.404 563.995,462.404Z" style="fill:white;"/>
            <path d="M563.742,458.026C561.521,458.152 559.728,459.934 559.615,462.183C559.107,472.235 552.628,489.72 549.224,505.509C546.676,517.323 545.983,528.282 549.392,535.337C579.45,597.533 585.565,707.239 559.894,774.913C554.494,789.148 535.666,905 531.59,957.19C530.858,966.561 530.608,973.932 530.953,978.393C531.155,981.021 531.641,982.887 532.171,983.947C533.136,985.877 535.112,987.719 538.28,989.076C543.198,991.183 551.78,992.431 562.619,992.888C596.582,994.321 653.941,988.711 684.517,986.359C703.641,984.887 727.604,981.201 749.926,976.78C773.11,972.189 794.528,966.8 806.981,962.302C813.124,960.083 817.279,957.864 818.977,956.166C819.614,955.529 820.611,954.018 820.476,951.359C820.308,948.053 818.361,939.89 815.087,928.404C799.441,873.502 753.651,738.803 747.805,703.727C745.321,688.822 750.649,649.374 753.581,615.285C755.626,591.511 756.405,570.233 753.235,560.721C749.408,549.241 742.069,521.626 738.671,509.733C737.585,505.93 738.208,500.583 739.352,494.755C741.288,484.895 744.952,473.834 747.003,465.667C748.191,460.933 748.808,457.023 748.584,454.561C748.385,452.375 747.579,450.831 746.58,449.833C746.137,449.39 744.882,448.503 743.068,447.504C737.848,444.632 726.839,439.49 726.839,439.49C725.168,438.71 723.187,439.059 721.883,440.363C713.516,448.73 712.148,459.835 711.418,470.709C711.103,475.401 710.881,480.023 709.957,484.229C709.173,487.799 707.887,491.055 705.311,493.632C703.458,495.484 699.615,496.74 694.733,497.911C681.251,501.146 660.459,502.328 643.816,502.328C623.831,502.328 611.815,496.779 604.701,488.954C594.016,477.201 594.423,460.853 594.423,452.934C594.423,450.429 593.372,448.89 592.022,447.904C590.906,447.089 589.343,446.577 587.331,446.784C583.606,447.165 576.271,451.336 570.194,454.796C567.583,456.282 564.073,457.877 563.742,458.026ZM739.768,455.747C739.635,457.095 739.239,460.567 738.495,463.531C736.413,471.822 732.71,483.056 730.745,493.065C729.289,500.483 728.854,507.303 730.237,512.142C733.659,524.121 741.059,551.932 744.914,563.495C747.879,572.392 746.754,592.296 744.842,614.533C741.837,649.462 736.608,689.896 739.153,705.169C745.024,740.392 790.939,875.676 806.652,930.808C808.731,938.104 810.274,943.967 811.103,947.964C811.323,949.022 811.488,950.085 811.593,950.841C809.996,951.805 807.369,952.836 804.001,954.052C791.828,958.449 770.884,963.688 748.222,968.176C726.251,972.527 702.667,976.165 683.844,977.613C653.529,979.945 596.662,985.545 562.989,984.124C554.763,983.777 547.989,983.037 543.481,981.645C542.508,981.344 541.661,981.019 540.961,980.646C540.55,980.428 540.16,980.312 540.016,980.025C539.673,979.337 539.668,977.907 539.602,975.893C539.463,971.631 539.744,965.445 540.335,957.873C544.356,906.385 562.768,792.068 568.095,778.024C594.509,708.393 588.217,595.515 557.29,531.52C554.527,525.804 555.734,516.93 557.798,507.358C560.979,492.606 566.644,476.39 568.074,465.759C568.643,465.528 569.244,465.258 569.871,464.947C573.836,462.978 579.535,459.355 584.152,457.084C584.617,456.855 585.15,456.629 585.673,456.423C585.828,466.403 587.14,482.677 598.211,494.854C606.542,504.018 620.411,511.099 643.816,511.099C661.13,511.099 682.754,509.805 696.779,506.441C703.688,504.783 708.892,502.455 711.513,499.834C718.601,492.746 719.434,482.253 720.17,471.296C720.697,463.451 721.196,455.311 726.1,448.841C728.983,450.212 733.403,452.342 736.773,454.09C737.852,454.65 739.015,455.309 739.768,455.747Z"/>
        </g>
        <g transform="matrix(1,0,0,1,-350.372,23.4339)">
            <path d="M585.081,985.954C583.315,985.954 581.721,987.014 581.037,988.642C579.807,991.572 579.251,1000.45 579.604,1013.26C580.912,1060.75 591.943,1166.28 596.586,1208.07C600.019,1238.96 610.66,1313.04 615.651,1360.12C617.72,1379.64 618.921,1394.36 618.003,1398.95C616.109,1408.42 609.531,1414.3 601.476,1418.8C592.431,1423.85 581.536,1427.17 572.05,1431.01C557.308,1436.98 546.111,1444.59 546.111,1458.64C546.111,1463.45 549.084,1467.76 554.303,1471.06C563.635,1476.95 580.696,1479.87 590.928,1479.87C604.409,1479.87 650.612,1480.69 676.742,1474.76C684.193,1473.07 690.118,1470.74 693.63,1467.91C696.983,1465.2 698.53,1461.97 698.32,1458.39C696.326,1424.5 679.258,1375.81 674.998,1339.72C670.478,1301.43 663.623,1188.76 663.623,1142.61C663.623,1113.66 675.124,1007.18 675.387,986.357C675.416,984.064 675.25,982.531 675.065,981.862C674.736,980.673 674.146,979.983 673.713,979.579C672.65,978.587 671.464,978.279 670.255,978.386C656.536,979.602 592.378,985.954 585.081,985.954ZM666.513,987.537C666.462,989.743 666.359,992.756 666.153,995.909C663.944,1029.63 654.852,1116.82 654.852,1142.61C654.852,1189 661.743,1302.26 666.287,1340.75C670.529,1376.69 687.578,1425.16 689.563,1458.9C689.642,1460.24 688.382,1461.03 686.85,1461.97C683.969,1463.72 679.785,1465.07 674.801,1466.2C649.263,1472 604.103,1471.1 590.928,1471.1C583.213,1471.1 571.061,1469.32 562.578,1465.53C560.114,1464.43 557.977,1463.19 556.483,1461.7C555.56,1460.78 554.883,1459.81 554.883,1458.64C554.883,1452.57 558.256,1448.51 563.145,1445.23C569.064,1441.26 577.05,1438.42 585.231,1435.36C594.089,1432.05 603.163,1428.53 610.509,1423.53C618.531,1418.07 624.559,1410.9 626.604,1400.67C627.584,1395.77 626.583,1380.04 624.373,1359.2C619.381,1312.1 608.738,1238 605.304,1207.1C600.678,1165.46 589.676,1060.33 588.372,1013.01C588.141,1004.64 588.091,998.223 588.555,994.568L588.555,994.568C602.646,993.672 648.709,989.191 666.513,987.537Z"/>
        </g>
        <g transform="matrix(0.998475,0.0552011,-0.0552011,0.998475,-275.571,-15.9666)">
            <path d="M696.535,980.551C704.979,980.39 714.228,975.834 716.427,975.391C740.625,970.51 777.28,961.715 784.654,961.24C786.676,961.11 787.928,961.636 788.433,961.941C789.694,962.701 790.273,963.746 790.515,964.799C798.869,1001.02 798.313,1071.76 798.313,1090.13C798.313,1099.42 782.61,1294.44 779.728,1331.91C778.203,1351.74 781.31,1366.83 787.129,1378.49C800.83,1405.96 829.216,1414.42 845.225,1421.75C850.059,1423.96 853.902,1426.14 856.315,1428.48C858.61,1430.7 859.831,1433.15 860.03,1435.82C860.225,1438.42 859.424,1441.42 856.937,1444.81C854.42,1448.24 849.763,1451.52 843.471,1454.35C835.053,1458.13 823.55,1461.29 811.037,1463.66C789.419,1467.76 764.768,1469.51 748.137,1468.3C740.398,1467.75 734.281,1466.48 730.685,1464.68C729.573,1464.12 728.371,1463.06 727.373,1461.29C726.151,1459.12 725.002,1455.34 724.073,1450.42C719.409,1425.69 718.594,1368.73 717.969,1362.48C708.69,1269.68 725.878,1181.23 712.953,1090.76C709.653,1067.66 696.422,1001.18 692.722,988.331C692.621,987.982 692.499,987.605 692.415,987.354C692.035,986.779 691.786,986.106 691.713,985.377C691.49,983.135 693.001,981.088 695.21,980.643C695.525,980.579 695.994,980.513 696.535,980.551ZM782.73,970.292C790.149,1006.83 789.542,1072.63 789.542,1090.13C789.542,1099.39 773.857,1293.88 770.983,1331.24C769.306,1353.03 772.885,1369.59 779.28,1382.41C794.077,1412.08 824.284,1421.81 841.574,1429.73C844.361,1431 846.768,1432.22 848.62,1433.5C849.928,1434.41 850.995,1435.18 851.254,1436.28C851.488,1437.27 850.849,1438.28 849.865,1439.62C848.028,1442.12 844.468,1444.28 839.876,1446.35C831.971,1449.9 821.156,1452.82 809.406,1455.04C788.565,1458.99 764.802,1460.71 748.768,1459.56C742.841,1459.13 738.053,1458.38 735.091,1457.06C734.881,1456.63 734.366,1455.54 734.079,1454.63C732.911,1450.91 731.971,1445.23 731.17,1438.51C727.904,1411.11 727.241,1367.05 726.697,1361.6C717.405,1268.68 734.578,1180.11 721.636,1089.52C719.045,1071.38 710.387,1026.75 704.908,1001.71C703.76,996.465 702.709,992.035 701.866,988.789C709.287,987.515 716.237,984.377 718.161,983.989C739.899,979.605 771.85,971.936 782.73,970.292ZM694.733,989.116C695.269,989.298 695.789,989.354 696.287,989.326L696.077,989.327C695.609,989.327 695.157,989.254 694.733,989.116Z"/>
        </g>
        <g transform="matrix(1,0,0,1,-325.588,22.6985)">
            <path d="M850.034,621.29C861.017,584.035 894.525,472.88 897.786,454.447C899.297,445.909 868.209,413.983 875.62,411.513C881.822,409.446 896.74,426.145 897.243,425.643C901.225,421.661 898.161,415.647 897.243,411.513C893.709,395.612 897.226,377.712 903.061,379.448C905.238,380.096 904.14,404.28 908.656,408.796C910.372,410.512 913.734,396.099 914.375,394.497C918.456,384.295 920.54,372.802 926.59,372.802C935.628,372.802 914.375,408.796 928.764,408.796C933.908,408.796 943.654,378.579 944.524,379.448C950.563,385.487 940.062,410.197 944.524,419.121C947.123,424.32 963.072,404.496 965.176,408.796C968.899,416.404 930.633,447.448 926.59,455.534C920.064,468.585 899.294,589.475 891.808,621.29C887.767,638.467 881.656,707.722 861.374,710.962C851.121,712.6 809.004,660.469 794.421,635.471C783.467,616.692 764.858,587.494 755.398,568.574C750.962,559.702 734.823,526.813 738.48,504.872C739.58,498.269 742.261,459.07 746.884,454.447C752.873,448.458 775.704,475.493 778.224,480.533C794.385,512.855 812.067,543.131 825.505,576.726C828.032,583.042 841.663,621.29 850.034,621.29Z" style="fill:white;"/>
            <path d="M909.589,394.965C909.088,389.957 908.84,384.785 908.384,381.679C908.031,379.271 907.316,377.642 906.758,376.931C906.018,375.986 905.147,375.494 904.311,375.245C900.779,374.194 897.067,375.752 894.634,380.654C891.538,386.894 890.239,400.213 892.961,412.464C893.27,413.855 893.819,415.457 894.263,417.123C891.213,414.43 887.37,411.256 884.324,409.458C880.493,407.196 876.81,406.493 874.233,407.352C870.729,408.52 868.754,412.079 871.187,417.818C873.724,423.806 881.949,434.306 887.903,443.231C890.038,446.43 891.86,449.396 892.862,451.811C893.161,452.531 893.415,453.624 893.45,453.778C890.266,471.527 859.962,572.335 847.594,614.079C846.83,613.065 846.057,611.884 845.275,610.589C838.364,599.157 831.314,579.439 829.577,575.097C816.094,541.388 798.362,511.003 782.147,478.572C780.266,474.811 767.837,459.509 758.323,452.888C755.31,450.791 752.473,449.539 750.228,449.268C747.601,448.951 745.44,449.689 743.783,451.345C743.067,452.062 742.295,453.209 741.632,454.805C740.649,457.173 739.724,460.909 738.922,465.35C736.475,478.897 734.925,499.522 734.154,504.151C730.347,526.99 746.858,561.301 751.476,570.536C760.97,589.524 779.639,618.833 790.633,637.68C800.988,655.433 825.029,686.673 842.09,703.249C847.579,708.581 852.447,712.429 855.989,714.116C858.395,715.262 860.475,715.547 862.066,715.293C865.365,714.766 868.441,713.047 871.215,710.219C874.617,706.752 877.634,701.465 880.201,695.037C889.289,672.284 893.223,634.424 896.077,622.295C903.519,590.668 924.025,470.469 930.513,457.495C931.25,456.02 933.376,453.73 936.122,450.869C943.559,443.124 955.396,432.171 962.614,423.53C966.189,419.249 968.651,415.374 969.439,412.572C970.077,410.299 969.854,408.378 969.115,406.868C967.732,404.042 964.765,402.597 960.458,404.821C957.768,406.209 953.714,409.796 950.021,412.716C949.352,413.245 948.534,413.807 947.784,414.295C947.713,413.21 947.759,412.001 947.839,410.717C948.158,405.593 949.432,399.515 950.192,394.056C950.772,389.888 951.044,386.035 950.625,383.034C950.225,380.162 949.183,377.905 947.625,376.347C946.998,375.72 946.286,375.353 945.531,375.17C944.807,374.994 941.872,374.729 940.136,378.004C938.561,380.975 934.017,393.814 929.847,401.248C929.342,402.147 928.632,403.152 928.107,403.856C927.964,403.118 927.966,402.263 928.032,401.328C928.334,397.033 930.031,391.52 931.351,386.611C932.356,382.872 933.155,379.431 933.279,376.901C933.361,375.238 933.165,373.838 932.779,372.757C931.795,370.006 929.86,368.417 926.59,368.417C923.42,368.417 920.72,369.959 918.516,372.969C915.414,377.206 913.312,385.345 910.303,392.868C910.196,393.136 909.933,393.914 909.589,394.965ZM923.334,382.615C922.763,384.847 922.071,387.261 921.431,389.675C919.787,395.878 918.661,402.108 919.616,406.078C920.138,408.25 921.179,409.96 922.673,411.182C924.139,412.382 926.101,413.181 928.764,413.181C930.592,413.181 933.215,411.929 935.477,408.769C936.941,406.722 938.706,403.342 940.439,399.664C939.851,403.287 939.287,406.915 939.084,410.171C938.81,414.562 939.252,418.384 940.601,421.083C941.961,423.802 944.232,424.867 947.366,424.238C948.762,423.957 950.625,422.96 952.663,421.585C945.607,429.354 936.092,438.236 929.795,444.795C926.218,448.521 923.628,451.651 922.667,453.572C916.102,466.702 895.07,588.281 887.539,620.286C884.735,632.204 880.984,669.428 872.056,691.784C870.307,696.163 868.376,699.937 866.16,702.708C864.544,704.728 862.859,706.209 860.869,706.598C860.622,706.509 859.455,706.076 858.645,705.596C855.794,703.906 852.221,700.862 848.203,696.957C831.628,680.854 808.27,650.507 798.21,633.261C787.295,614.55 768.746,585.463 759.321,566.613C756.718,561.407 749.986,547.75 745.796,533.019C743.126,523.631 741.438,513.798 742.806,505.593C743.575,500.978 745.115,480.415 747.554,466.909C748.134,463.699 748.754,460.916 749.445,458.931C749.532,458.68 749.65,458.397 749.765,458.145C749.949,458.198 750.142,458.263 750.299,458.331C751.233,458.733 752.244,459.344 753.313,460.088C761.65,465.89 772.653,479.199 774.301,482.494C790.407,514.706 808.041,544.874 821.433,578.355C823.234,582.856 830.603,603.274 837.768,615.127C839.861,618.589 841.988,621.369 843.944,623.069C846.043,624.894 848.164,625.676 850.034,625.676C851.978,625.676 853.691,624.396 854.24,622.531C865.255,585.17 898.835,473.695 902.105,455.211C902.533,452.793 901.464,448.846 898.903,444.308C894.453,436.421 885.75,425.566 881.18,417.996L881.031,417.743C881.377,417.973 881.726,418.215 882.076,418.465C887.104,422.064 892.234,427.341 893.907,428.709C897.032,431.264 899.846,429.242 900.344,428.744C902.891,426.197 903.728,423.164 903.61,419.978C903.49,416.721 902.125,413.264 901.524,410.562C900.184,404.531 899.92,398.187 900.47,392.94C900.825,396.292 901.257,399.78 901.733,402.455C902.507,406.809 903.914,410.257 905.554,411.897C906.702,413.044 907.977,413.391 909.246,413.314C910.411,413.244 912.234,412.615 913.584,410.419C915.435,407.409 917.908,397.473 918.447,396.126C920.304,391.484 921.74,386.572 923.334,382.615Z"/>
        </g>
        <g transform="matrix(1,0,0,1,-325.588,22.6985)">
            <path d="M557.217,525.573C559.614,511.867 561.634,497.588 565.123,484.223C566.628,478.458 566.689,470.998 567.334,465.392C567.379,464.999 567.371,464.602 567.31,464.212C567.115,462.966 565.104,458.801 560.652,461.058C558.584,462.107 548.453,469.807 545.717,472.657C531.98,486.968 527.748,485.542 525.646,508.788C524.398,522.577 512.423,614.362 509.398,675.914C508.476,694.671 508.396,710.664 509.652,720.925C510.265,725.936 511.257,729.723 512.487,732.068C515.578,737.96 542.912,764.312 555.317,774.2C558.222,776.515 560.481,777.978 561.606,778.421C562.975,778.96 564.058,778.869 564.745,778.707C565.416,778.548 566.541,778.156 567.497,776.805C568.201,775.81 569.976,771.042 571.926,764.577C576.045,750.922 581.788,729.175 582.53,724.519C582.945,721.912 581.874,720.455 581.618,720.149C578.502,716.412 573.914,713.539 569.99,710.25C567.2,707.912 564.706,705.366 564.5,701.382C564.005,691.814 571.345,646.881 575.183,618.367C576.954,605.212 577.824,595.285 577.289,593.016C575.734,586.422 565.946,557.978 560.561,539.483C558.69,533.057 557.278,525.884 557.217,525.573ZM557.864,473.921C557.624,476.737 557.28,479.539 556.636,482.007C553.074,495.653 550.999,510.232 548.549,524.22C548.3,525.645 548.777,529.432 550.11,534.608C554.504,551.662 566.984,587.534 568.751,595.029C568.851,595.454 568.771,596.309 568.704,597.52C568.475,601.686 567.633,608.708 566.49,617.197C562.577,646.263 555.236,692.082 555.74,701.835C556.084,708.488 559.696,713.068 564.356,716.973C567.386,719.513 570.918,721.705 573.627,724.403C572.039,732.064 565.191,757.419 561.654,768.037C554.144,762.238 539.115,748.338 529.157,738.126C524.65,733.505 521.18,729.757 520.254,727.993C519.011,725.623 518.363,721.249 517.93,715.407C517.2,705.565 517.392,691.939 518.159,676.344C521.177,614.925 533.137,523.338 534.381,509.578C536.19,489.586 540.231,491.039 552.045,478.732C553.022,477.714 555.42,475.796 557.864,473.921Z"/>
        </g>
        <g transform="matrix(1.00103,0,0,1,-326.263,22.6985)">
            <path d="M688.641,215.904C706.847,215.904 734.3,250.885 734.3,263.042C734.3,273.088 723.346,301.587 734.3,301.587C760.46,301.587 740.054,314.913 740.054,330.311C740.054,330.526 738.363,336.787 734.3,352.353C729.06,372.423 725.103,383.206 705.19,387.901C697.652,389.678 672.865,390.844 665.453,390.174C664.044,390.046 654.511,389.396 654.646,387.901" style="fill:white;"/>
            <path d="M743.217,307.17C743.179,307.453 743.102,307.938 743,308.272C742.681,309.318 742.173,310.457 741.598,311.682C739.178,316.833 735.854,323.144 735.681,329.771C735.324,331.129 733.345,338.665 730.061,351.244C725.333,369.352 722.152,379.396 704.186,383.632C696.914,385.346 672.998,386.453 665.847,385.806C665.001,385.729 659.262,384.91 657.609,384.672C656.926,384.041 656.037,383.623 655.041,383.533C652.633,383.314 650.501,385.094 650.282,387.505C650.141,389.075 650.831,391.561 654.001,392.789C656.712,393.839 663.794,394.427 665.058,394.542C672.732,395.236 698.391,394.009 706.195,392.17C715.156,390.057 721.195,386.751 725.653,382.216C732.054,375.705 735.153,366.43 738.539,353.461C742.212,339.39 743.954,332.889 744.266,331.572C744.438,330.843 744.435,330.419 744.435,330.311C744.435,327.075 745.578,323.967 746.842,321.097C748.399,317.563 750.176,314.339 751.124,311.619C752.372,308.035 752.269,304.98 750.821,302.6C749.896,301.079 748.377,299.687 745.857,298.721C743.446,297.797 739.753,297.201 734.3,297.201L734.299,297.201C734.217,297.004 734.084,296.653 734.03,296.399C733.732,294.997 733.765,293.241 733.933,291.288C734.732,281.995 738.681,269.149 738.681,263.042C738.681,260.122 737.5,256.062 735.215,251.504C732.216,245.523 727.33,238.467 721.568,231.996C715.756,225.467 709.052,219.545 702.553,215.831C697.721,213.069 692.946,211.519 688.641,211.519C686.223,211.519 684.26,213.484 684.26,215.904C684.26,218.325 686.223,220.29 688.641,220.29C691.619,220.29 694.866,221.538 698.209,223.448C703.971,226.742 709.873,232.043 715.027,237.832C720.232,243.679 724.674,250.035 727.383,255.439C728.904,258.471 729.919,261.099 729.919,263.042C729.919,266.352 728.597,271.779 727.397,277.45C726.034,283.89 724.809,290.604 725.096,295.421C725.311,299.032 726.421,301.812 728.151,303.541C729.651,305.04 731.636,305.973 734.3,305.973C737.592,305.973 740.043,306.179 741.823,306.632C742.323,306.76 742.916,307.026 743.217,307.17ZM659.027,387.884L659.025,387.999L659.027,387.96L659.027,387.884ZM659.021,387.693L659.026,387.825L659.026,387.792L659.021,387.693Z"/>
        </g>
        <g transform="matrix(1,0,0,1,-325.588,22.6985)">
            <path d="M690.303,218.215C716.314,217.735 719.057,257.964 705.797,272.305C680.946,299.181 662.753,308.207 638.037,328.822C627.3,337.778 632.878,383.484 623.924,390.952L622.639,390.835C617.156,390.339 602.953,373.643 599.324,369.293C585.648,352.896 555.505,291.941 566.747,271.122C587.654,232.402 628.547,209.991 672.325,213.951C677.335,214.404 685.325,212.73 690.373,214.936C694.593,216.78 703.453,223.245 705.797,223.457"/>
            <path d="M710.16,223.01C709.964,221.069 708.483,219.457 706.519,219.132L706.178,218.96L706.004,218.871C704.273,217.51 702.349,216.388 700.232,215.55C697.262,213.721 694.173,211.81 692.13,210.917C689.618,209.82 686.536,209.413 683.325,209.381C679.577,209.345 675.63,209.846 672.72,209.583C627.181,205.464 584.636,228.761 562.888,269.038C559.138,275.983 559.166,286.936 561.962,299.371C567.985,326.153 586.131,360.322 595.956,372.102C598.575,375.241 606.547,384.606 613.027,390.124C616.621,393.185 620.049,395.005 622.244,395.203C622.244,395.203 623.529,395.319 623.529,395.319C624.687,395.424 625.84,395.065 626.733,394.32C628.591,392.77 630.172,390.129 631.27,386.548C633.191,380.28 633.909,370.586 634.684,360.791C635.302,352.983 635.97,345.106 637.547,339.124C638.356,336.053 639.25,333.522 640.846,332.19C665.721,311.443 684.007,302.331 709.017,275.282C716.433,267.262 719.633,252.058 717.083,238.869C715.923,232.87 713.627,227.338 710.16,223.01ZM685.918,218.277C684.508,218.107 682.976,218.13 681.451,218.17C678.012,218.262 674.577,218.558 671.93,218.319C629.912,214.518 590.672,236.043 570.606,273.206C567.61,278.753 568.287,287.513 570.52,297.447C576.233,322.855 593.371,355.308 602.692,366.484C605.153,369.434 612.624,378.259 618.714,383.447C619.868,384.43 620.96,385.273 621.945,385.879C622.029,385.93 622.122,385.983 622.218,386.034C622.761,384.869 623.124,383.309 623.517,381.534C624.794,375.768 625.317,367.965 625.94,360.099C626.602,351.732 627.375,343.299 629.065,336.888C630.434,331.694 632.528,327.707 635.228,325.455C659.786,304.971 677.885,296.031 702.577,269.327C708.421,263.007 710.48,250.927 708.471,240.535C707.366,234.821 704.967,229.522 700.985,226.187C700.684,226.03 700.376,225.863 700.061,225.684C699.026,225.095 697.865,224.384 696.669,223.64C694.808,222.93 692.718,222.556 690.384,222.599C687.964,222.644 685.963,220.716 685.918,218.295L685.918,218.277Z"/>
        </g>
        <g transform="matrix(0.982124,0.188235,-0.188235,0.982124,-258.772,-101.42)">
            <path d="M694.896,297.435C695.933,297.752 703.707,300.126 704.947,300.332C716.525,302.262 722.66,297.605 729.675,290.59C731.386,288.879 731.386,286.099 729.675,284.388C727.963,282.676 725.184,282.676 723.473,284.388C718.57,289.29 714.481,293.029 706.389,291.68C705.081,291.462 698.137,289.103 696.392,288.777C694.963,288.51 694.005,288.824 693.633,288.968C691.374,289.838 690.247,292.379 691.118,294.637C691.748,296.273 693.254,297.316 694.896,297.435Z"/>
        </g>
        <g transform="matrix(1,0,0,1,-324.707,25.7035)">
            <path d="M693.048,294.017C691.972,297.779 689.919,302.268 686.285,304.085C684.12,305.167 683.242,307.804 684.324,309.969C685.407,312.134 688.043,313.013 690.208,311.93C695.95,309.059 699.781,302.374 701.481,296.429C702.147,294.102 700.797,291.672 698.47,291.006C696.143,290.341 693.713,291.69 693.048,294.017Z"/>
        </g>
        <g transform="matrix(1,0,0,1,-316.661,26.5411)">
            <path d="M705.205,296.728C705.061,298.567 705.165,300.056 705.27,301.409C705.406,303.16 705.525,304.502 703.708,306.925C702.256,308.861 702.649,311.612 704.585,313.065C706.522,314.517 709.273,314.124 710.725,312.188C714.047,307.759 714.262,305 714.1,301.959C714.031,300.66 713.804,299.272 713.95,297.412C714.139,294.999 712.333,292.886 709.919,292.698C707.506,292.509 705.394,294.315 705.205,296.728Z"/>
        </g>
        <g transform="matrix(1,0,0,1,-325.588,22.6985)">
            <path d="M689.832,389.736C687.602,391.436 686.253,393.859 685.817,396.905C685.345,400.214 686.061,404.472 687.842,409.128C692.064,420.167 702.247,433.928 711.353,441.491C715.886,445.255 720.302,447.475 723.724,447.784C726.134,448.003 728.269,446.222 728.487,443.812C728.705,441.401 726.925,439.267 724.514,439.049C721.475,438.774 717.607,435.647 713.506,431.601C706.424,424.613 699.259,414.426 696.034,405.995C695.041,403.397 694.416,401.009 694.439,398.999C694.45,398.047 694.512,397.198 695.151,396.71C697.076,395.242 697.446,392.488 695.978,390.563C694.511,388.638 691.756,388.268 689.832,389.736Z"/>
        </g>
        <g transform="matrix(1,0,0,1,-325.588,22.6985)">
            <path d="M627.003,390.994C630.819,394.195 632.407,400.681 633.289,405.316C634.35,410.888 633.902,415.278 632.3,418.859C629.807,424.435 624.705,427.998 619.167,431.187C611.868,435.389 603.764,438.886 597.893,443.783C596.034,445.334 595.784,448.102 597.334,449.96C598.885,451.819 601.653,452.07 603.512,450.519C610.543,444.654 620.982,440.996 628.992,435.345C638.403,428.706 644.968,419.762 641.906,403.676C640.694,397.305 637.886,388.674 632.64,384.274C630.786,382.718 628.017,382.961 626.462,384.815C624.906,386.669 625.149,389.438 627.003,390.994Z"/>
        </g>
        <g transform="matrix(1,0,0,1,-325.588,22.6985)">
            <path d="M698.666,352.42C702.079,354.001 710.954,354.43 712.628,354.43C721.52,354.43 726.458,353.734 729.57,353.234C731.052,352.996 731.944,352.739 732.716,352.808C735.127,353.026 737.261,351.246 737.479,348.836C737.697,346.425 735.917,344.291 733.506,344.073C732.436,343.976 731.227,344.082 729.535,344.353C726.783,344.795 722.183,345.659 712.628,345.659C711.4,345.659 704.854,345.62 702.351,344.461C700.154,343.444 697.545,344.401 696.528,346.598C695.511,348.795 696.469,351.404 698.666,352.42Z"/>
        </g>
        <g transform="matrix(1,0,0,1,-325.588,22.6985)">
            <path d="M628.457,387.639C628.457,387.639 633.307,394.865 634.729,398.458C639.787,411.24 632.951,425.811 618.804,435.243C612.706,439.308 586.836,451.118 581.121,453.956C576.61,456.196 578.706,478.032 581.121,480.447C594.026,493.352 625.424,509.404 645.031,508.512C700.947,505.967 717.41,508.512 723.97,444.183C724.06,443.297 689.098,426.104 692.996,391.051C693.245,388.804 681.481,393.472 654.059,387.639" style="fill:white;"/>
            <path d="M688.332,394.875C687.446,424.219 711.71,441.14 719.343,446.244C716.855,469.163 713.172,482.831 706.128,491.025C701.005,496.983 694.069,499.738 684.762,501.33C674.431,503.096 661.382,503.377 644.832,504.13C626.391,504.97 597.026,489.881 584.57,477.687C584.344,476.597 582.761,468.737 582.862,463.64C582.907,461.363 583.537,458.416 583.731,457.562C590.62,454.202 615.268,442.871 621.237,438.892C637.321,428.169 644.558,411.376 638.807,396.844C637.278,392.982 632.098,385.195 632.098,385.195C630.75,383.185 628.023,382.648 626.013,383.997C624.003,385.346 623.466,388.073 624.815,390.083C624.815,390.083 629.335,396.748 630.651,400.072C635.018,411.107 628.585,423.451 616.371,431.594C610.354,435.605 584.81,447.228 579.17,450.028C578.111,450.554 577.121,451.421 576.329,452.701C575.365,454.26 574.632,456.748 574.314,459.747C573.721,465.33 574.356,472.973 575.423,477.686C576.099,480.672 577.205,482.733 578.02,483.548C591.579,497.107 624.63,513.83 645.23,512.893C662.23,512.119 675.629,511.79 686.24,509.976C697.876,507.986 706.375,504.192 712.779,496.743C720.85,487.355 725.577,471.656 728.333,444.628C728.402,443.952 728.349,443.121 727.888,442.196C727.733,441.883 727.066,440.864 725.469,439.788C720.323,436.323 694.11,420.719 697.355,391.536C697.517,390.073 697.095,388.912 696.311,387.948C695.667,387.158 694.351,386.106 691.84,386.011C688.154,385.872 676.472,387.923 654.972,383.349C652.605,382.845 650.273,384.359 649.77,386.726C649.266,389.094 650.779,391.425 653.147,391.928C671.19,395.767 682.585,395.172 688.332,394.875Z"/>
        </g>
        <g transform="matrix(1,0,0,1,-325.588,22.6985)">
            <path d="M585.877,244.204C585.167,244.343 576.656,226.738 574.845,224.566C561.596,208.682 527.862,196.808 513.279,217.702C488.93,252.587 516.462,254.516 517.863,281.599C518.894,301.522 501.263,316.434 507.608,337.676C511.557,350.895 530.229,354.229 531.336,368.973C533.204,393.846 503.799,411.787 514.078,438.02C519.902,452.885 541.968,455.421 547.502,469.546C551.293,479.221 533.025,497.634 541.735,504.652C553.417,514.064 569.978,498.372 573.216,500.374C577.396,502.959 576.456,511.016 578.304,515.733C578.696,516.734 578.013,518.946 578.013,518.946C578.013,518.946 582.477,508.141 585.892,503.464C593.273,493.353 600.026,484.674 603.576,472.675C608.244,456.895 590.95,445.796 587.787,432.38C583.337,413.504 602.576,399.269 599.621,380.332C594.879,349.932 554.733,309.162 561.904,281.696C563.26,276.501 567.594,272.272 569.023,267.441C570.464,262.572 588.827,240.73 592.784,241.088"/>
            <path d="M571.557,505.075L571.681,505.421C571.966,506.216 572.153,507.102 572.316,508.019C572.844,510.998 573.155,514.216 574.005,516.735L573.823,517.652C573.131,519.891 574.323,522.278 576.527,523.072C578.732,523.866 581.172,522.786 582.067,520.621C582.067,520.621 586.225,510.446 589.434,506.05C597.126,495.514 604.082,486.423 607.781,473.919C610.509,464.699 607.138,456.774 602.306,449.267C598.447,443.272 593.532,437.633 592.056,431.373C590.071,422.955 593.65,415.631 597.115,408.24C601.368,399.167 605.572,390.024 603.955,379.656C601.051,361.046 585.307,338.549 574.626,317.538C568.202,304.901 563.507,292.917 566.147,282.804C566.716,280.626 567.964,278.679 569.164,276.742C570.808,274.089 572.408,271.459 573.229,268.685C573.457,267.913 574.34,266.629 575.476,265.001C578.852,260.162 584.616,253.304 589.224,248.859C590.781,247.356 592.871,245.809 593.391,245.431C595.365,245.158 596.965,243.553 597.152,241.483C597.37,239.073 595.59,236.938 593.179,236.72C592.4,236.65 591.432,236.741 590.335,237.167C589.604,237.451 588.701,237.952 587.686,238.666C585.063,233.715 579.472,223.267 578.213,221.757C569.575,211.401 552.93,202.602 537.568,202.133C526.666,201.801 516.43,205.524 509.683,215.191C501.657,226.69 498.961,235.012 498.881,241.717C498.798,248.703 501.504,254.139 504.878,259.722C508.484,265.689 512.969,271.885 513.483,281.825C513.965,291.141 509.92,299.242 506.661,307.54C502.828,317.296 499.918,327.254 503.406,338.931C505.635,346.392 511.781,351.263 517.764,356.149C522.129,359.715 526.507,363.229 526.963,369.301C527.833,380.897 521.126,390.775 515.688,400.913C509.253,412.911 504.324,425.148 509.994,439.62C513.254,447.938 520.841,453.032 528.604,457.798C534.696,461.537 540.988,464.943 543.418,471.146C544.219,473.188 543.249,475.731 542.187,478.497C540.681,482.423 538.513,486.591 537.007,490.459C534.184,497.711 534.091,504.125 538.983,508.067C547.446,514.886 558.05,511.518 566.008,507.675C567.944,506.739 570.233,505.681 571.557,505.075ZM580.936,244.76C578.347,240.211 572.881,229.059 571.477,227.376C564.216,218.67 550.213,211.295 537.301,210.901C529.353,210.658 521.794,213.164 516.875,220.212C510.291,229.645 507.717,236.321 507.652,241.821C507.59,247.04 509.865,251.014 512.386,255.186C516.639,262.225 521.637,269.646 522.243,281.372C522.792,291.981 518.537,301.297 514.825,310.747C511.686,318.738 508.953,326.856 511.811,336.421C513.531,342.181 518.693,345.583 523.312,349.356C529.549,354.449 535.058,359.97 535.71,368.644C536.707,381.923 529.645,393.45 523.418,405.06C518.187,414.81 513.553,424.658 518.161,436.42C520.727,442.967 527.083,446.572 533.193,450.323C540.975,455.1 548.481,460.022 551.585,467.946C552.645,470.649 552.636,473.84 551.778,477.295C550.8,481.232 548.688,485.632 546.775,489.892C545.452,492.838 544.21,495.693 543.832,498.216C543.654,499.407 543.581,500.507 544.487,501.237C547.421,503.601 550.812,503.6 554.044,502.867C558.191,501.926 562.153,499.801 565.246,498.266C567.781,497.007 569.92,496.117 571.37,495.896C573.117,495.63 574.492,496.007 575.522,496.644C577.977,498.162 579.528,500.752 580.397,503.945C581.061,502.79 581.723,501.737 582.349,500.878C589.421,491.192 595.97,482.925 599.37,471.431C601.311,464.869 598.37,459.358 594.93,454.015C590.519,447.161 585.206,440.542 583.519,433.386C581.053,422.928 584.868,413.699 589.172,404.517C592.688,397.019 596.625,389.577 595.288,381.008C592.5,363.138 577.063,341.688 566.807,321.513C559.273,306.692 554.564,292.449 557.66,280.588C558.448,277.57 560.045,274.806 561.708,272.122C562.927,270.154 564.209,268.254 564.818,266.197C565.237,264.779 566.734,262.113 568.994,258.979C572.131,254.629 576.747,249.105 580.936,244.76ZM585.253,239.863C585.178,239.874 585.105,239.886 585.032,239.9L585.253,239.863ZM585.465,239.837L585.289,239.859L585.476,239.836L585.465,239.837ZM585.689,239.822L585.49,239.835L585.697,239.822L585.716,239.821L585.689,239.822Z"/>
        </g>
        <g transform="matrix(1,0,0,1,-325.588,22.6985)">
            <path d="M556.792,950.746C555.116,948.81 552.935,946.26 552.476,945.611C549.022,940.728 542.254,939.568 537.371,943.022C532.489,946.476 531.329,953.244 534.783,958.127C535.788,959.548 540.605,965.494 543.22,968.137C545.155,970.094 546.937,971.118 547.778,971.492C551.22,973.022 554.029,972.502 555.917,971.84C558.094,971.077 559.871,969.75 561.224,967.83C561.98,966.758 565.154,962.537 561.694,955.616C560.593,953.416 558.844,951.753 556.792,950.746Z"/>
        </g>
        <g transform="matrix(1,0,0,1,-325.588,22.6985)">
            <path d="M599.95,980.339C601.176,984.976 605.404,988.398 610.425,988.398C616.405,988.398 621.261,983.542 621.261,977.562C621.261,972.964 619.202,968.557 615.164,964.778C612.495,962.281 606.045,957.811 605.259,957.27C602.466,952.369 596.305,950.4 591.148,952.887C585.761,955.484 583.496,961.967 586.094,967.354C587.778,970.846 591.528,974.341 595.943,977.379C597.137,978.201 599.003,979.613 599.95,980.339Z"/>
        </g>
        <g transform="matrix(1,0,0,1,-325.588,22.6985)">
            <path d="M561.13,897.395C560.036,894.293 557.551,891.724 554.177,890.656C548.474,888.853 542.381,892.018 540.577,897.72C539.606,900.791 539.722,904.424 541.903,908.157C543.717,911.263 549.419,915.493 551.464,917.539C555.693,921.767 562.56,921.767 566.788,917.539C571.017,913.31 571.017,906.443 566.788,902.214C565.835,901.261 562.688,898.668 561.13,897.395Z"/>
        </g>
        <g transform="matrix(1,0,0,1,-325.588,22.6985)">
            <path d="M611.06,910.304C609.986,908.987 607.209,905.61 606.085,904.419C601.981,900.068 595.117,899.868 590.767,903.972C586.417,908.076 586.216,914.94 590.32,919.29C592.154,921.234 594.893,925.2 597.587,927.455C600.861,930.196 604.42,931.4 607.575,931.4C613.555,931.4 618.411,926.544 618.411,920.563C618.411,915.802 615.333,911.754 611.06,910.304Z"/>
        </g>
        <g transform="matrix(1,0,0,1,-325.588,22.6985)">
            <path d="M649.792,970.992C655.027,974.485 661.659,976.435 666.173,980.949C670.402,985.178 677.268,985.178 681.497,980.949C685.726,976.72 685.726,969.853 681.497,965.624C675.987,960.114 668.209,957.227 661.819,952.964C656.844,949.645 650.11,950.989 646.791,955.964C643.472,960.939 644.817,967.673 649.792,970.992Z"/>
        </g>
        <g transform="matrix(1,0,0,1,-325.588,22.6985)">
            <path d="M572.248,833.024C570.954,827.991 566.173,824.478 560.825,824.94C555.785,825.375 553.264,827.877 551.821,829.924C550.082,832.391 549.258,835.355 549.962,838.863C550.315,840.621 551.32,843.132 553.585,845.628C556.551,848.898 563.523,853.654 567.105,855.445C572.454,858.12 578.968,855.949 581.643,850.599C584.317,845.25 582.146,838.736 576.797,836.061C575.819,835.572 573.858,834.198 572.248,833.024ZM563.519,846.425L563.334,846.455L563.4,846.447L563.519,846.425ZM564.087,846.316L564.022,846.33L564.062,846.323L564.087,846.316Z"/>
        </g>
        <g transform="matrix(1,0,0,1,-325.588,22.6985)">
            <path d="M618.263,863.286C614.882,858.546 608.314,857.318 603.437,860.572C598.462,863.891 597.118,870.625 600.437,875.6C601.828,877.685 603.725,879.52 605.91,881.151C607.225,882.133 608.774,882.939 609.887,884.052C614.116,888.281 620.983,888.281 625.212,884.052C629.441,879.823 629.441,872.956 625.212,868.728C623.799,867.315 622.102,866.049 620.362,864.839C619.692,864.373 618.503,863.469 618.263,863.286Z"/>
        </g>
        <g transform="matrix(1,0,0,1,-325.588,22.6985)">
            <path d="M655.975,925.389C658.844,930.229 665.02,932.099 670.131,929.543C675.481,926.868 677.652,920.354 674.977,915.005C673.769,912.588 671.857,910.357 669.477,908.399C668.296,907.427 666.129,905.825 665.151,905.111C663.178,900.64 658.337,897.925 653.318,898.831C647.432,899.892 643.516,905.533 644.578,911.418C645.192,914.821 647.033,918.005 650.041,920.75C651.634,922.203 655.268,924.874 655.975,925.389Z"/>
        </g>
        <g transform="matrix(1,0,0,1,-325.588,22.6985)">
            <path d="M702.86,959.648C710.02,967.46 720.099,973.266 729.55,977.992C734.899,980.666 741.413,978.495 744.088,973.145C746.762,967.796 744.591,961.282 739.242,958.607C732.085,955.029 724.258,950.92 718.837,945.005C714.796,940.596 707.936,940.297 703.527,944.338C699.118,948.379 698.819,955.239 702.86,959.648Z"/>
        </g>
        <g transform="matrix(1,0,0,1,-325.588,22.6985)">
            <path d="M564.229,795.773C564.745,796.464 567.272,799.796 568.83,801.087C571.466,803.273 574.556,804.579 578.363,804.579C584.344,804.579 589.199,799.723 589.199,793.742C589.199,789.082 586.25,785.104 582.117,783.576C580.991,782.155 579.046,779.818 577.712,778.82C572.923,775.237 566.126,776.217 562.544,781.006C559.091,785.623 559.877,792.105 564.229,795.773Z"/>
        </g>
        <g transform="matrix(1,0,0,1,-325.588,22.6985)">
            <path d="M614.769,815.37L610.002,811.942C608.472,809.24 605.797,807.212 602.505,806.616C596.62,805.551 590.977,809.464 589.912,815.349C589.518,817.525 589.62,821.887 593.375,826.064C595.99,828.973 602.213,833.467 605.758,835.135C608.337,836.348 610.541,836.64 611.849,836.64C617.83,836.64 622.686,831.785 622.686,825.804C622.686,820.835 619.334,816.643 614.769,815.37Z"/>
        </g>
        <g transform="matrix(1,0,0,1,-325.588,22.6985)">
            <path d="M641.492,863.747C644.488,868.594 651.026,872.307 655.712,875.431C660.688,878.749 667.422,877.402 670.739,872.426C674.057,867.45 672.71,860.716 667.734,857.399C666.234,856.399 664.446,855.388 662.682,854.295C661.673,853.67 660.475,853.24 659.927,852.353C656.783,847.266 650.1,845.688 645.013,848.833C639.925,851.977 638.348,858.66 641.492,863.747Z"/>
        </g>
        <g transform="matrix(1,0,0,1,-325.588,22.6985)">
            <path d="M692.833,905.52C694.69,907.614 696.827,909.215 699.101,910.62C700.479,911.471 702.025,912.067 703.222,913.264C707.45,917.493 714.317,917.493 718.546,913.264C722.775,909.035 722.775,902.168 718.546,897.939C716.699,896.092 714.63,894.665 712.481,893.373C711.311,892.67 709.991,892.204 709.045,891.138C705.076,886.664 698.222,886.254 693.748,890.222C689.274,894.191 688.864,901.046 692.833,905.52Z"/>
        </g>
        <g transform="matrix(1,0,0,1,-325.588,22.6985)">
            <path d="M756.692,943.548C760.548,949.526 767.354,953.172 772.332,958.15C776.561,962.379 783.427,962.379 787.656,958.15C791.885,953.921 791.885,947.054 787.656,942.825C785.528,940.697 783.071,938.812 780.595,936.944C778.513,935.373 776.289,933.947 774.903,931.799C771.661,926.774 764.949,925.326 759.923,928.568C754.897,931.81 753.45,938.523 756.692,943.548Z"/>
        </g>
        <g transform="matrix(1,0,0,1,-325.588,22.6985)">
            <path d="M599.188,779.325C602.62,782.711 607.772,786.363 611.991,788.473C617.34,791.147 623.854,788.976 626.529,783.626C629.204,778.277 627.032,771.763 621.683,769.088C619.286,767.89 616.357,765.82 614.407,763.897C610.149,759.697 603.283,759.744 599.083,764.001C594.883,768.259 594.93,775.126 599.188,779.325Z"/>
        </g>
        <g transform="matrix(1,0,0,1,-325.588,22.6985)">
            <path d="M668.64,806.369C665.647,801.632 659.452,799.929 654.418,802.597C649.133,805.397 647.117,811.961 649.917,817.245C651.769,820.739 654.903,823.6 658.843,825.787C661.549,827.289 664.845,828.322 667.112,829.833C672.088,833.15 678.821,831.804 682.139,826.827C685.456,821.851 684.109,815.118 679.133,811.8C677.045,810.408 674.377,809.203 671.7,807.983C670.737,807.544 669.15,806.658 668.64,806.369Z"/>
        </g>
        <g transform="matrix(1,0,0,1,-325.588,22.6985)">
            <path d="M722.235,869.548C726.488,873.313 733.001,873.16 737.071,869.09C741.299,864.861 741.299,857.994 737.071,853.765C735.916,852.611 734.353,851.469 732.505,850.45C731.628,849.966 730.137,849.202 729.096,848.675C727.328,845.209 723.745,842.814 719.587,842.759C713.607,842.68 708.687,847.471 708.608,853.451C708.55,857.841 710.416,861.776 714.256,864.899C716.277,866.543 721.482,869.171 722.235,869.548Z"/>
        </g>
        <g transform="matrix(1,0,0,1,-325.588,22.6985)">
            <path d="M757.941,902.781C761.329,904.436 766.662,909.019 769.482,911.839C773.711,916.068 780.578,916.068 784.806,911.839C789.035,907.61 789.035,900.743 784.806,896.514C780.615,892.323 772.49,885.769 767.454,883.309C762.08,880.683 755.586,882.915 752.961,888.289C750.336,893.662 752.568,900.156 757.941,902.781Z"/>
        </g>
        <g transform="matrix(1,0,0,1,-325.588,22.6985)">
            <path d="M571.401,750.012C572.558,754.749 576.834,758.268 581.925,758.268C587.906,758.268 592.762,753.412 592.762,747.431C592.762,748.014 592.665,748.631 592.665,748.631C592.665,748.631 592.507,743.976 592.107,742.921C591.543,741.436 591.138,738.481 585.304,736.42C579.665,734.428 573.47,737.388 571.477,743.027C570.648,745.374 570.677,747.817 571.401,750.012Z"/>
        </g>
        <g transform="matrix(1,0,0,1,-325.588,22.6985)">
            <path d="M603.959,740.696C605.899,742.014 609.754,744.606 610.566,745.011C615.915,747.686 622.429,745.515 625.104,740.165C627.709,734.955 625.716,728.638 620.667,725.845C620.194,725.523 613.431,720.924 611.901,720.264C608.419,718.761 605.7,719.314 604.352,719.689C601.008,720.62 598.839,722.658 597.505,725.35C596.613,727.15 595.138,730.647 597.697,735.465C599.076,738.06 601.362,739.866 603.959,740.696ZM617.101,725.832C617.773,727.281 618.097,728.811 618.101,730.322C618.134,729.066 617.916,727.552 617.101,725.832Z"/>
        </g>
        <g transform="matrix(1,0,0,1,-325.588,22.6985)">
            <path d="M649.479,776.624C653.356,778.414 658.1,779.795 661.185,782.88C665.414,787.109 672.281,787.109 676.51,782.88C680.739,778.651 680.739,771.785 676.51,767.556C671.664,762.71 664.652,759.758 658.562,756.947C653.132,754.44 646.689,756.814 644.182,762.244C641.676,767.674 644.049,774.117 649.479,776.624Z"/>
        </g>
        <g transform="matrix(1,0,0,1,-325.588,22.6985)">
            <path d="M710.943,817.895L713.609,819.608C717.861,823.441 724.427,823.311 728.521,819.217C732.75,814.988 732.75,808.121 728.521,803.892C727.698,803.069 723.675,799.984 720.225,798.115C717.864,796.836 715.61,796.097 714.129,795.866C709.685,795.173 706.54,796.804 704.53,798.598C702.409,800.492 700.737,803.152 700.764,807.155C700.803,812.89 705.3,817.56 710.943,817.895ZM722.421,807.622C722.339,809.312 721.867,810.902 721.092,812.303C721.854,811.033 722.348,809.499 722.421,807.622Z"/>
        </g>
        <g transform="matrix(1,0,0,1,-325.588,22.6985)">
            <path d="M748.569,846.088C752.812,851.9 762.274,858.627 768.736,861.858C774.085,864.532 780.599,862.361 783.274,857.012C785.949,851.662 783.777,845.148 778.428,842.473C774.545,840.532 768.622,836.801 766.072,833.309C762.545,828.479 755.761,827.42 750.93,830.947C746.1,834.474 745.042,841.258 748.569,846.088Z"/>
        </g>
        <g transform="matrix(1,0,0,1,-325.588,22.6985)">
            <path d="M811.722,934.442C807.549,931.734 801.908,932.189 798.223,935.826C793.967,940.027 793.922,946.894 798.123,951.15C800.327,953.383 801.502,954.03 802.461,954.482C803.747,955.088 805.063,955.624 808.493,955.624C814.474,955.624 819.329,950.768 819.329,944.788C819.329,939.931 816.128,935.817 811.722,934.442Z"/>
        </g>
        <g transform="matrix(1,0,0,1,-325.588,22.6985)">
            <path d="M581.343,690.168C581.587,690.993 581.934,691.719 582.344,692.357C583.979,695.267 586.931,697.385 590.496,697.815C594.957,698.352 599.115,696.092 601.21,692.417C602.594,690.098 603.035,687.372 602.534,684.792C601.651,678.571 596.206,676.416 594.842,675.989C592.606,675.288 590.58,675.393 588.868,675.836C586.074,676.558 583.749,678.201 582.178,680.924C581.289,682.464 580.361,684.76 580.841,687.982C580.908,688.434 580.995,689.196 581.343,690.168ZM580.98,686.338C580.866,687.805 581.015,689.074 581.343,690.168L581.472,690.512C581.534,690.658 581.597,690.804 581.66,690.95L581.92,691.525C581.996,691.682 582.072,691.838 582.148,691.995L582.344,692.357C582.812,693.087 583.362,693.704 583.939,694.22C582.899,693.125 582.222,692.097 581.777,691.189C581.156,689.695 580.865,688.045 580.98,686.338ZM599.964,679.633C600.534,680.267 601.017,680.953 601.409,681.676C601.08,681.038 600.617,680.349 599.964,679.633Z"/>
        </g>
        <g transform="matrix(1,0,0,1,-325.588,22.6985)">
            <path d="M636.134,722.158C640.387,725.827 646.825,725.643 650.861,721.607C655.09,717.378 655.09,710.512 650.861,706.283C649.506,704.928 646.441,703.305 643.793,702.056C642.125,700.437 639.926,699.344 637.439,699.073C626.263,697.859 624.147,706.943 623.99,707.764C623.648,709.561 622.863,716.24 630.186,719.733C630.923,720.085 635.446,721.885 636.134,722.158Z"/>
        </g>
        <g transform="matrix(1,0,0,1,-325.588,22.6985)">
            <path d="M682.132,754.06C685.612,755.012 689.178,756.887 692.501,758.548C697.85,761.223 704.364,759.052 707.039,753.703C709.713,748.353 707.542,741.839 702.193,739.164C697.621,736.879 692.643,734.468 687.856,733.157C682.087,731.577 676.122,734.978 674.543,740.746C672.963,746.515 676.364,752.48 682.132,754.06Z"/>
        </g>
        <g transform="matrix(1,0,0,1,-325.588,22.6985)">
            <path d="M742.093,794.514C745.166,798.652 750.86,800.119 755.629,797.735C760.978,795.06 763.149,788.546 760.475,783.197C759.122,780.491 756.902,778.163 753.924,776.312C752.237,775.263 748.483,773.363 747.914,773.076C744.065,768.777 737.464,768.242 732.965,771.943C728.347,775.742 727.681,782.576 731.481,787.195C733.238,789.331 735.587,791.088 738.222,792.52C739.349,793.132 741.269,794.101 742.093,794.514Z"/>
        </g>
        <g transform="matrix(1,0,0,1,-325.588,22.6985)">
            <path d="M618.336,675.096C618.586,675.413 618.857,675.717 619.149,676.009C621.685,678.545 629.133,681.054 630.128,681.206C638.004,682.412 640.997,676.35 641.479,675.398C642.851,672.694 643.292,669.567 641.685,666.021C641.268,665.102 640.26,662.599 636.645,660.792C635.54,660.24 631.098,658.09 630.487,657.855C625.166,655.804 621.718,658.216 621.111,658.566C617.09,660.889 615.32,664.358 615.74,668.941C615.819,669.793 615.876,672.441 618.336,675.096ZM637.376,668.181C637.4,671.681 636.015,674.467 633.195,676.52C633.958,675.931 634.653,675.226 635.255,674.414C636.645,672.535 637.338,670.354 637.376,668.181ZM633.748,659.871C635.773,661.667 636.981,664.091 637.294,666.631C637.194,665.404 636.858,662.533 633.765,659.873L633.748,659.871ZM633.611,659.743C633.417,659.579 633.212,659.417 632.995,659.256C633.202,659.41 633.402,659.569 633.593,659.737L633.611,659.743Z"/>
        </g>
        <g transform="matrix(1,0,0,1,-325.588,22.6985)">
            <path d="M595.402,634.912C593.568,634.036 591.466,633.669 589.303,633.962C581.78,634.982 580.284,639.772 579.853,640.819C578.89,643.155 578.781,645.488 579.41,647.811C579.946,649.791 581.171,652.505 584.537,654.443C585.23,654.841 586.447,655.423 588.087,655.786C589.683,656.139 592.665,656.383 593.325,656.383C599.306,656.383 604.161,651.528 604.161,645.547C604.161,640.277 600.391,635.881 595.402,634.912ZM595.405,654.49C594.422,654.958 593.35,655.284 592.214,655.438C593.519,655.261 594.565,654.917 595.405,654.49Z"/>
        </g>
        <g transform="matrix(1,0,0,1,-325.588,22.6985)">
            <path d="M680.035,688.663C678.266,684.938 674.436,682.394 670.049,682.474C664.069,682.583 659.303,687.527 659.413,693.506C659.502,698.38 662.041,703.085 667.263,706.498C672.072,709.641 680.445,711.659 683.945,712.825C689.619,714.717 695.761,711.646 697.652,705.972C699.543,700.298 696.472,694.157 690.799,692.265L680.035,688.663Z"/>
        </g>
        <g transform="matrix(1,0,0,1,-325.588,22.6985)">
            <path d="M739.738,722.258C737.121,717.439 731.221,715.283 726.05,717.439C720.53,719.742 717.918,726.092 720.22,731.612C721.854,735.528 724.86,738.68 728.762,741.003C731.971,742.913 735.934,744.186 738.921,745.38C744.474,747.602 750.785,744.897 753.006,739.344C755.228,733.791 752.523,727.479 746.97,725.258C745.051,724.491 740.754,722.685 739.738,722.258Z"/>
        </g>
        <g transform="matrix(1,0,0,1,-325.588,22.6985)">
            <path d="M622.679,613.623C619.784,610.248 614.974,608.877 610.584,610.555C604.998,612.69 602.195,618.959 604.33,624.545C605.421,627.4 607.801,630.319 611.526,632.385C615.135,634.386 620.631,635.697 623.261,636.224C629.126,637.396 634.839,633.587 636.012,627.723C637.185,621.858 633.376,616.145 627.512,614.972C626.592,614.788 623.915,613.996 622.679,613.623Z"/>
        </g>
        <g transform="matrix(1,0,0,1,-325.588,22.6985)">
            <path d="M677.874,641.913C676.595,640.148 674.77,638.753 672.545,638.012C666.871,636.122 660.73,639.193 658.839,644.867C657.598,648.593 657.811,653.865 663.084,658.242C666.476,661.057 676.256,664.685 678.116,665.482C683.613,667.838 689.989,665.287 692.345,659.79C694.701,654.293 692.15,647.918 686.653,645.562C685.737,645.169 680.196,642.874 677.874,641.913ZM679.557,651.203L679.4,651.718C679.457,651.547 679.51,651.376 679.557,651.203ZM679.696,650.654L679.575,651.136L679.661,650.814L679.696,650.654ZM679.881,649.577L679.919,649.18C679.884,649.673 679.808,650.161 679.698,650.644L679.803,650.114C679.829,649.935 679.855,649.756 679.881,649.577ZM679.936,648.961L679.936,648.964L679.936,648.961Z"/>
        </g>
        <g transform="matrix(1,0,0,1,-325.588,22.6985)">
            <path d="M730.315,671.651C726.383,667.41 719.758,667 715.328,670.797C710.786,674.688 710.258,681.535 714.15,686.076C716.202,688.471 718.915,690.325 722.001,691.724C724.26,692.748 726.82,693.417 728.837,694.426C734.186,697.1 740.701,694.929 743.375,689.579C746.05,684.23 743.878,677.716 738.529,675.041C736.783,674.168 734.742,673.443 732.698,672.685C731.951,672.408 730.645,671.805 730.315,671.651Z"/>
        </g>
        <g transform="matrix(1,0,0,1,-325.588,22.6985)">
            <path d="M590.43,579.873C589.019,577.194 586.499,575.12 583.323,574.375C577.5,573.01 571.664,576.628 570.299,582.451C568.718,589.193 571.359,594.332 576.53,597.816C580.235,600.312 586.047,601.523 589.763,601.523C595.743,601.523 600.599,596.667 600.599,590.686C600.599,584.93 596.101,580.216 590.43,579.873ZM591.477,587.024L591.399,587.399C591.429,587.272 591.455,587.147 591.477,587.024Z"/>
        </g>
        <g transform="matrix(1,0,0,1,-325.588,22.6985)">
            <path d="M651.772,609.599C653.221,609.99 656.91,610.984 657.67,611.174C663.472,612.624 669.36,609.091 670.811,603.289C672.261,597.487 668.728,591.599 662.926,590.149C661.369,589.759 653.745,587.918 652.884,587.92C645.363,587.938 643.177,593.354 642.489,595.6C641.845,597.705 640.357,603.36 646.762,607.755C648.307,608.815 650.03,609.42 651.772,609.599ZM663.718,599.23C663.65,601.191 663.045,603.155 661.865,604.896C663.09,603.205 663.698,601.312 663.718,599.23ZM659.527,590.254C661.372,591.679 662.639,593.601 663.266,595.7C662.885,594.217 662.004,592.126 659.527,590.254Z"/>
        </g>
        <g transform="matrix(1,0,0,1,-325.588,22.6985)">
            <path d="M707.71,637.776C712.503,642.464 714.819,644.342 721.793,646.085C727.595,647.536 733.483,644.003 734.933,638.201C736.384,632.399 732.851,626.51 727.049,625.06C724.907,624.524 724.336,623.722 722.863,622.282C718.588,618.1 711.722,618.177 707.54,622.452C703.358,626.728 703.434,633.594 707.71,637.776Z"/>
        </g>
        <g transform="matrix(1,0,0,1,-325.588,22.6985)">
            <path d="M613.06,573.916C615.645,575.938 619.438,578.809 621.253,579.717C626.602,582.391 633.117,580.22 635.791,574.871C638.466,569.521 636.294,563.007 630.945,560.332C628.37,559.045 624.202,554.83 621.549,553.21C618.731,551.488 616.146,550.95 614.387,550.909C610.85,550.826 608.086,552.118 605.94,554.258C604.221,555.972 602.228,558.78 602.507,563.7C602.829,569.376 607.474,573.788 613.06,573.916ZM624.158,562.93C624.158,562.781 624.153,562.628 624.144,562.473L624.158,562.93Z"/>
        </g>
        <g transform="matrix(1,0,0,1,-325.588,22.6985)">
            <path d="M576.58,513.34C575.985,512.798 575.318,512.318 574.585,511.911C569.608,509.143 566.361,510.469 566.011,510.558C562.361,511.484 560.301,513.67 559.055,516.07C557.983,518.136 557.302,520.795 558.273,524.112C558.409,524.576 559.041,527.53 562.658,530.114C564.743,531.603 576.049,538.515 578.833,539.56C584.433,541.659 590.684,538.818 592.784,533.218C594.884,527.618 592.043,521.367 586.443,519.267C584.956,518.71 579.209,515.04 576.58,513.34ZM565.093,531.359C565.812,531.672 566.482,531.872 567.096,531.989C566.418,531.847 565.748,531.638 565.093,531.359ZM564.824,531.245L565.024,531.33L564.671,531.167L564.824,531.245Z"/>
        </g>
        <g transform="matrix(1,0,0,1,-325.588,22.6985)">
            <path d="M670.717,548.718C669.489,545.758 666.964,543.371 663.642,542.439C657.884,540.822 651.897,544.184 650.28,549.942C648.777,555.297 650.331,560.63 655.451,564.859C659.419,568.136 667.294,570.717 670.408,571.755C676.082,573.646 682.224,570.575 684.115,564.902C686.006,559.228 682.935,553.086 677.262,551.195C676.135,550.819 672.703,549.493 670.717,548.718Z"/>
        </g>
        <g transform="matrix(1,0,0,1,-325.588,22.6985)">
            <path d="M719.16,579.35C716.836,575.39 712.139,573.201 707.424,574.268C701.591,575.587 697.926,581.395 699.246,587.228C700.708,593.692 704.446,596.999 709.412,599.018C711.378,599.817 713.749,600.214 716.007,600.966C721.681,602.858 727.822,599.787 729.714,594.113C731.605,588.439 728.534,582.298 722.86,580.406C721.852,580.07 720.317,579.652 719.16,579.35Z"/>
        </g>
        <g transform="matrix(1,0,0,1,-325.588,22.6985)">
            <path d="M722.843,558.063C728.241,563.593 734.023,565.611 741.533,567.113C747.397,568.286 753.111,564.477 754.283,558.613C755.456,552.748 751.647,547.035 745.783,545.862C742.893,545.284 740.429,545.053 738.351,542.924C734.174,538.645 727.308,538.562 723.028,542.739C718.748,546.917 718.665,553.783 722.843,558.063Z"/>
        </g>
        <g transform="matrix(1,0,0,1,-325.588,22.6985)">
            <path d="M708.918,514.427C707.508,511.332 704.666,508.948 701.074,508.268C695.574,507.228 692.594,509.309 691.248,510.346C687.452,513.27 685.266,517.568 687.868,523.604C688.384,524.801 689.661,526.889 692.043,528.943C695.376,531.818 702.688,536.362 703.9,536.968C709.25,539.643 715.764,537.471 718.439,532.122C721.113,526.773 718.942,520.258 713.592,517.584C713.155,517.365 710.853,515.778 708.918,514.427ZM697.814,529.68L697.915,529.688L697.733,529.668L697.814,529.68Z"/>
        </g>
        <g transform="matrix(1,0,0,1,-325.588,22.6985)">
            <path d="M624.712,509.568C621.911,504.425 615.492,502.429 610.253,505.12C604.933,507.852 602.833,514.39 605.565,519.71C607.461,523.402 610.402,526.281 614.02,528.522C617.146,530.457 620.924,531.816 624.103,533.406C629.452,536.08 635.966,533.909 638.641,528.56C641.316,523.21 639.144,516.696 633.795,514.021C631.788,513.018 629.521,512.129 627.354,511.109C626.466,510.691 624.973,509.737 624.712,509.568Z"/>
        </g>
        <g transform="matrix(1,0,0,1,-325.588,22.6985)">
            <path d="M716.36,487.56C716.419,487.995 716.435,488.369 716.435,488.802C716.435,494.783 721.29,499.638 727.271,499.638C733.251,499.638 738.107,494.783 738.107,488.802C738.107,487.354 738.033,486.103 737.836,484.649C737.033,478.722 731.569,474.563 725.642,475.367C719.716,476.17 715.557,481.634 716.36,487.56Z"/>
        </g>
    </g>
</svg>
