<?xml version="1.0" encoding="UTF-8" standalone="no"?>
<!DOCTYPE svg PUBLIC "-//W3C//DTD SVG 1.1//EN" "http://www.w3.org/Graphics/SVG/1.1/DTD/svg11.dtd">
<svg width="100%" height="100%" viewBox="0 0 897 847" version="1.1" xmlns="http://www.w3.org/2000/svg" xmlns:xlink="http://www.w3.org/1999/xlink" xml:space="preserve" xmlns:serif="http://www.serif.com/" style="fill-rule:evenodd;clip-rule:evenodd;stroke-linecap:round;stroke-linejoin:round;stroke-miterlimit:1.5;">
    <g id="Layer1">
        <g transform="matrix(1,0,0,1,-648.769,-218.958)">
            <rect x="679.044" y="264.494" width="854.725" height="788.384" style="fill:rgb(245,167,0);"/>
        </g>
        <g transform="matrix(0.897498,0,0,0.893732,-541.295,-163.833)">
            <rect x="679.044" y="264.494" width="854.725" height="788.384" style="fill:white;"/>
        </g>
        <g transform="matrix(1,0,0,1,-658.35,-203.556)">
            <path d="M1286.58,775.964C1287.55,776.069 1287.7,778.661 1287.67,779.675C1287.42,790.447 1290.1,804.332 1294.24,814.339C1300.17,828.672 1293.74,842.465 1297.89,858.265C1302.16,874.533 1320.93,885.537 1335.23,891.909C1389.68,916.168 1441.73,819.832 1408.68,779.362C1378.86,742.851 1350.91,792.192 1321.41,796.448C1300.35,799.487 1293.63,782.75 1278.58,772.194" style="fill:rgb(227,11,90);"/>
            <path d="M1292.65,777.565C1292.41,776.004 1291.94,774.239 1291.27,773.301C1290.18,771.768 1288.72,771.006 1287.14,770.834C1286.55,770.769 1285.97,770.808 1285.42,770.936C1284.18,769.91 1282.9,768.916 1281.55,767.969C1279.22,766.333 1276,766.898 1274.36,769.23C1272.72,771.561 1273.29,774.782 1275.62,776.418C1278.12,778.168 1280.38,780.095 1282.51,782.075C1282.66,793.08 1285.4,806.466 1289.47,816.312C1292.13,822.73 1291.89,829.042 1291.58,835.504C1291.21,843.22 1290.68,851.127 1292.9,859.576C1294.85,866.994 1299.36,873.503 1305.21,879.047C1313.34,886.748 1324.07,892.586 1333.13,896.622C1362.77,909.828 1392.11,890.993 1409.19,862.566C1426.03,834.546 1430.41,797.812 1412.67,776.098C1405.83,767.711 1398.96,763.41 1392.25,761.708C1382.22,759.164 1372.24,762.443 1362.35,768.147C1355.08,772.339 1347.81,777.809 1340.5,782.508C1333.93,786.736 1327.37,790.374 1320.67,791.341C1309.98,792.884 1303.74,788.179 1297.64,782.416C1295.98,780.852 1294.34,779.214 1292.65,777.565ZM1293.77,792.819C1294.81,799.7 1296.66,806.696 1299.01,812.366C1302.28,820.281 1302.27,828.031 1301.89,836C1301.56,842.714 1300.95,849.603 1302.88,856.955C1304.35,862.551 1307.89,867.372 1312.31,871.554C1319.58,878.442 1329.23,883.585 1337.33,887.195C1362.14,898.25 1386.05,881.049 1400.34,857.251C1414.88,833.048 1420,801.383 1404.68,782.626C1399.6,776.408 1394.69,772.974 1389.72,771.712C1382.22,769.811 1374.89,772.827 1367.5,777.088C1358.87,782.063 1350.26,788.872 1341.56,793.981C1335.15,797.751 1328.67,800.614 1322.14,801.556C1309.83,803.332 1301.69,799.387 1294.45,793.395C1294.22,793.205 1293.99,793.013 1293.77,792.819Z" style="fill:rgb(227,11,90);"/>
        </g>
        <g transform="matrix(1,0,0,1,-654.038,-201.465)">
            <path d="M759.736,425.041C753.365,424.156 748.618,444.723 747.925,448.533C743.478,472.993 748.986,501.52 764.274,521.904C784.677,549.109 815.11,519.91 840.037,519.91C848.267,519.91 856.659,525.765 862.368,531.474C862.911,532.017 871.379,538.574 871.938,537.456C872.906,535.52 870.623,530.246 870.343,528.284C869.242,520.579 869.645,512.037 870.741,504.359C871.693,497.695 874.476,492.307 876.723,486.016C885.432,461.629 880.989,438.477 862.368,421.019C858.144,417.059 853.327,412.528 848.411,409.455C830.377,398.184 798.757,401.885 781.42,413.443C775.575,417.339 770.299,421.702 764.673,426.203C763.382,427.235 757.78,433.381 758.292,433.381" style="fill:rgb(227,11,90);"/>
            <path d="M762.927,420.988C762.233,420.438 761.386,420.06 760.446,419.93C756.901,419.437 752.974,421.574 750.092,426.331C746.139,432.857 743.377,444.7 742.848,447.61C738.156,473.414 744.018,503.496 760.146,525C771.951,540.741 786.552,540.572 801.913,536.06C814.718,532.299 828.015,525.071 840.037,525.071C846.98,525.071 853.902,530.307 858.719,535.123C859.109,535.514 863.06,538.666 866.11,540.598C868.085,541.848 869.905,542.554 870.827,542.684C873.959,543.126 875.67,541.53 876.553,539.763C877.21,538.449 877.52,536.481 877.174,534.213C876.82,531.892 875.646,528.918 875.451,527.554C874.417,520.319 874.82,512.299 875.85,505.089C876.751,498.781 879.456,493.706 881.582,487.752C891.032,461.292 886.101,436.196 865.897,417.254C861.439,413.076 856.334,408.322 851.146,405.079C831.609,392.869 797.339,396.628 778.558,409.149C773.103,412.785 768.129,416.813 762.927,420.988ZM864.958,526.797C864.145,519.222 864.573,511.046 865.633,503.629C866.636,496.608 869.496,490.909 871.863,484.281C879.832,461.966 875.877,440.757 858.838,424.784C854.848,421.043 850.321,416.734 845.676,413.831C829.145,403.499 800.175,407.142 784.283,417.736C778.562,421.55 773.403,425.827 767.896,430.232C767.122,430.852 763.752,434.697 762.933,435.637C762.096,437.355 760.332,438.541 758.292,438.541C757.424,438.541 756.689,438.39 756.065,438.12C754.389,442.884 753.298,447.827 753.002,449.456C748.799,472.573 753.954,499.544 768.402,518.808C777.001,530.274 787.815,529.444 799.005,526.158C812.749,522.121 827.132,514.75 840.037,514.75C849.06,514.75 858.387,520.566 864.958,526.797Z" style="fill:rgb(227,11,77);"/>
        </g>
        <g transform="matrix(0.823336,0,0,0.823336,-859.553,34.2736)">
            <g transform="matrix(1,0,0,1,277.951,-177.474)">
                <path d="M1514.85,897.125C1514.38,914.429 1518.12,925.206 1525.9,940.158C1538.6,964.564 1564.37,980.781 1592.39,985.861C1620.39,990.939 1650.44,984.87 1671.54,965.617C1689.51,949.223 1701.3,923.173 1699.17,885.622C1696.61,840.709 1680.83,817.78 1660.91,809.11C1648.5,803.708 1634.07,803.626 1619.09,807.896C1599.93,813.356 1579.72,826.025 1562.24,842.494C1560.24,840.861 1557.44,838.488 1555.11,836.166C1542.9,824.014 1527.18,805.164 1522.74,800.686C1519.5,797.418 1516.37,797.236 1515.67,797.233C1513.38,797.224 1511.61,798.039 1510.22,799.208C1508.71,800.477 1507.23,802.426 1507.23,805.655C1507.23,819.452 1504.3,842.1 1505.39,862.112C1506.14,875.864 1508.95,888.414 1514.85,897.125ZM1522.93,826.131C1527.92,831.7 1533.68,838.029 1538.71,843.302C1547.25,852.24 1555.51,859.131 1559.59,860.449C1564.3,861.972 1567.73,860.515 1570.02,858.224C1586.25,841.997 1605.42,829.169 1623.67,823.969C1634.62,820.849 1645.17,820.487 1654.25,824.435C1670.14,831.352 1680.44,850.737 1682.48,886.57C1684.26,917.763 1675.2,939.653 1660.28,953.271C1643,969.032 1618.3,973.573 1595.37,969.416C1572.46,965.262 1551.11,952.401 1540.73,932.444C1534.03,919.561 1530.84,910.522 1531.66,894.931C1531.77,892.813 1531.07,890.731 1529.7,889.109C1524.34,882.738 1522.69,872.394 1522.08,861.201C1521.45,849.644 1522.2,837.193 1522.93,826.131Z"/>
            </g>
            <g transform="matrix(1,0,0,1,277.951,-177.474)">
                <path d="M990.416,537.661C990.96,538.246 991.621,538.812 992.418,539.346C997.545,542.78 1025.24,556.076 1031.27,558.89C1032.28,559.36 1032.89,559.616 1033,559.657C1037.07,561.17 1039.57,559.362 1039.98,559.134C1043,557.461 1044.28,554.936 1044.28,551.828C1044.28,545.739 1041.63,539.056 1038.06,532.304C1034.41,525.386 1029.35,518.407 1029.35,511.701C1029.35,506.741 1033.12,500.123 1036.66,493.075C1041.32,483.774 1046.03,474.038 1047.02,466.078C1050.12,441.288 1039.67,412.048 1021.3,391.393C1002.3,370.044 975.185,357.966 946.499,367.528C929.876,373.069 910.098,378.528 893.078,387.266C874.364,396.875 858.983,410.403 852.926,431.156C847.915,448.328 849.286,470.861 861.876,500.962C875.69,533.989 906.48,547.057 942.434,539.866C951.109,538.131 979.264,536.429 990.416,537.661ZM1020.47,534.897C1013.57,531.438 1006.67,527.957 1003.51,526.361C1002.17,524.458 999.516,522.19 994.864,521.404C983.981,519.564 949.418,521.424 939.156,523.477C911.704,528.967 887.842,519.73 877.295,494.513C866.693,469.166 864.75,450.298 868.97,435.838C873.684,419.686 886.147,409.613 900.712,402.134C916.971,393.787 935.904,388.677 951.784,383.384C973.759,376.059 994.26,386.148 1008.81,402.502C1023.98,419.549 1032.99,443.545 1030.43,464.005C1029.45,471.888 1023.56,481.679 1019.2,490.668C1015.38,498.554 1012.64,506.015 1012.64,511.701C1012.64,519.14 1016.3,527.124 1020.47,534.897ZM988.286,529.381C988.541,528.193 989.167,526.969 990.373,525.762C989.64,526.495 989.05,527.359 988.632,528.308C988.538,528.523 988.404,528.894 988.286,529.381Z"/>
            </g>
            <g transform="matrix(1,0,0,1,277.951,-177.474)">
                <path d="M1200.36,729.564L1201.91,732.848C1209.45,748.879 1237.07,806.43 1277.99,847.721C1306.55,876.545 1341.58,897.247 1380.52,892.946C1433.8,887.062 1466.61,854.077 1486.34,813.875C1514.99,755.508 1515.5,681.865 1513,659.219C1500.67,547.654 1434.19,496.294 1365.02,490.352C1302.5,484.982 1237.27,517.055 1206.01,576.513C1185.35,615.823 1179.41,667.206 1199.5,727.75C1199.72,728.4 1200.01,729.007 1200.36,729.564ZM1215.13,721.768C1197.05,666.767 1202.01,620.05 1220.81,584.289C1248.87,530.912 1307.46,502.183 1363.59,507.004C1426.25,512.386 1485.22,559.995 1496.38,661.054C1498.74,682.352 1498.28,751.617 1471.33,806.511C1454.01,841.818 1425.48,871.166 1378.69,876.334C1344.78,880.078 1314.73,861.053 1289.86,835.956C1250.62,796.367 1224.26,741.108 1217.04,725.738C1216.2,723.95 1215.55,722.61 1215.13,721.768ZM1204.71,733.018C1206.15,733.553 1207.48,733.581 1208.64,733.386C1207.29,733.586 1205.94,733.445 1204.71,733.018ZM1211.16,732.596C1213.17,731.697 1216.17,729.583 1215.76,724.454C1216.04,727.921 1214.15,731.109 1211.16,732.596Z"/>
            </g>
            <g transform="matrix(1,0,0,1,277.951,-177.474)">
                <path d="M1264.81,724.079C1265.29,724.434 1267.28,725.916 1268.37,726.824C1270.85,728.895 1273.41,730.708 1275.77,731.593C1285.47,735.231 1304.26,736.234 1317.73,730.832C1328.69,726.436 1336.34,718.26 1336.34,705.639C1336.34,701.027 1332.59,697.283 1327.98,697.283C1323.37,697.283 1319.62,701.027 1319.62,705.639C1319.62,710.729 1315.93,713.546 1311.51,715.319C1301.92,719.165 1288.55,718.534 1281.64,715.944C1279.87,715.279 1278.16,713.161 1276.3,711.713C1273.14,709.266 1269.8,707.718 1266.75,707.497C1262.15,707.163 1258.15,710.626 1257.81,715.226C1257.5,719.579 1260.58,723.4 1264.81,724.079Z"/>
            </g>
            <g transform="matrix(1,0,0,1,277.951,-177.474)">
                <path d="M1405.44,696.227C1403.5,693.912 1400.37,692.729 1397.23,693.422C1392.72,694.415 1389.87,698.878 1390.86,703.382C1391.47,706.113 1393.51,709.248 1397.76,711.253C1403.63,714.02 1417.21,715.178 1419.89,715.369C1443.35,717.045 1466.03,700.833 1466.03,675.424C1466.03,670.812 1462.28,667.068 1457.67,667.068C1453.06,667.068 1449.31,670.812 1449.31,675.424C1449.31,690.659 1435.15,699.703 1421.08,698.698C1419.36,698.576 1408.08,696.675 1405.44,696.227Z"/>
            </g>
            <g transform="matrix(1,0,0,1,277.951,-177.474)">
                <path d="M1391.22,703.12C1391.04,709.166 1390.23,715.709 1385.29,720.648C1382.03,723.91 1382.03,729.205 1385.29,732.466C1388.55,735.728 1393.85,735.728 1397.11,732.467C1405.33,724.246 1407.62,713.694 1407.93,703.632C1408.07,699.022 1404.44,695.164 1399.83,695.023C1395.22,694.882 1391.37,698.51 1391.22,703.12Z"/>
            </g>
            <g transform="matrix(1,0,0,1,277.951,-177.474)">
                <path d="M1417.22,708.253C1417.31,713.681 1419.29,719.12 1420.85,724.31C1422.17,728.728 1426.83,731.239 1431.25,729.913C1435.67,728.588 1438.18,723.925 1436.85,719.508C1435.73,715.761 1433.99,711.908 1433.93,707.99C1433.86,703.378 1430.06,699.693 1425.44,699.766C1420.83,699.839 1417.15,703.642 1417.22,708.253Z"/>
            </g>
            <g transform="matrix(1,0,0,1,277.951,-177.474)">
                <path d="M1436.21,707.251C1436.4,709.529 1437.21,712.086 1438.57,714.616C1440.74,718.649 1444.4,722.78 1446.65,725.029C1449.91,728.29 1455.2,728.29 1458.47,725.029C1461.73,721.768 1461.73,716.472 1458.47,713.211C1457.39,712.14 1455.82,710.447 1454.49,708.585C1453.81,707.645 1452.94,706.786 1452.87,705.913C1452.5,701.315 1448.47,697.883 1443.87,698.252C1439.28,698.621 1435.84,702.653 1436.21,707.251Z"/>
            </g>
            <g transform="matrix(1,0,0,1,277.951,-177.474)">
                <path d="M1466.31,688.546C1464.68,684.359 1460,682.198 1455.74,683.711C1451.39,685.254 1449.11,690.036 1450.66,694.382C1452.11,698.464 1455.4,701.864 1459.8,704.316C1463.93,706.615 1469.11,708.086 1472.48,709.309C1476.81,710.886 1481.61,708.646 1483.19,704.312C1484.76,699.977 1482.52,695.178 1478.19,693.602C1475.83,692.743 1472.38,691.809 1469.28,690.392C1468.21,689.9 1466.57,688.731 1466.31,688.546Z"/>
            </g>
            <g transform="matrix(1,0,0,1,277.951,-177.474)">
                <path d="M1462.91,685.195C1464.69,685.127 1466.78,686.067 1468.96,686.657C1471.73,687.405 1474.55,687.965 1477.19,687.965C1481.81,687.965 1485.55,684.22 1485.55,679.608C1485.55,674.996 1481.81,671.251 1477.19,671.251C1474.97,671.251 1472.58,670.299 1470.31,669.684C1467.44,668.903 1464.68,668.401 1462.27,668.493C1457.66,668.669 1454.06,672.554 1454.24,677.163C1454.42,681.772 1458.3,685.371 1462.91,685.195Z"/>
            </g>
            <g transform="matrix(1,0,0,1,277.951,-177.474)">
                <path d="M1274.11,728.48C1276.4,727.009 1277.92,724.453 1277.95,721.534C1278,716.922 1274.29,713.141 1269.68,713.094C1268.06,713.078 1264.53,713.805 1261.43,717.575C1259.87,719.472 1257.66,722.864 1255.32,726.181C1253.72,728.429 1252.17,730.747 1250.67,731.794C1246.89,734.437 1245.97,739.651 1248.61,743.431C1251.26,747.211 1256.47,748.135 1260.25,745.493C1264.78,742.328 1270.78,732.638 1274.11,728.48Z"/>
            </g>
            <g transform="matrix(1,0,0,1,277.951,-177.474)">
                <path d="M1286.6,725.233C1284.51,730.434 1283.55,735.829 1280.99,740.949C1278.93,745.074 1280.6,750.098 1284.73,752.161C1288.85,754.224 1293.88,752.549 1295.94,748.424C1298.71,742.892 1299.84,737.1 1302.1,731.48C1303.83,727.202 1301.76,722.33 1297.48,720.606C1293.2,718.882 1288.33,720.955 1286.6,725.233Z"/>
            </g>
            <g transform="matrix(1,0,0,1,277.951,-177.474)">
                <path d="M1306.11,732.067C1307.28,734.874 1309.35,737.733 1310.74,740.521C1312.8,744.647 1317.83,746.321 1321.95,744.259C1326.08,742.196 1327.75,737.172 1325.69,733.047C1324.46,730.589 1322.57,728.109 1321.54,725.634C1319.76,721.377 1314.87,719.362 1310.61,721.138C1306.35,722.913 1304.34,727.81 1306.11,732.067Z"/>
            </g>
            <g transform="matrix(1,0,0,1,277.951,-177.474)">
                <path d="M1323.99,709.292C1325.96,718.97 1333.64,724.787 1341.9,728.919C1346.03,730.981 1351.05,729.307 1353.12,725.181C1355.18,721.056 1353.51,716.032 1349.38,713.97C1345.63,712.095 1341.26,710.353 1340.37,705.963C1339.45,701.443 1335.04,698.519 1330.52,699.438C1326,700.357 1323.07,704.772 1323.99,709.292Z"/>
            </g>
            <g transform="matrix(1,0,0,1,277.951,-177.474)">
                <path d="M1405.16,806.027C1404.4,808.479 1402.66,814.106 1402.4,814.811C1401.34,817.743 1400.57,821.11 1398.3,823.379C1388.66,833.024 1374.55,828.068 1364.26,822.07C1362.55,821.072 1359.05,818.837 1356.25,816.186C1355.54,815.514 1354.63,814.356 1354.16,813.728C1354.81,809.952 1352.77,806.098 1349.08,804.592C1344.81,802.85 1339.93,804.903 1338.18,809.174C1336.45,813.426 1337.07,818.233 1340.08,822.852C1343.86,828.667 1352.34,834.462 1355.84,836.507C1372.23,846.066 1394.75,850.57 1410.12,835.197C1414.11,831.207 1416.23,825.681 1418.11,820.523C1418.64,819.069 1422.35,808.478 1422.22,804.336C1422.12,801.482 1421.07,799.449 1419.99,798.148C1418.27,796.089 1416.01,794.9 1413.05,794.9C1408.43,794.9 1404.69,798.645 1404.69,803.257C1404.69,804.228 1404.85,805.16 1405.16,806.027ZM1410.98,811.356C1411.49,811.492 1412.04,811.576 1412.61,811.603C1412.05,811.574 1411.51,811.49 1410.98,811.356ZM1410.85,811.323L1410.94,811.346L1410.75,811.291L1410.85,811.323Z"/>
            </g>
            <g transform="matrix(1,0,0,1,277.951,-177.474)">
                <path d="M1242.18,797.84C1240.62,807.285 1242.46,823.876 1227.52,823.876C1222.48,823.876 1197.02,815.181 1206.19,806.976C1210.21,803.374 1214.19,809.953 1212.23,813.484C1205.47,825.684 1173.47,816.536 1165.44,809.517C1158.31,803.273 1153.48,793.338 1155.06,783.733C1155.41,781.58 1162.67,769.037 1166.68,773.042C1166.89,773.252 1162.15,775.635 1148.08,775.366C1135.97,775.135 1124.18,771.785 1115.16,763.328C1104.83,753.643 1105.48,736.515 1110.6,724.358C1112.4,720.094 1115.04,716.675 1117.87,713.077C1119.81,710.609 1125.92,706.276 1122.98,705.175C1103.67,697.934 1071.58,714.321 1069.8,678.708C1069.35,669.74 1072.82,658.114 1079.25,651.683C1081.94,649.001 1085.13,647.151 1088.58,645.674C1090.57,644.826 1096.78,643.35 1094.62,643.35C1086.72,643.35 1079.31,645.684 1071.85,641.491C1049.36,628.854 1066.3,596.28 1078.82,583.385C1086.48,575.5 1096.69,575.558 1104.85,569.44C1106.05,568.543 1104.37,569.07 1096.02,566.186C1089.22,563.836 1082.81,559.809 1080.21,552.705C1074.01,535.706 1086.8,519.57 1098.9,509.193C1108.57,500.907 1118.54,500.308 1129.02,495.064C1131.26,493.947 1124.6,492.718 1122.52,491.345C1117.83,488.265 1114.36,484.122 1112.89,478.612C1109.45,465.717 1118.25,454.511 1126.7,445.791C1136.03,436.16 1148.12,428.439 1161.56,426.267C1166.72,425.434 1172.17,425.802 1177.37,425.802C1178.61,425.802 1181.64,426.911 1181.09,425.802C1178.98,421.588 1175.14,419.785 1174.06,414.748C1169.09,391.54 1202.81,383.05 1219.67,382.107C1226.96,381.698 1240.07,386.537 1246.63,383.966C1253.06,381.447 1257.97,355.939 1270.8,349.103C1295.1,336.152 1306.39,357.677 1317.75,356.54C1319.14,356.402 1336.67,332.949 1344.51,329.903C1354.98,325.831 1365.02,328.7 1373.07,336.087C1374.69,337.576 1384.8,351.197 1385.15,350.962C1398.14,342.303 1409.54,330.227 1427.45,334.692C1439.14,337.605 1443.23,347.654 1443.77,358.504C1443.98,362.743 1443.09,366.382 1442.33,370.486C1442.07,371.89 1440.01,374.323 1441.4,374.669C1452.28,377.389 1476.63,347.945 1493.93,370.021C1500.19,378.018 1498.93,389.939 1497.65,399.306C1497.51,400.29 1494.89,408.657 1497.95,410.062C1512.68,416.846 1536.83,394.029 1554.18,407.041C1569.14,418.265 1556.36,440.123 1546.92,449.974C1540.77,456.395 1534.82,462.05 1535.3,462.525C1536.24,463.466 1548.46,459.164 1550.64,458.806C1568.3,455.908 1580.6,467.116 1581.17,484.838C1581.65,499.793 1576.39,514.879 1566.42,526.03C1563.97,528.765 1551.77,538.517 1554.65,542.835C1557.79,547.537 1566,542.559 1571.56,541.549C1583.25,539.424 1608.34,533.803 1612.42,550.706C1620.01,582.18 1589.26,596.343 1575.28,618.713C1575.27,618.718 1579.15,617.911 1587.36,616.389C1592.84,615.373 1600.77,615.114 1601.31,622.432C1602.39,637.244 1586.01,647.594 1576.67,656.366C1574.35,658.543 1561.96,667.79 1562.73,671.706C1562.73,671.718 1590.58,670.285 1592.94,680.538C1596.09,694.227 1579.46,704.793 1571.09,712.147C1565.09,717.426 1560.73,721.444 1561.33,721.444C1566.01,721.444 1570.51,719.25 1575.28,719.585C1595.06,720.974 1573.26,744.666 1565.51,748.405C1563.64,749.31 1555.3,751.644 1553.43,753.518C1552.76,754.185 1555.28,753.183 1556.22,753.054C1559.26,752.631 1557.82,757.925 1557.15,759.097C1552.33,767.528 1539.96,771.004 1531.12,771.647C1525.49,772.057 1527.67,765.165 1528.33,765.604C1533.88,769.304 1517.8,778.217 1511.16,774.526C1504.12,770.617 1504.5,759.342 1507.41,753.518C1508.44,751.458 1503.08,750.687 1502.76,748.405C1502.04,743.175 1502.55,736.843 1503.23,731.671C1504.79,719.706 1516.63,707.258 1509.73,700.991C1499.57,691.756 1504.55,672.94 1507.11,661.7C1507.27,660.966 1511.92,645.543 1513.92,647.534C1517.58,651.202 1505.71,652.292 1501.37,647.069C1494.9,639.297 1495.14,626.697 1496.01,617.144C1496.43,612.521 1497.74,608.553 1499.51,604.303C1500.04,603.023 1502.68,600.146 1501.37,600.584C1493.31,603.271 1484.26,601.514 1478.59,594.541C1473.24,587.965 1470.31,580.045 1468.83,571.764C1468.5,569.927 1468.47,568.048 1468.36,566.186C1468.31,565.258 1468.65,562.515 1468.36,563.397C1463.18,578.953 1438.17,583.52 1430.71,567.58C1430.14,566.359 1424.12,547.834 1429.78,548.986C1435.17,550.083 1421.86,563.069 1421.26,563.53C1412.17,570.603 1400.45,574.988 1389.08,576.472C1382.02,577.393 1374.39,577.704 1369.81,571.299C1368.23,569.083 1365.2,552.034 1371.67,555.494C1380.15,560.024 1364.55,570.291 1361.45,571.764C1345.8,579.204 1327.24,584.231 1309.85,583.85C1306.44,583.775 1296.16,583.342 1295.32,578.347C1294.07,570.845 1324.37,574.993 1308.92,591.287C1299.48,601.241 1279.7,608.528 1266.15,608.487C1263.39,608.478 1249.04,606.587 1250.81,600.584C1253.08,592.919 1267.4,601.183 1267.82,607.016C1268.88,621.951 1247.83,630.418 1236.87,634.983C1233.97,636.189 1222.83,641.79 1219.67,637.772C1216.72,634.021 1233.08,634.913 1234.22,635.321C1241.57,637.946 1245.6,645.28 1244.81,652.877C1243.76,662.841 1235.56,671.419 1226.86,675.541C1223.62,677.071 1219.3,678.345 1215.95,679.143C1214.74,679.432 1211.02,679.911 1212.23,679.608C1223.72,676.735 1232.09,689.265 1225.71,699.132C1222.05,704.806 1215.99,709.462 1211.3,714.007C1209.1,716.141 1207.06,718.446 1204.79,720.514C1203.14,722.021 1196.98,724.233 1199.22,724.233C1206.22,724.233 1212.19,719.202 1220.13,720.05C1231,721.21 1231.84,734.984 1226.12,741.972C1224,744.572 1220.97,745.245 1218.74,747.475C1216.29,749.925 1225.5,745.614 1228.97,745.616C1236.33,745.62 1240.63,748.908 1242.23,756.264C1246.66,776.639 1236.54,805.018 1227.11,822.316"/>
                <path d="M1314.67,347.622C1314.15,347.347 1313.61,347.012 1313.04,346.7C1309.92,344.998 1306.59,342.769 1302.85,340.909C1293.61,336.311 1282.3,333.504 1266.87,341.728C1259.07,345.884 1253.21,355.35 1248.79,364.526C1246.68,368.9 1243.52,374.806 1242.63,376.441C1240.51,376.809 1237.68,376.087 1234.8,375.605C1229.13,374.657 1223.33,373.532 1219.2,373.763C1207.83,374.4 1189.69,378.286 1178.16,386.774C1168.64,393.782 1163.12,403.571 1165.89,416.499C1165.96,416.828 1166.04,417.148 1166.12,417.46C1164.14,417.54 1162.16,417.705 1160.23,418.017C1145.02,420.475 1131.26,429.076 1120.7,439.974C1110.31,450.695 1100.59,464.913 1104.82,480.765C1106.1,485.563 1108.44,489.638 1111.62,493.055C1105.44,495.297 1099.42,497.743 1093.46,502.849C1078.95,515.291 1064.93,535.185 1072.36,555.569C1074.64,561.804 1078.96,566.439 1084.23,569.786C1080.19,571.627 1076.32,573.968 1072.83,577.563C1064.27,586.375 1054.05,603.328 1052.66,618.53C1051.54,630.701 1055.45,641.863 1067.75,648.776C1068.48,649.182 1069.2,649.546 1069.92,649.868C1064.13,658.06 1060.98,669.744 1061.45,679.125C1062.04,690.793 1065.55,698.04 1070.22,702.738C1075.1,707.653 1081.53,710.016 1088.84,710.88C1094.46,711.544 1100.65,711.309 1106.72,711.349C1107.37,711.353 1108.01,711.36 1108.65,711.372C1106.41,714.405 1104.42,717.514 1102.9,721.115C1096.54,736.22 1096.61,757.391 1109.45,769.424C1119.69,779.026 1132.91,783.194 1146.63,783.686C1145.2,795.69 1151.05,808.021 1159.94,815.806C1166.56,821.598 1186.95,828.901 1201.38,827.66C1203.9,827.442 1206.25,826.972 1208.39,826.26C1210.21,827.224 1212.12,828.098 1214.02,828.85C1219.7,831.086 1225.25,832.233 1227.52,832.233C1233.74,832.233 1238.14,830.271 1241.39,827.434C1244.5,824.724 1246.59,821.048 1247.87,816.808C1249.58,811.14 1249.6,804.228 1250.43,799.205C1250.89,796.404 1249.9,793.695 1248.01,791.853C1251.36,778.95 1252.81,765.609 1250.39,754.489C1249.11,748.574 1246.48,744.438 1242.95,741.637C1241.24,740.278 1239.27,739.204 1237.02,738.463C1238.03,734.785 1238.25,730.866 1237.56,727.256C1236.26,720.493 1232.21,714.757 1225.07,712.561C1227.94,709.793 1230.67,706.863 1232.73,703.666C1237.56,696.188 1237.23,687.817 1233.63,681.397C1243.48,675.616 1251.9,665.3 1253.12,653.752C1253.69,648.257 1252.55,642.878 1249.98,638.338C1255.55,635.672 1261.48,632.334 1266.08,628.251C1270.07,624.721 1273.12,620.663 1274.79,616.114C1289.14,613.844 1306.08,606.433 1314.98,597.037C1316.65,595.282 1317.94,593.585 1318.94,591.953C1334.78,590.795 1351,585.982 1365.04,579.311L1365.51,579.071C1372.04,585.454 1381.28,585.917 1390.16,584.758C1401.86,583.233 1413.85,578.94 1423.64,572.144C1429.25,582.958 1440.51,587.116 1451.54,585.576C1455.43,585.034 1459.24,583.762 1462.69,581.857C1464.71,588.346 1467.74,594.452 1472.11,599.814C1476.57,605.3 1482.5,608.553 1488.84,609.688C1488.3,611.838 1487.9,614.043 1487.69,616.388C1486.64,627.934 1487.13,643.016 1494.94,652.41C1496.31,654.065 1498.08,655.427 1500.04,656.47C1499.41,658.3 1499.01,659.623 1498.96,659.848C1497.28,667.231 1494.78,677.617 1495.34,686.914C1495.8,694.486 1498.21,701.382 1503.39,706.486C1503.14,707.431 1502.56,709.526 1501.96,710.924C1499.39,716.968 1495.82,723.878 1494.94,730.585C1494.17,736.446 1493.66,743.622 1494.48,749.548C1494.77,751.657 1495.71,753.615 1497.34,755.305C1497.48,755.458 1497.67,755.625 1497.88,755.799C1496.95,759.989 1496.79,764.786 1497.84,769.097C1499.15,774.492 1502.2,779.111 1507.1,781.831C1510.48,783.707 1515.15,784.237 1519.97,783.235C1523.01,782.605 1526.06,781.383 1528.69,779.9C1529.61,780.028 1530.62,780.063 1531.72,779.982C1542.96,779.164 1558.28,773.956 1564.4,763.244C1564.98,762.237 1565.95,759.78 1566.29,757.289L1566.32,757.089C1567.62,756.584 1568.7,756.149 1569.15,755.931C1574.93,753.139 1587.04,741.443 1590.46,732.134C1592.41,726.828 1591.98,722.002 1589.69,718.334C1588.4,716.266 1586.38,714.262 1583.21,712.903C1587.6,709.243 1592.35,705.054 1595.76,700.398C1600.51,693.914 1602.91,686.605 1601.08,678.663C1599.89,673.468 1595.81,669.255 1589.61,666.772C1586.85,665.667 1583.6,664.905 1580.32,664.384L1582.39,662.457C1588.28,656.923 1596.77,650.716 1602.43,643.332C1607.29,636.991 1610.23,629.846 1609.64,621.82C1608.96,612.497 1602.31,608.623 1594.98,607.798C1599.56,603.039 1604.3,598.387 1608.38,593.447C1618.5,581.202 1625.07,567.508 1620.54,548.746C1618.04,538.394 1610.68,533.237 1601.26,531.371C1591.46,529.43 1578.99,531.696 1571.11,533.136C1571.77,532.513 1572.3,531.99 1572.64,531.602C1584.04,518.867 1590.07,501.648 1589.52,484.569C1589.15,473.084 1584.73,463.816 1577.8,457.783C1572.53,453.205 1565.73,450.374 1557.79,450.026C1562.99,443.109 1567.86,433.993 1569.08,425.326C1570.4,415.901 1567.95,406.922 1559.19,400.355C1548.25,392.146 1535.2,394.185 1522.52,398.26C1517.78,399.786 1513.12,401.522 1508.77,402.449C1507.63,402.691 1506.53,402.909 1505.48,403.004C1505.7,401.781 1505.9,400.66 1505.93,400.437C1507.49,389.02 1508.14,374.614 1500.51,364.867C1495.65,358.676 1490.3,355.53 1484.89,354.18C1477.34,352.296 1469.39,354.113 1461.87,357.447C1458.46,358.959 1455.15,360.761 1452.05,362.418C1452.16,361.015 1452.19,359.583 1452.12,358.087C1451.39,343.504 1445.18,330.498 1429.48,326.584C1418.21,323.777 1408.99,326.062 1400.55,330.515C1395.76,333.047 1391.25,336.367 1386.71,339.654C1383.55,335.659 1379.6,330.736 1378.72,329.932C1368.25,320.313 1355.11,316.812 1341.48,322.115C1338.66,323.21 1334.74,326.071 1330.72,329.982C1325.48,335.074 1318.14,343.552 1314.67,347.622ZM1434.24,368.303C1434.85,365.126 1435.59,362.25 1435.42,358.921C1435.07,351.793 1433.11,344.715 1425.43,342.801C1417.24,340.76 1410.9,343.53 1404.95,347.279C1399.8,350.521 1394.92,354.491 1389.79,357.915C1388.99,358.448 1383.46,361.494 1378.66,356.341C1376.82,354.363 1368.83,343.537 1367.42,342.242C1361.8,337.087 1354.84,334.85 1347.53,337.692C1345.74,338.391 1343.44,340.843 1340.82,343.512C1335.46,348.984 1329.78,355.91 1326.58,359.54C1324.29,362.132 1322.39,363.561 1321.72,363.915C1320.5,364.55 1319.42,364.772 1318.58,364.855C1313.6,365.354 1308.45,363.409 1302.97,360.198C1296.16,356.212 1287.97,349.423 1274.73,356.478C1271.51,358.197 1269.22,361.773 1267.1,365.497C1264.21,370.553 1261.89,376.104 1259.71,380.395C1256.59,386.563 1252.84,390.51 1249.68,391.747C1245.98,393.197 1240.82,393.337 1235.28,392.586C1229.94,391.862 1224.1,390.228 1220.14,390.45C1212.63,390.871 1201.36,392.919 1192.53,397.497C1186.09,400.833 1180.62,405.468 1182.23,412.997C1182.54,414.421 1183.54,415.155 1184.32,416.057C1185.87,417.842 1187.38,419.705 1188.56,422.065C1190.03,425.008 1189.59,427.334 1188.99,428.991C1188.28,430.908 1187.01,432.513 1184.96,433.602C1183.97,434.13 1182.56,434.633 1180.75,434.651C1179.93,434.659 1177.6,434.27 1176.93,434.155C1172.31,434.135 1167.47,433.777 1162.9,434.517C1151.22,436.403 1140.81,443.245 1132.7,451.607C1129.03,455.394 1125.22,459.673 1122.77,464.453C1120.88,468.136 1119.82,472.144 1120.96,476.458C1121.86,479.826 1124.05,482.303 1126.88,484.212C1127.45,484.414 1131.07,485.705 1132.32,486.327C1134.4,487.36 1135.67,488.715 1136.34,489.715C1137.91,492.054 1138.15,494.441 1137.56,496.743C1137.12,498.459 1136.11,500.863 1132.76,502.539C1128.22,504.808 1123.79,506.297 1119.41,507.813C1114.29,509.587 1109.24,511.338 1104.34,515.538C1099.04,520.082 1093.53,525.836 1090.09,532.366C1087.25,537.749 1085.83,543.705 1088.07,549.841C1089.76,554.498 1094.29,556.746 1098.75,558.287C1105.46,560.607 1108.37,561.177 1109.07,561.561C1113.24,563.85 1113.71,567.063 1113.53,569.655C1113.43,571.079 1113.01,573.764 1109.87,576.125C1105.95,579.061 1101.68,580.886 1097.33,582.535C1093,584.178 1088.48,585.437 1084.82,589.207C1079.35,594.84 1072.9,604.763 1070.29,614.665C1068.29,622.221 1068.45,629.994 1075.94,634.205C1078.88,635.859 1081.85,635.738 1084.85,635.561C1088.05,635.372 1091.3,634.993 1094.62,634.993C1102.07,634.993 1103.12,640.811 1103.32,642.094C1103.65,644.098 1103.67,647.512 1099.97,650.239C1099.52,650.571 1098.54,651.188 1097.07,651.706C1095.77,652.166 1093.02,652.864 1091.87,653.359C1089.4,654.414 1087.08,655.676 1085.16,657.592C1080.25,662.501 1077.8,671.445 1078.15,678.291C1078.44,684.241 1079.55,688.234 1081.87,690.742C1085.36,694.531 1090.88,694.521 1096.6,694.632C1106.61,694.826 1117.38,694.148 1125.91,697.35C1128.05,698.152 1129.4,699.38 1130.31,700.616C1131.64,702.407 1132.26,704.455 1132.1,706.767C1131.99,708.277 1131.47,710.144 1130.18,712.052C1128.9,713.96 1125.78,716.537 1124.44,718.238C1122.08,721.24 1119.8,724.044 1118.3,727.601C1114.42,736.816 1113.05,749.89 1120.88,757.231C1128.36,764.243 1138.2,766.819 1148.24,767.011C1151.73,767.078 1154.86,766.866 1157.31,766.599L1157.7,766.312C1163.06,762.597 1168.33,762.882 1172.59,767.133C1174.68,769.231 1175.66,771.895 1174.75,775.255C1174.48,776.232 1173.88,778.2 1171.49,779.935C1171.03,780.267 1169.29,781.236 1165.79,782.112L1163.2,785.827C1162.46,792.388 1166.08,798.966 1170.95,803.228C1174.93,806.713 1186.17,810.48 1195.64,811.037L1195.87,811.048L1195.86,810.653C1195.87,807.448 1197.01,803.978 1200.61,800.75C1203.24,798.399 1205.96,797.613 1208.42,797.575C1212.1,797.518 1215.64,799.277 1218.09,802.475C1220.4,805.498 1221.43,809.755 1220.85,813.571L1221.32,813.75L1222.02,814.008C1229.97,798.095 1237.76,775.058 1234.06,758.039C1233.75,756.592 1233.43,755.414 1232.56,754.729C1231.73,754.067 1230.58,753.982 1229.2,753.975C1228.67,754.134 1223.71,755.62 1221.97,756.085C1219.93,756.626 1218.34,756.62 1217.5,756.516C1215.22,756.233 1213.69,755.233 1212.65,754.256C1211.14,752.835 1210.23,751.069 1210.02,748.912C1209.89,747.642 1209.68,744.721 1212.83,741.566C1214.23,740.166 1215.79,739.107 1217.42,738.139C1218.17,737.695 1219.04,737.429 1219.65,736.68C1221.02,735.013 1221.55,732.524 1221.14,730.394C1220.95,729.42 1220.43,728.486 1219.25,728.359C1215.8,727.991 1212.91,729.432 1210.02,730.423C1206.48,731.636 1202.94,732.59 1199.22,732.59C1194.92,732.59 1193.1,730.415 1192.32,729.476C1190.92,727.794 1190.31,725.898 1190.38,723.817C1190.43,722.396 1190.8,720.609 1192.23,718.805C1192.69,718.214 1193.69,717.178 1195.34,716.243C1196.26,715.718 1198.9,714.367 1199.41,714.103C1201.52,712.154 1203.43,710 1205.49,708.004C1209.75,703.875 1215.36,699.753 1218.69,694.597C1220.57,691.691 1218.9,688.008 1215.9,687.613C1214.09,687.868 1211.93,688.07 1211.51,688.044C1205.39,687.657 1204.11,682.812 1203.82,681.446C1203.68,680.773 1202.31,673.475 1210.2,671.501C1211.76,671.112 1213.28,670.892 1214.76,670.829C1217.48,670.154 1220.77,669.176 1223.28,667.989C1229.52,665.031 1235.74,659.151 1236.49,652.002C1236.77,649.417 1235.99,646.846 1234.3,645.066C1231.32,646.185 1227.81,647.278 1224.86,647.502C1219.72,647.892 1215.61,646.127 1213.1,642.941C1210.84,640.071 1210.7,637.367 1211.13,635.168C1211.58,632.886 1212.85,630.598 1215.54,628.931C1217.39,627.788 1221.3,626.784 1225.55,626.616C1228.71,626.491 1232.03,626.732 1234.3,627.001C1239.31,624.922 1246.33,622.056 1252.06,618.044C1253.39,617.112 1254.7,616.144 1255.84,615.095C1252.97,614.306 1250.12,613.223 1248.07,611.811C1243.14,608.402 1241.18,603.695 1242.8,598.218C1245.44,589.259 1254.4,586.879 1263.56,591.173C1267.61,593.076 1271.43,596.266 1273.59,599.455C1281.55,598.098 1290.44,594.77 1297.11,590.286C1296.11,589.958 1295.16,589.574 1294.31,589.128C1290.26,587.009 1287.75,583.738 1287.08,579.721C1285.98,573.139 1290.86,566.816 1300.26,566.406C1304.37,566.226 1309.27,567.223 1313.11,569.334C1315.79,570.804 1317.97,572.793 1319.45,575.151C1332.69,573.942 1346.15,569.785 1357.86,564.217C1358.22,564.043 1358.81,563.703 1359.52,563.242C1359.29,559.956 1359.45,556.693 1360.14,554.488C1361.21,551.036 1363.33,548.856 1365.68,547.7C1368.16,546.484 1371.47,545.908 1375.61,548.124C1379.51,550.206 1381.3,553.007 1382.08,555.761C1383.1,559.335 1382.33,563.613 1379.39,567.664C1379.27,567.832 1379.14,568 1379.01,568.168C1379.71,568.399 1380.46,568.503 1381.22,568.562C1383.43,568.736 1385.75,568.479 1388,568.185C1397.82,566.904 1407.96,563.196 1415.86,557.139L1419.06,553.379C1419.01,551.166 1419.23,549.228 1419.69,547.815C1420.5,545.267 1421.97,543.488 1423.67,542.315C1425.67,540.931 1428.2,540.136 1431.45,540.797C1434.82,541.484 1436.78,543.286 1438.01,545.307C1439.13,547.157 1439.74,549.492 1439.26,552.285C1439,553.814 1438.2,555.814 1436.95,557.922L1438.37,564.223C1440.46,568.442 1445,569.614 1449.23,569.023C1454.03,568.353 1458.85,565.52 1460.43,560.754C1462.81,553.612 1468.97,554.81 1470.06,555.024C1471.93,555.392 1475.52,556.536 1476.62,561.426C1476.71,561.816 1476.71,565.271 1476.71,565.866C1476.79,567.345 1476.79,568.837 1477.05,570.295C1478.28,577.178 1480.62,583.802 1485.07,589.268C1488.46,593.43 1493.91,594.26 1498.72,592.656C1502.48,591.403 1504.86,592.683 1506.15,593.503C1508.53,595.01 1510.21,597.353 1510.08,600.989C1510.05,601.904 1509.84,603.308 1509.01,604.907C1508.67,605.553 1507.43,607.371 1507.06,607.9C1505.71,611.197 1504.66,614.296 1504.33,617.901C1503.94,622.141 1503.67,627.056 1504.24,631.775C1504.66,635.27 1505.47,638.691 1507.48,641.326C1509.63,639.464 1511.94,638.988 1513.59,639C1515.78,639.016 1517.92,639.721 1519.83,641.625C1522.99,644.785 1523.25,647.972 1522.84,650.394C1522.39,653.035 1520.84,655.726 1517.53,657.432C1516.49,660.185 1515.31,663.306 1515.26,663.552C1514.07,668.757 1512.27,675.708 1512,682.435C1511.81,687.126 1512.07,691.825 1515.35,694.807C1519.7,698.755 1520.97,703.734 1519.88,709.64C1519.29,712.838 1517.83,716.466 1516.1,720.285C1514.3,724.253 1512.07,728.515 1511.51,732.756C1511.03,736.404 1510.61,740.716 1510.8,744.638C1512.08,745.579 1513.62,746.802 1514.16,747.57C1516.19,750.465 1516.7,753.624 1514.88,757.256C1514.03,758.969 1513.62,761.496 1513.87,763.871C1513.99,765.038 1514.07,766.319 1514.92,767.015C1515.4,766.973 1516.91,766.827 1517.78,766.557C1518.23,766.415 1518.74,766.193 1519.25,765.941C1519.64,763.84 1520.44,762.04 1521.07,761.114C1522.53,758.97 1524.35,758.062 1525.63,757.647C1528.28,756.781 1530.74,757.17 1532.96,758.651C1534.64,759.768 1535.78,761.057 1536.54,762.421C1538.51,761.98 1540.52,761.376 1542.42,760.58C1543.8,760.007 1545.14,759.351 1546.34,758.557C1545.54,757.354 1545.14,755.956 1545,754.514C1544.87,753.21 1544.65,750.482 1547.52,747.609C1548.58,746.55 1550.61,745.204 1553.2,744.086C1556.29,742.751 1560.62,741.49 1561.88,740.88C1564.28,739.72 1568.28,735.92 1571.4,731.907C1572.28,730.781 1573.18,729.202 1573.86,727.904C1572.1,727.948 1570.38,728.486 1568.66,728.86C1566.23,729.387 1563.8,729.801 1561.33,729.801C1557.69,729.801 1555.63,727.999 1554.35,726.096C1553.29,724.516 1551.93,721.723 1553.69,717.855C1553.93,717.331 1554.54,716.204 1555.83,714.831C1557.3,713.273 1560.98,709.911 1565.58,705.87C1569.57,702.359 1575.57,698.119 1580.16,693.086C1582.89,690.099 1585.43,686.924 1584.92,683.127C1584.22,682.775 1582.28,681.846 1580.89,681.49C1574.33,679.806 1566.14,679.963 1563.75,680.032C1556.41,680.244 1554.53,673.333 1554.53,673.315C1554.06,670.927 1554.45,667.684 1556.63,664.298C1559.8,659.354 1568.88,652.213 1570.95,650.275C1575.49,646.005 1581.78,641.374 1586.77,635.985C1589.96,632.537 1592.79,628.835 1592.99,624.375C1591.8,624.372 1589.95,624.409 1588.88,624.606C1581.57,625.961 1577.73,626.743 1577.04,626.883C1566.91,628.923 1568.15,614.35 1568.19,614.284C1575.37,602.796 1586.78,593.349 1595.5,582.8C1602.35,574.503 1607.36,565.38 1604.3,552.667C1603.21,548.168 1598.78,547.572 1594.39,547.337C1586.83,546.931 1578.41,548.797 1573.05,549.771C1570.99,550.146 1568.52,551.192 1566.13,551.912C1563.42,552.729 1560.76,553.228 1558.45,553.177C1553.95,553.076 1550.27,551.328 1547.7,547.47C1545.32,543.899 1545.07,538.814 1548.32,533.472C1551.34,528.525 1558.31,522.553 1560.19,520.458C1568.75,510.891 1573.23,497.938 1572.82,485.108C1572.62,478.869 1570.6,473.673 1566.83,470.395C1563.18,467.222 1558.01,466.065 1551.99,467.053C1549.86,467.402 1538.86,471 1535.94,471.016C1532.52,471.034 1530.47,469.513 1529.39,468.434C1527.77,466.817 1525.35,463.434 1527.9,458.438C1528.67,456.929 1534.56,450.8 1540.88,444.194C1544.86,440.039 1549.6,433.384 1551.72,426.553C1553.16,421.879 1553.48,416.964 1549.16,413.726C1545.84,411.231 1542.07,411.026 1538.24,411.524C1532.75,412.239 1527.12,414.357 1521.7,416.125C1511.6,419.429 1502.02,421.139 1494.45,417.653C1491.08,416.098 1488.61,412.798 1488.19,408.05C1487.89,404.774 1489.16,398.965 1489.4,397.928C1489.96,393.807 1490.54,389.154 1490.28,384.646C1490.07,381.216 1489.44,377.837 1487.35,375.175C1480.15,365.983 1471.14,371.247 1463.49,375.253C1458.73,377.746 1454.27,380.278 1450.48,381.684C1446.27,383.24 1442.49,383.556 1439.37,382.776C1435.2,381.733 1433.41,379.111 1432.76,375.929C1432.52,374.785 1432.47,373.435 1432.81,371.941C1433,371.08 1433.88,369.095 1434.24,368.303ZM1476.14,566.457C1476.19,566.322 1476.24,566.183 1476.29,566.039L1476.14,566.457Z"/>
            </g>
        </g>
        <g transform="matrix(1,0,0,1,-662.745,-229.115)">
            <rect x="679.044" y="264.494" width="854.725" height="788.384" style="fill:none;stroke:black;stroke-width:15.77px;"/>
        </g>
        <g transform="matrix(0.897498,0,0,0.893732,-548.795,-164.524)">
            <rect x="679.044" y="264.494" width="854.725" height="788.384" style="fill:none;stroke:black;stroke-width:17.61px;"/>
        </g>
        <g transform="matrix(1,0,0,1,-658.35,-203.556)">
            <path d="M816.309,787.403C818.013,786.678 819.604,785.612 820.982,784.209C826.635,778.451 826.551,769.186 820.793,763.533C818.142,760.931 816.255,760.258 815.289,759.891C812.619,758.879 810.129,758.727 807.692,759.125C805.712,759.448 798.333,764.721 798.333,764.721C798.333,764.721 798.754,764.181 799.27,763.745C793.106,768.953 792.329,778.185 797.537,784.349C802.25,789.929 810.261,791.094 816.309,787.403Z"/>
        </g>
        <g transform="matrix(1,0,0,1,-658.35,-203.556)">
            <path d="M846.565,896.057L846.588,896.025C851.081,889.323 849.287,880.233 842.584,875.74C835.881,871.246 826.791,873.04 822.298,879.743C818.359,885.619 818.504,884.261 817.96,890.731C817.284,898.772 823.263,905.85 831.304,906.526C838.352,907.119 844.66,902.599 846.565,896.057ZM845.968,896.909C845.379,897.722 844.839,898.4 844.839,898.4C844.839,898.4 845.402,897.905 845.968,896.909Z"/>
        </g>
        <g transform="matrix(1,0,0,1,-658.35,-203.556)">
            <path d="M827.384,346.421C828.099,346.545 828.833,346.616 829.581,346.631C873.259,347.518 847.621,318.792 830.361,317.34C822.32,316.664 815.243,322.643 814.566,330.684C813.905,338.548 819.609,345.491 827.384,346.421ZM817.28,339.43C817.844,340.449 818.587,341.445 819.562,342.365C818.682,341.49 817.914,340.503 817.28,339.43ZM829.372,317.402C822.118,317.519 818.764,321.357 817.212,324.711C819.666,320.465 824.19,317.576 829.372,317.402Z"/>
        </g>
        <g transform="matrix(1,0,0,1,-658.35,-203.556)">
            <path d="M1412.63,374.581C1417.33,369.967 1418.46,362.566 1414.94,356.658C1410.8,349.728 1401.82,347.46 1394.89,351.596C1390.2,354.395 1392.41,351.587 1387.47,359.688C1383.27,366.578 1385.45,375.582 1392.34,379.783C1399.23,383.984 1408.23,381.801 1412.43,374.912L1412.63,374.581Z"/>
        </g>
        <g transform="matrix(1,0,0,1,-658.35,-203.556)">
            <path d="M953.856,857.997C955.536,853.534 955.002,848.337 951.978,844.206C947.212,837.694 938.056,836.276 931.544,841.042C929.591,842.471 928.778,843.381 928.263,843.995C927.213,845.246 925.557,845.776 924.796,854.825C924.12,862.866 930.099,869.944 938.14,870.62C945.939,871.276 952.832,865.671 953.856,857.997Z"/>
        </g>
        <g transform="matrix(1,0,0,1,-658.35,-203.556)">
            <path d="M734.193,649.513C734.224,649.601 734.255,649.689 734.286,649.777C736.946,657.395 745.292,661.42 752.91,658.759C760.528,656.098 764.553,647.753 761.892,640.135C761.861,640.047 761.831,639.959 761.8,639.871C759.139,632.253 750.794,628.228 743.176,630.889C735.558,633.549 731.533,641.895 734.193,649.513Z"/>
        </g>
        <g transform="matrix(1,0,0,1,-658.35,-203.556)">
            <path d="M774.414,945.685C779.896,942.826 783.162,936.658 782.057,930.241C780.686,922.288 773.118,916.945 765.165,918.315C760.507,919.117 753.088,925.713 753.088,925.713C753.088,925.713 753.296,925.52 753.402,925.43C747.238,930.638 746.461,939.87 751.669,946.035C756.876,952.199 766.109,952.975 772.273,947.768C772.863,947.269 773.734,946.393 774.414,945.685Z"/>
        </g>
        <g transform="matrix(1,0,0,1,-658.35,-203.556)">
            <path d="M1130.46,929.932C1130.39,930.401 1130.32,930.869 1130.24,931.338C1128.97,939.306 1134.4,946.81 1142.37,948.084C1150.34,949.358 1157.84,943.923 1159.12,935.955C1159.19,935.487 1159.27,935.018 1159.34,934.55C1160.61,926.581 1155.18,919.078 1147.21,917.804C1139.24,916.529 1131.74,921.964 1130.46,929.932Z"/>
        </g>
        <g transform="matrix(1,0,0,1,-658.35,-203.556)">
            <path d="M1420.99,681.158C1421.05,681.163 1421.1,681.169 1421.16,681.174C1429.2,681.897 1436.31,675.959 1437.03,667.921C1437.76,659.884 1431.82,652.772 1423.78,652.05C1423.72,652.044 1423.67,652.039 1423.61,652.034C1415.57,651.311 1408.46,657.249 1407.74,665.286C1407.02,673.323 1412.95,680.435 1420.99,681.158Z"/>
        </g>
        <g transform="matrix(1,0,0,1,-658.35,-203.556)">
            <path d="M1080.29,855.959C1080.62,855.255 1081.05,854.314 1081.46,853.327C1084.54,845.87 1080.99,837.312 1073.54,834.229C1066.08,831.145 1057.52,834.696 1054.44,842.154C1051.68,848.813 1051.67,847.549 1051.23,852.834C1050.55,860.875 1056.53,867.953 1064.57,868.629C1072.38,869.286 1079.29,863.658 1080.29,855.959Z"/>
        </g>
        <g transform="matrix(1,0,0,1,-658.35,-203.556)">
            <path d="M942.746,933.702C942.531,933.882 942.315,934.063 942.1,934.243C935.913,939.423 935.095,948.652 940.275,954.839C945.455,961.027 954.684,961.844 960.871,956.664C961.087,956.484 961.302,956.304 961.517,956.123C967.705,950.943 968.522,941.714 963.342,935.527C958.162,929.34 948.933,928.522 942.746,933.702Z"/>
        </g>
        <g transform="matrix(1,0,0,1,-658.35,-203.556)">
            <path d="M956.965,335.154C956.861,335.198 956.757,335.243 956.652,335.288C949.233,338.46 945.784,347.059 948.956,354.479C952.129,361.899 960.728,365.347 968.148,362.175C968.252,362.13 968.357,362.086 968.461,362.041C975.881,358.869 979.329,350.269 976.157,342.85C972.985,335.43 964.385,331.981 956.965,335.154Z"/>
        </g>
        <g transform="matrix(1,0,0,1,-658.35,-203.556)">
            <path d="M1431.96,507.548C1431.86,507.349 1431.76,507.15 1431.67,506.952C1428.13,499.699 1419.37,496.684 1412.12,500.222C1404.86,503.76 1401.85,512.521 1405.39,519.773C1405.48,519.972 1405.58,520.171 1405.68,520.37C1409.22,527.622 1417.98,530.638 1425.23,527.099C1432.48,523.561 1435.5,514.8 1431.96,507.548Z"/>
        </g>
        <g transform="matrix(1,0,0,1,-658.35,-203.556)">
            <path d="M1458.75,930.198C1458.09,928.433 1457.07,926.768 1455.7,925.311C1446.64,915.675 1437.66,922.236 1436.17,923.331C1433.5,925.286 1428.44,929.897 1430.6,938.681C1430.8,939.503 1433.35,944.583 1434.42,946.517C1438.31,953.583 1447.21,956.155 1454.28,952.258C1461.35,948.36 1463.92,939.459 1460.02,932.393C1459.78,931.962 1459.23,931.009 1458.75,930.198ZM1435.68,946.555L1435.84,946.676L1435.58,946.462L1435.68,946.555ZM1435.06,946.004L1435.28,946.196L1434.99,945.936L1435.06,946.004Z"/>
        </g>
        <g transform="matrix(1,0,0,1,-658.35,-203.556)">
            <path d="M1288.95,936.11C1289.54,934.998 1289.99,933.79 1290.27,932.506C1292.03,924.629 1287.06,916.81 1279.18,915.057C1269.5,912.901 1266.07,917.824 1264.69,919.312C1263.4,920.712 1260.83,930.593 1260.83,930.593C1260.83,930.593 1260.79,929.949 1260.83,929.388C1260.16,937.43 1266.14,944.507 1274.18,945.183C1280.71,945.733 1286.61,941.887 1288.95,936.11Z"/>
        </g>
        <g transform="matrix(1,0,0,1,-658.35,-203.556)">
            <path d="M1274.24,344.757C1274.46,344.765 1274.68,344.772 1274.89,344.78C1282.96,345.063 1289.74,338.746 1290.02,330.682C1290.3,322.617 1283.99,315.84 1275.92,315.556C1275.7,315.549 1275.49,315.541 1275.27,315.533C1267.21,315.25 1260.43,321.567 1260.14,329.632C1259.86,337.696 1266.18,344.474 1274.24,344.757Z"/>
        </g>
        <g transform="matrix(1,0,0,1,-658.35,-203.556)">
            <path d="M876.427,707.536L876.716,707.154C881.419,700.597 879.915,691.455 873.358,686.752C866.422,681.776 861.367,683.839 858.906,684.81C855.042,686.336 849.533,699.709 849.533,699.709C849.533,699.709 849.537,698.809 849.572,698.386C848.896,706.427 854.875,713.504 862.916,714.181C868.484,714.649 873.589,711.927 876.427,707.536ZM865.454,713.233C862.298,713.374 859.076,712.494 856.313,710.512C859.959,713.127 863.051,713.534 865.454,713.233Z"/>
        </g>
    </g>
</svg>
