<?xml version="1.0" encoding="UTF-8" standalone="no"?>
<!DOCTYPE svg PUBLIC "-//W3C//DTD SVG 1.1//EN" "http://www.w3.org/Graphics/SVG/1.1/DTD/svg11.dtd">
<svg width="100%" height="100%" viewBox="0 0 1247 1172" version="1.1" xmlns="http://www.w3.org/2000/svg" xmlns:xlink="http://www.w3.org/1999/xlink" xml:space="preserve" xmlns:serif="http://www.serif.com/" style="fill-rule:evenodd;clip-rule:evenodd;stroke-linecap:round;stroke-linejoin:round;stroke-miterlimit:1.5;">
    <g transform="matrix(1,1.11022e-16,-1.11022e-16,1,-354.683,-237.438)">
        <path d="M963.314,254.953C1277.65,254.953 1532.85,505.927 1532.85,815.056C1532.85,1124.19 1277.65,1375.16 963.314,1375.16C648.979,1375.16 393.779,1124.19 393.779,815.056C393.779,505.927 648.979,254.953 963.314,254.953ZM963.314,535.005C1120.48,535.005 1248.08,660.492 1248.08,815.056C1248.08,969.621 1120.48,1095.11 963.314,1095.11C806.146,1095.11 678.546,969.621 678.546,815.056C678.546,660.492 806.146,535.005 963.314,535.005Z" style="fill:rgb(220,156,0);fill-opacity:0.21;"/>
    </g>
    <g id="Layer3" transform="matrix(0.908571,-0.417732,0.417732,0.908571,-356.086,462.4)">
        <g transform="matrix(0.762425,-0.16661,0.20056,0.917784,-67.3058,-264.603)">
            <rect x="453.289" y="451.906" width="557.609" height="772.086" style="fill:white;stroke:black;stroke-width:16.85px;"/>
        </g>
        <g transform="matrix(0.997178,0.0750751,-0.102672,0.979989,-176.317,-278.052)">
            <path d="M622.683,357.635C616.799,355.373 643.65,419.268 652.929,439.34C680.064,498.037 700.9,580.424 704.648,581.666C716.68,585.653 771.83,554.332 782.275,548.233C822.764,524.593 854.3,513.962 896.733,493.771C911.457,486.764 940.366,476.201 944.964,457.962C948.788,442.793 929.97,424.312 920.055,415.207C902.92,399.472 882.176,364.735 870.567,343.795C863.348,330.772 851.839,319.269 845.921,305.62C841.335,295.043 840.684,268.066 823.417,270.19C812.646,271.514 800.913,279.903 790.719,283.936C769.653,292.271 749.983,303.802 730.266,314.932C717.573,322.097 703.177,326.307 690.044,332.712C675.487,339.812 659.513,344.573 644.784,351.112C641.107,352.744 621.92,357.272 622.683,357.635Z" style="fill:rgb(228,36,68);"/>
            <path d="M622.116,355.401C621.853,355.424 621.612,355.488 621.392,355.577C620.807,355.814 620.288,356.261 619.973,357.04C619.802,357.463 619.679,358.078 619.7,358.887C619.73,359.988 620.033,361.68 620.6,363.841C624.779,379.759 643.527,424.084 650.986,440.219C672.659,487.1 690.298,549.121 698.407,572.687C700.128,577.692 701.488,581.047 702.353,582.33C702.949,583.215 703.597,583.594 704.035,583.739C705.725,584.299 708.143,584.341 711.108,583.833C715.018,583.164 720.018,581.571 725.572,579.395C746.676,571.129 776.04,554.424 783.388,550.134C823.822,526.526 855.318,515.915 897.693,495.752C906.611,491.508 920.677,485.954 931.512,478.226C939.104,472.811 945.098,466.302 947.049,458.56C948.712,451.966 946.563,444.771 942.545,437.907C936.88,428.232 927.549,419.188 921.473,413.608C904.481,398.004 883.947,363.532 872.435,342.767C865.25,329.807 853.775,318.374 847.886,304.79C845.118,298.407 843.753,286.093 839.37,277.718C836.021,271.319 831.059,267.043 823.097,268.022C812.167,269.367 800.231,277.807 789.887,281.899C768.734,290.268 748.978,301.84 729.179,313.017C716.521,320.162 702.163,324.352 689.066,330.739C674.531,337.828 658.58,342.579 643.874,349.108C640.578,350.571 624.766,354.36 622.191,355.369L622.116,355.401ZM705.759,579.723C705.608,579.447 705.356,578.971 705.144,578.495C704.429,576.886 703.532,574.463 702.464,571.357C694.329,547.713 676.615,485.495 654.871,438.46C647.485,422.481 628.894,378.597 624.756,362.833C624.418,361.546 624.203,360.165 624.094,359.356C627.33,358.216 642.465,354.55 645.694,353.116C660.445,346.567 676.442,341.796 691.021,334.685C704.192,328.261 718.624,324.033 731.353,316.847C750.988,305.763 770.573,294.273 791.551,285.973C801.595,282 813.124,273.662 823.737,272.357C831.227,271.436 834.903,277.091 837.414,283.859C840.323,291.7 841.651,301.134 843.956,306.45C849.903,320.165 861.446,331.737 868.7,344.822C880.406,365.938 901.36,400.939 918.638,416.807C924.459,422.153 933.436,430.785 938.863,440.055C942.239,445.823 944.276,451.822 942.879,457.363C941.153,464.213 935.688,469.839 928.97,474.63C918.34,482.211 904.524,487.626 895.774,491.789C853.283,512.008 821.706,522.661 781.162,546.333C773.886,550.581 744.817,567.132 723.922,575.316C718.678,577.37 713.964,578.896 710.273,579.528C708.446,579.84 706.915,579.958 705.759,579.723ZM624.779,357.212C624.633,356.557 624.195,355.971 623.549,355.664C624.365,356.052 624.686,356.631 624.779,357.212Z" style="fill:rgb(228,36,68);"/>
        </g>
        <g transform="matrix(0.739796,-0.162459,0.172452,0.785301,-577.353,165.458)">
            <rect x="1301.68" y="200.384" width="450.375" height="284.733" style="fill:none;stroke:black;stroke-width:18.63px;"/>
        </g>
        <g transform="matrix(0.99875,-0.0499927,0.0499927,0.99875,-385.011,-179.672)">
            <path d="M955.777,449.674C957.189,451.224 960.134,459.88 960.72,461.93C964.936,476.687 957.397,488.853 943.68,495.711C937.564,498.769 929.991,498.721 923.651,501.391C918.588,503.523 913.434,505.17 908.405,507.37C901.96,510.19 895.662,513.455 889.572,516.936C882.042,521.239 877.845,531.245 874.624,538.759C874.042,540.119 871.358,543.734 872.152,544.528C874.954,547.33 1133.21,498.999 1133.21,498.999C1134.88,497.329 1129.68,494.574 1129.03,493.917C1124.35,489.243 1120.72,485.966 1114.08,483.753C1104.55,480.577 1095.76,478.316 1085.68,477.476C1082.06,477.174 1078.76,478.349 1075.21,478.671C1063.01,479.781 1048.49,479.662 1036.65,476.28C1024.72,472.87 1019.31,457.359 1019.31,446.086C1019.31,443.198 1017.91,425.446 1017.91,425.446C1017.91,425.446 1011.69,442.444 1004.07,449.674C997.929,455.494 986.528,457.23 978.696,458.209C977.161,458.401 955.777,450.392 955.777,449.674Z" style="fill:white;"/>
            <path d="M978.753,453.782C985.767,452.904 995.689,451.574 1001.05,446.491C1008.13,439.78 1013.79,423.939 1013.79,423.939C1014.5,422.003 1016.46,420.822 1018.51,421.101C1020.55,421.381 1022.12,423.046 1022.28,425.101C1022.28,425.101 1023.7,443.149 1023.7,446.086C1023.7,452.083 1025.39,459.442 1029.06,465.015C1031.23,468.313 1034.1,470.989 1037.86,472.063C1049.2,475.305 1063.12,475.367 1074.82,474.304C1078.62,473.958 1082.16,472.781 1086.04,473.105C1096.49,473.975 1105.6,476.303 1115.46,479.593C1122.76,482.025 1126.84,485.543 1131.95,490.645C1132.52,491.034 1135.72,493.294 1136.76,494.774C1137.71,496.127 1138.02,497.534 1137.9,498.787C1137.79,499.942 1137.33,501.078 1136.31,502.101C1135.69,502.726 1134.89,503.148 1134.02,503.31C1134.02,503.31 924.637,542.49 880.716,548.282C876.379,548.854 873.49,549.084 872.35,549.013C870.451,548.895 869.466,548.045 869.051,547.629C868.039,546.617 867.286,545.012 867.763,542.822C868.106,541.244 870.059,538.279 870.593,537.031C874.151,528.731 879.078,517.881 887.396,513.128C893.621,509.571 900.059,506.234 906.647,503.352C911.695,501.143 916.867,499.489 921.949,497.349C925.381,495.904 929.138,495.162 932.873,494.399C935.942,493.773 938.999,493.148 941.719,491.788C953.408,485.944 960.096,475.711 956.503,463.135C956.117,461.782 954.639,457.38 953.332,454.359C952.987,453.564 952.407,452.473 952.407,452.473C952.407,452.473 952.496,452.585 952.535,452.627L952.576,452.611C951.493,451.362 951.391,450.043 951.391,449.674C951.391,447.863 952.505,446.238 954.194,445.584C955.665,445.014 957.309,445.283 958.514,446.248C959.911,446.806 975.034,452.833 978.753,453.782ZM1124.97,496.075C1087.39,503.082 918.468,534.456 879.569,539.586L879.008,539.656C881.826,533.024 885.277,524.441 891.748,520.744C897.703,517.34 903.86,514.145 910.163,511.388C915.173,509.196 920.308,507.557 925.353,505.433C928.261,504.208 931.461,503.64 934.627,502.994C938.458,502.212 942.246,501.332 945.642,499.634C961.387,491.761 969.777,477.665 964.937,460.726C964.78,460.178 964.465,459.184 964.056,457.978C968.025,459.482 972.237,460.983 974.889,461.798C977.145,462.492 978.768,462.62 979.24,462.561C987.867,461.483 1000.32,459.268 1007.09,452.856C1009.88,450.21 1012.5,446.349 1014.75,442.413C1014.86,444.119 1014.93,445.459 1014.93,446.086C1014.93,453.617 1017.12,462.836 1021.73,469.835C1025.07,474.918 1029.66,478.842 1035.45,480.497C1047.78,484.02 1062.9,484.194 1075.61,483.039C1078.91,482.74 1081.95,481.566 1085.31,481.846C1095.04,482.656 1103.51,484.852 1112.69,487.914C1118.13,489.728 1121.26,492.409 1124.97,496.075Z"/>
        </g>
        <g transform="matrix(1,1.66533e-16,-1.66533e-16,1,-361.932,-228.307)">
            <path d="M910.155,358.808C908.37,364.783 923.959,427.007 956.482,450.901C967.066,458.676 983.095,462.926 997.926,456.086C1012.83,449.211 1024.64,405.719 1023.93,387.414C1023.52,376.757 1013.7,330.005 992.687,320.791C970.883,311.231 937.847,307.676 920.268,330.005C913.819,338.197 912.18,345.303 910.892,355.428C910.539,358.201 908.753,369.435 910.058,368.425" style="fill:white;"/>
            <path d="M906.784,356.907C906.644,357.153 906.531,357.418 906.447,357.7C906.233,358.418 906.092,359.673 906.192,361.4C905.946,363.41 905.743,365.42 905.72,366.782C905.689,368.579 906.115,369.833 906.426,370.357C906.862,371.091 907.4,371.573 907.977,371.881C908.406,373.729 908.913,375.727 909.497,377.847C915.694,400.341 930.753,436.801 954.191,454.02C965.771,462.527 983.32,467.084 999.547,459.6C1004.61,457.268 1009.54,451.376 1013.68,443.477C1022.52,426.598 1028.31,400.534 1027.8,387.265C1027.54,380.655 1023.83,360.601 1016.18,343.567C1010.8,331.616 1003.39,321.256 994.241,317.247C971.032,307.071 935.94,303.843 917.227,327.611C910.287,336.426 908.439,344.043 907.053,354.94C906.994,355.4 906.898,356.085 906.784,356.907ZM914.034,362.133C914.053,362.332 914.075,362.53 914.1,362.722C914.511,365.857 915.471,370.389 916.959,375.791C922.801,396.995 936.68,431.55 958.774,447.782C968.361,454.825 982.87,458.767 996.306,452.571C998.224,451.687 1000.03,449.991 1001.79,447.802C1004.88,443.963 1007.69,438.661 1010.15,432.73C1016.47,417.508 1020.47,398.166 1020.06,387.564C1019.83,381.385 1016.27,362.662 1009.12,346.74C1004.61,336.72 998.801,327.698 991.133,324.336C970.733,315.392 939.756,311.508 923.309,332.4C917.351,339.967 915.921,346.563 914.731,355.917C914.604,356.913 914.308,359.604 914.034,362.133Z"/>
        </g>
        <g transform="matrix(1,1.66533e-16,-1.66533e-16,1,-361.932,-228.307)">
            <path d="M982.362,376.522C982.61,376.65 983.802,377.269 984.567,377.771C986.258,378.88 988.068,379.995 989.271,380.195C993.035,380.822 998.291,380.423 1002.65,378.676C1005.78,377.422 1008.43,375.473 1009.94,372.836C1010.79,371.341 1011.4,369.144 1012.63,367.919C1013.47,367.08 1013.47,365.718 1012.63,364.879C1011.79,364.04 1010.43,364.04 1009.59,364.879C1008.12,366.35 1007.23,368.906 1006.21,370.703C1005.15,372.542 1003.23,373.81 1001.05,374.685C997.442,376.13 993.093,376.472 989.978,375.953C989.62,375.894 989.192,375.616 988.706,375.323C987.543,374.621 986.253,373.689 985.155,373.081C983.806,372.335 982.564,372.098 981.745,372.277C980.586,372.531 979.85,373.679 980.104,374.838C980.336,375.896 981.312,376.601 982.362,376.522Z"/>
        </g>
        <g transform="matrix(1,1.66533e-16,-1.66533e-16,1,-361.932,-228.307)">
            <path d="M927.39,387.963C929.899,390.971 933.77,392.498 938.058,392.953C943.953,393.579 950.623,392.194 954.887,390.595C956.837,389.864 959.254,388.612 960.892,386.876C962.214,385.475 963.054,383.774 963.054,381.81C963.054,380.624 962.091,379.66 960.904,379.66C959.717,379.66 958.754,380.624 958.754,381.81C958.754,382.91 958.034,383.756 957.189,384.464C956.037,385.428 954.579,386.118 953.377,386.569C949.61,387.981 943.72,389.23 938.512,388.677C935.397,388.346 932.515,387.393 930.692,385.208C929.931,384.297 928.574,384.174 927.663,384.935C926.752,385.695 926.629,387.052 927.39,387.963Z"/>
        </g>
        <g transform="matrix(1,1.66533e-16,-1.66533e-16,1,-361.932,-228.307)">
            <path d="M981.097,375.347C980.975,376.196 980.956,377.118 980.32,377.754C979.481,378.593 979.481,379.956 980.32,380.795C981.159,381.634 982.522,381.634 983.361,380.795C984.676,379.48 985.102,377.713 985.354,375.958C985.522,374.783 984.706,373.692 983.531,373.524C982.356,373.355 981.266,374.172 981.097,375.347Z"/>
        </g>
        <g transform="matrix(1,1.66533e-16,-1.66533e-16,1,-361.932,-228.307)">
            <path d="M993.171,379.195C993.24,380.045 993.319,380.832 993.319,381.703C993.319,382.89 994.283,383.854 995.469,383.854C996.656,383.854 997.619,382.89 997.619,381.703C997.619,380.711 997.535,379.815 997.457,378.847C997.361,377.664 996.323,376.782 995.14,376.878C993.957,376.974 993.075,378.012 993.171,379.195Z"/>
        </g>
        <g transform="matrix(1,1.66533e-16,-1.66533e-16,1,-361.932,-228.307)">
            <path d="M1003.74,376.621C1004.15,377.8 1004.91,378.706 1005.87,379.469C1006.79,380.211 1008.15,380.06 1008.89,379.133C1009.63,378.207 1009.48,376.853 1008.55,376.111C1008.24,375.862 1007.94,375.608 1007.81,375.224C1007.42,374.101 1006.2,373.503 1005.08,373.889C1003.95,374.274 1003.36,375.498 1003.74,376.621Z"/>
        </g>
        <g transform="matrix(1,1.66533e-16,-1.66533e-16,1,-361.932,-228.307)">
            <path d="M1014,366.393C1013.38,365.409 1012.08,365.094 1011.08,365.694C1010.06,366.302 1009.72,367.623 1010.33,368.642C1011.24,370.159 1012.24,370.503 1013.92,370.743C1015.1,370.911 1016.19,370.093 1016.36,368.918C1016.52,367.744 1015.71,366.654 1014.53,366.486C1014.36,366.461 1014.12,366.417 1014,366.393Z"/>
        </g>
        <g transform="matrix(1,1.66533e-16,-1.66533e-16,1,-361.932,-228.307)">
            <path d="M931.139,389.454C931.978,389.076 932.511,388.182 932.389,387.222C932.239,386.045 931.162,385.211 929.984,385.361C928.941,385.493 928.248,385.998 927.713,386.773C927.523,387.05 927.355,387.378 927.187,387.737C927.067,387.994 926.993,388.337 926.672,388.551C925.684,389.209 925.417,390.545 926.075,391.532C926.734,392.52 928.07,392.787 929.057,392.129C929.898,391.568 930.414,390.866 930.79,390.156C930.898,389.953 931.041,389.659 931.139,389.454Z"/>
        </g>
        <g transform="matrix(1,1.66533e-16,-1.66533e-16,1,-361.932,-228.307)">
            <path d="M938.265,392.706C938.341,393.109 938.401,393.605 938.221,393.966C937.69,395.027 938.121,396.32 939.182,396.851C940.244,397.381 941.536,396.951 942.067,395.889C942.639,394.745 942.731,393.192 942.492,391.914C942.273,390.748 941.149,389.978 939.982,390.197C938.816,390.415 938.046,391.54 938.265,392.706Z"/>
        </g>
        <g transform="matrix(1,1.66533e-16,-1.66533e-16,1,-361.932,-228.307)">
            <path d="M953.357,392.088C953.534,392.363 953.747,392.68 953.872,392.805C954.711,393.644 956.073,393.644 956.912,392.805C957.708,392.009 957.749,390.743 957.036,389.899C956.937,389.739 956.471,388.987 956.331,388.843C956.101,388.608 955.87,388.466 955.68,388.376C954.999,388.054 954.385,388.118 953.854,388.356C953.465,388.531 952.646,388.938 952.558,390.271C952.511,390.997 952.83,391.664 953.357,392.088ZM956.839,390.664C956.825,390.785 956.801,390.902 956.767,391.015C956.799,390.911 956.824,390.794 956.839,390.664Z"/>
        </g>
        <g transform="matrix(1,1.66533e-16,-1.66533e-16,1,-361.932,-228.307)">
            <path d="M960.201,383.957C960.907,385.509 962.049,386.1 963.56,386.772C964.644,387.254 965.916,386.765 966.398,385.68C966.88,384.596 966.391,383.324 965.306,382.842C965.035,382.722 964.777,382.615 964.538,382.498C964.374,382.418 964.202,382.367 964.115,382.177C963.624,381.097 962.348,380.619 961.267,381.11C960.187,381.601 959.709,382.877 960.201,383.957Z"/>
        </g>
        <g transform="matrix(0.999592,0.0285536,-0.0285536,0.999592,-348.525,-252.091)">
            <path d="M947.026,422.32C946.897,422.772 951.914,423.584 954.448,422.86C958.884,421.593 959.766,417.677 962.679,414.764C964.858,412.584 967.326,411.19 970.37,410.581C972.859,410.083 975.764,412.302 977.792,411.795C978.673,411.575 980.735,408.239 981.57,407.612C984.248,405.604 987.779,405.723 991.016,405.723C992.612,405.723 1008.41,412.215 1012.61,408.017C1012.83,407.794 1012.66,408.651 1012.61,408.961C1012.51,409.516 1011.95,409.849 1011.66,410.311C1010.87,411.582 1009.81,412.455 1008.83,413.549C1005.94,416.754 1000.89,419.771 996.549,420.026C992.915,420.24 985.905,417.072 981.57,418.06C976.491,419.219 971.078,424.056 969.156,425.154C961.929,429.284 952.815,428.11 947.026,422.32Z"/>
        </g>
        <g transform="matrix(1,1.66533e-16,-1.66533e-16,1,-363.997,-227.207)">
            <path d="M902.901,320.22C900.342,320.746 900.223,327.977 900.025,329.755C899.02,338.803 901.442,354.541 912.946,356.459C918.75,357.426 924.736,358.896 930.748,357.894C952.214,354.317 968.805,336.822 990.472,333.488C1000.38,331.963 1012.53,330.217 1022.34,333.488C1026.58,334.901 1030.85,336.717 1034.98,338.369C1035.55,338.598 1038.76,340.619 1039,340.379C1039.85,339.523 1035.84,335.117 1035.55,334.35C1032.97,327.474 1028.91,322.523 1024.64,316.547C1020.15,310.262 1013.75,308.376 1007.12,305.062C1002.45,302.724 998.346,299.264 993.343,297.597C981.099,293.515 963.572,296.409 951.422,299.607C939.253,302.809 927.725,307.41 915.817,311.379C911.318,312.879 908.293,316.371 904.906,319.419C904.343,319.925 900.781,323.257 901.174,322.864"/>
            <path d="M903.177,318.088C902.947,318.058 902.708,318.065 902.468,318.114C901.094,318.396 899.89,319.551 899.18,321.407C898.19,323.997 898.036,328.184 897.888,329.518C897.245,335.302 897.951,343.648 901.239,349.844C903.612,354.315 907.286,357.695 912.593,358.58C918.625,359.585 924.852,361.057 931.102,360.015C942.074,358.187 951.817,352.839 961.569,347.484C970.888,342.368 980.216,337.241 990.799,335.613C1000.4,334.136 1012.16,332.36 1021.66,335.528C1025.86,336.928 1030.09,338.729 1034.18,340.366C1034.73,340.588 1037.62,342.32 1038.38,342.487C1039.49,342.732 1040.17,342.242 1040.52,341.9C1041.14,341.279 1041.55,340.182 1041.01,338.74C1040.45,337.257 1037.71,333.713 1037.51,333.461C1034.86,326.469 1030.74,321.394 1026.39,315.298C1021.68,308.704 1015.04,306.615 1008.09,303.139C1003.32,300.755 999.122,297.257 994.023,295.557C981.421,291.356 963.379,294.237 950.875,297.527C938.66,300.741 927.089,305.355 915.137,309.339C910.348,310.936 907.073,314.576 903.468,317.821L903.177,318.088ZM1033.78,335.567C1033.66,335.369 1033.58,335.211 1033.54,335.105C1031.03,328.413 1027.04,323.612 1022.89,317.797C1018.62,311.821 1012.47,310.136 1006.16,306.985C1001.58,304.692 997.569,301.272 992.663,299.636C980.776,295.674 963.765,298.582 951.969,301.686C939.845,304.877 928.361,309.464 916.497,313.419C912.287,314.822 909.514,318.165 906.345,321.017C905.9,321.417 903.594,323.57 902.814,324.286C902.335,326.461 902.268,329.043 902.162,329.993C901.599,335.065 902.154,342.394 905.038,347.829C906.78,351.111 909.403,353.688 913.3,354.338C918.874,355.267 924.62,356.736 930.395,355.774C940.888,354.025 950.173,348.836 959.5,343.715C969.259,338.356 979.061,333.068 990.145,331.363C1000.37,329.79 1012.9,328.074 1023.02,331.448C1026.62,332.648 1030.24,334.133 1033.78,335.567ZM903.021,323.965C902.963,324.062 902.898,324.155 902.823,324.243L902.823,324.245L902.916,324.128C902.941,324.091 902.966,324.054 902.991,324.016L903.021,323.965ZM903.049,323.916L903.041,323.93L903.048,323.918L903.049,323.916Z"/>
        </g>
        <g transform="matrix(0.690638,-0.146311,0.133906,0.632084,-196.847,109.679)">
            <rect x="849.758" y="606.826" width="338.462" height="60.451"/>
        </g>
        <g transform="matrix(0.89001,-0.179705,0.344821,1.70777,-482.151,-450.859)">
            <rect x="849.758" y="606.826" width="338.462" height="60.451"/>
        </g>
        <g transform="matrix(1.08488,-0.221855,0.579703,2.83478,-765.813,-972.548)">
            <rect x="849.758" y="606.826" width="338.462" height="60.451"/>
        </g>
        <g transform="matrix(1.08488,-0.221855,0.579703,2.83478,-765.813,-972.548)">
            <rect x="849.758" y="606.826" width="338.462" height="60.451"/>
        </g>
    </g>
    <g id="Layer31" serif:id="Layer3" transform="matrix(0.978835,-0.204653,0.204653,0.978835,-209.809,196.958)">
        <g transform="matrix(0.762425,-0.16661,0.20056,0.917784,-110.303,-176.757)">
            <rect x="453.289" y="451.906" width="557.609" height="772.086" style="fill:white;stroke:black;stroke-width:16.85px;"/>
        </g>
        <g transform="matrix(0.978835,0.204653,-0.204653,0.978835,-158.047,-291.719)">
            <path d="M621.984,369.301C616.1,367.038 621.762,372.957 623.839,378.491C653.651,457.962 714.117,587.309 714.117,587.309C714.117,587.309 765.165,557.504 775.61,551.405C816.099,527.765 854.3,513.962 896.733,493.771C911.457,486.764 940.366,476.201 944.964,457.962C948.788,442.793 929.97,424.312 920.055,415.207C902.92,399.472 882.176,364.735 870.567,343.795C863.348,330.772 851.839,319.269 845.921,305.62C841.335,295.043 840.684,268.066 823.417,270.19C812.646,271.514 800.913,279.903 790.719,283.936C769.653,292.271 749.983,303.802 730.266,314.932C717.573,322.097 703.177,326.307 690.044,332.712C675.487,339.812 659.513,344.573 644.784,351.112C641.107,352.744 621.221,368.937 621.984,369.301Z" style="fill:rgb(228,36,68);"/>
            <path d="M621.213,366.827C620.152,366.602 619.426,366.678 618.995,366.831C618.381,367.05 617.954,367.423 617.658,367.887C617.282,368.476 617.06,369.405 617.449,370.62C618.014,372.386 620.566,375.889 621.825,379.247C651.66,458.776 712.169,588.22 712.169,588.22C712.425,588.767 712.899,589.182 713.476,589.362C714.053,589.542 714.679,589.471 715.201,589.166C715.201,589.166 766.249,559.36 776.694,553.262C817.128,529.653 855.281,515.876 897.657,495.712C906.579,491.467 920.65,485.909 931.49,478.179C939.093,472.756 945.095,466.24 947.049,458.487C948.707,451.913 946.565,444.737 942.559,437.895C936.901,428.23 927.579,419.197 921.51,413.624C904.51,398.013 883.965,363.527 872.448,342.752C865.262,329.789 853.785,318.352 847.894,304.765C845.127,298.384 843.763,286.073 839.382,277.701C836.045,271.325 831.088,267.08 823.154,268.056C812.219,269.4 800.277,277.843 789.928,281.937C768.771,290.308 749.011,301.881 729.209,313.06C716.553,320.204 702.196,324.393 689.101,330.78C674.567,337.868 658.617,342.618 643.912,349.147C640.653,350.593 625.015,363.111 621.213,366.827ZM622.545,371.376C623.15,371.212 623.676,370.786 623.948,370.173C626.672,367.28 642.461,354.496 645.657,353.077C660.408,346.528 676.406,341.756 690.986,334.645C704.158,328.22 718.592,323.991 731.323,316.805C750.954,305.723 770.536,294.234 791.51,285.936C801.549,281.964 813.072,273.628 823.679,272.324C829.56,271.601 833.099,274.969 835.572,279.695C839.905,287.975 841.212,300.164 843.948,306.475C849.893,320.187 861.435,331.755 868.687,344.837C880.388,365.943 901.33,400.931 918.601,416.791C924.429,422.143 933.415,430.787 938.848,440.068C942.237,445.856 944.282,451.875 942.879,457.436C941.155,464.275 935.7,469.894 928.993,474.678C918.367,482.256 904.556,487.667 895.809,491.829C853.319,512.047 815.069,525.876 774.526,549.548L715.07,584.263C707.111,567.156 653.392,451.149 625.852,377.736C625.006,375.482 623.553,373.166 622.545,371.376ZM623.009,367.411C623.589,367.714 623.98,368.174 624.085,368.845C623.956,368.251 623.577,367.718 623.009,367.411Z" style="fill:rgb(228,36,68);"/>
        </g>
        <g transform="matrix(0.739796,-0.162459,0.172452,0.785301,-619.144,251.897)">
            <rect x="1301.68" y="200.384" width="450.375" height="284.733" style="fill:none;stroke:black;stroke-width:18.63px;"/>
        </g>
        <g transform="matrix(0.99875,-0.0499927,0.0499927,0.99875,-426.802,-93.2336)">
            <path d="M955.777,449.674C957.189,451.224 960.134,459.88 960.72,461.93C964.936,476.687 957.397,488.853 943.68,495.711C937.564,498.769 929.991,498.721 923.651,501.391C918.588,503.523 913.434,505.17 908.405,507.37C901.96,510.19 895.662,513.455 889.572,516.936C882.042,521.239 877.845,531.245 874.624,538.759C874.042,540.119 871.358,543.734 872.152,544.528C874.954,547.33 1133.21,498.999 1133.21,498.999C1134.88,497.329 1129.68,494.574 1129.03,493.917C1124.35,489.243 1120.72,485.966 1114.08,483.753C1104.55,480.577 1095.76,478.316 1085.68,477.476C1082.06,477.174 1078.76,478.349 1075.21,478.671C1063.01,479.781 1048.49,479.662 1036.65,476.28C1024.72,472.87 1019.31,457.359 1019.31,446.086C1019.31,443.198 1017.91,425.446 1017.91,425.446C1017.91,425.446 1011.69,442.444 1004.07,449.674C997.929,455.494 986.528,457.23 978.696,458.209C977.161,458.401 955.777,450.392 955.777,449.674Z" style="fill:white;"/>
            <path d="M978.753,453.782C985.767,452.904 995.689,451.574 1001.05,446.491C1008.13,439.78 1013.79,423.939 1013.79,423.939C1014.5,422.003 1016.46,420.822 1018.51,421.101C1020.55,421.381 1022.12,423.046 1022.28,425.101C1022.28,425.101 1023.7,443.149 1023.7,446.086C1023.7,452.083 1025.39,459.442 1029.06,465.015C1031.23,468.313 1034.1,470.989 1037.86,472.063C1049.2,475.305 1063.12,475.367 1074.82,474.304C1078.62,473.958 1082.16,472.781 1086.04,473.105C1096.49,473.975 1105.6,476.303 1115.46,479.593C1122.76,482.025 1126.84,485.543 1131.95,490.645C1132.52,491.034 1135.72,493.294 1136.76,494.774C1137.71,496.127 1138.02,497.534 1137.9,498.787C1137.79,499.942 1137.33,501.078 1136.31,502.101C1135.69,502.726 1134.89,503.148 1134.02,503.31C1134.02,503.31 924.637,542.49 880.716,548.282C876.379,548.854 873.49,549.084 872.35,549.013C870.451,548.895 869.466,548.045 869.051,547.629C868.039,546.617 867.286,545.012 867.763,542.822C868.106,541.244 870.059,538.279 870.593,537.031C874.151,528.731 879.078,517.881 887.396,513.128C893.621,509.571 900.059,506.234 906.647,503.352C911.695,501.143 916.867,499.489 921.949,497.349C925.381,495.904 929.138,495.162 932.873,494.399C935.942,493.773 938.999,493.148 941.719,491.788C953.408,485.944 960.096,475.711 956.503,463.135C956.117,461.782 954.639,457.38 953.332,454.359C952.987,453.564 952.407,452.473 952.407,452.473C952.407,452.473 952.496,452.585 952.535,452.627L952.576,452.611C951.493,451.362 951.391,450.043 951.391,449.674C951.391,447.863 952.505,446.238 954.194,445.584C955.665,445.014 957.309,445.283 958.514,446.248C959.911,446.806 975.034,452.833 978.753,453.782ZM1124.97,496.075C1087.39,503.082 918.468,534.456 879.569,539.586L879.008,539.656C881.826,533.024 885.277,524.441 891.748,520.744C897.703,517.34 903.86,514.145 910.163,511.388C915.173,509.196 920.308,507.557 925.353,505.433C928.261,504.208 931.461,503.64 934.627,502.994C938.458,502.212 942.246,501.332 945.642,499.634C961.387,491.761 969.777,477.665 964.937,460.726C964.78,460.178 964.465,459.184 964.056,457.978C968.025,459.482 972.237,460.983 974.889,461.798C977.145,462.492 978.768,462.62 979.24,462.561C987.867,461.483 1000.32,459.268 1007.09,452.856C1009.88,450.21 1012.5,446.349 1014.75,442.413C1014.86,444.119 1014.93,445.459 1014.93,446.086C1014.93,453.617 1017.12,462.836 1021.73,469.835C1025.07,474.918 1029.66,478.842 1035.45,480.497C1047.78,484.02 1062.9,484.194 1075.61,483.039C1078.91,482.74 1081.95,481.566 1085.31,481.846C1095.04,482.656 1103.51,484.852 1112.69,487.914C1118.13,489.728 1121.26,492.409 1124.97,496.075Z"/>
        </g>
        <g transform="matrix(1,0,0,1,-403.723,-141.868)">
            <path d="M910.155,358.808C908.37,364.783 923.959,427.007 956.482,450.901C967.066,458.676 983.095,462.926 997.926,456.086C1012.83,449.211 1024.64,405.719 1023.93,387.414C1023.52,376.757 1013.7,330.005 992.687,320.791C970.883,311.231 937.847,307.676 920.268,330.005C913.819,338.197 912.18,345.303 910.892,355.428C910.539,358.201 908.753,369.435 910.058,368.425" style="fill:white;"/>
            <path d="M906.784,356.907C906.644,357.153 906.531,357.418 906.447,357.7C906.233,358.418 906.092,359.673 906.192,361.4C905.946,363.41 905.743,365.42 905.72,366.782C905.689,368.579 906.115,369.833 906.426,370.357C906.862,371.091 907.4,371.573 907.977,371.881C908.406,373.729 908.913,375.727 909.497,377.847C915.694,400.341 930.753,436.801 954.191,454.02C965.771,462.527 983.32,467.084 999.547,459.6C1004.61,457.268 1009.54,451.376 1013.68,443.477C1022.52,426.598 1028.31,400.534 1027.8,387.265C1027.54,380.655 1023.83,360.601 1016.18,343.567C1010.8,331.616 1003.39,321.256 994.241,317.247C971.032,307.071 935.94,303.843 917.227,327.611C910.287,336.426 908.439,344.043 907.053,354.94C906.994,355.4 906.898,356.085 906.784,356.907ZM914.034,362.133C914.053,362.332 914.075,362.53 914.1,362.722C914.511,365.857 915.471,370.389 916.959,375.791C922.801,396.995 936.68,431.55 958.774,447.782C968.361,454.825 982.87,458.767 996.306,452.571C998.224,451.687 1000.03,449.991 1001.79,447.802C1004.88,443.963 1007.69,438.661 1010.15,432.73C1016.47,417.508 1020.47,398.166 1020.06,387.564C1019.83,381.385 1016.27,362.662 1009.12,346.74C1004.61,336.72 998.801,327.698 991.133,324.336C970.733,315.392 939.756,311.508 923.309,332.4C917.351,339.967 915.921,346.563 914.731,355.917C914.604,356.913 914.308,359.604 914.034,362.133Z"/>
        </g>
        <g transform="matrix(1,0,0,1,-403.723,-141.868)">
            <path d="M982.362,376.522C982.61,376.65 983.802,377.269 984.567,377.771C986.258,378.88 988.068,379.995 989.271,380.195C993.035,380.822 998.291,380.423 1002.65,378.676C1005.78,377.422 1008.43,375.473 1009.94,372.836C1010.79,371.341 1011.4,369.144 1012.63,367.919C1013.47,367.08 1013.47,365.718 1012.63,364.879C1011.79,364.04 1010.43,364.04 1009.59,364.879C1008.12,366.35 1007.23,368.906 1006.21,370.703C1005.15,372.542 1003.23,373.81 1001.05,374.685C997.442,376.13 993.093,376.472 989.978,375.953C989.62,375.894 989.192,375.616 988.706,375.323C987.543,374.621 986.253,373.689 985.155,373.081C983.806,372.335 982.564,372.098 981.745,372.277C980.586,372.531 979.85,373.679 980.104,374.838C980.336,375.896 981.312,376.601 982.362,376.522Z"/>
        </g>
        <g transform="matrix(1,0,0,1,-403.723,-141.868)">
            <path d="M927.39,387.963C929.899,390.971 933.77,392.498 938.058,392.953C943.953,393.579 950.623,392.194 954.887,390.595C956.837,389.864 959.254,388.612 960.892,386.876C962.214,385.475 963.054,383.774 963.054,381.81C963.054,380.624 962.091,379.66 960.904,379.66C959.717,379.66 958.754,380.624 958.754,381.81C958.754,382.91 958.034,383.756 957.189,384.464C956.037,385.428 954.579,386.118 953.377,386.569C949.61,387.981 943.72,389.23 938.512,388.677C935.397,388.346 932.515,387.393 930.692,385.208C929.931,384.297 928.574,384.174 927.663,384.935C926.752,385.695 926.629,387.052 927.39,387.963Z"/>
        </g>
        <g transform="matrix(1,0,0,1,-403.723,-141.868)">
            <path d="M981.097,375.347C980.975,376.196 980.956,377.118 980.32,377.754C979.481,378.593 979.481,379.956 980.32,380.795C981.159,381.634 982.522,381.634 983.361,380.795C984.676,379.48 985.102,377.713 985.354,375.958C985.522,374.783 984.706,373.692 983.531,373.524C982.356,373.355 981.266,374.172 981.097,375.347Z"/>
        </g>
        <g transform="matrix(1,0,0,1,-403.723,-141.868)">
            <path d="M993.171,379.195C993.24,380.045 993.319,380.832 993.319,381.703C993.319,382.89 994.283,383.854 995.469,383.854C996.656,383.854 997.619,382.89 997.619,381.703C997.619,380.711 997.535,379.815 997.457,378.847C997.361,377.664 996.323,376.782 995.14,376.878C993.957,376.974 993.075,378.012 993.171,379.195Z"/>
        </g>
        <g transform="matrix(1,0,0,1,-403.723,-141.868)">
            <path d="M1003.74,376.621C1004.15,377.8 1004.91,378.706 1005.87,379.469C1006.79,380.211 1008.15,380.06 1008.89,379.133C1009.63,378.207 1009.48,376.853 1008.55,376.111C1008.24,375.862 1007.94,375.608 1007.81,375.224C1007.42,374.101 1006.2,373.503 1005.08,373.889C1003.95,374.274 1003.36,375.498 1003.74,376.621Z"/>
        </g>
        <g transform="matrix(1,0,0,1,-403.723,-141.868)">
            <path d="M1014,366.393C1013.38,365.409 1012.08,365.094 1011.08,365.694C1010.06,366.302 1009.72,367.623 1010.33,368.642C1011.24,370.159 1012.24,370.503 1013.92,370.743C1015.1,370.911 1016.19,370.093 1016.36,368.918C1016.52,367.744 1015.71,366.654 1014.53,366.486C1014.36,366.461 1014.12,366.417 1014,366.393Z"/>
        </g>
        <g transform="matrix(1,0,0,1,-403.723,-141.868)">
            <path d="M931.139,389.454C931.978,389.076 932.511,388.182 932.389,387.222C932.239,386.045 931.162,385.211 929.984,385.361C928.941,385.493 928.248,385.998 927.713,386.773C927.523,387.05 927.355,387.378 927.187,387.737C927.067,387.994 926.993,388.337 926.672,388.551C925.684,389.209 925.417,390.545 926.075,391.532C926.734,392.52 928.07,392.787 929.057,392.129C929.898,391.568 930.414,390.866 930.79,390.156C930.898,389.953 931.041,389.659 931.139,389.454Z"/>
        </g>
        <g transform="matrix(1,0,0,1,-403.723,-141.868)">
            <path d="M938.265,392.706C938.341,393.109 938.401,393.605 938.221,393.966C937.69,395.027 938.121,396.32 939.182,396.851C940.244,397.381 941.536,396.951 942.067,395.889C942.639,394.745 942.731,393.192 942.492,391.914C942.273,390.748 941.149,389.978 939.982,390.197C938.816,390.415 938.046,391.54 938.265,392.706Z"/>
        </g>
        <g transform="matrix(1,0,0,1,-403.723,-141.868)">
            <path d="M953.357,392.088C953.534,392.363 953.747,392.68 953.872,392.805C954.711,393.644 956.073,393.644 956.912,392.805C957.708,392.009 957.749,390.743 957.036,389.899C956.937,389.739 956.471,388.987 956.331,388.843C956.101,388.608 955.87,388.466 955.68,388.376C954.999,388.054 954.385,388.118 953.854,388.356C953.465,388.531 952.646,388.938 952.558,390.271C952.511,390.997 952.83,391.664 953.357,392.088ZM956.839,390.664C956.825,390.785 956.801,390.902 956.767,391.015C956.799,390.911 956.824,390.794 956.839,390.664Z"/>
        </g>
        <g transform="matrix(1,0,0,1,-403.723,-141.868)">
            <path d="M960.201,383.957C960.907,385.509 962.049,386.1 963.56,386.772C964.644,387.254 965.916,386.765 966.398,385.68C966.88,384.596 966.391,383.324 965.306,382.842C965.035,382.722 964.777,382.615 964.538,382.498C964.374,382.418 964.202,382.367 964.115,382.177C963.624,381.097 962.348,380.619 961.267,381.11C960.187,381.601 959.709,382.877 960.201,383.957Z"/>
        </g>
        <g transform="matrix(0.999592,0.0285536,-0.0285536,0.999592,-390.316,-165.652)">
            <path d="M947.026,422.32C946.897,422.772 951.914,423.584 954.448,422.86C958.884,421.593 959.766,417.677 962.679,414.764C964.858,412.584 967.326,411.19 970.37,410.581C972.859,410.083 975.764,412.302 977.792,411.795C978.673,411.575 980.735,408.239 981.57,407.612C984.248,405.604 987.779,405.723 991.016,405.723C992.612,405.723 1008.41,412.215 1012.61,408.017C1012.83,407.794 1012.66,408.651 1012.61,408.961C1012.51,409.516 1011.95,409.849 1011.66,410.311C1010.87,411.582 1009.81,412.455 1008.83,413.549C1005.94,416.754 1000.89,419.771 996.549,420.026C992.915,420.24 985.905,417.072 981.57,418.06C976.491,419.219 971.078,424.056 969.156,425.154C961.929,429.284 952.815,428.11 947.026,422.32Z"/>
        </g>
        <g transform="matrix(1,0,0,1,-405.788,-140.769)">
            <path d="M902.901,320.22C900.342,320.746 900.223,327.977 900.025,329.755C899.02,338.803 901.442,354.541 912.946,356.459C918.75,357.426 924.736,358.896 930.748,357.894C952.214,354.317 968.805,336.822 990.472,333.488C1000.38,331.963 1012.53,330.217 1022.34,333.488C1026.58,334.901 1030.85,336.717 1034.98,338.369C1035.55,338.598 1038.76,340.619 1039,340.379C1039.85,339.523 1035.84,335.117 1035.55,334.35C1032.97,327.474 1028.91,322.523 1024.64,316.547C1020.15,310.262 1013.75,308.376 1007.12,305.062C1002.45,302.724 998.346,299.264 993.343,297.597C981.099,293.515 963.572,296.409 951.422,299.607C939.253,302.809 927.725,307.41 915.817,311.379C911.318,312.879 908.293,316.371 904.906,319.419C904.343,319.925 900.781,323.257 901.174,322.864"/>
            <path d="M903.177,318.088C902.947,318.058 902.708,318.065 902.468,318.114C901.094,318.396 899.89,319.551 899.18,321.407C898.19,323.997 898.036,328.184 897.888,329.518C897.245,335.302 897.951,343.648 901.239,349.844C903.612,354.315 907.286,357.695 912.593,358.58C918.625,359.585 924.852,361.057 931.102,360.015C942.074,358.187 951.817,352.839 961.569,347.484C970.888,342.368 980.216,337.241 990.799,335.613C1000.4,334.136 1012.16,332.36 1021.66,335.528C1025.86,336.928 1030.09,338.729 1034.18,340.366C1034.73,340.588 1037.62,342.32 1038.38,342.487C1039.49,342.732 1040.17,342.242 1040.52,341.9C1041.14,341.279 1041.55,340.182 1041.01,338.74C1040.45,337.257 1037.71,333.713 1037.51,333.461C1034.86,326.469 1030.74,321.394 1026.39,315.298C1021.68,308.704 1015.04,306.615 1008.09,303.139C1003.32,300.755 999.122,297.257 994.023,295.557C981.421,291.356 963.379,294.237 950.875,297.527C938.66,300.741 927.089,305.355 915.137,309.339C910.348,310.936 907.073,314.576 903.468,317.821L903.177,318.088ZM1033.78,335.567C1033.66,335.369 1033.58,335.211 1033.54,335.105C1031.03,328.413 1027.04,323.612 1022.89,317.797C1018.62,311.821 1012.47,310.136 1006.16,306.985C1001.58,304.692 997.569,301.272 992.663,299.636C980.776,295.674 963.765,298.582 951.969,301.686C939.845,304.877 928.361,309.464 916.497,313.419C912.287,314.822 909.514,318.165 906.345,321.017C905.9,321.417 903.594,323.57 902.814,324.286C902.335,326.461 902.268,329.043 902.162,329.993C901.599,335.065 902.154,342.394 905.038,347.829C906.78,351.111 909.403,353.688 913.3,354.338C918.874,355.267 924.62,356.736 930.395,355.774C940.888,354.025 950.173,348.836 959.5,343.715C969.259,338.356 979.061,333.068 990.145,331.363C1000.37,329.79 1012.9,328.074 1023.02,331.448C1026.62,332.648 1030.24,334.133 1033.78,335.567ZM903.021,323.965C902.963,324.062 902.898,324.155 902.823,324.243L902.823,324.245L902.916,324.128C902.941,324.091 902.966,324.054 902.991,324.016L903.021,323.965ZM903.049,323.916L903.041,323.93L903.048,323.918L903.049,323.916Z"/>
        </g>
        <g transform="matrix(0.690638,-0.146311,0.133906,0.632084,-238.638,196.118)">
            <rect x="849.758" y="606.826" width="338.462" height="60.451"/>
        </g>
        <g transform="matrix(0.89001,-0.179705,0.344821,1.70777,-523.942,-364.42)">
            <rect x="849.758" y="606.826" width="338.462" height="60.451"/>
        </g>
        <g transform="matrix(1.08488,-0.221855,0.579703,2.83478,-807.604,-886.109)">
            <rect x="849.758" y="606.826" width="338.462" height="60.451"/>
        </g>
        <g transform="matrix(1.08488,-0.221855,0.579703,2.83478,-807.604,-886.109)">
            <rect x="849.758" y="606.826" width="338.462" height="60.451"/>
        </g>
    </g>
    <g id="Layer32" serif:id="Layer3">
        <g transform="matrix(0.762425,-0.16661,0.20056,0.917784,-129.585,-92.5382)">
            <rect x="453.289" y="451.906" width="557.609" height="772.086" style="fill:white;stroke:black;stroke-width:16.85px;"/>
        </g>
        <g transform="matrix(0.933403,0,0,0.964484,-373.736,-47.3429)">
            <path d="M788.132,335.244C783.184,337.573 789.032,381.231 790.056,388.339C796.907,435.903 807.239,486.54 819.629,532.436C823.131,545.41 818.473,570.826 828.778,579.849C845.781,594.734 869.919,573.049 886.365,567.223C938.262,548.839 989.997,526.975 1042.69,510.828C1070.25,502.38 1097.05,489.996 1125.38,484.53C1129.96,483.645 1173.31,472.319 1173.56,468.927C1175.56,442.529 1165.54,414.998 1161.47,389.296C1156.83,359.929 1153.77,330.271 1149.2,300.874C1146.75,285.095 1145.13,259.593 1125.42,256.033C1088.92,249.44 934.2,296.22 892.043,309.139C868.403,316.384 846.942,322.803 823.115,325.719C812.955,326.963 804.9,332.189 795.277,334.37C793.09,334.866 787.504,336.742 788.132,335.244Z" style="fill:rgb(220,156,0);"/>
        </g>
        <g transform="matrix(0.739796,-0.162459,0.172452,0.785301,-639.633,337.522)">
            <rect x="1301.68" y="200.384" width="450.375" height="284.733" style="fill:none;stroke:black;stroke-width:18.63px;"/>
        </g>
        <g transform="matrix(0.99875,-0.0499927,0.0499927,0.99875,-447.291,-7.60787)">
            <path d="M955.777,449.674C957.189,451.224 960.134,459.88 960.72,461.93C964.936,476.687 957.397,488.853 943.68,495.711C937.564,498.769 929.991,498.721 923.651,501.391C918.588,503.523 913.434,505.17 908.405,507.37C901.96,510.19 895.662,513.455 889.572,516.936C882.042,521.239 877.845,531.245 874.624,538.759C874.042,540.119 871.358,543.734 872.152,544.528C874.954,547.33 1133.21,498.999 1133.21,498.999C1134.88,497.329 1129.68,494.574 1129.03,493.917C1124.35,489.243 1120.72,485.966 1114.08,483.753C1104.55,480.577 1095.76,478.316 1085.68,477.476C1082.06,477.174 1078.76,478.349 1075.21,478.671C1063.01,479.781 1048.49,479.662 1036.65,476.28C1024.72,472.87 1019.31,457.359 1019.31,446.086C1019.31,443.198 1017.91,425.446 1017.91,425.446C1017.91,425.446 1011.69,442.444 1004.07,449.674C997.929,455.494 986.528,457.23 978.696,458.209C977.161,458.401 955.777,450.392 955.777,449.674Z" style="fill:white;"/>
            <path d="M978.753,453.782C985.767,452.904 995.689,451.574 1001.05,446.491C1008.13,439.78 1013.79,423.939 1013.79,423.939C1014.5,422.003 1016.46,420.822 1018.51,421.101C1020.55,421.381 1022.12,423.046 1022.28,425.101C1022.28,425.101 1023.7,443.149 1023.7,446.086C1023.7,452.083 1025.39,459.442 1029.06,465.015C1031.23,468.313 1034.1,470.989 1037.86,472.063C1049.2,475.305 1063.12,475.367 1074.82,474.304C1078.62,473.958 1082.16,472.781 1086.04,473.105C1096.49,473.975 1105.6,476.303 1115.46,479.593C1122.76,482.025 1126.84,485.543 1131.95,490.645C1132.52,491.034 1135.72,493.294 1136.76,494.774C1137.71,496.127 1138.02,497.534 1137.9,498.787C1137.79,499.942 1137.33,501.078 1136.31,502.101C1135.69,502.726 1134.89,503.148 1134.02,503.31C1134.02,503.31 924.637,542.49 880.716,548.282C876.379,548.854 873.49,549.084 872.35,549.013C870.451,548.895 869.466,548.045 869.051,547.629C868.039,546.617 867.286,545.012 867.763,542.822C868.106,541.244 870.059,538.279 870.593,537.031C874.151,528.731 879.078,517.881 887.396,513.128C893.621,509.571 900.059,506.234 906.647,503.352C911.695,501.143 916.867,499.489 921.949,497.349C925.381,495.904 929.138,495.162 932.873,494.399C935.942,493.773 938.999,493.148 941.719,491.788C953.408,485.944 960.096,475.711 956.503,463.135C956.117,461.782 954.639,457.38 953.332,454.359C952.987,453.564 952.407,452.473 952.407,452.473C952.407,452.473 952.496,452.585 952.535,452.627L952.576,452.611C951.493,451.362 951.391,450.043 951.391,449.674C951.391,447.863 952.505,446.238 954.194,445.584C955.665,445.014 957.309,445.283 958.514,446.248C959.911,446.806 975.034,452.833 978.753,453.782ZM1124.97,496.075C1087.39,503.082 918.468,534.456 879.569,539.586L879.008,539.656C881.826,533.024 885.277,524.441 891.748,520.744C897.703,517.34 903.86,514.145 910.163,511.388C915.173,509.196 920.308,507.557 925.353,505.433C928.261,504.208 931.461,503.64 934.627,502.994C938.458,502.212 942.246,501.332 945.642,499.634C961.387,491.761 969.777,477.665 964.937,460.726C964.78,460.178 964.465,459.184 964.056,457.978C968.025,459.482 972.237,460.983 974.889,461.798C977.145,462.492 978.768,462.62 979.24,462.561C987.867,461.483 1000.32,459.268 1007.09,452.856C1009.88,450.21 1012.5,446.349 1014.75,442.413C1014.86,444.119 1014.93,445.459 1014.93,446.086C1014.93,453.617 1017.12,462.836 1021.73,469.835C1025.07,474.918 1029.66,478.842 1035.45,480.497C1047.78,484.02 1062.9,484.194 1075.61,483.039C1078.91,482.74 1081.95,481.566 1085.31,481.846C1095.04,482.656 1103.51,484.852 1112.69,487.914C1118.13,489.728 1121.26,492.409 1124.97,496.075Z"/>
        </g>
        <g transform="matrix(1,0,0,1,-424.212,-56.2421)">
            <path d="M910.155,358.808C908.37,364.783 923.959,427.007 956.482,450.901C967.066,458.676 983.095,462.926 997.926,456.086C1012.83,449.211 1024.64,405.719 1023.93,387.414C1023.52,376.757 1013.7,330.005 992.687,320.791C970.883,311.231 937.847,307.676 920.268,330.005C913.819,338.197 912.18,345.303 910.892,355.428C910.539,358.201 908.753,369.435 910.058,368.425" style="fill:white;"/>
            <path d="M906.784,356.907C906.644,357.153 906.531,357.418 906.447,357.7C906.233,358.418 906.092,359.673 906.192,361.4C905.946,363.41 905.743,365.42 905.72,366.782C905.689,368.579 906.115,369.833 906.426,370.357C906.862,371.091 907.4,371.573 907.977,371.881C908.406,373.729 908.913,375.727 909.497,377.847C915.694,400.341 930.753,436.801 954.191,454.02C965.771,462.527 983.32,467.084 999.547,459.6C1004.61,457.268 1009.54,451.376 1013.68,443.477C1022.52,426.598 1028.31,400.534 1027.8,387.265C1027.54,380.655 1023.83,360.601 1016.18,343.567C1010.8,331.616 1003.39,321.256 994.241,317.247C971.032,307.071 935.94,303.843 917.227,327.611C910.287,336.426 908.439,344.043 907.053,354.94C906.994,355.4 906.898,356.085 906.784,356.907ZM914.034,362.133C914.053,362.332 914.075,362.53 914.1,362.722C914.511,365.857 915.471,370.389 916.959,375.791C922.801,396.995 936.68,431.55 958.774,447.782C968.361,454.825 982.87,458.767 996.306,452.571C998.224,451.687 1000.03,449.991 1001.79,447.802C1004.88,443.963 1007.69,438.661 1010.15,432.73C1016.47,417.508 1020.47,398.166 1020.06,387.564C1019.83,381.385 1016.27,362.662 1009.12,346.74C1004.61,336.72 998.801,327.698 991.133,324.336C970.733,315.392 939.756,311.508 923.309,332.4C917.351,339.967 915.921,346.563 914.731,355.917C914.604,356.913 914.308,359.604 914.034,362.133Z"/>
        </g>
        <g transform="matrix(1,0,0,1,-424.212,-56.2421)">
            <path d="M982.362,376.522C982.61,376.65 983.802,377.269 984.567,377.771C986.258,378.88 988.068,379.995 989.271,380.195C993.035,380.822 998.291,380.423 1002.65,378.676C1005.78,377.422 1008.43,375.473 1009.94,372.836C1010.79,371.341 1011.4,369.144 1012.63,367.919C1013.47,367.08 1013.47,365.718 1012.63,364.879C1011.79,364.04 1010.43,364.04 1009.59,364.879C1008.12,366.35 1007.23,368.906 1006.21,370.703C1005.15,372.542 1003.23,373.81 1001.05,374.685C997.442,376.13 993.093,376.472 989.978,375.953C989.62,375.894 989.192,375.616 988.706,375.323C987.543,374.621 986.253,373.689 985.155,373.081C983.806,372.335 982.564,372.098 981.745,372.277C980.586,372.531 979.85,373.679 980.104,374.838C980.336,375.896 981.312,376.601 982.362,376.522Z"/>
        </g>
        <g transform="matrix(1,0,0,1,-424.212,-56.2421)">
            <path d="M927.39,387.963C929.899,390.971 933.77,392.498 938.058,392.953C943.953,393.579 950.623,392.194 954.887,390.595C956.837,389.864 959.254,388.612 960.892,386.876C962.214,385.475 963.054,383.774 963.054,381.81C963.054,380.624 962.091,379.66 960.904,379.66C959.717,379.66 958.754,380.624 958.754,381.81C958.754,382.91 958.034,383.756 957.189,384.464C956.037,385.428 954.579,386.118 953.377,386.569C949.61,387.981 943.72,389.23 938.512,388.677C935.397,388.346 932.515,387.393 930.692,385.208C929.931,384.297 928.574,384.174 927.663,384.935C926.752,385.695 926.629,387.052 927.39,387.963Z"/>
        </g>
        <g transform="matrix(1,0,0,1,-424.212,-56.2421)">
            <path d="M981.097,375.347C980.975,376.196 980.956,377.118 980.32,377.754C979.481,378.593 979.481,379.956 980.32,380.795C981.159,381.634 982.522,381.634 983.361,380.795C984.676,379.48 985.102,377.713 985.354,375.958C985.522,374.783 984.706,373.692 983.531,373.524C982.356,373.355 981.266,374.172 981.097,375.347Z"/>
        </g>
        <g transform="matrix(1,0,0,1,-424.212,-56.2421)">
            <path d="M993.171,379.195C993.24,380.045 993.319,380.832 993.319,381.703C993.319,382.89 994.283,383.854 995.469,383.854C996.656,383.854 997.619,382.89 997.619,381.703C997.619,380.711 997.535,379.815 997.457,378.847C997.361,377.664 996.323,376.782 995.14,376.878C993.957,376.974 993.075,378.012 993.171,379.195Z"/>
        </g>
        <g transform="matrix(1,0,0,1,-424.212,-56.2421)">
            <path d="M1003.74,376.621C1004.15,377.8 1004.91,378.706 1005.87,379.469C1006.79,380.211 1008.15,380.06 1008.89,379.133C1009.63,378.207 1009.48,376.853 1008.55,376.111C1008.24,375.862 1007.94,375.608 1007.81,375.224C1007.42,374.101 1006.2,373.503 1005.08,373.889C1003.95,374.274 1003.36,375.498 1003.74,376.621Z"/>
        </g>
        <g transform="matrix(1,0,0,1,-424.212,-56.2421)">
            <path d="M1014,366.393C1013.38,365.409 1012.08,365.094 1011.08,365.694C1010.06,366.302 1009.72,367.623 1010.33,368.642C1011.24,370.159 1012.24,370.503 1013.92,370.743C1015.1,370.911 1016.19,370.093 1016.36,368.918C1016.52,367.744 1015.71,366.654 1014.53,366.486C1014.36,366.461 1014.12,366.417 1014,366.393Z"/>
        </g>
        <g transform="matrix(1,0,0,1,-424.212,-56.2421)">
            <path d="M931.139,389.454C931.978,389.076 932.511,388.182 932.389,387.222C932.239,386.045 931.162,385.211 929.984,385.361C928.941,385.493 928.248,385.998 927.713,386.773C927.523,387.05 927.355,387.378 927.187,387.737C927.067,387.994 926.993,388.337 926.672,388.551C925.684,389.209 925.417,390.545 926.075,391.532C926.734,392.52 928.07,392.787 929.057,392.129C929.898,391.568 930.414,390.866 930.79,390.156C930.898,389.953 931.041,389.659 931.139,389.454Z"/>
        </g>
        <g transform="matrix(1,0,0,1,-424.212,-56.2421)">
            <path d="M938.265,392.706C938.341,393.109 938.401,393.605 938.221,393.966C937.69,395.027 938.121,396.32 939.182,396.851C940.244,397.381 941.536,396.951 942.067,395.889C942.639,394.745 942.731,393.192 942.492,391.914C942.273,390.748 941.149,389.978 939.982,390.197C938.816,390.415 938.046,391.54 938.265,392.706Z"/>
        </g>
        <g transform="matrix(1,0,0,1,-424.212,-56.2421)">
            <path d="M953.357,392.088C953.534,392.363 953.747,392.68 953.872,392.805C954.711,393.644 956.073,393.644 956.912,392.805C957.708,392.009 957.749,390.743 957.036,389.899C956.937,389.739 956.471,388.987 956.331,388.843C956.101,388.608 955.87,388.466 955.68,388.376C954.999,388.054 954.385,388.118 953.854,388.356C953.465,388.531 952.646,388.938 952.558,390.271C952.511,390.997 952.83,391.664 953.357,392.088ZM956.839,390.664C956.825,390.785 956.801,390.902 956.767,391.015C956.799,390.911 956.824,390.794 956.839,390.664Z"/>
        </g>
        <g transform="matrix(1,0,0,1,-424.212,-56.2421)">
            <path d="M960.201,383.957C960.907,385.509 962.049,386.1 963.56,386.772C964.644,387.254 965.916,386.765 966.398,385.68C966.88,384.596 966.391,383.324 965.306,382.842C965.035,382.722 964.777,382.615 964.538,382.498C964.374,382.418 964.202,382.367 964.115,382.177C963.624,381.097 962.348,380.619 961.267,381.11C960.187,381.601 959.709,382.877 960.201,383.957Z"/>
        </g>
        <g transform="matrix(0.999592,0.0285536,-0.0285536,0.999592,-410.805,-80.0262)">
            <path d="M947.026,422.32C946.897,422.772 951.914,423.584 954.448,422.86C958.884,421.593 959.766,417.677 962.679,414.764C964.858,412.584 967.326,411.19 970.37,410.581C972.859,410.083 975.764,412.302 977.792,411.795C978.673,411.575 980.735,408.239 981.57,407.612C984.248,405.604 987.779,405.723 991.016,405.723C992.612,405.723 1008.41,412.215 1012.61,408.017C1012.83,407.794 1012.66,408.651 1012.61,408.961C1012.51,409.516 1011.95,409.849 1011.66,410.311C1010.87,411.582 1009.81,412.455 1008.83,413.549C1005.94,416.754 1000.89,419.771 996.549,420.026C992.915,420.24 985.905,417.072 981.57,418.06C976.491,419.219 971.078,424.056 969.156,425.154C961.929,429.284 952.815,428.11 947.026,422.32Z"/>
        </g>
        <g transform="matrix(1,0,0,1,-426.276,-55.1428)">
            <path d="M902.901,320.22C900.342,320.746 900.223,327.977 900.025,329.755C899.02,338.803 901.442,354.541 912.946,356.459C918.75,357.426 924.736,358.896 930.748,357.894C952.214,354.317 968.805,336.822 990.472,333.488C1000.38,331.963 1012.53,330.217 1022.34,333.488C1026.58,334.901 1030.85,336.717 1034.98,338.369C1035.55,338.598 1038.76,340.619 1039,340.379C1039.85,339.523 1035.84,335.117 1035.55,334.35C1032.97,327.474 1028.91,322.523 1024.64,316.547C1020.15,310.262 1013.75,308.376 1007.12,305.062C1002.45,302.724 998.346,299.264 993.343,297.597C981.099,293.515 963.572,296.409 951.422,299.607C939.253,302.809 927.725,307.41 915.817,311.379C911.318,312.879 908.293,316.371 904.906,319.419C904.343,319.925 900.781,323.257 901.174,322.864"/>
            <path d="M903.177,318.088C902.947,318.058 902.708,318.065 902.468,318.114C901.094,318.396 899.89,319.551 899.18,321.407C898.19,323.997 898.036,328.184 897.888,329.518C897.245,335.302 897.951,343.648 901.239,349.844C903.612,354.315 907.286,357.695 912.593,358.58C918.625,359.585 924.852,361.057 931.102,360.015C942.074,358.187 951.817,352.839 961.569,347.484C970.888,342.368 980.216,337.241 990.799,335.613C1000.4,334.136 1012.16,332.36 1021.66,335.528C1025.86,336.928 1030.09,338.729 1034.18,340.366C1034.73,340.588 1037.62,342.32 1038.38,342.487C1039.49,342.732 1040.17,342.242 1040.52,341.9C1041.14,341.279 1041.55,340.182 1041.01,338.74C1040.45,337.257 1037.71,333.713 1037.51,333.461C1034.86,326.469 1030.74,321.394 1026.39,315.298C1021.68,308.704 1015.04,306.615 1008.09,303.139C1003.32,300.755 999.122,297.257 994.023,295.557C981.421,291.356 963.379,294.237 950.875,297.527C938.66,300.741 927.089,305.355 915.137,309.339C910.348,310.936 907.073,314.576 903.468,317.821L903.177,318.088ZM1033.78,335.567C1033.66,335.369 1033.58,335.211 1033.54,335.105C1031.03,328.413 1027.04,323.612 1022.89,317.797C1018.62,311.821 1012.47,310.136 1006.16,306.985C1001.58,304.692 997.569,301.272 992.663,299.636C980.776,295.674 963.765,298.582 951.969,301.686C939.845,304.877 928.361,309.464 916.497,313.419C912.287,314.822 909.514,318.165 906.345,321.017C905.9,321.417 903.594,323.57 902.814,324.286C902.335,326.461 902.268,329.043 902.162,329.993C901.599,335.065 902.154,342.394 905.038,347.829C906.78,351.111 909.403,353.688 913.3,354.338C918.874,355.267 924.62,356.736 930.395,355.774C940.888,354.025 950.173,348.836 959.5,343.715C969.259,338.356 979.061,333.068 990.145,331.363C1000.37,329.79 1012.9,328.074 1023.02,331.448C1026.62,332.648 1030.24,334.133 1033.78,335.567ZM903.021,323.965C902.963,324.062 902.898,324.155 902.823,324.243L902.823,324.245L902.916,324.128C902.941,324.091 902.966,324.054 902.991,324.016L903.021,323.965ZM903.049,323.916L903.041,323.93L903.048,323.918L903.049,323.916Z"/>
        </g>
        <g transform="matrix(0.690638,-0.146311,0.133906,0.632084,-259.127,281.743)">
            <rect x="849.758" y="606.826" width="338.462" height="60.451"/>
        </g>
        <g transform="matrix(0.89001,-0.179705,0.344821,1.70777,-544.431,-278.794)">
            <rect x="849.758" y="606.826" width="338.462" height="60.451"/>
        </g>
        <g transform="matrix(1.08488,-0.221855,0.579703,2.83478,-828.093,-800.483)">
            <rect x="849.758" y="606.826" width="338.462" height="60.451"/>
        </g>
        <g transform="matrix(1.08488,-0.221855,0.579703,2.83478,-828.093,-800.483)">
            <rect x="849.758" y="606.826" width="338.462" height="60.451"/>
        </g>
    </g>
    <g id="Layer2">
        <g transform="matrix(0.767206,0.142988,-0.172125,0.923539,521.935,-194.648)">
            <rect x="453.289" y="451.906" width="557.609" height="772.086" style="fill:white;stroke:black;stroke-width:16.85px;"/>
        </g>
        <g transform="matrix(1,0,0,1,-424.212,-56.2421)">
            <path d="M1240.81,393.304C1240.31,392.643 1240.52,392.609 1240.15,393.305C1235.69,401.592 1236,412.979 1234.38,422.332C1231.07,441.452 1228.6,460.902 1227.5,480.267C1225.19,521 1198.65,555.822 1197.47,595.914C1197.17,606.161 1194.01,620.598 1200.35,629.59C1216.13,651.981 1255.81,654.273 1279.93,655.972C1319.4,658.753 1357.82,666.285 1397.67,667.463C1422.97,668.21 1451,664.282 1475.91,669.517C1498.49,674.262 1519.78,680.926 1541.55,686.444C1546.32,687.651 1544.41,692.543 1548.9,688.306C1549.4,687.837 1557.23,672.987 1556.99,671.138C1554.4,650.81 1552.65,629.278 1557.53,609.14C1567.35,568.668 1577.97,525.497 1586.27,484.928C1588.87,472.209 1602.35,453.476 1587.76,443.113C1576.73,435.28 1517.68,437.213 1503.74,435.979C1480.64,433.934 1456.69,434.189 1433.88,430.555C1384.58,422.7 1337.04,409.111 1289.16,396.045C1272.01,391.363 1246.72,385.954 1236.44,405.081" style="fill:rgb(228,36,68);"/>
            <path d="M1241.31,395.81L1241.46,395.481L1241.54,395.328C1241.74,395.256 1241.93,395.153 1242.11,395.017C1243.05,394.3 1243.24,392.95 1242.52,392.005C1242.24,391.633 1242.1,391.415 1242.02,391.335C1241.52,390.807 1241,390.683 1240.6,390.651C1240.01,390.607 1239.36,390.726 1238.77,391.408C1238.69,391.503 1238.53,391.772 1238.26,392.287C1236.38,395.771 1235.32,399.787 1234.6,403.974L1234.55,404.063C1234.3,404.535 1234.24,405.059 1234.34,405.544C1233.5,411.072 1233.15,416.817 1232.26,421.966C1228.94,441.166 1226.46,460.698 1225.36,480.145C1224.21,500.292 1217.05,518.969 1210.05,537.574C1202.9,556.606 1195.92,575.566 1195.32,595.85C1195.14,602.055 1193.93,609.784 1194.37,616.933C1194.68,622.071 1195.84,626.916 1198.59,630.828C1205.16,640.146 1215.66,646.177 1227.56,650.102C1244.88,655.819 1265.16,657.087 1279.78,658.117C1319.28,660.9 1357.73,668.433 1397.61,669.612C1422.78,670.356 1450.68,666.412 1475.46,671.621C1498.02,676.36 1519.28,683.018 1541.03,688.528C1542.74,688.962 1543.17,690.159 1543.65,690.765C1544.37,691.655 1545.17,692.102 1546.13,692.148C1546.97,692.188 1548.32,691.808 1550.38,689.871C1550.49,689.768 1550.88,689.265 1551.37,688.401C1552.65,686.149 1555.58,680.538 1557.41,676.452C1558.14,674.816 1558.7,673.406 1558.95,672.503C1559.15,671.772 1559.17,671.206 1559.13,670.866C1556.56,650.793 1554.8,629.532 1559.62,609.647C1569.45,569.15 1580.07,525.953 1588.38,485.359C1589.67,479.024 1593.69,471.193 1595.55,463.654C1597.64,455.207 1597.15,447.142 1589.01,441.36C1585.53,438.887 1577.53,437.202 1567.6,436.211C1545.57,434.014 1513.69,434.701 1503.93,433.837C1480.88,431.796 1456.98,432.058 1434.21,428.431C1384.99,420.589 1337.54,407.017 1289.73,393.971C1280.95,391.577 1270.1,389.023 1260.12,389.487C1253.12,389.813 1246.55,391.602 1241.31,395.81ZM1554.83,671.199C1552.22,650.678 1550.51,628.955 1555.44,608.633C1565.26,568.186 1575.87,525.042 1584.16,484.498C1585.47,478.114 1589.5,470.218 1591.38,462.621C1593.03,455.929 1592.97,449.447 1586.52,444.866C1583.38,442.639 1576.12,441.383 1567.17,440.49C1545.16,438.295 1513.31,438.984 1503.55,438.12C1480.4,436.071 1456.4,436.32 1433.54,432.678C1384.16,424.811 1336.55,411.206 1288.6,398.12C1280.21,395.832 1269.85,393.34 1260.32,393.783C1251.49,394.193 1243.37,397.168 1238.6,405.631C1237.68,411.332 1237.43,417.358 1236.5,422.699C1233.2,441.738 1230.74,461.105 1229.65,480.389C1228.48,500.975 1221.23,520.076 1214.08,539.088C1207.09,557.673 1200.2,576.169 1199.62,595.977C1199.47,601.086 1198.6,607.238 1198.57,613.235C1198.54,618.782 1199.18,624.204 1202.11,628.351C1208.17,636.947 1217.93,642.397 1228.91,646.018C1245.88,651.62 1265.76,652.818 1280.08,653.827C1319.53,656.607 1357.91,664.136 1397.74,665.313C1423.16,666.065 1451.32,662.153 1476.35,667.412C1498.96,672.164 1520.28,678.835 1542.08,684.359C1544.07,684.863 1545.22,685.836 1546.03,686.782C1546.2,686.988 1546.4,687.24 1546.57,687.468C1546.79,687.302 1547.04,687.098 1547.28,686.875C1548.18,685.422 1551.5,679.127 1553.48,674.694C1554.14,673.217 1554.73,671.516 1554.83,671.199Z" style="fill:rgb(228,36,68);"/>
        </g>
        <g transform="matrix(0.984608,0.174776,-0.174776,0.984608,-328.703,-277.149)">
            <rect x="1236.92" y="401.475" width="354.243" height="239.723" style="fill:none;stroke:black;stroke-width:14.55px;"/>
        </g>
        <g transform="matrix(0.639246,0.121628,-0.0912265,0.479464,73.3152,129.313)">
            <rect x="1189.1" y="705.503" width="341.921" height="68.788"/>
        </g>
        <g transform="matrix(1.02367,0.194772,-0.186914,0.982376,-325.795,-263.56)">
            <rect x="1189.1" y="705.503" width="341.921" height="68.788"/>
        </g>
        <g transform="matrix(1.02367,0.194772,-0.186914,0.982376,-371.472,-22.781)">
            <rect x="1189.1" y="705.503" width="341.921" height="68.788"/>
        </g>
        <g transform="matrix(1.02367,0.194772,-0.379971,1.99704,-204.97,-894.663)">
            <rect x="1189.1" y="705.503" width="341.921" height="68.788"/>
        </g>
        <g transform="matrix(1,0,0,1,-424.212,-56.2421)">
            <path d="M1476.78,440.424C1491.29,447.801 1490.49,458.615 1486.39,469.287C1485.42,471.788 1492.25,469.72 1494.05,471.699C1497.2,475.146 1501.9,482.356 1502.08,487.139C1502.44,496.609 1493.53,496.815 1491.21,502.833C1490.91,503.611 1493.26,505.003 1493.48,505.316C1496.88,510.131 1499.4,517.637 1499.96,523.385C1500.42,528.11 1494.92,529.79 1491.86,530.476C1491.8,530.49 1489.75,530.967 1489.92,531.34C1493.06,538.416 1499.38,544.52 1493.84,553.26C1492.46,555.446 1483.06,556.502 1483.01,557.688C1482.7,564.436 1489.83,569.851 1483.37,577.7C1481.92,579.455 1477.6,577.343 1476.78,579.464C1475.29,583.362 1480.65,587.324 1474.34,591.414C1469.01,594.864 1454.58,594.378 1460.19,591.883C1463.93,590.221 1461.24,600.125 1458.64,601.493C1454.5,603.678 1448.64,603.451 1444.14,602.898C1442.78,602.731 1443.64,610.829 1436.49,613.261C1432.35,614.667 1428.9,613.69 1424.99,612.186C1424.45,611.976 1419.29,609.07 1419.74,609.091C1421.25,609.16 1425.18,612.586 1423.16,614.166C1419.82,616.776 1396.68,615.964 1398.54,611.144C1398.78,610.501 1399.08,609.205 1399.72,609.452C1400.95,609.925 1398.53,614.033 1397.65,614.424C1392.44,616.742 1363.11,611.774 1370.68,602.579C1370.84,602.383 1372.83,606.847 1370.57,608.446C1366.51,611.316 1360.43,609.381 1356.32,607.799C1355.32,607.416 1351.96,605.051 1352,605.064C1352.35,605.198 1352.56,605.569 1352.75,605.892C1358.75,616.161 1339.77,618.086 1333.89,615.827C1333.11,615.527 1335.61,616.172 1336.23,616.727C1338.64,618.865 1338.85,623.624 1336.92,626.121C1333.55,630.467 1319.11,630.15 1315.14,626.879C1313.98,625.922 1318.19,626.007 1317.88,629.542C1317.52,633.516 1314.17,634.712 1310.5,634.761C1303.45,634.856 1295.43,633.035 1288.4,632.171C1286.71,631.964 1283.36,631.308 1283.36,631.308C1283.36,631.308 1294.34,638.869 1291.13,641.817C1286.48,646.092 1268.99,641.839 1265.29,637.788C1264.57,636.998 1260.69,640.529 1260.29,639.624C1255.76,629.438 1255.11,623.165 1248.57,613.261C1245.94,609.282 1236.49,587.552 1245.84,573.377C1249.39,568.01 1261.62,568.735 1263.3,570.578C1263.85,571.179 1263.13,562.821 1265.66,561.031C1267.44,559.773 1274.4,557.327 1276.15,559.249C1276.61,559.745 1270.42,555.988 1273.71,550.251C1275.58,546.982 1288.88,542.326 1291.81,546.471C1292.25,547.092 1284.61,548.35 1289.26,543.339C1289.94,542.601 1311.08,548.947 1311.97,549.925C1312.65,550.675 1310.37,553.568 1310.42,552.552C1310.68,546.76 1324.74,549.628 1324.38,552.551C1323.48,559.902 1300.6,547.957 1297.57,545.463C1295.85,544.045 1303.35,539.014 1301.31,539.919C1298.2,541.302 1290.96,541.671 1290.5,536.861C1290.13,533.047 1292.87,525.285 1297.1,524.334C1297.93,524.148 1299.93,523.971 1299.62,524.766C1297.96,529.075 1279.82,525.478 1282.31,519.009C1283.94,514.75 1293.88,503.518 1299.51,509.685C1300.47,510.739 1296.63,509.915 1295.23,509.649C1292.42,509.118 1289.56,508.658 1287.42,506.581C1282.99,502.261 1285.32,493.739 1289.37,490.046C1290.91,488.638 1293.96,486.849 1295.66,486.181C1299.3,484.749 1292.31,484.481 1293.35,480.999C1294.88,475.908 1297.91,472.625 1302.42,469.984C1304.7,468.649 1312.54,467.038 1310.13,468.112C1305.95,469.967 1300.11,465.932 1298.86,462.016C1296.28,453.874 1309.51,443.693 1316.21,442.52C1316.28,442.507 1319.07,442.431 1319.02,443.6C1318.81,448.187 1307.23,446.377 1305.7,442.934C1301.65,433.842 1316.69,425.902 1322.18,422.795C1324.48,421.494 1330.83,418.457 1329.88,420.923C1326.36,430.1 1311.7,402.657 1324.38,407.536C1325.38,407.917 1471.5,440.87 1476.78,440.424Z"/>
            <path d="M1319.04,420.125C1315.25,422.274 1309.09,425.888 1305.26,430.262C1301.54,434.505 1299.9,439.418 1302.16,444.506C1302.32,444.871 1302.53,445.235 1302.79,445.591C1301.37,446.809 1300.05,448.138 1298.91,449.536C1295.41,453.854 1293.78,458.796 1295.17,463.188C1295.7,464.857 1296.81,466.568 1298.27,468.052C1294.07,470.987 1291.21,474.658 1289.65,479.891C1289.07,481.828 1289.37,483.406 1290.18,484.707C1288.88,485.51 1287.62,486.4 1286.76,487.188C1283.65,490.024 1281.29,495.064 1281.16,499.853C1281.06,503.447 1282.17,506.865 1284.72,509.354L1284.75,509.381C1281.8,512.226 1279.47,515.593 1278.69,517.62C1277.65,520.339 1278.22,522.837 1280.02,524.988C1281.64,526.919 1284.6,528.573 1287.9,529.527C1286.9,532.306 1286.45,535.214 1286.64,537.234C1286.74,538.252 1286.99,539.157 1287.37,539.954C1286.96,540.181 1286.66,540.449 1286.42,540.708L1286.14,541.014C1285.47,541.056 1284.78,541.136 1284.09,541.25C1280.3,541.87 1276.17,543.484 1273.59,545.168C1272,546.2 1270.91,547.347 1270.35,548.329C1268.81,551.017 1268.59,553.428 1269.03,555.475C1266.64,556.173 1264.41,557.176 1263.43,557.872C1262.23,558.719 1261.22,560.197 1260.64,562.113C1260.36,563.042 1260.15,564.304 1260,565.528C1259.23,565.432 1258.4,565.371 1257.53,565.352C1254.49,565.286 1251.01,565.74 1248.15,566.919C1245.81,567.887 1243.87,569.342 1242.61,571.245C1238.37,577.67 1237.43,585.443 1238.15,592.773C1239.19,603.299 1243.63,612.803 1245.34,615.393C1251.73,625.078 1252.32,631.235 1256.75,641.196C1257.51,642.903 1259,644.084 1261.54,643.537C1262.07,643.423 1262.8,643.138 1263.6,642.691C1263.86,642.55 1264.2,642.35 1264.55,642.15C1265.2,642.585 1265.94,643.011 1266.76,643.417C1270.38,645.196 1275.74,646.727 1280.68,647.26C1286.27,647.864 1291.31,646.909 1293.75,644.667C1295.85,642.739 1296.23,639.971 1294.62,636.986C1299.96,637.821 1305.5,638.699 1310.55,638.631C1315.31,638.568 1319.44,636.907 1321.06,632.828C1323.72,633.226 1326.62,633.333 1329.33,633.058C1334.09,632.576 1338.15,630.845 1339.98,628.49C1341.47,626.559 1342.24,623.782 1342.06,621.046C1342.05,620.845 1342.03,620.644 1342.01,620.444C1344.36,620.308 1346.78,619.926 1348.93,619.251C1353.1,617.945 1356.23,615.484 1357.32,612.357L1357.34,612.277C1359.69,613.052 1362.33,613.708 1364.87,613.783C1366.73,613.837 1368.54,613.594 1370.21,612.97C1375.21,616.332 1384.81,618.491 1391.56,618.815C1395.01,618.98 1397.8,618.594 1399.22,617.961C1399.39,617.887 1399.59,617.781 1399.8,617.637C1400.3,617.826 1400.83,617.998 1401.39,618.151C1406.26,619.468 1414.14,619.807 1419.3,619.195C1422.28,618.842 1424.51,618.018 1425.54,617.215C1425.75,617.048 1425.95,616.875 1426.13,616.696C1429.95,617.918 1433.56,618.344 1437.73,616.926C1442.9,615.168 1445.47,609.956 1446.54,607.011C1451.2,607.324 1456.49,607.005 1460.45,604.918C1461.7,604.258 1463.18,602.62 1464.21,600.417C1464.61,599.558 1464.95,598.621 1465.22,597.678C1465.83,597.643 1466.46,597.59 1467.09,597.518C1470.56,597.12 1474.17,596.136 1476.44,594.662C1478.9,593.068 1480.12,591.394 1480.76,589.823C1481.46,588.092 1481.49,586.378 1481.17,584.669C1481.03,583.887 1480.8,583.107 1480.61,582.33C1481.43,582.32 1482.35,582.277 1482.92,582.16C1484.33,581.869 1485.5,581.206 1486.36,580.16C1490.69,574.897 1490.47,570.45 1489.21,566.188C1488.6,564.125 1487.53,562.153 1487.08,560.066C1488.94,559.541 1491.38,558.962 1493.16,558.242C1495.11,557.451 1496.47,556.339 1497.11,555.33C1501.34,548.651 1500.25,543.184 1497.75,537.93C1497.04,536.446 1496.2,534.984 1495.38,533.508C1497.24,532.881 1499.25,531.953 1500.75,530.626C1502.82,528.793 1504.13,526.32 1503.81,523.012C1503.2,516.669 1500.4,508.394 1496.64,503.081C1496.53,502.931 1496.35,502.703 1496.08,502.444C1496.39,502.147 1496.73,501.872 1497.07,501.598C1498.04,500.82 1499.08,500.093 1500.07,499.297C1503.39,496.63 1506.19,493.348 1505.95,486.993C1505.74,481.481 1500.54,473.062 1496.91,469.089C1496.04,468.133 1494.74,467.429 1493.12,467.11C1492.63,467.014 1491.97,466.943 1491.3,466.893C1493.14,460.743 1493.57,454.651 1491.16,449.145C1489.19,444.656 1485.35,440.44 1478.54,436.974C1477.9,436.647 1477.18,436.507 1476.46,436.567C1476.49,436.564 1476.61,436.553 1476.61,436.553C1476.61,436.553 1468.57,435.219 1459.78,433.42C1419.82,425.238 1326.56,404.227 1325.77,403.924C1322.26,402.57 1319.86,403.08 1318.38,403.987C1316.9,404.888 1315.91,406.336 1315.56,408.3C1315.15,410.636 1315.93,414.208 1317.58,417.555C1318.02,418.438 1318.51,419.305 1319.04,420.125ZM1323.56,411.289C1323.79,412.199 1324.12,413.305 1324.52,414.128C1324.98,415.055 1325.52,415.962 1326.09,416.769C1326.74,416.543 1327.34,416.365 1327.85,416.264C1329.19,416.001 1330.28,416.149 1331,416.41C1332.13,416.825 1332.89,417.562 1333.37,418.496C1333.82,419.358 1334.15,420.611 1333.5,422.312C1332.41,425.133 1330.6,426.245 1328.85,426.583C1327.58,426.826 1326.13,426.633 1324.65,425.871C1324.43,425.979 1324.24,426.078 1324.09,426.164C1321.04,427.888 1314.77,431.155 1311.08,435.362C1309.55,437.116 1308.36,439.012 1309.13,441.098L1309.22,441.138C1311.52,439.881 1313.74,439.023 1315.54,438.708C1315.64,438.689 1318.45,438.578 1320.09,439.344C1322.01,440.244 1322.97,441.827 1322.88,443.775C1322.78,446.113 1321.6,447.855 1319.61,448.986C1317.88,449.971 1315.23,450.404 1312.47,450.129C1311.63,450.046 1310.79,449.902 1309.96,449.704C1308.12,451.043 1306.34,452.671 1304.93,454.411C1303.23,456.503 1301.88,458.717 1302.55,460.844C1302.92,462.021 1304.08,463.136 1305.37,463.898C1305.76,464.132 1306.18,464.354 1306.6,464.51C1307.07,464.394 1307.53,464.292 1307.94,464.208C1309.36,463.921 1310.48,463.873 1310.9,463.92C1313.11,464.167 1313.89,465.626 1314.19,466.422C1314.41,466.986 1315.29,470.052 1311.7,471.648C1310.24,472.296 1308.65,472.533 1307.04,472.41C1305.95,472.698 1304.89,473.027 1304.38,473.324C1301.1,475.242 1298.76,477.548 1297.44,481L1298.12,481.428C1298.86,481.891 1299.39,482.396 1299.72,482.825C1300.47,483.825 1300.68,484.869 1300.56,485.885C1300.45,486.803 1300,488.631 1297.08,489.783C1295.7,490.324 1293.22,491.764 1291.98,492.904C1290.52,494.237 1289.41,496.468 1289.03,498.729C1288.71,500.582 1288.81,502.531 1290.12,503.808C1290.56,504.23 1291.04,504.545 1291.55,504.787C1295.43,503.282 1299.29,503.701 1302.37,507.075C1303.6,508.425 1303.61,509.688 1303.5,510.506C1303.34,511.665 1302.77,512.706 1301.56,513.433C1301.06,513.729 1300.21,514.064 1299.06,514.077C1297.87,514.09 1295.59,513.656 1294.51,513.452C1293.81,513.32 1293.12,513.183 1292.43,513.028C1289.54,514.933 1286.93,518.161 1286.05,520.084C1286.23,520.259 1286.52,520.529 1286.76,520.682C1287.75,521.335 1289.05,521.831 1290.4,522.187C1291.05,522.36 1291.72,522.499 1292.38,522.595C1293.57,521.575 1294.89,520.865 1296.25,520.558C1297.23,520.339 1299.08,520.222 1300.14,520.48C1301.04,520.701 1301.72,521.126 1302.2,521.572C1303.39,522.69 1304,524.156 1303.23,526.155C1302.63,527.733 1301.29,529.085 1299.18,529.835C1298.28,530.155 1297.17,530.359 1295.94,530.442C1294.85,532.445 1294.2,534.913 1294.35,536.488C1294.36,536.593 1294.48,536.604 1294.56,536.641C1294.84,536.764 1295.16,536.836 1295.48,536.884C1296.98,537.108 1298.71,536.842 1299.74,536.383C1301.94,535.404 1303.27,536.278 1303.62,536.479C1304.8,537.177 1305.46,538.22 1305.53,539.649C1305.55,540.102 1305.57,541.38 1304.35,542.671C1304.29,542.742 1304.17,542.857 1304.03,543.001C1307,543.909 1309.77,544.815 1311.51,545.471C1311.79,545.577 1312.06,545.685 1312.31,545.795C1314.72,545.163 1317.83,545.232 1320.55,545.845C1323.3,546.466 1325.61,547.674 1326.72,548.825C1328,550.148 1328.4,551.635 1328.23,553.023C1327.71,557.226 1324.07,559.493 1318.16,558.556C1316.09,558.227 1313.66,557.5 1311.18,556.573C1310.33,556.712 1309.59,556.553 1309.13,556.38C1308.49,556.138 1307.71,555.731 1307.18,554.946C1302.1,552.723 1297.41,550.105 1295.57,548.798L1295.07,548.659L1295.06,548.654C1294.58,549.456 1293.74,550.159 1292.39,550.568C1291.16,550.941 1289.1,551.098 1287.62,550.675C1286.48,550.348 1285.58,549.733 1284.95,548.957C1282.71,549.372 1280.34,550.229 1278.59,551.192C1277.97,551.53 1277.17,552.154 1277.01,552.279C1276.26,553.735 1277.23,555.077 1277.74,555.634C1278.24,555.919 1278.67,556.26 1279.01,556.64C1280.58,558.358 1280.03,559.958 1279.85,560.509C1279.6,561.276 1277.92,564.387 1274.47,562.781C1274.36,562.73 1274.18,562.622 1273.94,562.457C1273.1,562.632 1269.48,563.415 1268.19,564.028C1268.07,564.456 1267.74,565.683 1267.65,566.465C1267.38,568.872 1267.29,571.17 1267.11,571.717C1266.45,573.711 1264.99,574.228 1264.12,574.403C1263.18,574.59 1262,574.578 1260.87,573.598C1260.2,573.498 1255.79,572.872 1252.99,573.495C1251.4,573.848 1249.84,574.342 1249.07,575.509C1245.83,580.424 1245.3,586.408 1245.86,592.015C1246.73,600.893 1250.36,608.945 1251.8,611.129C1257.71,620.081 1258.95,626.114 1262.36,634.59C1263.09,634.234 1263.79,633.935 1264.18,633.87C1265.97,633.568 1267.27,634.218 1268.15,635.178C1268.76,635.853 1269.99,636.437 1271.45,637.044C1274.31,638.23 1278.04,639.19 1281.51,639.565C1283.3,639.758 1285.02,639.799 1286.48,639.595L1286.89,639.536C1286.46,639.004 1285.95,638.419 1285.52,638.009C1283.45,636.074 1281.16,634.496 1281.16,634.496C1279.65,633.456 1279.08,631.498 1279.79,629.807C1280.5,628.117 1282.3,627.157 1284.1,627.51C1284.1,627.51 1287.27,628.134 1288.87,628.33C1295.74,629.173 1303.56,630.984 1310.45,630.892C1311.21,630.881 1311.95,630.813 1312.62,630.63C1312.88,630.56 1313.12,630.468 1313.33,630.337C1313.09,630.185 1312.88,630.028 1312.68,629.866C1311.29,628.719 1311.09,627.473 1311.07,626.667C1311.04,625.366 1311.54,624.211 1312.69,623.352C1313.29,622.904 1314.36,622.397 1315.8,622.503C1317.09,622.599 1319.11,623.275 1320.43,624.939C1322.85,625.476 1325.84,625.632 1328.55,625.357C1329.96,625.214 1331.29,624.959 1332.41,624.55C1333.01,624.328 1333.56,624.133 1333.86,623.753C1334.29,623.185 1334.39,622.337 1334.34,621.533C1334.3,620.93 1334.2,620.305 1333.88,619.862C1333.37,619.738 1332.91,619.596 1332.5,619.44C1328.47,617.89 1330.31,613.933 1330.5,613.645C1330.77,613.231 1331.8,611.634 1334.21,611.907C1334.42,611.93 1335.1,612.127 1335.88,612.41C1338.46,613.121 1343.05,612.982 1346.62,611.865C1347.61,611.554 1348.52,611.169 1349.24,610.651C1349.57,610.408 1349.88,610.164 1350,609.814C1350.18,609.304 1349.93,608.742 1349.52,608.031C1345.99,605.041 1353.14,601.359 1353.38,601.452C1353.83,601.623 1354.25,601.877 1354.62,602.187C1355.33,602.696 1357.13,603.966 1357.7,604.187C1359.5,604.879 1361.73,605.671 1363.95,605.953C1364.5,606.022 1365.05,606.069 1365.59,606.062L1365.57,605.895C1365.49,604.107 1366.03,602.14 1367.69,600.119C1368.72,598.864 1370.07,598.366 1371.77,598.854C1372.21,598.983 1373.14,599.302 1373.93,600.419C1374.36,601.018 1375.5,603.5 1375.51,605.938C1375.51,606.333 1375.49,606.723 1375.43,607.104C1375.9,607.363 1376.41,607.607 1376.95,607.842C1380.97,609.599 1386.48,610.686 1390.87,611.017C1392.29,611.125 1393.57,611.205 1394.56,611.158C1394.62,610.701 1394.74,610.233 1394.92,609.755C1395.19,609.069 1395.59,607.984 1396.05,607.367C1396.49,606.782 1397,606.36 1397.52,606.075C1398.59,605.49 1399.78,605.327 1401.11,605.84C1402.82,606.495 1404.2,608.162 1403.9,610.727C1404.59,610.925 1405.35,611.111 1406.03,611.217C1409.4,611.741 1413.49,611.881 1416.79,611.655C1415.76,610.495 1415.82,609.319 1415.85,608.858C1415.91,607.864 1416.3,607.037 1416.97,606.362C1417.46,605.868 1418.34,605.153 1419.91,605.224C1420.62,605.256 1421.56,605.48 1422.54,605.997C1423.3,606.394 1424.12,606.991 1424.87,607.689L1426.49,608.614C1429.47,609.758 1432.08,610.67 1435.24,609.597C1437.33,608.887 1438.25,607.337 1438.78,605.978C1439.33,604.551 1439.58,603.221 1439.85,602.431C1440.87,599.425 1443.03,598.863 1444.61,599.057C1448.3,599.51 1453.09,599.889 1456.56,598.209C1456.69,597.987 1457.06,597.343 1457.36,596.709C1455.3,595.576 1454.9,593.656 1455.09,592.336C1455.21,591.415 1455.83,589.589 1458.62,588.346C1460.85,587.355 1462.5,587.857 1463.67,588.666C1464.12,588.981 1464.55,589.397 1464.9,589.921C1465.35,589.904 1465.8,589.875 1466.21,589.827C1468.43,589.573 1470.78,589.108 1472.23,588.166C1472.97,587.69 1473.45,587.347 1473.6,586.879C1473.71,586.518 1473.58,586.164 1473.51,585.809C1473.37,585.17 1473.18,584.533 1473.03,583.899C1472.55,581.945 1472.43,580.006 1473.17,578.075C1473.95,576.044 1475.54,574.939 1477.79,574.642C1478.57,574.539 1480.11,574.552 1480.89,574.567C1482.94,571.613 1482.11,569.132 1481.23,566.706C1480.14,563.714 1479,560.725 1479.14,557.512C1479.19,556.471 1479.92,554.406 1482.64,553.367C1484.03,552.834 1486.56,552.265 1488.78,551.579C1489.48,551.363 1490.44,550.954 1490.81,550.792C1492.93,547.162 1492.14,544.153 1490.76,541.261C1489.43,538.48 1487.65,535.774 1486.38,532.912C1485.85,531.714 1485.87,530.468 1486.62,529.221C1486.92,528.731 1487.48,528.068 1488.42,527.58C1489.27,527.142 1490.94,526.716 1491.01,526.7C1492.18,526.438 1493.83,526.03 1495.13,525.193C1495.64,524.862 1496.18,524.471 1496.11,523.758C1495.62,518.74 1493.49,512.221 1490.56,507.897C1489.9,507.34 1488.29,505.923 1487.86,505.11C1487.16,503.794 1487.18,502.528 1487.6,501.444C1488.8,498.333 1491.21,496.292 1493.82,494.337C1495.94,492.752 1498.36,491.256 1498.21,487.285C1498.07,483.414 1494.24,477.768 1491.56,474.723C1491.09,474.678 1489.97,474.577 1489.32,474.563C1487.29,474.519 1485.51,474.16 1484.6,473.597C1483.54,472.938 1482.89,472.033 1482.59,470.95C1482.36,470.132 1482.3,469.121 1482.77,467.898C1484.85,462.501 1486.18,457.08 1484.07,452.249C1482.74,449.221 1480.05,446.534 1475.6,444.168L1475.6,444.168C1472.79,443.821 1466.6,442.717 1458.22,441.003C1419.55,433.085 1331.44,413.183 1323.56,411.289ZM1265.76,567.579L1265.95,567.756L1265.93,567.733L1265.76,567.579ZM1265.65,567.493L1265.71,567.541L1265.7,567.526L1265.65,567.493Z"/>
        </g>
        <g transform="matrix(1,0,0,1,-424.212,-56.2421)">
            <path d="M1350.37,442.86C1339.89,455.474 1326.83,477.443 1326.83,514.237C1326.83,562.747 1349.94,587.115 1367.16,596.367C1372.01,598.972 1376.39,600.379 1379.66,600.789C1406.5,604.152 1445.89,580.984 1459.65,538.611C1468.29,512.018 1482.29,446.588 1459.65,441.92C1378.71,425.231 1379.66,421.152 1379.66,421.152C1369.68,422.87 1353.25,431.294 1350.37,442.86Z" style="fill:white;"/>
            <path d="M1346.86,441.034C1348.38,435.998 1351.99,431.438 1356.62,427.704C1363.47,422.179 1372.5,418.457 1379.01,417.338C1377.4,417.614 1376.19,418.847 1375.87,420.369L1375.88,420.349C1375.88,420.349 1379.66,425.022 1379.66,425.022L1379.83,425.008C1380.56,424.927 1383.44,424.411 1383.53,421.269C1383.54,421.056 1383.55,420.64 1383.36,420.021C1383.3,419.837 1383.21,419.597 1383.05,419.31C1382.97,419.179 1382.37,418.498 1382.37,418.498C1382.37,418.498 1396.85,425.019 1460.43,438.129C1468.63,439.819 1473.5,447.668 1475.1,459.309C1478.28,482.311 1469.51,520.788 1463.33,539.807C1448.9,584.233 1407.32,608.155 1379.18,604.629C1375.56,604.175 1370.7,602.66 1365.33,599.776C1347.36,590.124 1322.96,564.846 1322.96,514.237C1322.96,476.777 1336.11,454.188 1346.86,441.034ZM1378.68,425.299C1382.36,427.315 1397.38,433.032 1458.87,445.71C1461.2,446.19 1462.91,447.676 1464.2,449.8C1465.86,452.512 1466.85,456.144 1467.44,460.366C1470.47,482.391 1461.89,519.205 1455.97,537.415C1442.87,577.735 1405.68,600.148 1380.14,596.948C1377.22,596.583 1373.32,595.285 1368.99,592.957C1352.51,584.106 1330.7,560.649 1330.7,514.237C1330.7,478.729 1343.24,457.506 1353.35,445.332C1353.72,444.885 1353.99,444.359 1354.12,443.795C1355.09,439.932 1357.96,436.564 1361.48,433.73C1366.7,429.524 1373.4,426.532 1378.68,425.299ZM1375.79,421.108L1375.79,421.117L1375.79,421.097L1375.79,421.108ZM1375.8,420.924L1375.8,421.008L1375.81,420.794L1375.8,420.924Z"/>
        </g>
        <g transform="matrix(1,0,0,1,-424.212,-56.2421)">
            <path d="M1403.89,564.538C1403.82,564.659 1403.37,565.344 1403.04,565.757C1401.93,567.148 1400.48,568.623 1399.67,569.569C1398.65,570.769 1397.19,572.555 1395.62,573.958C1394.94,574.566 1394.28,575.138 1393.59,575.346C1389.93,576.465 1385.57,574.618 1381.98,571.902C1378.32,569.124 1375.32,565.299 1375.09,561.687C1374.95,559.555 1373.11,557.934 1370.98,558.069C1368.85,558.204 1367.23,560.045 1367.36,562.176C1367.71,567.672 1371.73,573.846 1377.31,578.072C1382.97,582.361 1390.07,584.517 1395.85,582.749C1399.29,581.701 1403.32,577.218 1405.56,574.601C1406.57,573.413 1408.5,571.439 1409.73,569.752C1410.59,568.577 1411.14,567.442 1411.36,566.568C1411.88,564.496 1410.61,562.394 1408.54,561.878C1406.52,561.375 1404.48,562.56 1403.89,564.538Z"/>
        </g>
        <g transform="matrix(1,0,0,1,-424.212,-56.2421)">
            <path d="M1420.98,518.579C1420.64,516.676 1418.91,515.288 1416.93,515.41C1414.8,515.541 1413.18,517.379 1413.31,519.511C1413.42,521.214 1414.29,522.961 1415.88,524.461C1418.05,526.505 1421.78,528.193 1423.57,528.923C1430.96,531.923 1441.28,529.937 1448.03,525.881C1449.57,524.957 1450.83,523.407 1451.88,521.647C1452.31,520.94 1452.71,520.202 1453.12,519.52C1453.38,519.087 1453.55,518.62 1453.89,518.414C1455.72,517.313 1456.31,514.934 1455.21,513.103C1454.11,511.272 1451.73,510.68 1449.9,511.78C1448.52,512.612 1447.31,514.117 1446.27,515.907C1445.79,516.712 1445.34,517.579 1444.81,518.349C1444.58,518.698 1444.37,519.053 1444.04,519.248C1439.19,522.166 1431.8,523.911 1426.49,521.751C1425.55,521.372 1423.88,520.669 1422.43,519.751C1421.92,519.43 1421.21,518.792 1420.98,518.579Z"/>
        </g>
        <g transform="matrix(1,0,0,1,-424.212,-56.2421)">
            <path d="M1409.09,523.455C1407.5,523.605 1406.11,524.737 1405.7,526.372C1405.18,528.445 1406.45,530.547 1408.52,531.063C1410.22,531.487 1412.41,530.955 1414.41,529.138C1416.13,527.569 1418.48,524.173 1419.07,523.301C1419.44,523.017 1419.76,522.662 1420.01,522.241C1421.1,520.408 1420.51,518.029 1418.67,516.933C1417.82,516.424 1415.7,515.598 1413.66,517.703C1413.18,518.194 1412.21,519.637 1411.08,521.176C1410.54,521.912 1409.52,523.007 1409.09,523.455ZM1415.99,524.061L1415.99,524.062L1415.99,524.061ZM1415.71,524.002L1415.75,524.011L1415.63,523.979L1415.71,524.002ZM1415.45,523.923L1415.54,523.952L1415.41,523.909L1415.24,523.847L1415.45,523.923ZM1415.19,523.825L1415.23,523.84L1415.11,523.79L1415.19,523.825ZM1414.94,523.709L1414.99,523.735L1414.91,523.691L1414.94,523.709Z"/>
        </g>
        <g transform="matrix(1,0,0,1,-424.212,-56.2421)">
            <path d="M1423.65,529.251L1423.71,530.758C1423.65,531.933 1423.55,533.563 1422.79,534.454C1421.4,536.077 1421.59,538.522 1423.21,539.911C1424.84,541.299 1427.28,541.109 1428.67,539.486C1430.44,537.414 1431.29,533.76 1431.45,531.099C1431.46,530.81 1431.34,527.89 1431.25,527.438C1430.78,525.051 1428.93,524.545 1428.48,524.418C1427.21,524.067 1425.83,524.172 1424.58,525.535C1424.45,525.681 1423.66,526.352 1423.55,528.079C1423.52,528.483 1423.56,528.877 1423.65,529.251ZM1431.25,528.818C1431.2,529.179 1431.11,529.524 1430.97,529.846C1431.1,529.578 1431.2,529.24 1431.25,528.818Z"/>
        </g>
        <g transform="matrix(1,0,0,1,-424.212,-56.2421)">
            <path d="M1439.64,528.88C1440.1,529.493 1440.24,530.312 1440.45,531.111C1440.71,532.106 1440.97,533.111 1441.32,534.045C1442.19,536.374 1443.59,538.306 1446.14,539.425C1448.1,540.283 1450.39,539.391 1451.24,537.434C1452.1,535.478 1451.21,533.193 1449.25,532.336C1448.91,532.187 1448.79,531.873 1448.66,531.572C1448.4,530.952 1448.23,530.268 1448.05,529.586C1447.54,527.631 1446.94,525.712 1445.81,524.215C1444.53,522.51 1442.1,522.172 1440.39,523.459C1438.69,524.746 1438.35,527.175 1439.64,528.88Z"/>
        </g>
        <g transform="matrix(1,0,0,1,-424.212,-56.2421)">
            <path d="M1450.57,521.069C1450.71,521.283 1451.9,523.093 1452.67,523.801C1455.85,526.72 1460.03,526.706 1463.93,525.827C1466.02,525.357 1467.33,523.285 1466.86,521.201C1466.39,519.117 1464.32,517.806 1462.24,518.275C1461.42,518.459 1460.58,518.62 1459.75,518.633C1459.09,518.643 1458.43,518.582 1457.9,518.098C1457.59,517.813 1457.42,517.366 1457.17,516.999C1456.64,516.209 1456.05,515.514 1455.37,514.999C1453.67,513.709 1451.24,514.043 1449.95,515.745C1448.69,517.405 1448.98,519.757 1450.57,521.069Z"/>
        </g>
        <g transform="matrix(1,0,0,1,-424.212,-56.2421)">
            <path d="M1385.17,508.724C1379.13,511.545 1375.52,513.432 1371.41,513.095C1368.74,512.876 1365.93,511.7 1362.09,509.499C1360.85,508.788 1359.21,507.764 1357.88,506.511C1357.12,505.794 1356.31,505.093 1356.29,504.19C1356.25,502.054 1354.48,500.354 1352.34,500.396C1350.21,500.438 1348.51,502.206 1348.55,504.342C1348.6,506.694 1349.68,508.984 1351.44,510.974C1353.39,513.183 1356.19,515.037 1358.24,516.213C1363.37,519.156 1367.21,520.517 1370.77,520.809C1376.01,521.239 1380.76,519.329 1388.44,515.736C1390.38,514.832 1391.22,512.527 1390.31,510.592C1389.41,508.656 1387.1,507.82 1385.17,508.724Z"/>
        </g>
        <g transform="matrix(1,0,0,1,-424.212,-56.2421)">
            <path d="M1383.34,514.764C1381.43,519.865 1382.03,525.648 1385.53,530.345C1386.81,532.058 1389.23,532.414 1390.94,531.138C1392.66,529.863 1393.01,527.436 1391.74,525.723C1389.89,523.236 1389.58,520.173 1390.59,517.473C1391.33,515.472 1390.32,513.241 1388.32,512.493C1386.31,511.746 1384.08,512.763 1383.34,514.764Z"/>
        </g>
        <g transform="matrix(1,0,0,1,-424.212,-56.2421)">
            <path d="M1369.67,518.695C1368.46,521.251 1368.02,526.589 1368.31,529.539C1368.52,531.665 1370.41,533.222 1372.54,533.013C1374.67,532.805 1376.22,530.91 1376.02,528.784C1375.83,526.943 1375.92,523.592 1376.67,521.998C1377.58,520.066 1376.75,517.758 1374.82,516.846C1372.89,515.935 1370.58,516.764 1369.67,518.695Z"/>
        </g>
        <g transform="matrix(1,0,0,1,-424.212,-56.2421)">
            <path d="M1354.65,513.575C1354.26,514.079 1353.69,514.806 1353.47,515.116C1352.31,516.706 1351.31,518.466 1349.77,519.724C1348.12,521.077 1347.87,523.517 1349.23,525.17C1350.58,526.824 1353.02,527.068 1354.67,525.715C1356.72,524.037 1358.18,521.791 1359.73,519.67C1360.33,518.845 1361.88,516.727 1362.01,516.359C1362.83,514.159 1361.72,512.795 1361.07,512.174C1360.69,511.813 1358.56,509.832 1355.8,512.044C1355.28,512.465 1354.89,512.994 1354.65,513.575ZM1360.31,518.32C1360.07,518.477 1359.81,518.604 1359.55,518.699C1359.79,518.62 1360.04,518.5 1360.31,518.32ZM1360.46,518.221L1360.32,518.314L1360.42,518.25L1360.46,518.221Z"/>
        </g>
        <g transform="matrix(1,0,0,1,-424.212,-56.2421)">
            <path d="M1346.47,504.368C1345.58,504.569 1344.46,504.618 1343.6,504.703C1341.47,504.911 1339.91,506.806 1340.12,508.932C1340.33,511.058 1342.23,512.615 1344.35,512.406C1345.67,512.277 1347.41,512.136 1348.71,511.787C1348.93,511.726 1350.62,510.97 1351.27,510.679C1351.76,510.614 1352.26,510.45 1352.72,510.18C1354.56,509.1 1355.18,506.727 1354.1,504.884C1353.56,503.955 1352.49,502.822 1350.42,502.944C1350.08,502.964 1349.55,503.05 1348.91,503.278C1348.27,503.509 1346.91,504.155 1346.47,504.368Z"/>
        </g>
        <g transform="matrix(1,0,0,1,-424.212,-56.2421)">
            <path d="M1465.22,435.791C1464.69,435.104 1465.22,437.599 1465.21,437.759C1465.1,438.899 1464.95,440.037 1464.72,441.16C1464.09,444.341 1461.69,447.627 1459.31,449.729C1457.02,451.759 1453.17,453.74 1450.08,453.613C1448.73,453.558 1447.53,453.427 1446.26,452.977C1445.81,452.819 1444.66,452.096 1445.14,452.105C1447.42,452.145 1448.41,455.178 1448.17,456.989C1447.81,459.841 1444.29,466.545 1441.25,467.165C1438.07,467.811 1432.93,466.425 1429.91,465.542C1428.28,465.067 1428.48,465.146 1427.1,464.072C1426.72,463.781 1425.53,463.042 1425.97,463.199C1431.88,465.287 1425.13,474.248 1422.24,475.631C1416.93,478.168 1408.4,475.571 1403.2,473.733C1402.77,473.581 1404.07,474.077 1404.39,474.393C1404.89,474.868 1405.99,476.621 1406.26,477.197C1407.35,479.461 1407.27,482.911 1405.35,484.766C1402.02,487.98 1396.76,488.58 1392.44,487.321C1391.24,486.97 1389.56,486.469 1388.5,485.688C1387.95,485.293 1386.81,483.638 1387.1,484.243C1388.97,488.148 1388.12,494.614 1384.59,497.409C1380.75,500.457 1371.83,499.576 1367.75,497.891C1365.95,497.145 1364.27,496.161 1362.91,494.75C1362.26,494.075 1361.34,491.773 1361.03,492.657C1360.67,493.675 1361.76,494.719 1361.82,495.797C1362.1,500.808 1357.2,503.276 1353.15,504.166C1350.04,504.849 1346.46,503.223 1343.67,502.008C1343.37,501.877 1339.52,499.945 1341.38,499.055C1342.11,498.706 1343.13,505.298 1341.76,506.62C1338.21,510.047 1330.77,509.689 1326.47,508.169C1324.29,507.398 1317.09,502.256 1320.42,499.037C1321.75,497.761 1323.72,501.512 1322.14,502.264C1320.07,503.256 1316.4,501.268 1314.79,500.144C1309.12,496.188 1308.7,485.943 1311.81,480.274C1312.89,478.309 1315.38,476.543 1317.29,475.542C1318.24,475.047 1319.72,474.615 1320.79,474.396C1321.22,474.309 1322.26,474.529 1322.08,474.135C1319.54,468.833 1317.68,461.183 1321.72,455.654C1324.92,451.279 1330.05,451.466 1334.74,453.123C1335.38,453.348 1333.35,452.989 1332.76,452.661C1332.11,452.302 1330.62,451.123 1330.17,450.555C1325.67,444.985 1330.91,436.378 1336.99,434.624C1338.35,434.229 1344.64,433.708 1345.36,435.199C1345.6,435.711 1342.78,435.466 1342.65,435.435C1340.98,435.01 1338.33,434.079 1338.95,431.747C1340.43,426.272 1346.82,422.741 1352.09,424.238C1352.37,424.32 1355.7,425.182 1355.9,425.585C1356.16,426.142 1354.65,425.562 1354.05,425.41C1352.84,425.101 1351.08,424.794 1351.25,423.229C1351.52,420.815 1355.78,419.616 1357.72,419.082C1368.1,416.218 1376.53,422.468 1386.02,425.268C1405.37,430.98 1424.35,433.866 1444.38,434.689C1450.53,434.941 1454.47,438.968 1459.83,440.859C1461.65,441.503 1465.21,442.291 1466.85,441.198C1468.09,440.371 1467.66,438.602 1468.19,438.096"/>
            <path d="M1348.38,420.106C1342.52,420.659 1336.79,424.877 1335.22,430.741C1335.18,430.885 1335.14,431.026 1335.12,431.166C1331.41,432.51 1327.99,435.678 1326.14,439.451C1324.67,442.423 1324.17,445.698 1324.99,448.745C1322.57,449.474 1320.37,450.942 1318.6,453.371C1314.71,458.697 1315.05,465.649 1316.89,471.507C1316.38,471.696 1315.9,471.902 1315.49,472.114C1313,473.424 1309.83,475.843 1308.41,478.413C1306.15,482.552 1305.36,488.688 1306.64,493.981C1307.57,497.836 1309.56,501.215 1312.58,503.319C1313.69,504.095 1315.57,505.156 1317.49,505.803C1319.67,508.673 1323.5,511.225 1325.18,511.818C1328.26,512.907 1332.69,513.498 1336.65,512.912C1339.71,512.46 1342.49,511.299 1344.45,509.405C1345,508.881 1345.51,508.069 1345.86,507.026C1348.51,507.93 1351.39,508.514 1353.98,507.946C1358.14,507.033 1362.64,504.659 1364.64,500.716C1365.17,500.988 1365.72,501.237 1366.27,501.467C1369.12,502.647 1374.01,503.526 1378.43,503.243C1381.83,503.026 1384.93,502.079 1387,500.441C1389.46,498.49 1391.1,495.32 1391.68,491.895C1391.73,491.649 1391.76,491.402 1391.79,491.155C1397.29,492.616 1403.83,491.607 1408.03,487.551C1410,485.652 1410.86,482.717 1410.77,479.904C1411.97,480.145 1413.19,480.332 1414.39,480.442C1417.87,480.762 1421.21,480.414 1423.91,479.123C1426.07,478.089 1429.98,473.952 1431.49,469.972C1434.89,470.809 1439.15,471.54 1442.02,470.957C1443.59,470.637 1445.36,469.549 1446.91,467.804C1449.53,464.857 1451.69,459.974 1452.01,457.485L1452.03,457.351C1455.55,456.82 1459.42,454.798 1461.88,452.628C1464.03,450.728 1466.14,448.024 1467.44,445.169C1468.02,444.976 1468.54,444.723 1469,444.418C1470.5,443.418 1471.33,440.896 1471.61,439.908C1472.37,438.469 1472.16,436.644 1470.97,435.409C1470.36,434.776 1469.59,434.396 1468.78,434.273C1468.65,433.976 1468.49,433.691 1468.28,433.425C1467.09,431.878 1465.78,431.808 1465.11,431.801C1463.68,431.788 1462.31,432.346 1461.5,434.093C1461.32,434.477 1461.1,435.149 1461.11,436.042C1461.12,436.329 1461.17,436.815 1461.23,437.249L1461.12,437.21C1458.62,436.328 1456.46,434.923 1454.2,433.734C1451.29,432.201 1448.23,430.974 1444.54,430.822C1424.83,430.012 1406.16,427.176 1387.12,421.557C1382.42,420.171 1377.99,417.924 1373.44,416.385C1368.13,414.588 1362.69,413.696 1356.69,415.351C1354.96,415.829 1351.81,416.834 1349.93,418.387C1349.31,418.907 1348.79,419.484 1348.38,420.106ZM1458.83,444.608L1458.54,444.509C1456.19,443.68 1454.08,442.494 1451.98,441.331C1449.6,440.021 1447.26,438.681 1444.22,438.556C1423.87,437.72 1404.59,434.783 1384.92,428.98C1380.13,427.566 1375.6,425.288 1370.96,423.717C1367.09,422.406 1363.13,421.605 1358.75,422.813L1358.64,422.843C1359.02,423.229 1359.25,423.615 1359.39,423.916C1360.06,425.31 1359.82,426.398 1359.52,427.166C1359.16,428.057 1358.54,428.794 1357.57,429.272C1357.06,429.52 1356.28,429.761 1355.28,429.672C1354.69,429.62 1353.63,429.295 1353.1,429.161C1351.95,428.868 1350.56,428.441 1349.58,427.747C1347.42,427.692 1345.2,428.774 1343.83,430.513C1344.44,430.582 1345.01,430.684 1345.48,430.828C1347.27,431.377 1348.34,432.469 1348.85,433.53C1349.65,435.203 1349.32,436.615 1348.3,437.825C1347.87,438.336 1346.99,439.066 1345.58,439.293C1344.35,439.492 1341.85,439.224 1341.7,439.186C1340.89,438.98 1339.93,438.669 1339.04,438.239C1338.59,438.259 1338.23,438.292 1338.06,438.342C1335.99,438.941 1334.11,440.772 1333.08,442.866C1332.24,444.579 1331.92,446.567 1333.18,448.123C1333.33,448.307 1333.67,448.602 1334.01,448.854C1334.69,449.029 1335.36,449.238 1336.03,449.473C1339.67,450.76 1338.65,454.083 1338.5,454.505C1338.25,455.188 1337.51,456.904 1335.08,457.056C1334.65,457.082 1331.85,456.578 1330.89,456.052C1328.61,455.611 1326.37,455.854 1324.85,457.938C1321.67,462.288 1323.57,468.294 1325.57,472.466C1326.13,473.643 1326.03,474.625 1325.79,475.401C1325.56,476.142 1325.14,476.795 1324.48,477.323C1324.07,477.654 1323.5,477.979 1322.74,478.141C1322.45,478.204 1321.7,478.23 1321.33,478.239C1320.6,478.399 1319.69,478.655 1319.09,478.969C1317.77,479.662 1315.95,480.775 1315.2,482.135C1313.74,484.799 1313.34,488.76 1314.16,492.167C1314.63,494.112 1315.49,495.909 1317.01,496.97L1317.05,497C1317.26,496.746 1317.48,496.497 1317.74,496.252C1318.9,495.131 1320.19,494.811 1321.44,494.923C1322.68,495.034 1324.05,495.708 1325.08,496.986C1326.08,498.241 1326.68,500.086 1326.58,501.571C1326.54,502.279 1326.37,502.933 1326.1,503.517C1326.76,504.001 1327.37,504.383 1327.76,504.52C1329.84,505.256 1332.84,505.651 1335.52,505.255C1336.6,505.095 1337.64,504.832 1338.47,504.31L1338.37,502.967C1338.07,502.643 1337.83,502.316 1337.65,502.007C1336.92,500.753 1336.85,499.494 1337.2,498.361C1337.5,497.4 1338.14,496.314 1339.71,495.563C1341.04,494.927 1344.1,494.669 1345.45,498.198C1345.5,498.326 1345.54,498.468 1345.59,498.623C1346.75,499.131 1348.04,499.698 1349.37,500.081C1350.36,500.369 1351.37,500.594 1352.32,500.386C1353.8,500.06 1355.45,499.492 1356.69,498.503C1357.38,497.955 1357.92,497.245 1357.96,496.279C1357.81,495.951 1357.47,495.194 1357.35,494.776C1356.99,493.63 1356.98,492.494 1357.38,491.368C1357.91,489.844 1358.88,489.231 1359.65,488.905C1360.57,488.514 1361.58,488.443 1362.66,488.854C1363.19,489.057 1363.92,489.477 1364.57,490.285C1364.9,490.695 1365.64,491.918 1365.79,492.166C1366.77,493.135 1367.96,493.791 1369.23,494.314C1371.27,495.158 1374.77,495.721 1377.93,495.518C1379.59,495.412 1381.18,495.178 1382.19,494.378C1383.25,493.532 1383.8,492.074 1384.05,490.59C1384.33,488.952 1384.23,487.215 1383.61,485.911C1382.02,482.586 1384.76,480.962 1385.16,480.739C1385.85,480.352 1387.54,479.568 1389.47,481.076C1389.62,481.192 1390.66,482.36 1390.92,482.662C1391.66,483.134 1392.76,483.38 1393.53,483.606C1396.57,484.494 1400.31,484.247 1402.66,481.981C1403.44,481.223 1403.21,479.792 1402.77,478.865C1402.65,478.61 1402.1,477.788 1401.8,477.355C1401.48,477.196 1401.06,476.984 1401.03,476.968C1400.36,476.536 1400.05,476.083 1399.9,475.86C1399.04,474.576 1399.15,473.42 1399.41,472.577C1399.71,471.577 1400.45,470.056 1402.77,469.849C1402.84,469.843 1403.42,469.706 1404.49,470.083C1407.36,471.097 1411.33,472.388 1415.1,472.734C1417.09,472.917 1419.02,472.879 1420.57,472.139C1421.55,471.67 1423.04,469.792 1423.93,467.977C1424.09,467.651 1424.24,467.177 1424.33,466.822C1423.74,466.359 1422.91,465.691 1422.8,465.534C1421.45,463.752 1422.03,462.187 1422.45,461.376C1422.71,460.889 1424.03,458.406 1427.26,459.55C1428.7,460.058 1429.75,460.804 1430.5,461.678C1430.62,461.72 1430.78,461.765 1430.99,461.827C1433.48,462.552 1437.63,463.858 1440.3,463.403C1440.49,463.238 1441.33,462.457 1441.77,461.856C1443.06,460.088 1444.17,457.787 1444.34,456.493C1444.34,456.45 1444.34,456.398 1444.33,456.34C1443.71,456.025 1442.96,455.557 1442.57,455.209C1441.86,454.572 1441.53,453.891 1441.38,453.468C1440.84,451.942 1441.23,450.702 1442,449.726C1442.46,449.141 1443.34,448.202 1445.2,448.235C1446.73,448.262 1448.04,448.787 1449.11,449.669C1449.48,449.71 1449.85,449.73 1450.24,449.746C1452.44,449.837 1455.12,448.276 1456.75,446.83C1457.46,446.203 1458.18,445.445 1458.83,444.608Z"/>
        </g>
        <g transform="matrix(1,0,0,1,-424.212,-56.2421)">
            <path d="M1412.43,593.976C1412.17,601.173 1409.52,611.875 1414.41,617.887C1430.89,638.158 1455.23,633.611 1469.64,646.313C1478.68,654.287 1480.58,672.92 1478.46,672.92C1470.77,672.92 1258.88,633.044 1258.88,633.044C1257.76,612.171 1278.36,601.645 1297.07,601.073C1305.71,600.809 1313.81,603.029 1322.39,603.383C1326.92,603.569 1331.86,601.825 1335.97,603.102C1345.46,606.053 1349.31,582.462 1349.53,582.722C1355.67,590.039 1370.03,597.562 1376.15,598.942C1395.84,603.383 1408.48,596.524 1412.43,593.976Z" style="fill:white;"/>
            <path d="M1416.3,594.118C1416.36,592.677 1415.6,591.326 1414.35,590.612C1413.1,589.899 1411.55,589.941 1410.34,590.723C1406.71,593.063 1395.08,599.244 1377,595.166C1371.37,593.896 1358.14,586.97 1352.49,580.234C1351.71,579.302 1350.78,578.946 1349.86,578.865C1349.06,578.794 1348.15,578.927 1347.24,579.595C1347.1,579.697 1346.05,580.483 1345.59,582.404C1345.1,584.412 1343.64,591.528 1340.79,596.352C1340.2,597.348 1339.56,598.239 1338.82,598.876C1338.33,599.306 1337.78,599.612 1337.12,599.407C1335.02,598.755 1332.76,598.667 1330.42,598.844C1327.83,599.041 1325.12,599.622 1322.55,599.516C1313.87,599.158 1305.69,596.938 1296.95,597.205C1276.18,597.839 1253.77,610.076 1255.02,633.252C1255.11,635.033 1256.41,636.517 1258.16,636.847C1258.16,636.847 1470.75,676.79 1478.46,676.79C1479.71,676.79 1480.92,676.326 1481.88,675.069C1482.38,674.411 1482.97,673.096 1483.09,671.155C1483.44,665.483 1480.37,650.61 1472.2,643.409C1466.01,637.956 1458.17,635.358 1449.79,632.94C1438.78,629.759 1426.72,626.891 1417.41,615.446C1415.51,613.11 1415.29,609.812 1415.36,606.451C1415.44,602.148 1416.17,597.698 1416.3,594.118ZM1351.59,590.021C1359.15,596.15 1370.04,601.533 1375.29,602.717C1390.07,606.048 1401.16,603.446 1408.01,600.618L1408.01,600.617C1407.74,603.425 1407.52,606.362 1407.66,609.15C1407.89,613.393 1408.95,617.311 1411.41,620.329C1420.21,631.159 1431.06,635.456 1441.69,638.645C1451.07,641.462 1460.28,643.224 1467.08,649.216C1471.36,652.987 1473.68,659.543 1474.74,664.718C1475.01,666.02 1475.15,667.476 1475.22,668.672C1449.46,664.934 1287.48,634.488 1262.76,629.835C1263.82,613.309 1281.46,605.422 1297.19,604.941C1305.74,604.68 1313.74,606.9 1322.23,607.25C1324.68,607.351 1327.25,606.955 1329.76,606.681C1331.52,606.488 1333.25,606.311 1334.82,606.798C1338.95,608.083 1342.53,606.552 1345.4,603.195C1348.25,599.865 1350.29,594.357 1351.59,590.021Z"/>
        </g>
    </g>
</svg>
