<?xml version="1.0" encoding="UTF-8" standalone="no"?>
<!DOCTYPE svg PUBLIC "-//W3C//DTD SVG 1.1//EN" "http://www.w3.org/Graphics/SVG/1.1/DTD/svg11.dtd">
<svg width="100%" height="100%" viewBox="0 0 896 830" version="1.1" xmlns="http://www.w3.org/2000/svg" xmlns:xlink="http://www.w3.org/1999/xlink" xml:space="preserve" xmlns:serif="http://www.serif.com/" style="fill-rule:evenodd;clip-rule:evenodd;stroke-linecap:round;stroke-linejoin:round;stroke-miterlimit:1.5;">
    <g id="Layer1">
        <g transform="matrix(1,0,0,1,-647.625,-234.205)">
            <rect x="679.044" y="264.494" width="854.725" height="788.384" style="fill:rgb(227,11,95);"/>
        </g>
        <g transform="matrix(0.892714,0,0,0.892269,-529.185,-165.86)">
            <rect x="679.044" y="264.494" width="854.725" height="788.384" style="fill:white;"/>
        </g>
        <g transform="matrix(1,0,0,1,-658.687,-222.098)">
            <path d="M1248.2,454.323C1248.75,455.245 1250.11,457.626 1250.74,459.725C1254.89,473.567 1249.82,484.815 1243.11,495.307C1236.93,504.955 1229.25,514.022 1222.59,523.175C1215.99,532.249 1210.28,544.499 1208.57,555.606C1208.32,557.267 1208.12,567.825 1208.88,572.957C1209.68,578.297 1211.86,581.822 1213.11,583.41C1218.6,590.439 1225.38,591.564 1231.7,590.241C1234.53,589.65 1242.4,588.059 1246.17,576.746C1247.74,572.042 1247.31,567.149 1245.34,562.994L1245.27,560.433C1246.29,555.035 1249.32,549.306 1252.5,544.927C1261.59,532.428 1272.26,519.957 1279.47,506.347C1288.48,489.355 1292.67,470.798 1286.16,449.098C1280.7,430.899 1270.37,422.38 1259.79,418.96C1249.23,415.548 1236.99,417.286 1225.43,423.79C1207.26,434.013 1191.34,456.447 1189.38,475.06C1188.31,485.209 1195.69,494.316 1205.84,495.383C1215.99,496.45 1225.09,489.076 1226.16,478.927C1227.06,470.384 1235.22,460.713 1243.56,456.021C1244.92,455.259 1247.23,454.585 1248.2,454.323Z" style="fill:rgb(238,155,9);"/>
        </g>
        <g transform="matrix(1,0,0,1,-658.687,-222.098)">
            <path d="M1217.26,609.674C1217.04,610.976 1216.68,613.342 1216.68,614.879C1216.68,625.084 1224.96,633.37 1235.17,633.37C1244.92,633.37 1252.92,625.809 1253.61,616.233C1253.83,614.85 1254.27,611.913 1254.2,610.048C1253.83,599.849 1245.26,591.867 1235.06,592.234C1225.43,592.58 1217.78,600.24 1217.26,609.674Z" style="fill:rgb(238,155,9);"/>
        </g>
        <g transform="matrix(1,0,0,1,-658.687,-222.098)">
            <path d="M1249.09,838.886C1249.4,840.235 1249.89,842.852 1249.63,845.169C1248.72,853.358 1243.78,860.124 1239.36,867.146C1233.45,876.522 1228.19,886.187 1228.19,897.777C1228.19,902.287 1231.85,905.948 1236.36,905.948C1240.87,905.948 1244.53,902.287 1244.53,897.777C1244.53,889.399 1248.91,882.633 1253.18,875.855C1258.94,866.724 1264.69,857.622 1265.88,846.973C1267.71,830.447 1259.13,822.829 1251.32,822.013C1244.11,821.259 1233.84,826.456 1228.98,841.187C1227.57,845.47 1229.9,850.093 1234.18,851.505C1238.46,852.917 1243.09,850.586 1244.5,846.304C1244.84,845.278 1245.21,844.33 1245.62,843.459C1245.96,842.739 1246.32,842.074 1246.7,841.468C1247.33,840.462 1248.37,839.49 1249.09,838.886Z" style="fill:rgb(238,155,9);"/>
        </g>
        <g transform="matrix(1,0,0,1,-658.687,-222.098)">
            <path d="M1239.52,928.225C1237.84,929.721 1236.89,931.517 1236.41,933.369C1235.62,936.374 1236.18,940.091 1238.56,943.473C1240.72,946.543 1244.5,949.348 1248.14,950.457C1252.04,951.641 1255.81,951.107 1258.75,949.13C1263.65,945.835 1266.31,938.237 1264.98,931.141C1263.53,923.369 1257.93,917.388 1250.25,917.388C1246.74,917.388 1243.68,918.979 1241.55,922.311C1240.62,923.768 1239.9,925.874 1239.52,928.225Z" style="fill:rgb(238,155,9);"/>
        </g>
        <g transform="matrix(1,0,0,1,-658.687,-222.098)">
            <path d="M848.939,744.399C848.957,744.205 849.393,739.578 850.164,736.307L850.234,736.034L850.39,737.335C851.256,745.328 850.331,754.781 849.777,763.116C849.258,770.911 849.125,777.888 850.214,782.593C851.028,786.107 852.517,788.776 854.374,790.633C857.672,793.932 860.984,793.822 864.053,792.425C865.105,791.947 866.241,791.176 867.254,789.964C867.869,789.227 869.075,786.918 869.363,786.358C871.709,782.785 870.898,777.948 867.431,775.348C866.888,774.94 866.31,774.611 865.712,774.359C865.702,774.157 865.697,773.959 865.695,773.767C865.653,768.845 866.196,762.844 866.6,756.645C867.142,748.3 867.413,739.636 866.197,732.359C865.186,726.307 863.124,721.102 859.89,717.221C856.527,713.185 852.956,712.177 849.954,712.262C846.822,712.35 843.606,713.774 840.92,716.978C838.15,720.282 835.686,726.507 834.259,732.558C832.848,738.547 832.432,744.281 832.726,746.415C833.342,750.882 837.469,754.009 841.936,753.393C846.331,752.788 849.429,748.783 848.939,744.399Z" style="fill:rgb(238,155,9);"/>
        </g>
        <g transform="matrix(1,0,0,1,-658.687,-222.098)">
            <path d="M868.664,818.881C869,820.102 869.554,821.345 870.359,822.579C872.573,825.973 876.979,829.278 881.144,830.214C885.679,831.235 889.975,830.114 893.13,826.391C899.143,819.293 895.479,808.759 888.216,803.814C882.973,800.243 876.895,800.195 872.813,803.099C870.245,804.925 867.711,808.211 867.441,814.204C867.364,815.916 867.82,817.528 868.664,818.881Z" style="fill:rgb(238,155,9);"/>
        </g>
        <g transform="matrix(1,0,0,1,-83.7954,-104.738)">
            <path d="M634.178,355.99C633.664,352.21 635.271,348.149 637.767,344.14C642.468,336.591 650.582,329.491 659.346,324.885C671.554,318.47 685.72,316.232 690.879,329.988C699.772,353.704 684.051,371.042 669.748,387.778C661.19,397.792 652.792,407.568 647.909,417.707C642.236,429.485 640.869,441.765 647.688,455.402C649.662,459.352 654.471,460.955 658.421,458.98C662.37,457.005 663.973,452.196 661.998,448.247C656.764,437.778 659.554,428.599 665.069,419.685C669.541,412.456 675.722,405.415 681.912,398.173C699.947,377.069 717.075,354.275 705.86,324.37C696.872,300.401 673.174,299.544 651.904,310.722C640.599,316.662 630.248,325.946 624.185,335.683C619.505,343.199 617.36,351.059 618.324,358.145C618.918,362.52 622.953,365.589 627.328,364.995C631.703,364.4 634.773,360.365 634.178,355.99Z"/>
        </g>
        <g transform="matrix(1,0,0,1,-83.7954,-104.738)">
            <path d="M649.439,475.835C645.643,478.255 644.055,482.579 645.986,487.906C647.187,491.218 650.417,495.155 654.082,497.119C657.831,499.128 661.868,499.3 665.345,497.561C670.507,494.98 672.475,490.559 672.289,485.66C672.103,480.74 668.934,475.177 665.578,472.455C661.437,469.098 656.927,469.155 653.741,470.945C652.315,471.746 650.558,473.195 649.439,475.835Z"/>
        </g>
        <g transform="matrix(1,0,0,1,-83.7954,-104.738)">
            <path d="M655.282,779.034C653.019,782.159 653.295,786.558 656.111,789.374C659.233,792.496 664.302,792.496 667.425,789.374C668.811,787.988 670.316,785.236 671.194,781.553C671.727,779.32 672.165,776.58 672.675,774.043C672.957,772.643 673.104,771.305 673.574,770.521C678.24,762.744 684.973,756.152 689.731,748.862C695.768,739.612 699.152,729.466 695.151,716.128C691.011,702.328 680.673,696.307 671.499,696.502C661.894,696.705 652.209,703.47 650.304,717.908C649.727,722.285 652.812,726.308 657.189,726.885C661.567,727.463 665.59,724.378 666.167,720C666.762,715.493 668.839,712.562 671.838,712.498C675.261,712.426 678.281,715.577 679.825,720.726C682.769,730.538 678.589,737.39 673.567,744.009C669.043,749.971 663.778,755.75 659.854,762.289C658.658,764.283 657.655,767.537 656.944,771.114C656.41,773.8 655.48,778.121 655.282,779.034Z"/>
        </g>
        <g transform="matrix(1,0,0,1,-83.7954,-104.738)">
            <path d="M672.443,807.278C671.539,806.341 670.394,805.613 669.064,805.201C664.847,803.895 660.362,806.258 659.055,810.475C658.055,813.702 658.088,820.034 659.985,824.429C661.572,828.105 664.276,830.593 667.447,831.606C670.415,832.555 674.398,832.606 679.082,829.094C683.888,825.489 684.568,821.29 683.917,817.743C683.144,813.53 679.23,809.386 674.787,807.851C674,807.58 673.216,807.39 672.443,807.278Z"/>
        </g>
        <g transform="matrix(1,0,0,1,-83.7954,-104.738)">
            <path d="M294.341,653.818C294.33,653.35 294.353,652.937 294.432,652.699C296.867,645.395 300.99,635.443 302.493,625.742C303.713,617.871 303.23,610.151 299.934,603.559C294.532,592.755 283.552,588.496 274.893,589.914C269.699,590.764 265.224,593.536 262.443,597.956C259.971,601.884 258.693,607.342 260.372,614.387C261.396,618.682 265.714,621.338 270.009,620.315C274.304,619.291 276.96,614.973 275.936,610.678C275.471,608.723 275.27,607.217 276.119,606.302C276.709,605.667 277.665,605.598 278.604,605.651C281.266,605.799 284.051,607.571 285.623,610.714C288.053,615.575 287.252,621.512 285.89,627.314C284.142,634.757 281.122,642.034 279.253,647.639C278.1,651.098 277.954,658.82 280.133,663.366C281.531,666.284 283.686,668.281 286.211,669.307C288.759,670.342 291.97,670.646 295.861,668.701C299.811,666.726 301.414,661.917 299.439,657.967C298.373,655.835 296.48,654.386 294.341,653.818Z"/>
        </g>
        <g transform="matrix(1,0,0,1,-83.7954,-104.738)">
            <path d="M303.882,685.089C303.18,684.801 302.424,684.61 301.63,684.533C297.235,684.106 293.321,687.328 292.894,691.723C292.36,697.223 296.076,702.001 301.46,703.588C306.62,705.109 312.288,703.274 314.972,698.801C317.291,694.935 316.766,691.86 316.05,689.96C315.016,687.217 312.948,685.331 310.102,684.537C308.6,684.118 306.245,684.192 303.882,685.089Z"/>
        </g>
        <g transform="matrix(1,0,0,1,-83.7954,-104.738)">
            <path d="M427.011,595.744C426.576,595.426 425.896,594.903 425.436,594.424C423.118,592.013 420.48,586.499 420.295,586.111C420.381,584.098 418.89,582.332 416.857,582.106C414.734,581.87 412.819,583.402 412.583,585.525C412.467,586.569 412.698,588.199 413.462,590.077C414.666,593.033 417.21,597.035 419.856,599.789C421.781,601.791 423.847,603.125 425.552,603.551C427.748,604.099 429.691,603.618 431.273,602.037C432.783,600.527 432.783,598.074 431.273,596.564C430.121,595.412 428.422,595.138 427.011,595.744Z"/>
        </g>
        <g transform="matrix(1,0,0,1,-83.7954,-104.738)">
            <path d="M437.547,585.194C437.258,584.749 436.308,583.235 435.886,582.039C434.991,579.499 434.441,576.424 434.351,573.907C434.31,572.726 434.281,571.707 434.552,571.103C435.427,569.154 434.556,566.862 432.607,565.987C430.658,565.112 428.366,565.983 427.491,567.932C426.943,569.152 426.588,571.068 426.599,573.359C426.619,577.64 427.804,583.48 429.714,587.303C431.553,590.983 434.33,592.883 436.918,592.883C439.054,592.883 440.788,591.149 440.788,589.013C440.788,587.091 439.384,585.494 437.547,585.194Z"/>
        </g>
        <g transform="matrix(1,0,0,1,-83.7954,-104.738)">
            <path d="M443.863,583.923C442.136,584.529 441.032,586.3 441.326,588.173C441.657,590.283 443.639,591.727 445.749,591.396C448.665,590.938 450.629,588.88 451.475,585.635C452.501,581.693 451.457,575.292 451.457,573.391C451.457,571.255 449.723,569.521 447.587,569.521C445.451,569.521 443.716,571.255 443.716,573.391C443.716,574.635 444.271,577.983 444.244,581.111C444.236,582.02 443.977,583.37 443.863,583.923Z"/>
        </g>
        <g transform="matrix(1,0,0,1,-83.7954,-104.738)">
            <path d="M461.928,579.088C461.771,579.591 461.583,580.184 461.541,580.285C460.688,582.331 459.335,585.305 457.591,587.704C457.014,588.497 456.417,589.243 455.761,589.792C455.201,589.048 454.372,588.503 453.385,588.318C451.286,587.924 449.261,589.308 448.867,591.408C448.468,593.537 449.349,595.508 451.22,596.8C453.042,598.057 455.911,598.406 457.936,597.496C460.088,596.529 462.131,594.622 463.851,592.257C465.97,589.343 467.65,585.748 468.686,583.262C468.818,582.944 469.479,581.283 469.746,579.886C469.97,578.715 469.911,577.637 469.697,576.899C469.102,574.845 467.726,573.712 465.494,573.712C463.358,573.712 461.624,575.446 461.624,577.582C461.624,578.116 461.732,578.625 461.928,579.088ZM465.284,581.447L465.29,581.447L465.224,581.442L465.284,581.447ZM465.07,581.429L465.085,581.431L465.07,581.429Z"/>
        </g>
        <g transform="matrix(1,0,0,1,-83.7954,-104.738)">
            <path d="M517.699,562.618C517.523,564.434 517.96,567.251 519.008,570.251C520.457,574.402 523.034,578.924 525.926,581.481C529.012,584.208 532.482,584.993 535.807,583.33C537.718,582.375 538.494,580.048 537.538,578.138C536.583,576.227 534.256,575.452 532.346,576.407C532.102,576.529 531.898,576.303 531.664,576.152C531.014,575.732 530.41,575.096 529.831,574.362C527.218,571.056 525.165,565.824 525.403,563.363C525.609,561.237 524.05,559.344 521.923,559.138C519.797,558.933 517.904,560.492 517.699,562.618Z"/>
        </g>
        <g transform="matrix(1,0,0,1,-83.7954,-104.738)">
            <path d="M532.526,550.976C532.375,555.518 531.673,561.572 532.874,566.416C533.923,570.645 536.241,574.082 540.641,575.842C542.624,576.635 544.878,575.669 545.671,573.686C546.465,571.702 545.499,569.448 543.515,568.655C541.026,567.659 540.36,565.249 540.059,562.694C539.609,558.874 540.151,554.588 540.262,551.233C540.334,549.098 538.658,547.307 536.523,547.236C534.388,547.165 532.597,548.841 532.526,550.976Z"/>
        </g>
        <g transform="matrix(1,0,0,1,-83.7954,-104.738)">
            <path d="M550.238,559.963C550.258,560.09 550.3,560.401 550.296,560.6C550.285,561.212 550.162,561.876 549.98,562.553C549.503,564.33 548.61,566.171 547.648,567.473C547.395,567.816 546.94,568.275 546.829,568.384C544.958,569.19 544.019,571.33 544.727,573.267C545.461,575.273 547.685,576.306 549.691,575.573C550.719,575.197 551.927,574.377 553.058,573.089C554.813,571.09 556.594,567.77 557.455,564.562C558.541,560.52 557.925,556.713 555.864,554.652C554.353,553.142 551.901,553.142 550.391,554.652C548.933,556.11 548.882,558.445 550.238,559.963Z"/>
        </g>
        <g transform="matrix(1,0,0,1,-83.7954,-104.738)">
            <path d="M344.497,613.029C373.169,707.012 442.003,750.508 487.16,765.183C501.574,769.867 513.721,771.624 521.68,771.317C526.291,771.139 529.826,770.221 532.167,769.028C563.249,753.192 669.758,663.61 605.065,536.639C567.495,462.902 519.187,437.265 474.993,440.078C408.765,444.293 349.681,513.955 344.503,589.881C344.319,592.569 342.351,605.259 342.441,607.504C342.543,610.068 343.373,611.828 344.497,613.029ZM358.723,604.73C359.256,600.83 360.341,592.792 360.466,590.97C365.096,523.081 416.792,459.815 476.009,456.046C515.447,453.535 557.283,478.102 590.809,543.902C649.492,659.078 553.098,740.407 524.903,754.772C523.577,755.448 521.282,755.432 518.291,755.325C511.657,755.086 502.6,753.377 492.105,749.966C449.57,736.144 384.701,694.56 358.723,604.73Z"/>
        </g>
        <g transform="matrix(1,0,0,1,-83.7954,-104.738)">
            <path d="M513.214,681.909C480.563,687.351 508.327,710.497 517.717,708.932C525.534,707.629 539.616,677.509 513.214,681.909Z"/>
            <path d="M511.898,674.018C497.374,676.439 491.873,682.8 490.319,688.248C488.661,694.063 490.962,700.866 496.15,706.427C500.324,710.9 506.187,714.544 511.065,716.068C514.062,717.004 516.828,717.191 519.033,716.823C522.912,716.177 528.47,712.058 532.127,705.658C534.624,701.29 536.355,696.051 536.521,691.368C536.671,687.116 535.596,683.241 533.32,680.174C530.026,675.736 523.656,672.059 511.898,674.018ZM520.463,689.841C520.489,689.975 520.518,690.144 520.525,690.261C520.561,690.837 520.499,691.443 520.39,692.06C520.049,693.991 519.23,695.98 518.236,697.719C517.655,698.735 516.595,699.995 515.936,700.734C515.081,700.445 513.75,699.952 512.855,699.438C510.247,697.94 506.865,693.757 505.986,692.636C506.344,692.376 506.878,692.016 507.341,691.798C509.13,690.956 511.5,690.305 514.529,689.8C517.021,689.385 519.779,689.739 520.463,689.841Z"/>
        </g>
        <g transform="matrix(1,0,0,1,-83.7954,-104.738)">
            <path d="M439.488,583.615C436.011,582.764 433.197,584.014 430.954,586.606C429.54,588.24 428.516,591.716 428.221,592.897C426.916,598.118 425.492,612.4 428.633,621.594C430.177,626.113 432.759,629.607 436.12,631.685C439.726,633.916 444.423,634.885 450.562,632.839C457.081,630.666 461.769,622.868 462.242,612.984C462.628,604.932 460.503,595.841 456.85,590.261C454.505,586.681 451.494,584.307 448.267,583.231C444.929,582.118 442.014,582.454 439.488,583.615Z"/>
        </g>
        <g transform="matrix(1,0,0,1,-83.7954,-104.738)">
            <path d="M533.396,571.69C532.144,572.655 530.965,573.934 530.317,574.906C528.498,577.636 526.958,582.215 526.32,587.561C525.487,594.544 526.07,602.879 528.305,608.976C530.52,615.017 534.434,619.094 539.172,620.577C542.578,621.643 546.68,621.594 551.454,619.207C556.072,616.898 559.6,612.269 561.397,606.234C563.482,599.231 563.235,590.257 560.831,583.134C557.235,572.478 549.219,566.172 539.05,568.714C536.862,569.261 534.967,570.268 533.396,571.69Z"/>
        </g>
        <g transform="matrix(1,0,0,1,-83.7954,-104.738)">
            <path d="M369.984,660.934C365.814,662.977 354.312,632.245 353.484,627.252C349.181,601.301 353.348,551.105 369.984,517.833C402.33,453.14 466.978,424.534 529.182,458.317C625.487,510.621 607.422,569.175 616.305,610.628C617.304,615.289 606.943,491.395 484.807,529.683C462.848,536.566 403.45,549.088 388.726,570.123C374.078,591.048 374.78,658.536 369.984,660.934Z"/>
            <path d="M606.579,600.369C603.272,585.763 594.543,560.197 573.156,544.235C555.001,530.685 527.757,524.602 487.2,537.316C474.139,541.41 447.712,547.494 425.512,556.228C412.293,561.429 400.494,567.261 395.28,574.71C391.092,580.693 388.563,591.018 386.574,602.252C383.251,621.016 381.926,642.265 380.288,653.711C379.526,659.037 378.397,662.762 377.421,664.412C376.264,666.369 374.826,667.457 373.562,668.089C373.542,668.099 373.523,668.109 373.503,668.118C370.532,669.574 364.837,669.636 360.289,663.418C354.629,655.679 346.326,632.989 345.591,628.561C341.096,601.45 345.449,549.013 362.829,514.255C397.361,445.189 466.592,415.22 533,451.287C624.292,500.868 617.148,555.522 622.254,597.402C623.262,601.789 623.828,605.288 624.101,607.464C624.407,609.902 624.338,611.389 624.3,611.699C623.865,615.24 621.813,616.678 621.04,617.237C618.998,618.714 616.822,619.07 614.566,618.555C613.919,618.407 609.642,617.716 608.482,612.304C607.659,608.463 607.06,604.479 606.579,600.369ZM600.053,548.623C595.25,542.385 589.527,536.488 582.726,531.412C561.516,515.582 529.797,507.195 482.414,522.049C469.124,526.215 442.245,532.451 419.654,541.339C403.011,547.887 388.738,556.156 382.172,565.535C376.388,573.798 372.486,588.586 369.999,604.372C368.103,616.408 366.954,629.035 365.932,639.099C363.556,633.243 361.676,627.752 361.376,625.944C357.265,601.151 361.246,553.197 377.139,521.41C407.3,461.09 467.364,433.847 525.364,465.348C575.552,492.605 593.1,521.523 600.053,548.623Z"/>
        </g>
        <g transform="matrix(1,0,0,1,-83.7954,-104.738)">
            <path d="M446.417,406.535C444.667,406.34 440.238,405.893 438.33,406.094C435.458,406.396 433.401,407.601 432.109,408.893C429.092,411.91 431.872,421.037 431.872,421.037C431.872,421.037 431.229,419.767 431.086,419.193C432.289,424.007 435.046,429.776 437.365,435.666C439.011,439.847 440.61,444.066 440.06,447.888C439.432,452.259 442.469,456.317 446.84,456.946C449.628,457.347 452.29,456.256 454.013,454.276C455.254,455.071 456.73,455.532 458.312,455.532C462.727,455.532 466.312,451.947 466.312,447.532C466.312,442.685 466.768,423.949 466.012,414.755C465.708,411.057 464.981,408.377 464.386,407.187C463.341,405.098 460.996,402.209 456.063,402.73C454.671,402.877 448.913,405.412 446.417,406.535ZM450.401,422.099C449.994,422.267 449.71,422.374 449.607,422.394C449.466,422.423 449.314,422.449 449.154,422.471L449.769,423.94L450.471,425.583L450.441,423.654L450.401,422.099Z"/>
        </g>
        <g transform="matrix(1,0,0,1,-83.7954,-104.738)">
            <path d="M442.718,425.22L447.663,440.901C447.767,441.796 448.027,442.688 448.453,443.54C449.831,446.297 451.756,447.044 452.462,447.349C455.086,448.485 457.398,448.14 459.412,447.065C459.901,446.804 464.609,444.265 463.474,438.219C463.058,436.005 459.743,423.73 457.27,418.471C455.423,414.54 452.707,412.756 451.34,412.247C447.202,410.706 442.592,412.815 441.052,416.953C439.957,419.895 440.706,423.075 442.718,425.22ZM459.529,432.989C460.758,433.678 461.816,434.697 462.556,435.997C461.573,434.234 460.361,433.413 459.529,432.989Z"/>
        </g>
        <g transform="matrix(1,0,0,1,-83.7954,-104.738)">
            <path d="M436.431,413.142C437.042,413.93 431.34,411.457 430.737,411.306C425.256,409.935 420.294,409.384 415.597,405.358C405.326,396.554 389.729,378.255 388.563,364.266C386.729,342.256 407.038,330.577 405.324,313.442C403.437,294.571 381.529,289.591 379.912,271.809C378.229,253.295 397.466,242.662 403.162,227.473C405.895,220.185 403.561,195.102 412.353,190.706C420.093,186.836 429.091,197.699 432.359,202.601C438.316,211.538 447.215,219.226 450.201,230.176C452.254,237.703 452.379,246.425 456.149,253.426C469.891,278.947 493.281,258.97 502.648,290.192C513.404,326.048 462.519,325.905 487.509,365.888C495.855,379.242 483.834,390.578 474.532,398.329C471.591,400.78 468.862,403.415 465.881,405.899C465.043,406.597 462.637,409.757 462.637,409.143"/>
            <path d="M428.454,418.983C429.424,419.353 433.646,420.948 434.747,421.148C436.818,421.523 438.318,421.109 439.127,420.82C442.184,419.728 443.628,417.589 444.23,415.217C444.618,413.687 444.996,411.136 442.757,408.245C441.34,406.414 439.283,405.367 437.144,405.177C435.752,404.652 433.017,403.629 432.677,403.544C428.427,402.482 424.446,402.406 420.804,399.284C415.126,394.418 407.681,386.405 402.402,377.988C399.329,373.087 396.911,368.104 396.536,363.602C395.59,352.253 402.007,344.284 406.563,336.398C410.973,328.765 414.14,321.195 413.285,312.646C412.135,301.149 405.338,293.617 398.131,286.518C393.562,282.017 388.504,277.952 387.879,271.085C387.234,263.982 391.025,258.558 395.099,253.287C400.907,245.773 407.538,238.587 410.652,230.282C412.395,225.634 412.413,214.204 413.996,204.772C414.308,202.915 414.693,201.159 415.244,199.638C415.465,199.027 415.943,198.171 416.146,197.819C416.449,197.826 416.726,198.154 417.046,198.315C417.752,198.671 418.435,199.14 419.095,199.658C421.983,201.924 424.401,205.086 425.702,207.039C428.769,211.639 432.578,215.929 436.02,220.467C438.747,224.064 441.265,227.814 442.483,232.281C444.69,240.373 445.052,249.692 449.105,257.218C456.027,270.074 464.841,273.829 473.743,276.143C478.968,277.502 484.345,277.769 488.702,281.381C491.298,283.534 493.335,286.989 494.985,292.491C499.294,306.855 490.329,313.661 483.717,321.228C478.612,327.07 474.312,333.213 472.966,340.845C471.624,348.45 473.023,357.806 480.725,370.128C483.639,374.792 481.842,378.984 479.124,382.604C476.383,386.256 472.687,389.453 469.411,392.183C466.47,394.634 463.74,397.269 460.76,399.753C460.273,400.159 458.872,401.69 458.082,402.569C456,404.013 454.637,406.42 454.637,409.143C454.637,412.864 456.554,414.754 458.218,415.866C459.736,416.88 461.666,417.531 464.108,417.096C464.946,416.947 466.295,416.59 467.759,415.46C468.399,414.966 470.834,412.288 471.226,411.855C474.12,409.429 476.787,406.864 479.654,404.475C484.99,400.028 491,394.455 494.586,388.177C499.11,380.253 500.335,371.317 494.293,361.648C489.662,354.24 487.999,348.741 488.649,344.089C489.09,340.933 490.611,338.32 492.432,335.843C494.922,332.456 497.988,329.336 500.832,326.03C509.063,316.466 515.658,305.719 510.31,287.893C507.337,277.981 503.026,272.269 498.295,268.566C493.624,264.908 488.386,263.208 482.908,261.892C476.084,260.253 468.56,259.6 463.193,249.633C459.706,243.157 459.818,235.033 457.919,228.071C454.702,216.275 445.433,207.79 439.015,198.163C436.602,194.543 431.567,188.362 425.933,184.961C420.409,181.626 414.381,180.748 408.776,183.551C404.422,185.727 401.049,190.531 399.279,197.139C397.664,203.169 397.174,210.925 396.648,217.358C396.397,220.426 396.26,223.093 395.671,224.664C393.089,231.549 387.254,237.273 382.44,243.502C375.891,251.975 370.907,261.118 371.945,272.533C372.77,281.612 377.436,288.237 383.256,294.267C385.927,297.034 388.837,299.676 391.432,302.564C394.323,305.781 396.872,309.313 397.364,314.238C398.052,321.113 393.736,326.675 390.018,332.945C384.594,342.09 379.517,352.048 380.591,364.93C381.148,371.62 384.28,379.206 388.847,386.488C395.028,396.345 403.743,405.733 410.391,411.432C416.047,416.28 421.881,417.352 428.454,418.983ZM428.514,414.275C428.627,415.271 428.972,416.443 429.852,417.692C429.124,416.642 428.682,415.47 428.514,414.275ZM468.306,403.501C469.64,404.841 470.503,406.652 470.621,408.661C470.506,406.174 469.472,404.581 468.306,403.501Z"/>
        </g>
        <g transform="matrix(1,0,0,1,-658.687,-222.098)">
            <path d="M1476.59,976.006C1477.52,977.322 1479.06,978.18 1480.79,978.18C1482.77,978.18 1483.89,977.413 1484.49,976.921C1485.75,975.879 1486.33,974.58 1486.4,973.113C1486.45,972.175 1486.32,970.078 1483.99,968.294C1479.14,964.582 1432.13,945.744 1425.89,942.971C1403.36,932.956 1380.16,923.369 1358.62,911.062C1348.99,905.56 1338.97,897.945 1328.53,891.244C1317.4,884.102 1305.79,878.017 1293.77,876.013C1279.81,873.687 1264.38,875.8 1248.75,879.004C1233.92,882.043 1218.9,886.045 1204.87,887.623C1191.91,889.081 1179.83,888.527 1169.81,882.441C1159.75,876.33 1152,864.707 1147.11,844.801C1146.43,842.036 1143.63,840.342 1140.86,841.022C1138.1,841.702 1136.4,844.499 1137.09,847.265C1142.85,870.729 1152.6,884.059 1164.46,891.262C1176.36,898.49 1190.63,899.611 1206.02,897.879C1220.34,896.268 1235.68,892.217 1250.82,889.114C1265.15,886.177 1279.28,884.061 1292.07,886.193C1302.78,887.978 1313.04,893.569 1322.95,899.929C1333.55,906.729 1343.73,914.44 1353.5,920.023C1375.34,932.502 1398.85,942.247 1421.7,952.402C1427.16,954.832 1469.13,972.814 1476.59,976.006Z"/>
        </g>
        <g transform="matrix(1,0,0,1,-658.687,-222.098)">
            <path d="M1045.97,872.255C1045.91,871.958 1045.82,871.663 1045.7,871.373C1045.34,870.466 1045.16,870.022 1045.13,869.954C1044.22,867.963 1042.87,867.531 1042.71,867.452C1040.72,866.47 1039.07,866.872 1037.77,867.653C1036.96,868.137 1035.09,869.359 1035.27,872.383C1035.27,872.425 1035.28,873.052 1035.66,874.089C1036.29,875.794 1040.94,887.717 1040.94,892.583C1040.94,894.068 1040.06,895.731 1038.91,897.579C1037.33,900.136 1035.09,902.84 1032.56,905.527C1024.6,913.978 1013.74,922.187 1009.1,924.838C991.188,935.074 970.753,939.941 951.512,945.618C931.031,951.661 911.88,958.661 897.803,972.738C895.789,974.752 895.789,978.022 897.803,980.036C899.817,982.05 903.087,982.05 905.101,980.036C917.99,967.147 935.681,961.049 954.432,955.517C974.424,949.618 995.61,944.434 1014.22,933.799C1020.2,930.385 1035.55,918.668 1044.22,907.86C1048.65,902.335 1051.26,896.838 1051.26,892.583C1051.26,887.696 1047.57,876.749 1045.97,872.255Z"/>
        </g>
        <g transform="matrix(1,0,0,1,-663.082,-247.656)">
            <rect x="679.044" y="264.494" width="854.725" height="788.384" style="fill:none;stroke:black;stroke-width:15.77px;"/>
        </g>
        <g transform="matrix(0.897498,0,0,0.893732,-549.132,-183.066)">
            <rect x="679.044" y="264.494" width="854.725" height="788.384" style="fill:none;stroke:black;stroke-width:17.61px;"/>
        </g>
        <g transform="matrix(1,0,0,1,-658.687,-222.098)">
            <path d="M992.128,772.526C991.658,773.129 991.317,773.845 991.151,774.644C990.773,776.472 991.179,777.91 991.75,778.96C992.664,780.641 994.175,781.606 995.776,781.912C998.342,782.401 1001.99,781.377 1002.75,776.844C1003.53,772.119 999.407,769.623 997.241,769.538C995.692,769.477 994.19,769.996 992.977,771.325C992.698,771.631 992.391,772.023 992.128,772.526Z" style="fill:rgb(227,11,95);"/>
        </g>
        <g transform="matrix(1,0,0,1,-658.687,-222.098)">
            <path d="M991.508,795.635C991.108,797.302 991.547,799.131 992.832,800.446C994.191,801.837 995.431,801.966 996.047,802.034C997.776,802.225 999.12,801.661 1000.2,800.627C1000.68,800.171 1001.75,796.038 1001.75,796.038C1001.75,796.038 1001.77,796.285 1001.77,796.406C1001.77,793.558 999.459,791.246 996.611,791.246C994.024,791.246 991.88,793.152 991.508,795.635ZM998.214,791.966C998.867,792.19 999.483,792.55 1000.02,793.044C999.361,792.427 998.735,792.124 998.214,791.966Z" style="fill:rgb(227,11,95);"/>
        </g>
        <g transform="matrix(1,0,0,1,-658.687,-222.098)">
            <path d="M1008.09,807.108C1008.11,807.144 1010.04,810.08 1010.84,810.471C1011.33,810.709 1013.63,810.975 1013.63,810.975C1013.63,810.975 1013.48,810.986 1013.36,810.986C1016.21,810.986 1018.52,808.674 1018.52,805.826C1018.52,803.868 1017.43,802.163 1015.82,801.289C1014.55,800.477 1012.94,800.223 1011.4,800.734C1008.75,801.615 1007.29,804.448 1008.09,807.108ZM1008.09,807.108L1008.09,807.108C1008.09,807.108 1008.11,807.197 1008.13,807.258L1008.09,807.108Z" style="fill:rgb(227,11,95);"/>
        </g>
        <g transform="matrix(1,0,0,1,-658.687,-222.098)">
            <path d="M1014.94,788.513C1014.74,786.684 1013.56,785.02 1011.74,784.282C1009.1,783.214 1006.09,784.49 1005.02,787.13C1004.31,788.901 1004.56,791.247 1005.3,792.46C1006.09,793.738 1007.37,795.025 1009.96,795.025C1012.8,795.025 1015.12,792.712 1015.12,789.864C1015.12,789.397 1015.05,788.943 1014.94,788.513ZM1010.27,784.714C1011.14,784.766 1011.95,785.033 1012.65,785.463C1012.05,785.052 1011.28,784.761 1010.27,784.714Z" style="fill:rgb(227,11,95);"/>
        </g>
        <g transform="matrix(1,0,0,1,-658.687,-222.098)">
            <path d="M1025.09,787.064C1022.43,786.756 1019.94,788.558 1019.43,791.232C1018.58,795.742 1022.11,797.467 1023.79,797.749C1025.41,798.019 1027.22,797.661 1028.67,795.986C1029.24,795.325 1030.03,794.171 1030.03,792.219C1030.03,789.444 1027.84,787.177 1025.09,787.064ZM1019.72,791.934L1019.72,791.939L1019.72,791.904L1019.72,791.934Z" style="fill:rgb(227,11,95);"/>
        </g>
        <g transform="matrix(1,0,0,1,-658.687,-222.098)">
            <path d="M1012.37,772.637C1010.85,774.657 1011.01,777.544 1012.85,779.383C1014.86,781.397 1018.13,781.397 1020.15,779.383C1019.91,779.619 1019.69,779.769 1019.69,779.769C1019.69,779.769 1021.38,777.961 1021.65,777.15C1021.81,776.691 1022.14,775.993 1021.79,774.314C1021.2,771.527 1018.46,769.742 1015.68,770.329C1014.25,770.63 1013.09,771.493 1012.37,772.637ZM1011.65,774.52C1011.55,774.938 1011.5,775.531 1011.69,776.444C1011.55,775.791 1011.55,775.141 1011.65,774.52Z" style="fill:rgb(227,11,95);"/>
        </g>
        <g transform="matrix(1,0,0,1,-658.687,-222.098)">
            <path d="M1122.34,752.132C1120.9,751.735 1119.3,751.966 1117.99,752.898C1115.55,754.63 1115.75,756.712 1115.74,757.019C1115.69,758.724 1116.3,760.198 1117.85,761.333C1118.1,761.511 1121.39,762.306 1121.39,762.306C1121.39,762.306 1121.27,762.316 1121.17,762.316C1124.01,762.316 1126.33,760.003 1126.33,757.155C1126.33,754.713 1124.62,752.664 1122.34,752.132ZM1126.02,758.193C1125.76,759.41 1125.06,760.537 1123.96,761.314C1125.47,760.24 1125.9,759.01 1126.02,758.193Z" style="fill:rgb(227,11,95);"/>
        </g>
        <g transform="matrix(1,0,0,1,-658.687,-222.098)">
            <path d="M1128.26,772.405C1127.42,771.256 1126.11,770.458 1124.58,770.313C1121.75,770.044 1119.23,772.127 1118.96,774.962C1118.73,777.378 1119.48,778.572 1120.04,779.294C1120.66,780.089 1121.74,781.418 1124.83,781.418C1127.68,781.418 1129.99,779.105 1129.99,776.257C1129.99,774.726 1129.32,773.349 1128.26,772.405ZM1125.02,771.102C1124.96,771.099 1124.89,771.097 1124.83,771.097L1125.02,771.102Z" style="fill:rgb(227,11,95);"/>
        </g>
        <g transform="matrix(1,0,0,1,-658.687,-222.098)">
            <path d="M1132.29,761.638C1131.38,764.077 1132.44,766.861 1134.82,768.051C1137.37,769.325 1140.47,768.291 1141.74,765.743C1141.61,766.01 1141.36,766.352 1141.36,766.352C1141.36,766.352 1142.64,763.545 1142.54,762.487C1142.45,761.584 1142.23,760.375 1140.83,759.064C1138.75,757.121 1135.48,757.234 1133.54,759.316C1132.9,759.993 1132.49,760.796 1132.29,761.638ZM1132.4,764.419C1132.56,765.033 1132.89,765.709 1133.59,766.414C1133.03,765.832 1132.63,765.148 1132.4,764.419Z" style="fill:rgb(227,11,95);"/>
        </g>
        <g transform="matrix(1,0,0,1,-658.687,-222.098)">
            <path d="M1147.73,784.833C1148.52,782.183 1147.07,779.361 1144.43,778.475C1141.73,777.569 1138.8,779.026 1137.89,781.726C1137.62,782.525 1137.38,783.826 1137.37,784.079C1137.3,786.378 1138.49,787.572 1139.12,788.125C1140.4,789.252 1141.96,789.762 1143.9,789.229C1144.2,789.146 1145.98,788.942 1147.24,786.415C1147.49,785.904 1147.66,785.37 1147.73,784.833ZM1139.25,780.202C1138.9,780.475 1138.5,780.897 1138.14,781.559C1138.43,781.033 1138.81,780.578 1139.25,780.202Z" style="fill:rgb(227,11,95);"/>
        </g>
        <g transform="matrix(1,0,0,1,-658.687,-222.098)">
            <path d="M1162.58,771.177C1161.76,770.461 1160.7,769.999 1159.54,769.92C1156.7,769.727 1154.23,771.878 1154.04,774.719C1153.85,777.577 1155.08,779.154 1155.84,779.841C1156.89,780.794 1159.29,782.512 1163.02,780.028C1165.39,778.448 1166.03,775.241 1164.45,772.872C1163.96,772.134 1163.31,771.564 1162.58,771.177Z" style="fill:rgb(227,11,95);"/>
        </g>
        <g transform="matrix(1,0,0,1,-658.687,-222.098)">
            <path d="M1162.2,755.828C1162.49,755.249 1162.68,754.604 1162.74,753.917C1162.97,751.078 1160.85,748.585 1158.01,748.353C1155.44,748.143 1154.51,749.19 1153.98,749.666C1153.41,750.175 1152.26,753.39 1152.26,753.39C1152.26,753.39 1152.26,753.022 1152.38,752.645C1151.48,755.347 1152.94,758.272 1155.64,759.172C1158.35,760.073 1161.27,758.611 1162.17,755.909L1162.2,755.828ZM1160.11,757.998C1159.33,758.44 1158.42,758.68 1157.46,758.655C1158.77,758.711 1159.58,758.37 1160.11,757.998Z" style="fill:rgb(227,11,95);"/>
        </g>
        <g transform="matrix(1,0,0,1,-658.687,-222.098)">
            <path d="M1143.36,748.796L1143.37,748.793L1143.39,748.773L1143.42,748.747L1143.44,748.727C1145.32,747.127 1145.82,744.362 1144.52,742.173C1143.07,739.725 1139.9,738.918 1137.45,740.374C1136.75,740.791 1137.17,740.397 1136.1,741.47C1134.08,743.483 1134.08,746.754 1136.1,748.767C1138.1,750.772 1141.35,750.781 1143.36,748.796ZM1143.15,748.961L1142.96,749.093L1143.01,749.066L1143.15,748.961ZM1143.34,748.812L1143.17,748.95L1143.24,748.899L1143.34,748.812ZM1143.44,748.727C1143.7,748.501 1143.79,748.352 1143.79,748.352C1143.79,748.352 1143.63,748.532 1143.39,748.767L1143.37,748.789L1143.39,748.773L1143.44,748.727Z" style="fill:rgb(227,11,95);"/>
        </g>
        <g transform="matrix(1,0,0,1,-658.687,-222.098)">
            <path d="M1388.53,417.266C1389.28,416.22 1392.54,411.726 1398.73,404.761C1407.96,394.375 1411.12,385.094 1409.71,370.968C1408.21,355.991 1393.93,351.124 1382.9,353.913C1374.77,355.97 1368.88,362.035 1369.63,370.169C1369.89,373.005 1372.4,375.097 1375.24,374.837C1378.07,374.578 1380.16,372.064 1379.9,369.228C1379.63,366.257 1382.46,364.669 1385.43,363.918C1391.04,362.499 1398.68,364.373 1399.44,371.995C1400.53,382.826 1398.1,389.941 1391.02,397.905C1381.36,408.769 1378.93,413.224 1378.71,413.96C1378.02,416.34 1378.96,417.791 1379.44,418.479C1380.42,419.859 1381.8,420.673 1383.68,420.673C1385.91,420.673 1387.82,419.252 1388.53,417.266ZM1383.97,410.361C1385.81,410.463 1387.39,411.529 1388.22,413.062C1387.37,411.31 1385.93,410.435 1383.97,410.361Z" style="fill:rgb(227,11,95);"/>
        </g>
        <g transform="matrix(1,0,0,1,-658.687,-222.098)">
            <path d="M1380.04,450.099C1379.34,449.368 1378.41,448.838 1377.33,448.628C1374.54,448.079 1371.83,449.903 1371.28,452.697C1370.92,454.527 1371.23,455.996 1371.82,457.188C1372.66,458.899 1374.19,460.202 1376.29,460.832C1378.93,461.623 1382.83,461.015 1384.37,460.356C1387.88,458.859 1388.03,455.76 1387.82,454.477C1387.68,453.653 1386.77,449.906 1381.44,449.906C1380.96,449.906 1380.49,449.973 1380.04,450.099Z" style="fill:rgb(227,11,95);"/>
        </g>
        <g transform="matrix(1,0,0,1,-658.687,-222.098)">
            <path d="M786.751,528.428C786.802,526.839 787.01,522.983 787.826,520.052C788.905,516.175 790.59,512.071 792.67,508.854C793.693,507.273 794.781,505.91 795.982,505.041C796.572,504.615 797.196,504.343 797.836,504.797C801.579,507.455 803.446,512 804.562,517.054C806.58,526.197 805.916,537.049 805.535,544.973C805.316,549.553 805.211,553.288 805.528,555.508C805.863,557.854 806.779,559.367 807.623,560.211C809.637,562.225 812.907,562.225 814.921,560.211C816.596,558.536 816.878,555.992 815.766,554.026C815.783,552.903 815.907,545.257 816.131,539.013C816.441,530.355 816.307,520.209 813.875,511.819C812.007,505.371 808.786,499.915 803.812,496.383C798.635,492.707 793.438,493.578 788.771,497.599C784.099,501.625 779.987,509.725 777.883,517.284C776.096,523.705 775.907,529.727 777.086,532.829C778.332,536.106 780.666,537.717 783.614,537.892C786.458,538.06 788.902,535.888 789.07,533.045C789.183,531.137 788.242,529.408 786.751,528.428Z" style="fill:rgb(227,11,95);"/>
        </g>
        <g transform="matrix(1,0,0,1,-658.687,-222.098)">
            <path d="M828.238,588.787C827.72,586.453 825.621,584.719 823.137,584.75C820.289,584.786 818.005,587.126 818.041,589.974C818.063,591.763 818.435,593.01 818.966,594.02C819.732,595.479 820.903,596.626 823.144,597.746C825.691,599.02 828.794,597.986 830.067,595.438C831.258,593.057 830.432,590.191 828.238,588.787Z" style="fill:rgb(227,11,95);"/>
        </g>
        <g transform="matrix(1,0,0,1,-658.687,-222.098)">
            <path d="M797.105,332.05C798.085,328.54 799.164,325.984 800.403,324.297C800.852,323.686 801.131,323.136 801.616,323.079C802.177,323.013 802.535,323.639 803.058,324.18C803.973,325.128 804.815,326.394 805.591,327.879C810.16,336.63 812.117,352.282 805.91,364.696C804.637,367.243 805.671,370.345 808.218,371.619C810.765,372.893 813.868,371.859 815.141,369.311C820.73,358.134 821.101,344.864 818.696,334.221C817.004,326.733 813.898,320.55 810.483,317.012C807.095,313.502 803.233,312.225 799.598,312.959C795.381,313.809 790.256,318.201 787.164,329.275C786.398,332.018 788.004,334.867 790.747,335.633C793.49,336.399 796.339,334.793 797.105,332.05Z" style="fill:rgb(227,11,95);"/>
        </g>
        <g transform="matrix(1,0,0,1,-658.687,-222.098)">
            <path d="M822.399,394.455C822.458,393.447 822.223,392.412 821.66,391.484C820.183,389.049 817.007,388.271 814.572,389.748C811.994,391.312 811.561,393.075 811.504,393.294C810.925,395.492 811.439,397.398 813.57,398.867C813.751,398.992 814.865,399.777 817.243,399.777C820.091,399.777 822.403,397.464 822.403,394.616L822.399,394.455Z" style="fill:rgb(227,11,95);"/>
        </g>
        <g transform="matrix(1,0,0,1,-658.687,-222.098)">
            <path d="M1356.86,676.686C1360.49,688.708 1352.97,695.866 1345.87,703.386C1336.38,713.444 1327.18,723.882 1330.88,740.524C1336.45,765.599 1360.73,770.995 1375.6,765.636C1382.48,763.155 1387.35,758.381 1388.69,752.542C1389.6,748.553 1388.99,743.902 1385.8,738.878C1384.27,736.473 1381.08,735.76 1378.68,737.287C1376.27,738.813 1375.56,742.004 1377.09,744.409C1378.46,746.578 1379.02,748.515 1378.63,750.237C1378,752.968 1375.32,754.767 1372.1,755.927C1361.72,759.667 1344.84,755.786 1340.95,738.285C1338.14,725.627 1346.16,718.12 1353.38,710.469C1362.99,700.28 1371.66,689.991 1366.74,673.703C1365.92,670.977 1363.04,669.431 1360.31,670.254C1357.59,671.077 1356.04,673.959 1356.86,676.686Z" style="fill:rgb(227,11,95);"/>
        </g>
        <g transform="matrix(1,0,0,1,-658.687,-222.098)">
            <path d="M1354.14,636.96C1355.82,637.354 1357.66,636.896 1358.97,635.587C1360.88,633.673 1360.64,631.735 1360.27,630.477C1360.04,629.688 1359.61,628.696 1358.65,627.927C1359.66,625.504 1358.67,622.663 1356.31,621.404C1353.8,620.064 1350.67,621.016 1349.33,623.529C1345.65,630.429 1347.86,633.755 1349.26,635.151C1350.46,636.353 1352.6,636.798 1354.14,636.96ZM1350.31,633.166C1349.9,631.473 1350.35,629.611 1351.67,628.289C1349.87,630.089 1349.98,631.911 1350.31,633.166Z" style="fill:rgb(227,11,95);"/>
        </g>
        <g transform="matrix(1,0,0,1,-658.687,-222.098)">
            <path d="M755.723,852.684C756.87,855.603 759.494,863.524 759.121,867.254C758.396,874.501 755.156,881.678 753.211,888.857C750.834,897.631 750.2,906.367 755.32,915.145C759.629,922.531 764.811,925.963 769.781,927.126C775.839,928.543 781.907,926.602 786.714,922.998C791.314,919.548 794.654,914.611 795.8,910.299C796.798,906.54 796.242,903.119 794.425,900.595C792.675,898.165 789.578,896.19 784.406,896.19C781.558,896.19 779.245,898.502 779.245,901.35C779.245,904.198 781.558,906.511 784.406,906.511C784.915,906.511 785.537,906.63 785.899,906.712C785.744,907.399 785.268,909.283 784.525,910.45C782.208,914.085 777.846,917.694 773.117,917.239C769.97,916.935 766.975,914.642 764.235,909.945C760.659,903.814 761.512,897.684 763.172,891.556C765.264,883.834 768.611,876.076 769.39,868.28C769.691,865.273 768.781,860.233 767.556,855.801C766.316,851.316 764.764,847.471 764.34,846.807C762.067,843.247 758.784,844.344 757.778,844.799C757,845.151 754.425,846.356 754.747,850.081C754.831,851.057 755.182,851.947 755.723,852.684ZM763.937,852.833C764.585,852.114 765.183,850.974 765.029,849.194C765.146,850.555 764.723,851.839 763.937,852.833Z" style="fill:rgb(227,11,95);"/>
        </g>
        <g transform="matrix(1,0,0,1,-658.687,-222.098)">
            <path d="M745.667,825.426C745.77,828.183 748.041,830.389 750.822,830.389C753.67,830.389 755.983,828.076 755.983,825.228C755.983,822.728 755.147,820.98 754.465,819.972C754.047,817.933 752.411,816.265 750.236,815.912C747.425,815.456 744.772,817.368 744.316,820.179C744.08,821.633 744.268,822.664 744.544,823.492C744.743,824.09 745.262,824.872 745.667,825.426Z" style="fill:rgb(227,11,95);"/>
        </g>
        <g transform="matrix(1,0,0,1,-658.687,-222.098)">
            <path d="M1169.3,377.569C1169.3,377.148 1169.31,376.524 1169.34,376.002C1169.51,373.686 1169.98,370.675 1170.47,367.338C1171.5,360.442 1172.61,352.285 1172.08,345.569C1171.63,339.931 1169.95,335.204 1166.92,332.179C1164.23,329.481 1161.41,328.344 1158.74,328.148C1154.86,327.863 1151,329.65 1147.85,333.075C1144.23,337.016 1141.54,343.228 1140.92,349.034C1140.45,353.447 1141.19,357.608 1143.13,360.665C1144.65,363.073 1147.84,363.794 1150.24,362.273C1152.65,360.753 1153.37,357.563 1151.85,355.155C1151.03,353.845 1150.98,352.017 1151.18,350.125C1151.57,346.476 1153.17,342.534 1155.45,340.057C1156.24,339.196 1157.01,338.37 1157.98,338.441C1158.55,338.483 1159.05,338.903 1159.63,339.477C1161.5,341.348 1161.79,344.637 1161.88,348.273C1162.08,355.741 1160.37,364.619 1159.52,371.007C1158.97,375.088 1158.83,378.377 1159.22,380.239C1159.78,382.858 1161.22,384.309 1162.71,385.052C1165.26,386.326 1168.36,385.292 1169.63,382.744C1170.49,381.028 1170.3,379.059 1169.3,377.569Z"/>
        </g>
        <g transform="matrix(1,0,0,1,-658.687,-222.098)">
            <path d="M1167.38,409.848C1166.77,408.877 1165.84,408.102 1164.67,407.704C1161.98,406.787 1159.04,408.231 1158.12,410.927C1156.92,414.462 1158.38,416.035 1158.72,416.466C1159.03,416.857 1160.08,418.434 1163.52,418.434C1166.37,418.434 1168.68,416.122 1168.68,413.274C1168.68,411.959 1168.19,410.759 1167.38,409.848Z"/>
        </g>
        <g transform="matrix(1,0,0,1,-658.687,-222.098)">
            <path d="M1411.13,846.061C1412.33,843.615 1412.78,841.155 1413.19,838.678C1413.53,836.656 1413.73,834.565 1415.69,832.609C1416.72,831.577 1417.62,830.925 1418.57,830.904C1420.15,830.87 1421.34,832.251 1422.5,833.747C1425.47,837.584 1427.39,843.407 1427.05,847.15C1426.59,852.265 1423.51,856.24 1420.75,860.425C1416.99,866.143 1413.6,872.095 1413.6,879.708C1413.6,882.556 1415.91,884.868 1418.76,884.868C1421.6,884.868 1423.92,882.556 1423.92,879.708C1423.92,874.281 1426.69,870.175 1429.38,866.099C1433.07,860.49 1436.7,854.94 1437.33,848.084C1437.96,841.111 1433.82,829.4 1427.48,824.071C1424.73,821.762 1421.61,820.515 1418.35,820.586C1415.21,820.654 1411.78,821.918 1408.39,825.311C1405.09,828.607 1403.95,831.957 1403.3,835.359C1402.9,837.408 1402.86,839.492 1401.86,841.517C1400.61,844.075 1401.67,847.169 1404.23,848.422C1406.78,849.676 1409.88,848.618 1411.13,846.061Z"/>
        </g>
        <g transform="matrix(1,0,0,1,-658.687,-222.098)">
            <path d="M1418.13,893.158C1417.97,893.471 1417.63,894.176 1417.57,894.329C1417.35,894.907 1417.28,895.387 1417.25,895.731C1417.07,897.7 1417.87,898.966 1418.65,899.784C1419.66,900.839 1421.16,901.794 1423.53,901.265C1423.83,901.198 1424.85,901.016 1426.26,899.759C1427.39,898.75 1427.98,897.351 1427.99,895.943C1428.21,895.221 1428.39,894.466 1428.39,893.887C1428.39,891.039 1426.08,888.727 1423.23,888.727C1420.63,888.727 1418.48,890.654 1418.13,893.158ZM1419.55,891.922C1419.5,891.961 1419.45,892.004 1419.4,892.049L1419.55,891.922Z"/>
        </g>
        <g transform="matrix(1,0,0,1,-658.687,-222.098)">
            <path d="M906.988,482.928C901.212,478.402 895.37,476.605 889.887,476.706C881.743,476.856 874.211,481.277 868.663,488.25C860.012,499.123 856.342,516.158 862.517,530.271C867.594,541.877 877.198,546.342 887.372,550.016C895.219,552.85 903.52,554.978 908.475,562.41C910.054,564.78 913.261,565.421 915.631,563.841C918,562.261 918.642,559.055 917.062,556.685C910.81,547.307 900.78,543.886 890.878,540.31C883.304,537.574 875.751,534.774 871.972,526.135C867.346,515.561 870.258,502.822 876.739,494.676C880.27,490.238 884.894,487.12 890.077,487.025C893.478,486.962 897.04,488.244 900.622,491.051C902.864,492.808 906.11,492.414 907.867,490.173C909.624,487.931 909.23,484.685 906.988,482.928Z"/>
        </g>
        <g transform="matrix(1,0,0,1,-658.687,-222.098)">
            <path d="M919.831,600.184C921.271,597.902 920.706,594.859 918.489,593.256C916.181,591.586 912.952,592.105 911.283,594.413C910.616,595.335 909.824,597.076 909.749,597.436C909.269,599.75 910.267,601.201 911.006,602.005C911.845,602.916 912.947,603.55 914.429,603.659C914.831,603.689 916.618,604.042 918.656,602.004C919.19,601.47 919.582,600.848 919.831,600.184ZM912.79,593.695C912.421,593.857 912.004,594.11 911.567,594.509C911.942,594.173 912.354,593.901 912.79,593.695Z"/>
        </g>
        <g transform="matrix(1,0,0,1,-658.687,-222.098)">
            <path d="M1420.26,518.539C1420.05,513.962 1423.37,510.131 1427.42,508.095C1431.41,506.084 1436.38,505.745 1439.95,508.925C1445.38,513.746 1445.96,520.623 1444.49,527.648C1441.89,540.019 1432.96,552.967 1426.3,559.63C1424.29,561.644 1424.29,564.914 1426.3,566.928C1428.32,568.942 1431.59,568.942 1433.6,566.928C1441.33,559.199 1451.58,544.119 1454.59,529.768C1456.85,518.975 1455.15,508.619 1446.81,501.211C1439.94,495.1 1430.46,495.011 1422.78,498.875C1415.15,502.715 1409.55,510.38 1409.95,519.012C1410.08,521.857 1412.5,524.061 1415.34,523.93C1418.19,523.8 1420.39,521.384 1420.26,518.539Z"/>
        </g>
        <g transform="matrix(1,0,0,1,-658.687,-222.098)">
            <path d="M1422.06,587.317C1421.55,588.161 1421.78,588.035 1421.08,588.735C1419.06,590.749 1419.06,594.019 1421.08,596.033C1423.09,598.047 1426.36,598.047 1428.38,596.033C1430.07,594.338 1429.63,594.729 1430.88,592.688C1432.36,590.256 1431.59,587.078 1429.15,585.596C1426.72,584.114 1423.55,584.885 1422.06,587.317Z"/>
        </g>
    </g>
</svg>
