<?xml version="1.0" encoding="UTF-8" standalone="no"?>
<!DOCTYPE svg PUBLIC "-//W3C//DTD SVG 1.1//EN" "http://www.w3.org/Graphics/SVG/1.1/DTD/svg11.dtd">
<svg width="100%" height="100%" viewBox="0 0 985 1515" version="1.1" xmlns="http://www.w3.org/2000/svg" xmlns:xlink="http://www.w3.org/1999/xlink" xml:space="preserve" xmlns:serif="http://www.serif.com/" style="fill-rule:evenodd;clip-rule:evenodd;stroke-linecap:round;stroke-linejoin:round;stroke-miterlimit:1.5;">
    <g transform="matrix(1,0,0,1,-561.661,2.83506)">
        <path d="M1356.14,320.872L1396.71,441.631L1527.99,441.631L1421.78,516.264L1462.35,637.023L1356.14,562.389L1249.93,637.023L1290.5,516.264L1184.29,441.631L1315.57,441.631L1356.14,320.872Z" style="fill:rgb(255,182,0);"/>
    </g>
    <g transform="matrix(0.939137,0,0,1.10874,-481.278,-53.8497)">
        <path d="M1356.14,320.872L1396.71,441.631L1527.99,441.631L1421.78,516.264L1462.35,637.023L1356.14,562.389L1249.93,637.023L1290.5,516.264L1184.29,441.631L1315.57,441.631L1356.14,320.872Z" style="fill:none;stroke:black;stroke-width:9.63px;"/>
    </g>
    <g id="Layer1">
        <g transform="matrix(1,0,0,1,-504.177,30.2174)">
            <path d="M856.099,92.257C859.822,92.382 862.92,111.661 866.141,111.661C867.208,111.661 866.647,108.559 866.711,108.239C868.62,98.697 866.819,85.254 861.578,76.868C848.124,55.342 830.036,37.92 801.687,42.644C773.946,47.268 750.747,101.108 725.255,119.647C709.343,131.22 663.141,108.751 635.704,136.188C630.052,141.84 630,149.852 630,157.292C630,166.536 629.566,175.994 633.423,184.671C641.779,203.472 663.832,218.688 658.52,241.71C653.148,264.988 605.189,251.974 596.918,285.059C585.814,329.476 646.577,332.972 655.097,358.069C663.761,383.588 634.842,384.697 623.726,401.989C612.267,419.814 630.619,446.703 642.549,460.739C650.399,469.974 660.279,477.87 671.639,482.414C709.35,497.498 759.012,464.355 751.143,421.072C747.035,398.479 728.791,381.175 732.1,356.358C737.577,315.282 775.979,349.1 794.843,309.016C804.634,288.21 778.788,269.631 786.857,250.266C800.975,216.383 821.687,263.366 837.622,255.399C845.988,251.216 831.997,198.712 836.481,186.382C840.543,175.21 854.75,171.487 857.585,160.144C861.735,143.546 838.762,131.041 838.762,113.943C838.762,108.502 839.869,97.989 845.607,95.12C849.409,93.219 852.626,97.402 855.874,97.402C856.336,97.402 858.564,97.972 857.015,97.972"/>
            <path d="M847.754,99.825C847.962,99.896 848.396,100.049 848.642,100.166C849.338,100.495 850.022,100.87 850.7,101.197C851.945,101.798 853.197,102.242 854.439,102.442C854.949,102.737 855.515,102.947 856.117,103.053C856.593,104.295 857.052,105.529 857.416,106.57C858.828,110.611 860.552,113.938 861.949,115.175C863.313,116.382 864.771,116.822 866.141,116.822C868.397,116.822 870.144,115.782 871.214,113.656C871.708,112.673 871.828,109.994 871.856,108.796C873.849,98.142 871.74,83.391 865.954,74.133C851.387,50.826 831.533,32.439 800.839,37.554C788.735,39.572 777.159,49.823 766.164,63.119C751.322,81.066 737.233,104.555 722.22,115.474C719.741,117.276 716.266,117.819 712.206,118.023C707.173,118.277 701.351,117.849 695.116,117.419C674.383,115.988 649.67,114.925 632.055,132.539C625.389,139.205 624.84,148.517 624.84,157.292C624.84,167.251 624.552,177.418 628.707,186.767C632.992,196.407 640.731,205.166 646.775,214.428C651.903,222.285 655.802,230.536 653.492,240.55C652.523,244.748 649.449,247.14 645.567,248.995C640.43,251.448 633.966,252.924 627.429,254.734C611.999,259.006 596.571,265.169 591.912,283.808C585.678,308.742 599.164,322.412 615.857,333.149C623.256,337.908 631.268,342.063 637.958,346.593C643.643,350.442 648.409,354.421 650.211,359.728C651.556,363.688 651.855,366.879 651.21,369.576C650.245,373.613 647.242,376.365 643.741,378.98C635.745,384.952 625.283,390.025 619.385,399.198C613.988,407.594 613.926,417.676 617.031,427.835C621.192,441.451 631.086,455.221 638.617,464.081C647.004,473.948 657.586,482.35 669.722,487.205C690.217,495.403 713.981,490.633 731.53,477.796C749.221,464.855 760.531,443.861 756.22,420.149C754.089,408.429 748.373,398.05 743.538,387.413C739.268,378.022 735.699,368.406 737.215,357.04C738.116,350.282 739.9,345.91 742.622,343.101C746.786,338.806 752.773,338.281 759.135,337.43C773.221,335.547 789.004,333.542 799.512,311.213C805.096,299.346 801.047,288.059 796.223,277.032C794.236,272.49 792.166,268.002 791.099,263.499C790.214,259.765 790.048,256.025 791.621,252.25C794.014,246.507 796.069,243.541 798.888,243.051C800.793,242.72 802.71,243.63 804.732,244.786C807.7,246.482 810.708,248.918 813.723,251.315C818.505,255.118 823.337,258.782 827.915,260.419C832.059,261.9 836.084,261.937 839.929,260.015C841.672,259.144 843.211,257.543 844.184,255.011C845.338,252.006 845.709,246.923 845.37,240.696C844.79,230.047 842.425,215.535 841.301,203.755C840.65,196.933 840.234,191.162 841.331,188.146C843.049,183.421 847.098,180.43 850.832,177.262C856.082,172.807 860.905,168.142 862.592,161.396C865.033,151.63 860.082,142.874 853.934,134.238C849.341,127.787 843.923,121.459 843.923,113.943C843.923,111.151 844.22,106.791 845.553,103.224C846.077,101.822 846.647,100.471 847.754,99.825ZM861.099,89.457C860.246,85.819 858.945,82.392 857.202,79.603C844.86,59.856 828.541,43.4 802.536,47.735C792.445,49.416 783.284,58.611 774.117,69.696C758.718,88.317 743.867,112.492 728.29,123.82C725.098,126.142 720.973,127.49 716.087,128.057C709.976,128.767 702.512,128.274 694.406,127.715C676.383,126.471 654.665,124.525 639.353,139.837C634.712,144.478 635.161,151.183 635.161,157.292C635.161,165.821 634.58,174.569 638.138,182.575C642.21,191.736 649.675,199.986 655.419,208.788C662.08,218.995 666.55,229.861 663.548,242.87C660.983,253.985 650.848,258.916 638.301,262.462C632.168,264.196 625.486,265.724 619.375,268.191C611.427,271.4 604.435,276.268 601.924,286.311C597.053,305.796 608.395,316.078 621.44,324.469C630.492,330.291 640.427,335.253 647.871,341.025C653.635,345.493 657.975,350.494 659.984,356.41C662.105,362.658 662.265,367.721 661.248,371.976C659.72,378.368 655.461,383.108 649.917,387.249C642.84,392.534 633.286,396.661 628.067,404.779C624.296,410.645 624.731,417.721 626.901,424.819C630.65,437.086 639.696,449.414 646.481,457.397C653.794,466 662.973,473.39 673.555,477.622C690.772,484.509 710.695,480.25 725.437,469.466C740.038,458.785 749.624,441.566 746.066,421.995C744.089,411.122 738.629,401.553 734.142,391.685C729.09,380.571 725.191,369.127 726.985,355.676C728.275,346.002 731.315,339.938 735.212,335.918C740.979,329.969 748.955,328.379 757.767,327.2C768.969,325.703 781.817,324.575 790.173,306.818C794.381,297.876 790.403,289.478 786.768,281.169C781.958,270.175 777.505,259.294 782.094,248.281C786.695,237.237 792.465,233.4 797.909,232.768C803.195,232.155 808.944,234.822 814.598,238.945C818.968,242.131 823.382,246.124 827.69,248.819C830.117,250.338 832.377,251.703 834.583,251.069C834.732,250.488 834.986,249.395 835.064,248.509C835.243,246.469 835.215,244.006 835.065,241.258C834.392,228.91 831.293,211.337 830.571,198.946C830.209,192.733 830.53,187.646 831.631,184.619C833.976,178.171 839.06,173.716 844.154,169.392C847.733,166.356 851.429,163.491 852.579,158.893C854.288,152.055 849.831,146.27 845.526,140.224C839.669,131.997 833.602,123.528 833.602,113.943C833.602,110.206 834.101,104.385 835.885,99.612C837.415,95.517 839.919,92.195 843.299,90.505C846.142,89.083 848.815,89.229 851.391,90.144C852.224,88.289 854.117,87.026 856.273,87.099C857.797,87.151 859.554,87.797 861.099,89.457Z"/>
        </g>
        <g transform="matrix(1,0,0,1,-504.177,30.2174)">
            <path d="M787.481,681.507C789.05,692.022 803.671,798.027 819.549,835.074C821.745,840.199 841.766,879.734 837.516,883.984C837.022,884.478 792.901,869.098 785.611,867.015C784.65,866.741 646.727,798.563 637.883,825.093C633.355,838.677 629.198,864.915 633.891,878.993C638.738,893.534 811.755,1010.07 842.507,1022.73C861.816,1030.68 914.124,1042.44 926.352,1054.67C929.441,1057.76 923.843,1111.41 926.352,1118.55C971.904,1248.29 962.754,1355.37 971.904,1369.09C973.215,1371.06 1008.5,1361.2 1032.16,1369.09C1033.76,1369.62 1030.27,1342.57 1030.16,1341.14C1028.47,1319.12 1022.94,1297.34 1020.18,1275.26C1012.9,1217.01 1016.7,1155.84 1021.18,1097.59C1025.43,1042.34 1037.27,846.584 1029.16,810.12C1027.61,803.146 1020.51,753.056 1018.18,729.777C1018.01,728.064 1003.28,704.386 1001.21,702.319C1000.71,701.811 948.879,699.324 945.317,699.324C923.982,699.324 905.171,695.064 884.429,693.335C867.991,691.965 800.643,682.356 782.617,682.356" style="fill:rgb(255,45,79);"/>
        </g>
        <g transform="matrix(1,0,0,1,-504.177,30.2174)">
            <path d="M911.03,164.449C912.683,171.991 911.03,179.807 910.074,187.453C908.42,200.682 907.036,216.16 902.012,229.46C897.407,241.652 889.624,251.96 874.99,256.141C863.636,259.385 856.549,255.483 851.071,252.953C847.593,251.346 844.508,250.239 841.614,250.239C838.766,250.239 836.454,252.551 836.454,255.399C836.454,258.247 838.766,260.56 841.614,260.56C844.006,260.56 846.458,262.224 849.604,263.644C856.355,266.69 865.045,269.716 877.826,266.065C896.029,260.864 905.939,248.273 911.667,233.107C916.977,219.05 918.567,202.715 920.315,188.733C921.573,178.667 923.37,168.351 920.09,158.513C919.618,157.097 918.479,155.625 916.575,154.722C914.435,153.706 911.056,153.613 909.57,154.108C902.977,156.306 895.097,156.1 888.76,152.297C884.208,149.566 880.834,143.994 877.962,137.726C873.03,126.96 869.918,114.019 867.456,106.094C866.611,103.374 863.717,101.852 860.997,102.697C858.277,103.542 856.755,106.436 857.6,109.156C860.16,117.395 863.452,130.831 868.579,142.025C872.415,150.397 877.37,157.5 883.45,161.147C891.832,166.177 902.109,166.922 911.03,164.449Z"/>
        </g>
        <g transform="matrix(1,0,0,1,-504.177,30.2174)">
            <path d="M914.394,210.51C916.223,209.717 917.503,207.894 917.503,205.775C917.503,202.19 915.434,200.966 914.47,200.488C913.049,199.782 910.974,199.373 908.724,201.124C908.208,201.525 907.368,202.448 906.485,203.755C905.858,204.682 904.437,206.54 903.779,207.393C901.733,207.193 898.479,206.54 895.22,205.549C892.873,204.834 890.519,203.941 888.644,202.843C887.954,202.44 887.116,201.701 886.738,201.355C887.349,198.837 885.98,196.206 883.489,195.298C880.813,194.323 877.849,195.704 876.874,198.379C875.236,202.873 876.939,207.129 881.443,210.449C887.767,215.111 900.789,217.78 904.927,217.78C906.731,217.78 908.783,216.985 910.629,215.249C911.79,214.157 913.358,212.006 914.394,210.51Z"/>
        </g>
        <g transform="matrix(1,0,0,1,-504.177,30.2174)">
            <path d="M871.307,154.085C870.983,154.668 870.494,155.482 870.051,155.969C869.995,156.029 869.927,156.096 869.852,156.163C867.554,154.587 865.612,155.398 865.242,155.523C863.671,156.052 862.592,157.103 862.026,158.67C861.752,159.43 861.379,160.841 862.204,162.634C862.258,162.753 862.366,162.932 862.524,163.151C862.573,163.43 862.651,163.674 862.765,163.864C863.094,164.412 863.808,165.985 866.537,166.378C867.433,166.765 868.448,167.016 869.563,167.016C872.227,167.016 874.991,165.662 877.211,163.414C879.852,160.739 881.607,156.901 881.893,154.934C882.179,152.974 881.619,151.52 881.025,150.619C880.015,149.082 878.528,148.139 876.408,148.139C873.56,148.139 871.248,150.452 871.248,153.3C871.248,153.567 871.268,153.829 871.307,154.085ZM862.461,162.568C862.369,160.702 863.088,158 863.088,158C863.088,158 862.198,159.823 862.185,160.779C862.177,161.351 862.24,161.955 862.461,162.568ZM873.79,157.746C874.434,158.166 875.206,158.41 876.116,158.451C875.27,158.404 874.479,158.153 873.79,157.746ZM868.232,156.184L868.339,156.198L868.322,156.195L868.232,156.184ZM868.12,156.17C868.041,156.161 867.958,156.155 867.872,156.15L868.12,156.17Z"/>
        </g>
        <g transform="matrix(1,0,0,1,-504.177,30.2174)">
            <path d="M837.547,254.533C833.068,258.378 831.438,265.129 832.29,272.554C833.382,282.068 838.342,292.507 842.529,296.694C847.303,301.468 853.13,303.838 859.322,305.287C864.56,306.514 870.063,307.045 875.157,308.318C877.39,308.876 881.873,311.643 887.63,315.356C902.626,325.028 924.896,341.291 938.416,350.159C940.798,351.722 943.999,351.056 945.562,348.675C947.124,346.294 946.459,343.092 944.077,341.53C930.54,332.65 908.239,316.367 893.224,306.683C886.119,302.1 880.416,298.995 877.66,298.306C872.517,297.02 866.963,296.476 861.675,295.238C857.339,294.223 853.169,292.739 849.826,289.396C846.723,286.293 843.353,278.429 842.543,271.377C842.127,267.747 842.081,264.243 844.27,262.363C846.431,260.508 846.679,257.247 844.824,255.087C842.969,252.926 839.708,252.677 837.547,254.533Z"/>
        </g>
        <g transform="matrix(1,0,0,1,-504.177,30.2174)">
            <path d="M754.061,341.525C774.283,374.177 808.048,398.102 845.103,416.139C899.574,442.653 961.087,456.463 995.159,467.606C1040.38,482.395 1166.7,518.097 1185.86,518.097C1188.71,518.097 1191.02,515.785 1191.02,512.937C1191.02,510.089 1188.71,507.777 1185.86,507.777C1167.02,507.777 1042.84,472.343 998.367,457.797C964.598,446.752 903.607,433.138 849.62,406.859C814.369,389.7 782.073,367.153 762.835,336.091C761.335,333.67 758.152,332.921 755.731,334.421C753.309,335.92 752.561,339.104 754.061,341.525Z"/>
        </g>
        <g transform="matrix(1,0,0,1,-504.177,30.2174)">
            <path d="M1001.44,695.623C1000.63,695.941 998.316,696.811 996.593,697.158C990.154,698.458 982.063,698.812 979.538,699.353C963.398,702.811 946.331,700.636 929.233,697.457C911.234,694.11 893.201,689.629 876.097,688.623C864.881,687.963 828.403,686.53 804.146,682.34C798.224,681.317 793.064,680.144 789.281,678.745C787.478,678.078 786.044,677.471 785.241,676.668C784.665,676.092 784.886,675.112 784.959,674.015C785.121,671.585 785.903,668.737 786.944,665.758C790.588,655.332 797.376,643.615 798.528,640.16C806.021,617.682 820.934,589.964 829.022,563.439C834.746,544.669 837.026,526.448 831.818,510.822C818.185,469.925 800.843,430.379 786.458,389.62C785.136,385.874 773.313,358.251 771.498,351.74L771.476,351.654C771.427,349.84 770.421,348.106 768.699,347.21C766.172,345.896 763.054,346.881 761.74,349.408C761.462,349.941 760.789,351.76 761.556,354.512C763.403,361.134 775.381,389.245 776.726,393.055C791.091,433.757 808.413,473.246 822.026,514.086C826.616,527.855 824.194,543.888 819.15,560.429C811.088,586.868 796.206,614.491 788.737,636.896C787.379,640.969 778.312,656.421 775.542,667.892C773.851,674.895 774.73,680.752 777.943,683.966C779.525,685.548 782.149,687.112 785.702,688.425C789.951,689.997 795.737,691.361 802.39,692.51C827.035,696.768 864.095,698.255 875.49,698.926C892.186,699.908 909.778,704.337 927.347,707.603C945.818,711.038 964.263,713.181 981.701,709.444C984.689,708.804 995.358,708.392 1002.09,706.441C1007,705.017 1010.13,702.312 1011.01,699.656C1012.76,694.406 1011.91,686.941 1009.69,678.959C1006.88,668.846 1002.04,657.715 1000.55,650.265C991.665,605.822 975.317,563.461 964.377,519.702C962.057,510.42 964.531,479.753 964.531,450.503C964.531,447.655 962.219,445.342 959.371,445.342C956.523,445.342 954.211,447.655 954.211,450.503C954.211,480.811 951.96,512.588 954.365,522.205C965.265,565.805 981.577,608.007 990.433,652.289C991.961,659.927 996.865,671.355 999.747,681.723C1001.22,687.018 1002.31,691.954 1001.44,695.623Z"/>
        </g>
        <g transform="matrix(1,0,0,1,-504.177,30.2174)">
            <path d="M833.906,885.657C832.851,887.326 832.807,889.53 833.973,891.278C836.248,894.692 838.362,895.664 839.078,895.838C839.94,896.049 840.719,896.027 841.412,895.887C842.91,895.584 844.209,894.769 845.067,893.142C845.424,892.464 846.015,890.697 845.403,888.025C843.308,878.876 824.343,835.028 822.067,828.769C808.434,791.278 791.232,722.535 791.794,682.655C791.834,679.808 789.555,677.463 786.707,677.423C783.859,677.383 781.514,679.662 781.474,682.51C780.898,723.384 798.395,793.87 812.368,832.296C814.326,837.681 828.97,871.427 833.906,885.657Z"/>
        </g>
        <g transform="matrix(1,0,0,1,-504.177,30.2174)">
            <path d="M900.518,946.861C900.851,948.553 902.024,950.039 903.754,950.694C906.272,951.646 907.885,950.823 908.708,950.319C910.302,949.341 911.461,947.76 911.202,945.233C911.136,944.589 910.867,943.484 910.061,942.255C909.088,940.769 906.672,938.185 905.437,937.156C898.209,931.133 890.918,925.979 883.898,919.544C869.226,906.095 850.852,892.037 833.571,882.316C806.695,867.198 673.528,824.385 637.512,824.385C634.664,824.385 632.352,826.697 632.352,829.545C632.352,832.393 634.664,834.706 637.512,834.706C672.607,834.706 802.323,876.58 828.511,891.312C845.139,900.665 862.806,914.21 876.924,927.151C884.067,933.699 891.476,938.956 898.83,945.085C899.2,945.393 899.928,946.192 900.518,946.861ZM907.172,940.959L907.407,941.041C907.327,941.011 907.249,940.984 907.172,940.959Z"/>
        </g>
        <g transform="matrix(1,0,0,1,-504.177,30.2174)">
            <path d="M631.743,894.939C638.934,894.917 646.268,899.124 653.542,904.41C666.078,913.52 678.215,926.031 688.271,931.778C749.56,966.799 804.872,1023.08 872.855,1045.74C881.23,1048.53 916.812,1057.27 940.507,1059.16C948.196,1059.77 954.725,1059.62 958.959,1058.53C961.687,1057.82 963.703,1056.68 965.026,1055.36C967.04,1053.34 967.04,1050.07 965.026,1048.06C963.012,1046.05 959.742,1046.05 957.728,1048.06C957.228,1048.56 956.243,1048.61 955.056,1048.81C951.586,1049.38 946.81,1049.31 941.326,1048.87C918.488,1047.05 884.191,1038.64 876.118,1035.95C808.767,1013.5 754.111,957.513 693.392,922.817C683.591,917.216 671.827,904.94 659.609,896.061C650.381,889.355 640.835,884.591 631.712,884.618C628.864,884.627 626.559,886.946 626.567,889.794C626.576,892.642 628.895,894.948 631.743,894.939Z"/>
        </g>
        <g transform="matrix(1,0,0,1,-504.177,30.2174)">
            <path d="M959.069,1047.35C957.378,1048.19 956.217,1049.94 956.217,1051.96C956.217,1055.32 957.965,1056.73 958.814,1057.27C960.356,1058.26 963.509,1059.24 966.252,1055.76C968.5,1052.91 974.437,1036.53 974.437,1023.26C974.437,1004.85 964.604,853.595 963.493,796.636C963.437,793.789 961.08,791.522 958.233,791.578C955.385,791.633 953.118,793.99 953.174,796.838C954.285,853.746 964.116,1004.87 964.116,1023.26C964.116,1031.01 961.791,1040.05 959.77,1045.6C959.553,1046.19 959.306,1046.8 959.069,1047.35Z"/>
        </g>
        <g transform="matrix(1,0,0,1,-504.177,30.2174)">
            <path d="M967.605,1287.61L967.605,1301.19L967.605,1301.19C967.605,1303.42 967.605,1304.4 967.605,1304.5L967.605,1304.51C967.608,1334.62 970.188,1347.71 972.766,1346.73C975.347,1347.7 977.927,1334.61 977.926,1304.52L977.926,1304.5C977.926,1304.4 977.926,1303.42 977.926,1301.19C977.926,1301.1 977.923,1301.01 977.918,1300.91L977.886,1286.63C975.388,1266.65 969.853,1246.4 965.894,1226.6C960.797,1201.12 946.795,1161.13 939.098,1124.19C934.168,1100.53 931.728,1078.19 936.515,1062.14C937.329,1059.41 935.774,1056.54 933.045,1055.72C930.316,1054.91 927.439,1056.46 926.625,1059.19C921.45,1076.55 923.664,1100.72 928.994,1126.29C936.685,1163.2 950.681,1203.16 955.774,1228.63C959.664,1248.08 965.12,1267.96 967.605,1287.61Z"/>
        </g>
        <g transform="matrix(1,0,0,1,-504.177,30.2174)">
            <path d="M1003.7,700.488C1003.31,702.71 1003.99,707.682 1005.54,713.92C1008.55,725.986 1014.37,743.924 1015.36,752.91C1028.35,869.805 1034.78,997.137 1015.4,1113.42C1007.96,1158.04 1015.33,1271.88 1015.33,1300.26C1015.33,1303.11 1017.64,1305.42 1020.49,1305.42C1023.34,1305.42 1025.65,1303.11 1025.65,1300.26C1025.65,1272.14 1018.21,1159.34 1025.58,1115.11C1045.12,997.918 1038.71,869.585 1025.62,751.77C1024.59,742.478 1018.67,723.905 1015.56,711.427C1014.49,707.144 1013.59,703.799 1013.86,702.273C1014.35,699.468 1012.48,696.791 1009.67,696.298C1006.87,695.806 1004.19,697.683 1003.7,700.488Z"/>
        </g>
        <g transform="matrix(1,0,0,1,-504.177,30.2174)">
            <path d="M1015.15,1298.76L1015.15,1298.77C1017.54,1307.05 1023.62,1348.82 1027.81,1357.19C1031.12,1363.82 1039.08,1368.4 1049.85,1371.37C1063.53,1375.13 1081.98,1376.77 1098.24,1380.26C1105.84,1381.88 1112.94,1383.91 1118.7,1386.89C1123.68,1389.46 1127.63,1392.69 1129.61,1397.23C1132.38,1403.61 1131.23,1412.11 1125.38,1423.9C1125.07,1424.09 1123.69,1424.93 1122.51,1425.38C1119.83,1426.41 1116.22,1427.3 1111.9,1428.08C1090.26,1431.99 1051.79,1432.93 1018.73,1430.2C1000.11,1428.67 983.22,1426 972.162,1421.93C968.905,1420.73 966.201,1419.44 964.222,1417.98C963.05,1417.11 962.12,1416.31 961.863,1415.28C957.272,1396.92 962.587,1376.61 968.136,1355.69C974.095,1333.22 980.416,1310.08 977.52,1287.79C977.153,1284.97 974.562,1282.98 971.738,1283.34C968.914,1283.71 966.919,1286.3 967.286,1289.12C970.013,1310.12 963.773,1331.88 958.16,1353.04C952.136,1375.76 946.866,1397.85 951.85,1417.78C952.891,1421.95 956.552,1426 962.898,1429.18C974.099,1434.8 994.715,1438.58 1017.88,1440.49C1051.9,1443.3 1091.47,1442.26 1113.73,1438.23C1121.1,1436.9 1126.72,1435.16 1129.97,1433.25C1132.28,1431.9 1133.72,1430.31 1134.48,1428.78C1142.34,1413.06 1142.76,1401.57 1139.07,1393.11C1136.72,1387.73 1132.68,1383.41 1127.36,1379.98C1120.27,1375.41 1110.77,1372.39 1100.4,1370.16C1084.34,1366.72 1066.1,1365.13 1052.59,1361.41C1045.24,1359.39 1039.3,1357.1 1037.04,1352.58C1032.98,1344.47 1027.38,1303.93 1025.07,1295.91C1024.51,1293.96 1023.7,1292.85 1023.3,1292.43C1022.02,1291.08 1020.61,1290.78 1019.47,1290.78C1016.62,1290.78 1014.31,1293.09 1014.31,1295.93C1014.31,1296.98 1014.62,1297.95 1015.15,1298.76ZM1019.13,1301.09L1019.17,1301.09L1019.03,1301.08L1019.13,1301.09ZM1018.79,1301.05L1018.89,1301.06L1018.71,1301.04L1018.79,1301.05ZM1018.45,1301L1018.62,1301.03L1018.43,1300.99L1018.26,1300.95L1018.45,1301ZM1018.1,1300.91L1018.16,1300.93L1018.02,1300.89L1018.1,1300.91ZM1017.75,1300.8L1017.75,1300.8L1017.75,1300.8Z"/>
        </g>
        <g transform="matrix(1,0,0,1,-504.177,30.2174)">
            <path d="M638.802,823.45C631.315,820.096 622.173,812.955 612.87,805.962C602.792,798.386 592.529,790.989 583.878,787.758C574.168,784.131 566.113,785.271 560.809,793.227C556.478,799.724 552.262,813.819 549.232,831.967C542.423,872.756 540.952,934.501 553.072,972.43C561.372,998.401 576.209,1013.4 598.172,1007.91C607.283,1005.63 613.722,997 617.769,984.492C622.943,968.502 624.675,945.975 626.918,926.683C628.313,914.681 629.838,904.004 632.83,897.399C633.428,896.079 634.068,894.957 634.827,894.107C635.366,893.503 635.938,893.052 636.692,893.052C639.54,893.052 641.852,890.74 641.852,887.892C641.852,885.044 639.54,882.732 636.692,882.732C631.135,882.732 626.562,886.224 623.429,893.141C620.119,900.447 618.21,912.214 616.666,925.491C614.501,944.115 612.944,965.879 607.949,981.315C605.214,989.767 601.826,996.358 595.669,997.898C579.021,1002.06 569.194,988.975 562.903,969.289C551.201,932.668 552.838,873.048 559.412,833.666C562.119,817.453 565.527,804.756 569.396,798.952C571.193,796.256 573.851,795.806 576.918,796.435C579.993,797.065 583.371,798.609 586.957,800.636C602.516,809.434 621.164,826.858 634.582,832.869C637.182,834.034 640.237,832.869 641.401,830.27C642.566,827.67 641.401,824.615 638.802,823.45Z"/>
        </g>
        <g transform="matrix(1,0,0,1,-504.177,30.2174)">
            <path d="M791.665,315.263C802.479,319.699 814.983,320.758 827.706,321.706C839.376,322.575 851.243,323.354 861.902,327.351C886.245,336.48 906.475,359.2 928.233,372.799C983.927,407.607 1116.65,467.633 1194.49,484.738C1197.27,485.349 1200.03,483.587 1200.64,480.805C1201.25,478.024 1199.49,475.269 1196.71,474.658C1119.81,457.761 988.719,398.432 933.703,364.047C911.393,350.103 890.486,327.048 865.526,317.688C853.968,313.353 841.126,312.356 828.473,311.413C816.873,310.549 805.441,309.759 795.582,305.714C792.947,304.633 789.93,305.895 788.849,308.53C787.768,311.165 789.03,314.182 791.665,315.263Z"/>
        </g>
        <g transform="matrix(0.667199,0,0,0.633438,-81.2353,214.848)">
            <path d="M1132.36,518.472C1147.67,520.694 1172.95,523.895 1179.14,524.138C1200.53,524.98 1296.15,533.919 1310.29,529.3C1324.27,524.737 1254.59,514.675 1267.36,512.461C1291.48,508.276 1329.6,508.904 1329.76,507.726C1329.97,506.08 1317.72,501.23 1302.41,501.23C1281.01,501.23 1267.36,498.762 1267.36,495.301C1267.36,481.564 1329.76,485.806 1329.76,478.457C1329.76,472.695 1272.54,478.013 1257.85,474.718C1257.43,474.624 1295.6,464.771 1296.8,455.54C1297.21,452.401 1244.85,463.75 1245.67,462.065C1246.47,460.411 1248.41,459.546 1250.04,458.705C1260.69,453.219 1276.72,437.921 1275.14,434.859C1274.03,432.691 1206.65,455.793 1179.14,464.202C1169.63,467.108 1170.56,468.02 1153.81,464.202" style="fill:white;"/>
            <path d="M1265.86,441.205C1260.86,446.214 1253.77,451.915 1248.22,454.775C1245.8,456.022 1243.16,457.624 1241.97,460.074C1241.49,461.072 1241.43,462.014 1241.57,462.859C1241.72,463.781 1242.12,464.674 1242.94,465.433C1243.33,465.795 1243.94,466.241 1244.88,466.468C1245.53,466.623 1247.88,466.575 1251.3,466.063C1258.09,465.046 1272.46,462.87 1282.96,461.278C1273.47,465.678 1261.13,469.173 1257.68,470.197C1256.13,470.657 1255.34,471.222 1255.26,471.29C1253.46,472.802 1253.58,474.566 1253.77,475.57C1253.98,476.67 1254.57,478.455 1256.98,478.996C1264.47,480.675 1282.77,480.228 1299.22,480.037C1288.43,481.128 1277.45,482.585 1271.08,485.431C1265.81,487.783 1263.21,491.37 1263.21,495.301C1263.21,497.189 1264.11,499.446 1266.96,501.085C1270.52,503.135 1279.54,504.81 1292.37,505.387C1283.5,505.96 1274.38,506.809 1266.68,508.145C1263.77,508.65 1262.61,510.159 1262.2,510.906C1261.61,512.017 1261.48,513.174 1261.78,514.373C1261.98,515.155 1262.42,516.123 1263.44,516.987C1264.46,517.845 1267.86,519.2 1272.64,520.456C1279.14,522.167 1288.58,524.219 1296.46,526.26C1291.75,526.316 1286.12,526.208 1279.9,526.009C1245.6,524.912 1194.26,520.356 1179.3,519.767C1173.16,519.526 1148.1,516.341 1132.93,514.139C1130.66,513.809 1128.56,515.483 1128.25,517.875C1127.93,520.266 1129.52,522.476 1131.79,522.805C1147.24,525.046 1172.74,528.264 1178.99,528.509C1193.96,529.099 1245.32,533.656 1279.64,534.753C1295.01,535.244 1307.09,534.925 1311.52,533.478C1314.91,532.372 1315.94,530.261 1316.2,528.953C1316.46,527.674 1316.3,526.316 1315.42,524.966C1315.02,524.35 1314.38,523.65 1313.41,523C1312.31,522.261 1310.53,521.437 1308.24,520.632C1302.73,518.696 1293.78,516.58 1285.57,514.636C1304.33,513.038 1324.22,512.973 1329.1,512.377C1331.48,512.086 1332.63,510.945 1332.92,510.569C1333.5,509.843 1333.77,509.072 1333.87,508.323C1334.02,507.149 1333.64,504.464 1330.5,502.606C1326.71,500.357 1315.63,496.856 1302.41,496.856C1289.99,496.856 1280.26,496.033 1274.47,494.622C1273.98,494.501 1273.46,494.34 1272.97,494.169C1274.2,493.449 1275.76,492.853 1277.55,492.316C1285.54,489.925 1297.64,488.947 1308.16,487.961C1318.56,486.986 1327.54,485.759 1330.73,483.785C1333.08,482.326 1333.91,480.343 1333.91,478.457C1333.91,476.825 1333.28,475.155 1331.44,473.879C1330.21,473.031 1327.69,472.221 1324.13,471.822C1314.8,470.777 1296.35,471.506 1280.89,471.583C1284.58,470.114 1288.18,468.498 1291.18,466.807C1294.18,465.12 1296.64,463.317 1298.23,461.547C1299.82,459.772 1300.68,457.909 1300.91,456.137C1301.13,454.463 1300.46,451.07 1296.07,450.667C1291.75,450.271 1275.66,453.102 1262.75,455.331C1269.14,450.258 1275.14,444.267 1277.6,440.44C1279.74,437.105 1279.54,434.217 1278.8,432.773C1278.37,431.94 1277.62,431.019 1276.19,430.568C1275.62,430.388 1274.25,430.238 1272.2,430.62C1260.17,432.868 1202.86,452.398 1177.98,460.001C1169.24,462.674 1170.09,463.438 1154.68,459.927C1152.44,459.416 1150.23,460.917 1149.75,463.277C1149.26,465.636 1150.69,467.967 1152.93,468.477C1171.02,472.602 1170.03,471.542 1180.3,468.403C1201.37,461.963 1245.92,446.847 1265.86,441.205Z"/>
        </g>
        <g transform="matrix(1,0,0,1,-504.177,30.2174)">
            <path d="M907.585,328.691C939.412,348.78 1020.75,415.843 1066.1,428.487C1084.31,433.566 1129.08,460.194 1202.11,480.553C1204.85,481.318 1207.7,479.711 1208.46,476.968C1209.23,474.224 1207.62,471.376 1204.88,470.611C1131.85,450.252 1087.09,423.624 1068.87,418.545C1024.24,406.101 944.417,339.735 913.094,319.964C910.686,318.444 907.496,319.165 905.976,321.573C904.456,323.981 905.177,327.171 907.585,328.691Z"/>
        </g>
        <g transform="matrix(1,0,0,1,-504.177,30.2174)">
            <path d="M1182.38,511.68C1180.98,512.603 1180.06,514.189 1180.06,515.989C1180.06,518.507 1181.27,519.641 1181.91,520.198C1183.11,521.229 1184.51,521.652 1186.12,521.412C1186.79,521.311 1187.6,521.063 1188.43,520.471C1188.84,520.185 1189.91,518.805 1190.47,518.077C1193.31,515.639 1195.8,510.599 1196.93,507.191C1198.39,502.808 1200.8,496.522 1202.1,490.569C1203.13,485.868 1203.43,481.334 1202.54,477.757C1201.86,474.992 1199.06,473.303 1196.3,473.987C1193.53,474.671 1191.84,477.47 1192.53,480.235C1193.09,482.508 1192.67,485.378 1192.02,488.365C1190.8,493.943 1188.51,499.821 1187.14,503.927C1186.75,505.098 1186.17,506.608 1185.43,507.989C1184.98,508.829 1184.57,509.689 1183.96,510.091C1183.62,510.321 1183.08,510.745 1182.55,511.446L1182.38,511.68ZM1190.36,515.527L1190.37,515.71L1190.37,515.68L1190.36,515.527ZM1190.33,515.251L1190.35,515.448L1190.35,515.39L1190.33,515.251ZM1190.29,515.038L1190.32,515.18L1190.31,515.117L1190.29,515.038Z"/>
        </g>
        <g transform="matrix(1,0,0,1,-504.177,30.2174)">
            <path d="M834.291,661.118L834.416,661.128L834.476,661.129C839.532,661.447 844.181,657.992 845.22,652.887C846.355,647.305 842.746,641.852 837.164,640.716C835.866,640.452 836.795,640.479 834.376,640.479C828.68,640.479 824.056,645.103 824.056,650.799C824.056,656.467 828.634,661.074 834.291,661.118ZM834.331,661.119C833.905,661.089 833.477,661.03 833.049,660.943C833.549,661.045 833.962,661.096 834.291,661.118L834.331,661.119L834.476,661.129C835.014,661.155 835.274,661.1 835.274,661.1C835.274,661.1 834.901,661.12 834.376,661.12L834.331,661.119Z"/>
        </g>
        <g transform="matrix(1,0,0,1,-504.177,30.2174)">
            <path d="M865.92,669.203C866.414,674.441 870.828,678.544 876.193,678.544C881.889,678.544 886.514,673.919 886.514,668.223C886.514,668.392 886.494,668.741 886.494,668.741C886.494,668.741 884.832,661.306 884.204,660.545C881.647,657.442 878.357,656.13 874.154,656.984C873.02,657.215 870.311,657.649 867.746,661.128C865.967,663.54 865.394,666.473 865.92,669.203ZM884.027,673.804C883.152,674.871 882.101,675.72 880.947,676.339C881.864,675.89 882.95,675.14 884.027,673.804Z"/>
        </g>
        <g transform="matrix(1,0,0,1,-504.177,30.2174)">
            <path d="M863.904,607.836C863.618,609.421 863.549,610.863 863.549,612.467C863.549,618.163 868.174,622.788 873.87,622.788C879.566,622.788 884.191,618.163 884.191,612.467C884.191,612.134 884.158,611.832 884.217,611.502C885.229,605.897 881.5,600.524 875.894,599.512C870.289,598.501 864.916,602.23 863.904,607.836Z"/>
        </g>
        <g transform="matrix(1,0,0,1,-504.177,30.2174)">
            <path d="M839.31,614.583C839.371,614.52 839.432,614.457 839.492,614.394C843.441,610.288 843.313,603.749 839.207,599.801C835.102,595.853 828.563,595.98 824.614,600.086C824.554,600.149 824.493,600.212 824.432,600.275C820.484,604.381 820.612,610.92 824.717,614.868C828.823,618.817 835.362,618.689 839.31,614.583Z"/>
        </g>
        <g transform="matrix(1,0,0,1,-504.177,30.2174)">
            <path d="M812.366,664.633C813.808,661.364 813.511,657.435 811.245,654.352C807.872,649.762 801.407,648.773 796.817,652.146C795.899,652.821 794.002,654.546 793.243,655.695C791.596,658.19 791.303,660.694 791.521,662.711C791.793,665.234 792.84,667.569 795.083,669.513C796.207,670.487 798.288,672.155 802.433,672.155C807.159,672.155 811.147,668.971 812.366,664.633ZM804.541,651.73L804.859,651.804L804.745,651.773L804.541,651.73ZM804.004,651.633L803.499,651.568C803.85,651.6 804.18,651.653 804.489,651.719L804.004,651.633ZM802.994,651.529L803.441,651.563L803.071,651.531L802.994,651.529Z"/>
        </g>
        <g transform="matrix(1,0,0,1,-504.177,30.2174)">
            <path d="M937.195,681.568C936.232,682.419 936.736,681.945 935.686,682.995C931.659,687.023 931.659,693.563 935.686,697.591C939.714,701.619 946.254,701.619 950.282,697.591C950.683,697.19 950.488,697.368 950.856,697.043C955.126,693.273 955.533,686.746 951.763,682.475C947.993,678.205 941.466,677.799 937.195,681.568Z"/>
        </g>
        <g transform="matrix(1,0,0,1,-504.177,30.2174)">
            <path d="M931.291,664.285C932.53,663.301 933.557,662.013 934.253,660.472C936.595,655.28 934.282,649.163 929.09,646.82C924.982,644.967 922.653,645.831 921.987,645.991C919.881,646.498 918.168,647.537 916.762,649.08C916,649.915 914.092,656.996 914.092,656.996C914.092,656.996 914.078,656.772 914.078,656.607C914.078,662.303 918.703,666.928 924.399,666.928C927.047,666.928 929.464,665.928 931.291,664.285Z"/>
        </g>
        <g transform="matrix(1,0,0,1,-504.177,30.2174)">
            <path d="M843.972,696.347C844.064,696.326 844.155,696.305 844.246,696.284C849.797,695.004 853.264,689.458 851.983,683.908C850.703,678.357 845.158,674.891 839.607,676.171C839.516,676.192 839.425,676.213 839.333,676.234C833.783,677.514 830.316,683.06 831.596,688.61C832.876,694.16 838.422,697.627 843.972,696.347Z"/>
        </g>
        <g transform="matrix(1,0,0,1,-504.177,30.2174)">
            <path d="M855.563,564.278C857.511,563.289 859.161,561.677 860.18,559.56C862.649,554.427 860.487,548.254 855.354,545.785C849.802,543.113 847.477,544.985 846.035,545.688C845.122,546.133 842.058,549.082 842.058,549.082C842.058,549.082 842.389,548.623 842.76,548.252C838.732,552.28 838.732,558.82 842.76,562.848C846.234,566.321 851.577,566.799 855.563,564.278Z"/>
        </g>
        <g transform="matrix(1,0,0,1,-504.177,30.2174)">
            <path d="M1005.49,696.255C1006.13,693.407 1005.56,690.308 1003.67,687.795C1001.26,684.591 998.785,684.072 997.691,683.805C993.608,682.812 990.427,684.005 987.874,686.59C987.084,687.39 984.955,695.478 984.955,695.478C984.955,695.478 984.935,695.112 984.935,694.939C984.935,700.635 989.559,705.26 995.255,705.26C1000.5,705.26 1004.85,701.331 1005.49,696.255ZM987.519,700.637C988.685,702.052 989.86,702.812 990.846,703.248C989.599,702.636 988.461,701.761 987.519,700.637Z"/>
        </g>
        <g transform="matrix(1,0,0,1,-504.177,30.2174)">
            <path d="M970.65,638.274C971.262,637.425 971.753,636.468 972.091,635.419C973.839,629.998 970.857,624.177 965.436,622.429C960.882,620.961 958.635,622.353 957.494,622.906C955.897,623.68 951.818,630.306 951.818,630.306C951.818,630.306 951.957,629.523 952.338,628.76C949.791,633.855 951.859,640.059 956.954,642.607C961.953,645.106 968.02,643.162 970.65,638.274ZM959.644,642.233C962.033,642.902 963.691,642.65 964.851,642.241C963.19,642.675 961.404,642.698 959.644,642.233Z"/>
        </g>
        <g transform="matrix(1,0,0,1,-504.177,30.2174)">
            <path d="M931.865,571.377C930.544,573.11 929.76,575.274 929.76,577.62C929.76,583.316 934.384,587.94 940.08,587.94C939.948,587.94 939.772,587.932 939.772,587.932C939.772,587.932 948.241,584.818 949.18,583.445C950.04,582.189 950.232,573.675 950.232,573.675C950.232,573.675 950.299,573.855 950.341,573.991C948.652,568.551 942.865,565.505 937.425,567.194C935.051,567.931 933.133,569.448 931.865,571.377Z"/>
        </g>
        <g transform="matrix(1,0,0,1,-504.177,30.2174)">
            <path d="M982.616,671.892C983.886,668.248 983.052,664.036 980.126,661.146C975.79,656.862 971.815,657.872 971.051,657.984C968.385,658.376 966.132,659.609 964.363,661.908C964.113,662.233 962.284,664.327 962.284,669.384C962.284,675.081 966.908,679.705 972.604,679.705C977.436,679.705 981.496,676.378 982.616,671.892Z"/>
        </g>
        <g transform="matrix(1,0,0,1,-504.177,30.2174)">
            <path d="M918.056,596.773C915.753,593.579 911.714,591.854 907.61,592.696C902.03,593.841 898.43,599.301 899.574,604.881C899.528,604.656 899.5,604.378 899.5,604.378C899.5,604.378 900.982,609.156 901.681,610.055C902.671,611.329 903.869,612.317 905.382,613.046C906.04,613.363 907.318,614.076 910.46,614.076C916.156,614.076 920.781,609.451 920.781,603.755C920.781,601.063 919.748,598.611 918.056,596.773Z"/>
        </g>
        <g transform="matrix(1,0,0,1,-504.177,30.2174)">
            <path d="M890.7,540.505C891.971,544.761 895.919,547.866 900.586,547.866C906.283,547.866 910.907,543.241 910.907,537.545C910.907,537.802 910.882,538.099 910.882,538.099C910.882,538.099 910.12,532.618 909.103,531.135C908.8,530.693 908.36,529.976 906.787,528.706C902.355,525.128 895.852,525.822 892.274,530.254C889.863,533.241 889.392,537.167 890.7,540.505Z"/>
        </g>
        <g transform="matrix(1,0,0,1,-504.177,30.2174)">
            <path d="M909.437,493.611C909.543,499.212 914.125,503.726 919.753,503.726C925.449,503.726 930.073,499.101 930.073,493.405C930.073,490.538 929.104,487.178 928.821,486.671C927.511,484.327 925.72,483.027 923.979,482.255C921.595,481.199 918.9,480.901 915.874,482.139C915.019,482.488 912.272,483.346 910.292,487.525C909.36,489.494 909.105,491.611 909.437,493.611ZM928.701,496.846C928.134,497.899 927.406,498.817 926.561,499.582C927.253,498.998 928.019,498.139 928.701,496.846Z"/>
        </g>
        <g transform="matrix(1,0,0,1,-504.177,30.2174)">
            <path d="M868.62,475.6C867.528,476.286 866.548,477.193 865.75,478.307C862.725,482.525 863.605,485.924 864.082,487.569C865.101,491.088 867.427,493.257 870.304,494.377C871.518,494.849 872.875,495.121 874.352,495.083C877.098,495.013 884.772,492.927 884.772,484.113C884.772,478.416 880.147,473.792 874.451,473.792C872.288,473.792 870.279,474.459 868.62,475.6ZM884.419,485.197C884.287,486.789 883.782,488.368 882.883,489.798C883.988,488.078 884.369,486.517 884.419,485.197ZM864.143,483.597C864.135,483.766 864.13,483.937 864.13,484.113L864.143,483.597Z"/>
        </g>
        <g transform="matrix(1,0,0,1,-504.177,30.2174)">
            <path d="M841.608,473.691C841.69,473.636 841.772,473.581 841.855,473.526C846.59,470.361 847.864,463.946 844.699,459.21C841.533,454.475 835.118,453.201 830.383,456.367C830.301,456.422 830.218,456.477 830.136,456.532C825.401,459.697 824.126,466.112 827.292,470.847C830.458,475.583 836.873,476.857 841.608,473.691Z"/>
        </g>
        <g transform="matrix(1,0,0,1,-504.177,30.2174)">
            <path d="M806.565,405.328C804.92,406.645 805.264,406.284 803.847,407.701C799.819,411.728 799.819,418.269 803.847,422.296C807.875,426.324 814.415,426.324 818.443,422.296C818.967,421.772 818.859,421.928 819.467,421.44C823.913,417.88 824.633,411.38 821.072,406.933C817.512,402.487 811.011,401.768 806.565,405.328Z"/>
        </g>
        <g transform="matrix(1,0,0,1,-504.177,30.2174)">
            <path d="M872.385,440.881C871.485,441.263 870.596,441.824 869.769,442.633C867.6,444.621 866.292,447.519 866.43,450.686C866.491,452.1 867.447,454.927 867.613,455.246C869.974,459.783 873.664,460.555 875.789,460.758C878.782,461.044 883.7,460.753 886.312,454.417C886.45,454.083 887.095,452.913 887.095,450.427C887.095,449.74 887.028,449.068 886.898,448.419C886.009,443.406 881.517,439.7 876.292,439.927C874.896,439.988 873.577,440.324 872.385,440.881ZM867.069,446.912C866.86,447.404 866.541,448.319 866.474,449.803C866.534,448.794 866.739,447.823 867.069,446.912ZM875.898,440.146C874.793,440.183 873.58,440.374 872.385,440.881C871.421,441.33 870.54,441.923 869.769,442.633C869.032,443.35 868.346,444.265 867.748,445.426C869.374,442.495 872.387,440.439 875.898,440.146ZM880.364,440.75C882.085,441.389 883.59,442.474 884.738,443.865C883.38,442.136 881.8,441.231 880.364,440.75Z"/>
        </g>
        <g transform="matrix(1,0,0,1,-504.177,30.2174)">
            <path d="M837.381,517.871L837.397,518.137L837.433,518.399C837.743,523.816 842.24,528.119 847.735,528.119C853.431,528.119 858.055,523.494 858.055,517.798C858.055,514.528 858.137,515.853 857.489,513.838C855.746,508.416 849.928,505.428 844.506,507.171C839.84,508.67 836.977,513.186 837.381,517.871ZM837.427,518.296L837.414,517.798C837.414,517.323 837.438,516.867 837.438,516.867C837.438,516.867 837.34,517.196 837.381,517.871L837.402,518.111L837.427,518.296L837.427,518.329L837.433,518.399C837.473,518.729 837.545,519.113 837.666,519.551L837.566,519.134C837.534,518.964 837.502,518.793 837.471,518.623L837.427,518.296Z"/>
        </g>
        <g transform="matrix(1,0,0,1,-504.177,30.2174)">
            <path d="M889.354,561.411C884.905,558.234 878.689,559.082 875.264,563.419C871.389,568.327 872.98,572.045 873.594,573.68C874.632,576.441 884.695,580.341 884.695,580.341C884.695,580.341 884.034,580.39 883.744,580.39C889.44,580.39 894.064,575.766 894.064,570.069C894.064,566.442 892.189,563.249 889.354,561.411ZM893.603,568.544C893.932,571.188 893.244,573.957 891.464,576.211C893.954,573.057 894.011,570.41 893.603,568.544Z"/>
        </g>
        <g transform="matrix(1,0,0,1,-504.177,30.2174)">
            <path d="M954.729,541.515C953.296,536.349 948.081,533.093 942.744,534.173C937.161,535.303 933.546,540.753 934.676,546.336C934.635,546.133 934.62,545.852 934.62,545.852C934.62,545.852 936.548,552.868 938.166,554.332C939.452,555.497 941.484,557.159 945.888,557.159C951.584,557.159 956.209,552.534 956.209,546.838C956.209,544.891 955.668,543.069 954.729,541.515ZM948.071,536.751L948.247,536.792L948.198,536.778L948.071,536.751ZM947.459,536.636L946.947,536.571C947.289,536.602 947.609,536.652 947.909,536.717L947.459,536.636ZM946.447,536.533L946.925,536.569L946.53,536.535L946.447,536.533Z"/>
        </g>
        <g transform="matrix(1,0,0,1,-504.177,30.2174)">
            <path d="M953.291,470.119C953.662,467.663 953.152,465.067 951.663,462.843C948.958,458.803 945.847,458.466 944.7,458.269C940.305,457.515 936.696,458.9 934.145,463.036C933.736,463.699 932.679,470.036 932.679,470.036C932.679,470.036 932.663,469.74 932.663,469.593C932.663,475.289 937.288,479.913 942.984,479.913C948.504,479.913 953.017,475.571 953.291,470.119ZM934.869,474.826C936.448,476.965 938.15,477.842 939.452,478.241C937.682,477.579 936.079,476.426 934.869,474.826Z"/>
        </g>
        <g transform="matrix(1,0,0,1,-504.177,30.2174)">
            <path d="M804.662,354.206C803.875,350.876 801.45,348.011 797.979,346.816C792.593,344.962 786.715,347.83 784.862,353.216C784.917,353.054 785.007,352.853 785.007,352.853C785.007,352.853 783.99,358.841 784.224,359.834C784.86,362.533 786.294,364.623 788.706,366.174C789.305,366.56 790.979,367.821 794.883,367.821C800.579,367.821 805.203,363.196 805.203,357.5C805.203,356.348 805.014,355.24 804.662,354.206Z"/>
        </g>
        <g transform="matrix(1,0,0,1,-504.177,30.2174)">
            <path d="M829.122,320.404C827.766,322.148 826.96,324.34 826.96,326.718C826.96,332.415 831.584,337.039 837.28,337.039C840.678,337.039 842.063,336.176 842.732,335.82C844.374,334.945 845.626,333.769 846.599,332.251C847.201,331.312 848.251,326.244 848.251,326.244C848.251,326.244 848.251,326.526 848.229,326.755C848.791,321.086 844.645,316.028 838.976,315.466C834.888,315.061 831.117,317.105 829.122,320.404Z"/>
        </g>
        <g transform="matrix(1,0,0,1,-504.177,30.2174)">
            <path d="M785.895,336.648C790.746,335.397 794.095,330.754 793.576,325.617C793.002,319.95 787.936,315.814 782.269,316.387C782.601,316.354 783.277,316.352 783.277,316.352C783.277,316.352 776.075,317.725 774.195,319.701C772.672,321.303 771.204,323.56 771.204,327.299C771.204,332.995 775.828,337.62 781.525,337.62C783.086,337.62 784.568,337.272 785.895,336.648ZM791.828,327.883C791.75,329.272 791.398,330.589 790.824,331.778C791.377,330.739 791.757,329.469 791.828,327.883Z"/>
        </g>
        <g transform="matrix(1,0,0,1,-504.177,30.2174)">
            <path d="M844.552,375.807C847.615,373.36 849.14,369.262 848.118,365.215C846.722,359.693 841.105,356.343 835.582,357.738C833.766,358.198 831.066,359.967 830.247,360.84C829.178,361.979 828.548,363.146 828.154,364.153C826.643,368.007 827.326,371.433 829.733,374.416C830.62,375.516 832.643,378.275 837.861,378.275C840.414,378.275 842.751,377.347 844.552,375.807ZM838.446,357.651C840.616,357.773 842.607,358.565 844.213,359.826C843.168,358.91 841.421,357.779 838.446,357.651Z"/>
        </g>
        <g transform="matrix(1,0,0,1,-504.177,30.2174)">
            <path d="M861.439,404.815C862.306,400.857 860.782,396.585 857.25,394.129C852.573,390.877 846.136,392.034 842.884,396.711C841.447,398.778 841.358,399.66 841.185,400.354C840.971,401.214 840.927,403.954 840.927,403.954C840.927,403.954 840.899,403.672 840.899,403.383C840.899,409.079 845.523,413.703 851.219,413.703C856.43,413.703 860.743,409.834 861.439,404.815Z"/>
        </g>
        <g transform="matrix(1,0,0,1,-504.177,30.2174)">
            <path d="M889.847,395.642C892.027,392.815 892.678,388.933 891.219,385.399C889.046,380.134 883.007,377.624 877.742,379.797C875.057,380.905 874.333,381.852 873.734,382.497C872.876,383.421 871.372,386.595 871.372,386.595C871.372,386.595 871.443,386.32 871.609,385.99C869.061,391.085 871.129,397.289 876.224,399.836C881.176,402.313 887.177,400.428 889.847,395.642ZM887.591,397.796C887.151,398.105 886.681,398.382 886.182,398.622C886.787,398.338 887.24,398.06 887.591,397.796Z"/>
        </g>
        <g transform="matrix(1,0,0,1,-504.177,30.2174)">
            <path d="M868.157,339.293C863.531,340.31 860.065,344.438 860.065,349.369C860.065,355.065 864.689,359.69 870.385,359.69C869.95,359.69 869.47,359.609 869.47,359.609C869.47,359.609 877.837,357.843 879.173,356.364C879.823,355.644 881.324,354.268 881.828,350.337C882.553,344.687 878.555,339.512 872.905,338.787C871.248,338.574 869.632,338.768 868.157,339.293Z"/>
        </g>
        <g transform="matrix(1,0,0,1,-504.177,30.2174)">
            <path d="M911.126,406.827C907.292,409.777 905.954,415.126 908.198,419.614C910.746,424.709 916.95,426.777 922.045,424.23C921.841,424.332 921.575,424.422 921.575,424.422C921.575,424.422 925.998,421.78 926.468,421.232C929.209,418.043 929.719,414.68 928.331,410.91C928.07,410.201 927.427,407.95 924.13,405.703C920.009,402.894 914.569,403.478 911.126,406.827Z"/>
        </g>
        <g transform="matrix(1,0,0,1,-504.177,30.2174)">
            <path d="M910.967,368.952C906.425,370.032 903.043,374.119 903.043,378.99C903.043,384.686 907.668,389.31 913.364,389.31C916.913,389.31 916.174,389.398 920.032,387.495C925.14,384.974 927.241,378.781 924.721,373.672C922.211,368.587 916.061,366.482 910.967,368.952ZM910.06,369.427C909.588,369.654 909.329,369.847 909.329,369.847C909.329,369.847 909.63,369.663 910.06,369.427Z"/>
        </g>
        <g transform="matrix(1,0,0,1,-504.177,30.2174)">
            <path d="M988.966,448.556C993.715,446.996 996.756,442.163 995.921,437.079C994.997,431.458 989.684,427.645 984.063,428.569C981.813,428.938 983.255,428.336 979.605,430.161C974.51,432.708 972.442,438.913 974.989,444.007C977.537,449.102 983.741,451.17 988.836,448.623L988.966,448.556Z"/>
        </g>
        <g transform="matrix(1,0,0,1,-504.177,30.2174)">
            <path d="M962.207,421.315C965.6,419.139 967.543,415.07 966.808,410.852C965.83,405.24 960.481,401.478 954.869,402.456C952.073,402.943 951.34,403.599 950.651,404.046C949.974,404.485 948.134,406.327 948.134,406.327C948.134,406.327 948.288,406.134 948.464,405.958C944.436,409.986 944.436,416.526 948.464,420.554C952.219,424.309 958.158,424.563 962.207,421.315Z"/>
        </g>
        <g transform="matrix(1,0,0,1,-504.177,30.2174)">
            <path d="M1046.09,457.591C1046.04,457.504 1045.98,457.416 1045.93,457.329C1043.01,452.439 1036.67,450.842 1031.78,453.764C1026.89,456.687 1025.29,463.029 1028.21,467.918C1028.27,468.006 1028.32,468.093 1028.37,468.181C1031.29,473.07 1037.63,474.667 1042.52,471.745C1047.41,468.823 1049.01,462.481 1046.09,457.591Z"/>
        </g>
        <g transform="matrix(1,0,0,1,-504.177,30.2174)">
            <path d="M1017.43,428.803C1017.26,428.943 1017.11,429.077 1017,429.19C1012.97,433.218 1012.97,439.758 1017,443.786C1021.02,447.813 1027.57,447.813 1031.59,443.786C1031.29,444.09 1030.54,444.68 1030.54,444.68C1030.54,444.68 1035.74,439.012 1035.78,435.371C1035.83,429.675 1031.25,425.009 1025.55,424.958C1022.27,424.929 1019.34,426.433 1017.43,428.803Z"/>
        </g>
        <g transform="matrix(1,0,0,1,-504.177,30.2174)">
            <path d="M1097.34,473.966C1092.54,474.849 1088.9,479.059 1088.9,484.113C1088.9,489.809 1093.52,494.433 1099.22,494.433C1098.68,494.433 1098.12,494.349 1098.12,494.349C1098.12,494.349 1104.86,493.216 1105.68,492.645C1108.6,490.626 1110.3,487.828 1110.12,483.703C1110.1,483.06 1110.16,481.163 1108.43,478.45C1106,474.649 1101.49,472.975 1097.34,473.966ZM1089.47,482.944C1089.21,484.364 1089.19,486.672 1091.03,489.56C1089.72,487.516 1089.23,485.184 1089.47,482.944Z"/>
        </g>
        <g transform="matrix(1,0,0,1,-504.177,30.2174)">
            <path d="M1083.92,443.596C1078.32,443.695 1073.8,448.28 1073.8,453.911C1073.8,459.608 1078.42,464.232 1084.12,464.232C1083.61,464.232 1082.97,464.112 1082.97,464.112C1082.97,464.112 1088.76,464.085 1090.37,463.27C1091.89,462.495 1093.87,461.317 1095.39,457.875C1097.69,452.662 1095.32,446.565 1090.11,444.268C1088.09,443.378 1085.94,443.188 1083.92,443.596ZM1079.17,445.932C1078.31,446.6 1077.46,447.566 1076.74,449.058C1077.35,447.835 1078.18,446.784 1079.17,445.932Z"/>
        </g>
        <g transform="matrix(1,0,0,1,-504.177,30.2174)">
            <path d="M1136.18,482.249L1136.14,482.269L1136.04,482.337L1135.84,482.432C1130.74,484.979 1128.67,491.183 1131.22,496.278C1133.77,501.373 1139.97,503.441 1145.07,500.894C1149.34,498.756 1147.85,499.549 1149.34,497.932C1153.2,493.742 1152.93,487.208 1148.74,483.348C1145.21,480.102 1140.03,479.776 1136.18,482.249ZM1136.06,482.324C1137,481.864 1137.7,481.611 1137.7,481.611C1137.7,481.611 1137.1,481.687 1136.18,482.249L1136.14,482.271L1136.06,482.324L1136.04,482.337C1135.49,482.683 1134.85,483.195 1134.15,483.946C1134.74,483.316 1135.38,482.774 1136.06,482.324Z"/>
        </g>
        <g transform="matrix(1,0,0,1,-504.177,30.2174)">
            <path d="M1167.49,498.86C1163.98,502.911 1164.15,509.052 1168,512.9C1172.03,516.927 1178.57,516.927 1182.6,512.9C1182.3,513.196 1182.05,513.381 1182.05,513.381C1182.05,513.381 1183.44,512.138 1183.86,511.617C1184.55,510.769 1185.5,510.043 1186.09,506.556C1187.05,500.94 1183.26,495.605 1177.65,494.648C1173.61,493.96 1169.71,495.724 1167.49,498.86ZM1167.07,499.514C1166.58,500.145 1166.08,501.106 1165.74,503.088C1165.96,501.786 1166.42,500.582 1167.07,499.514Z"/>
        </g>
        <g transform="matrix(1,0,0,1,-504.177,30.2174)">
            <path d="M927.56,360.043L927.81,359.889C932.578,356.774 933.921,350.373 930.806,345.604C928.934,342.739 927.116,342.048 926.381,341.707C923.862,340.536 921.442,340.441 918.974,341.201C917.966,341.512 913.352,345.423 913.352,345.423C913.352,345.423 913.742,344.849 914.197,344.395C910.169,348.422 910.169,354.962 914.197,358.99C917.836,362.629 923.525,362.98 927.56,360.043ZM916.112,359.607C915.117,358.89 914.235,357.981 913.525,356.893C914.434,358.285 915.348,359.103 916.112,359.607Z"/>
        </g>
        <g transform="matrix(1,0,0,1,-504.177,30.2174)">
            <path d="M869.097,321.431L869.115,321.449C879.555,332.177 885.3,330.784 887.39,325.589C892.842,323.74 894.584,318.024 883.907,307.054L883.539,306.694L883.491,306.643C879.463,302.615 872.923,302.615 868.896,306.643C864.868,310.671 864.868,317.211 868.896,321.239L869.097,321.431Z"/>
        </g>
        <g transform="matrix(1,0,0,1,-504.177,30.2174)">
            <path d="M966.418,392.044C969.742,393.535 973.756,393.219 976.867,390.872C980.638,388.028 980.846,385.083 981.009,383.881C981.36,381.288 980.777,379.084 979.631,377.172C978.754,375.709 969.539,372.184 969.539,372.184C969.539,372.184 970.068,372.154 970.281,372.154C964.585,372.154 959.961,376.778 959.961,382.474C959.961,386.804 962.633,390.515 966.418,392.044ZM963.976,374.763C961.9,376.475 961.139,378.211 960.82,379.509C961.386,377.712 962.449,376.055 963.976,374.763Z"/>
        </g>
    </g>
</svg>
