<?xml version="1.0" encoding="UTF-8" standalone="no"?>
<!DOCTYPE svg PUBLIC "-//W3C//DTD SVG 1.1//EN" "http://www.w3.org/Graphics/SVG/1.1/DTD/svg11.dtd">
<svg width="100%" height="100%" viewBox="0 0 1034 933" version="1.1" xmlns="http://www.w3.org/2000/svg" xmlns:xlink="http://www.w3.org/1999/xlink" xml:space="preserve" xmlns:serif="http://www.serif.com/" style="fill-rule:evenodd;clip-rule:evenodd;stroke-linecap:round;stroke-linejoin:round;stroke-miterlimit:1.5;">
    <g transform="matrix(1,0,0,1,-20.1829,-299.498)">
        <path d="M389.288,478.979C389.435,481.435 372.99,479.691 375.887,473.277C376.313,472.333 378.587,472.392 378.08,473.19C376.533,475.625 367.699,472.875 366.439,471.057C365.169,469.226 366.483,462.763 368.863,465.688C369.729,466.753 362.64,466.555 361.664,465.885C358.673,463.831 354.714,457.718 353.818,454.154C352.76,449.95 357.293,447.247 357.818,448.635C358.421,450.232 353.026,448.966 352.504,448.713C350.809,447.892 348.871,446.459 347.911,444.808C346.584,442.525 345.812,437.755 347.319,435.384C347.845,434.555 350.955,434.123 350.194,434.743C348.379,436.219 345.361,432.175 345.292,430.806C345.131,427.594 346.117,421.214 350.6,421.675C351.43,421.76 348.756,421.697 348.161,421.112C346.86,419.833 347.01,418.047 347.401,416.352C347.879,414.28 348.754,411.587 350.334,410.044C351.36,409.042 353.913,407.658 353.913,407.658C353.913,407.658 351.284,406.419 351.046,405.178C350.51,402.377 351.524,399.415 353.416,397.306C354.837,395.722 356.568,395.133 358.612,395.343C359.588,395.444 356.547,394.893 355.927,394.131C354.809,392.757 354.573,390.113 355.263,388.445C356.524,385.391 364.59,379.689 364.649,379.109C364.65,379.106 362.067,378.54 362.773,376.107C363.139,374.844 364.201,373.208 365.039,372.282C367.447,369.618 370.608,367.588 373.799,366.003C375.646,365.086 379.647,366.804 379.858,364.753C380.248,360.952 388.949,349.837 392.769,354.531C392.984,354.796 392.657,354.302 392.832,353.913C393.735,351.914 395.615,350.487 397.632,349.724C401.51,348.259 405.247,350.601 408.538,349.909C409.588,349.687 410.339,347.541 411.635,347.105C413.771,346.388 417.017,345.939 419.143,346.94C420.493,347.576 421.199,350.32 422.595,349.792C423.423,349.479 424.041,347.396 425.384,346.957C425.798,346.822 438.215,350.038 439.678,350.611C443.826,352.236 446.578,353.327 446.147,357.518C445.997,358.982 448.858,356.136 450.329,356.103C452.567,356.054 455.538,358.172 457.171,359.587C458.581,360.809 457.928,364.347 459.784,364.537C462.751,364.842 464.275,364.6 466.942,366.597C468.377,367.672 467.766,371.912 467.766,371.912C467.766,371.912 470.934,370.635 472.185,371.43C473.966,372.562 472.844,374.129 472.699,375.54C472.549,377.005 475.97,374.922 477.105,375.86C479.022,377.444 479.951,381.932 479.25,384.198C478.832,385.549 474.86,386.654 476.19,387.135C480.43,388.671 484.561,387.101 486.591,392.472C489.513,400.208 482.046,400.008 481.675,403.617C481.648,403.879 484.805,405.845 485.096,406.778C486.013,409.716 483.381,412.622 483.717,414.127C484.113,415.907 487.238,415.139 487.446,417.32C487.694,419.924 484.105,419.189 483.114,419.996C482.323,420.639 484.31,421.913 484.064,422.902C483.713,424.31 480.921,426.149 480.839,426.941C480.568,429.585 482.867,429.328 482.93,430.901C482.97,431.925 479.751,433.488 480.545,432.841C482.225,431.474 485.119,433.898 484.924,435.788C484.744,437.547 478.844,438.626 479.792,437.133C480.662,435.765 483.267,439.046 481.914,440.785C480.863,442.136 478.764,443.086 477.241,443.738C476.428,444.086 473.795,444.32 474.675,444.411C475.911,444.538 477.526,445.458 476.583,447.104C475.07,449.743 470.589,451.623 467.672,451.807C467.156,451.839 466.128,451.648 466.128,451.648C466.128,451.648 468.149,451.121 468.94,451.625C470.169,452.407 469.524,454.533 468.868,455.363C463.062,462.704 455.804,460.999 455.815,460.888C455.967,459.405 458.915,461.557 457.691,463.89C456.063,466.996 451.399,468.833 448.1,469.147C447.958,469.161 441.817,469.542 441.954,468.204C442.019,467.569 446.252,469.678 444.353,472.196C441.541,475.925 433.844,479.779 429.185,477.915C427.634,477.294 431.64,476.253 430.789,477.874C429.078,481.139 412.453,485.809 411.557,481.79C411.3,480.636 414.237,481.028 414.7,481.322C416.548,482.496 407.665,486.132 406.441,486.209C403.861,486.371 388.657,485.693 389.151,480.882"/>
        <path d="M407.37,347.037C406.24,347.119 405.053,346.774 403.817,346.56C401.477,346.157 399.047,345.972 396.568,346.909C394.649,347.634 392.847,348.833 391.518,350.418C390.131,350.182 388.617,350.481 387.051,351.244C384.309,352.581 381.315,355.691 379.338,358.691C378.388,360.131 377.685,361.554 377.272,362.753C376.782,362.733 376.205,362.712 375.792,362.703C374.534,362.675 373.358,362.861 372.46,363.307C368.937,365.057 365.465,367.322 362.806,370.263C361.713,371.471 360.359,373.622 359.882,375.269C359.45,376.758 359.639,377.936 360.032,378.866C360.064,378.942 360.098,379.017 360.134,379.089C358.637,380.358 356.674,382.074 355.336,383.433C353.966,384.825 352.929,386.211 352.481,387.295C351.696,389.193 351.739,391.906 352.512,394.046C352.047,394.404 351.602,394.82 351.175,395.296C348.669,398.091 347.38,402.032 348.09,405.744C348.193,406.283 348.435,406.85 348.801,407.395C348.587,407.565 348.393,407.732 348.231,407.891C346.267,409.809 345.062,413.101 344.468,415.676C344.015,417.639 343.951,419.643 344.734,421.379C344.535,421.641 344.348,421.917 344.173,422.208C342.633,424.755 342.165,428.558 342.286,430.957C342.313,431.498 342.487,432.248 342.88,433.064C343.179,433.685 343.621,434.382 344.147,435.043C343.692,436.228 343.467,437.633 343.484,439.103C343.515,441.753 344.306,444.595 345.308,446.321C346.48,448.336 348.736,450.152 350.829,451.239C350.582,452.341 350.566,453.567 350.898,454.889C351.93,458.989 356.518,466.003 359.96,468.367C360.399,468.668 361.451,469.082 362.845,469.261L362.943,469.272C363,470.702 363.405,471.965 363.965,472.773C364.418,473.426 365.364,474.251 366.725,474.948C368.36,475.786 370.7,476.561 372.886,476.931C373.36,478.085 374.234,479.105 375.408,479.985C377.999,481.927 382.534,482.999 385.862,483.052C386.09,483.056 386.314,483.054 386.532,483.046C387.208,484.636 388.734,486.021 391.033,486.968C395.916,488.98 404.655,489.337 406.63,489.213C407.243,489.175 409.425,488.526 411.632,487.544C412.481,487.167 413.33,486.74 414.102,486.302C414.661,486.351 415.262,486.366 415.896,486.342C419.991,486.187 425.819,484.543 429.4,482.7C430.203,482.286 430.905,481.841 431.495,481.39C433.125,481.448 434.87,481.189 436.605,480.66C440.73,479.402 444.763,476.651 446.756,474.009C447.229,473.381 447.542,472.765 447.72,472.166C448.108,472.158 448.355,472.147 448.385,472.144C452.547,471.747 458.304,469.205 460.357,465.288C460.61,464.805 460.783,464.326 460.886,463.857C463.97,463.255 467.817,461.544 471.229,457.23C471.853,456.44 472.481,455.012 472.617,453.62C475.344,452.505 477.987,450.707 479.194,448.601C479.776,447.587 479.936,446.661 479.868,445.842C481.507,445.034 483.267,443.948 484.29,442.633C484.985,441.74 485.308,440.693 485.307,439.613C485.508,439.505 485.698,439.391 485.872,439.272C487.157,438.392 487.804,437.21 487.919,436.096C488.082,434.507 487.253,432.636 485.917,431.297C485.938,431.119 485.944,430.947 485.937,430.782C485.898,429.776 485.569,429.004 485.079,428.345C484.904,428.108 484.569,427.785 484.266,427.511C484.783,426.995 485.432,426.324 485.809,425.853C486.412,425.1 486.812,424.323 486.984,423.63C487.109,423.132 487.131,422.612 487.042,422.084C487.183,422.041 487.314,421.996 487.428,421.951C488.357,421.581 489.115,421.011 489.649,420.252C490.204,419.462 490.577,418.439 490.443,417.034C490.273,415.255 489.402,414.191 488.219,413.452C487.944,413.28 487.515,413.085 487.105,412.916L487.428,412.086C488.165,410.202 488.643,408.04 487.969,405.881C487.798,405.331 487.342,404.548 486.564,403.799C486.356,403.598 486.073,403.352 485.769,403.101C486.296,402.705 486.849,402.301 487.362,401.848C488.566,400.783 489.561,399.484 490.02,397.733C490.434,396.153 490.432,394.123 489.406,391.408C487.923,387.483 485.63,386.14 482.975,385.452C482.68,385.375 482.377,385.313 482.067,385.259C482.089,385.202 482.108,385.144 482.126,385.087C482.69,383.264 482.571,380.362 481.747,377.879C481.141,376.051 480.157,374.477 479.022,373.539C478.305,372.947 477.338,372.595 476.19,372.598C476.109,371.256 475.52,369.983 473.799,368.889C473.031,368.401 471.965,368.132 470.79,368.166C470.768,367.99 470.741,367.817 470.708,367.647C470.414,366.129 469.69,364.895 468.746,364.188C465.869,362.032 464.12,361.912 461.239,361.652C461.125,361.178 460.974,360.576 460.858,360.181C460.511,359.006 459.941,358.004 459.143,357.312C457.052,355.501 453.128,353.031 450.263,353.094C449.783,353.104 449.223,353.216 448.633,353.432C447.496,350.788 444.728,349.356 440.776,347.808C439.406,347.272 428.809,344.495 426.389,344.051C425.309,343.852 424.622,344.04 424.449,344.096C423.594,344.375 422.835,344.906 422.191,345.6C421.655,344.996 421.056,344.514 420.425,344.217C417.665,342.917 413.448,343.32 410.676,344.252C409.798,344.547 408.985,345.141 408.285,345.926C408.015,346.228 407.615,346.727 407.37,347.037ZM417.669,349.583C416.262,349.034 414.269,349.426 412.841,349.879C412.649,350.119 411.998,350.93 411.66,351.305C410.888,352.16 410.014,352.674 409.158,352.854C407.478,353.208 405.704,353.012 403.867,352.685C402.215,352.391 400.476,351.868 398.696,352.54C397.408,353.027 396.152,353.875 395.576,355.152C395.796,354.664 395.744,353.772 395.744,353.772C395.744,353.772 393.544,357.56 393.148,357.6C392.92,357.624 391.657,357.934 390.434,356.431C390.349,356.327 390.231,356.441 390.11,356.481C389.75,356.6 389.385,356.802 389.013,357.046C387.89,357.783 386.774,358.892 385.79,360.08C384.274,361.912 382.972,363.891 382.852,365.061C382.632,367.201 381.395,368.331 379.361,368.713C378.608,368.854 377.64,368.836 376.634,368.772C376.121,368.739 375.203,368.749 375.035,368.751C372.211,370.162 369.404,371.943 367.271,374.301C366.732,374.897 366.034,375.9 365.731,376.743C366.403,377.68 367.644,379.413 367.644,379.416C367.607,379.775 367.497,380.312 367.08,380.915C366.902,381.173 366.449,381.671 365.745,382.282C364.49,383.372 362.095,385.263 360.168,387.121C359.215,388.041 358.338,388.884 358.045,389.594C357.772,390.254 357.747,391.25 358.07,391.922C358.559,392.083 359.687,392.458 359.841,392.517C361.304,393.076 361.598,394.189 361.685,394.477C362.039,395.65 361.82,396.73 360.76,397.638C360.648,397.734 359.95,398.507 358.304,398.338C357.265,398.231 356.379,398.511 355.657,399.316C354.494,400.613 353.777,402.373 353.933,404.106L355.196,404.934C356.222,405.418 356.89,406.438 356.922,407.572C356.954,408.707 356.345,409.763 355.348,410.304C355.348,410.304 353.265,411.389 352.437,412.197C351.241,413.366 350.697,415.46 350.335,417.029C350.229,417.486 350.137,417.95 350.135,418.4C350.135,418.47 350.133,418.542 350.137,418.612L350.344,418.642C350.528,418.648 350.716,418.661 350.908,418.681C351.878,418.78 352.297,419.11 352.378,419.162C353.378,419.801 353.633,420.632 353.728,421.209C353.835,421.851 353.746,422.482 353.427,423.094C353.319,423.299 352.699,424.654 350.818,424.714C350.703,424.718 350.413,424.708 350.04,424.675C349.464,424.766 349.231,425.411 348.994,425.995C348.42,427.409 348.257,429.138 348.289,430.385L349.214,431.513C350.207,431.435 351.064,431.572 351.417,431.722C352.611,432.231 353.096,433.128 353.265,433.979C353.403,434.678 353.507,435.928 352.094,437.077C351.32,437.707 350.447,438.038 349.538,438.081C349.504,438.384 349.5,438.707 349.504,439.033C349.522,440.593 349.924,442.281 350.514,443.296C351.164,444.414 352.492,445.338 353.657,445.925L354.54,446.067C354.833,445.886 355.121,445.74 355.396,445.629C358.033,444.565 359.964,445.799 360.634,447.571C361.047,448.664 360.9,449.56 360.566,450.288C360.242,450.994 359.677,451.627 358.773,452.03C358.308,452.237 357.624,452.388 356.822,452.424C356.705,452.734 356.65,453.076 356.737,453.42C357.467,456.322 360.559,461.236 363.053,463.171L364.78,463.232C365.482,462.492 366.322,462.086 367.151,461.968C368.282,461.807 369.776,462.041 371.198,463.788C372.126,464.929 372.092,466.023 371.753,466.952C371.503,467.638 370.889,468.567 369.503,469.034C369.375,469.077 369.226,469.117 369.059,469.151L369.045,469.29C369.844,469.656 372.162,470.676 373.85,470.992C374.296,470.516 374.872,470.133 375.541,469.888C376.783,469.433 378.288,469.553 379.131,469.927C380.085,470.35 380.653,471.054 380.939,471.783C381.264,472.613 381.358,473.644 380.621,474.804C380.421,475.118 380.168,475.412 379.866,475.678C380.075,475.782 380.294,475.879 380.521,475.97C382.163,476.633 384.152,476.977 385.766,477.028C386.188,477.041 386.696,477.003 387.05,476.967C387.56,476.399 388.286,476.023 389.109,475.974C390.767,475.875 392.194,477.141 392.293,478.799C392.323,479.301 392.263,479.791 392.094,480.252C392.127,480.405 392.149,480.562 392.157,480.723C392.588,480.958 393.961,481.678 395.064,481.976C399.103,483.065 404.507,483.282 406.119,483.21C406.211,483.178 407.358,482.771 408.584,482.271C408.428,481.393 408.601,480.656 408.933,480.029C409.33,479.28 410.035,478.61 411.102,478.262C411.957,477.984 413.276,477.951 414.32,478.114C415.261,478.262 416.004,478.584 416.314,478.781C416.935,479.176 417.337,479.644 417.589,480.14C419.202,479.907 420.967,479.478 422.628,478.951C423.771,478.588 424.866,478.18 425.819,477.747C425.769,476.713 426.4,475.052 428.261,474.349C429.165,474.008 430.377,473.915 431.22,474.121C432.058,474.327 432.7,474.766 433.146,475.307C433.705,475.219 434.277,475.076 434.849,474.902C437.16,474.197 439.47,472.878 441,471.43C439.338,470.609 438.824,469.214 438.96,467.896C439.101,466.517 440.351,464.432 443.222,465.235C443.692,465.366 444.315,465.649 444.943,466.059C446.152,466.101 447.761,466.156 447.814,466.151C449.4,466 451.38,465.409 452.992,464.424C453.46,464.137 453.903,463.822 454.274,463.464C452.759,462.535 452.802,460.757 452.821,460.581C452.972,459.11 453.743,458.299 454.57,457.833C455.337,457.4 456.335,457.22 457.441,457.576C457.72,457.666 458.022,457.803 458.327,457.988C460.093,457.806 463.011,457.103 465.526,454.597C464.166,454.32 463.169,453.146 463.12,451.755C463.07,450.346 464.005,449.091 465.369,448.735C465.369,448.735 466.798,448.373 468.046,448.398C468.415,448.406 468.772,448.448 469.107,448.519C470.102,448.252 471.161,447.815 472.093,447.26C472.309,447.132 472.52,446.998 472.719,446.858C471.53,446.063 471.489,444.689 471.487,444.379C471.484,443.706 471.628,442.376 473.245,441.615C473.42,441.533 473.908,441.366 474.569,441.248C475.009,441.169 476.012,440.966 476.121,440.943C476.7,440.697 477.402,440.425 478.047,440.081C477.612,439.766 477.303,439.394 477.109,439.053C476.607,438.172 476.326,436.976 477.252,435.519C477.46,435.192 477.692,434.921 477.942,434.699C477.819,434.519 477.718,434.327 477.635,434.125C477.483,433.754 476.754,432.045 478.646,430.506C478.701,430.461 478.758,430.417 478.815,430.375C478.207,429.451 477.686,428.177 477.845,426.633C477.91,425.997 478.341,424.929 479.341,423.894L480.656,422.524C480.354,421.983 480.035,421.352 479.973,421.005C479.747,419.735 480.057,418.602 481.214,417.661C481.469,417.453 481.779,417.263 482.139,417.101C481.479,416.518 480.999,415.773 480.779,414.782C480.576,413.876 480.715,412.685 481.232,411.347C481.46,410.757 481.766,410.095 482.008,409.386C482.151,408.971 482.311,408.53 482.291,408.079C481.691,407.599 479.904,406.163 479.58,405.823C478.607,404.805 478.633,403.773 478.681,403.31C478.877,401.404 479.989,399.963 481.602,398.706C482.096,398.321 482.641,397.946 483.155,397.523C483.551,397.198 483.966,396.861 484.155,396.337C484.401,395.657 484.246,394.784 483.775,393.536C483.077,391.689 481.907,391.324 480.588,391.097C478.892,390.806 477.041,390.645 475.165,389.966C473.7,389.436 473.241,388.477 473.038,387.788C472.804,386.994 472.834,386.114 473.388,385.206C473.598,384.863 473.964,384.427 474.536,384.02C474.932,383.739 475.975,383.105 476.471,382.807C476.542,382.13 476.426,381.286 476.232,380.475C476.082,379.848 475.904,379.216 475.631,378.734C475.158,378.833 474.499,378.965 474.145,379.019C473.334,379.143 472.64,379.081 472.137,378.933C471.253,378.671 470.62,378.154 470.192,377.458C469.857,376.914 469.605,376.202 469.705,375.233C469.726,375.027 469.774,374.757 469.833,374.479L468.891,374.704C467.892,375.107 466.754,374.945 465.907,374.28C465.06,373.615 464.633,372.549 464.786,371.483L464.743,368.727C462.879,367.478 461.657,367.756 459.476,367.532C457.765,367.356 456.626,366.41 455.924,364.853C455.677,364.307 455.494,363.648 455.339,362.955C455.255,362.582 455.076,361.933 455.012,361.702C454.199,361.015 453.068,360.173 451.906,359.602C451.467,359.387 451.036,359.182 450.631,359.128L448.826,360.162C447.795,360.756 446.848,360.961 446.299,360.945C445.334,360.918 444.599,360.536 444.041,359.952C443.551,359.441 443.008,358.618 443.153,357.21C443.218,356.578 443.209,356.095 442.971,355.723C442.682,355.271 442.179,354.999 441.601,354.7C440.739,354.253 439.716,353.859 438.58,353.414C437.453,352.972 429.546,350.906 426.268,350.175L425.733,350.909C425.086,351.788 424.341,352.351 423.659,352.608C422.107,353.195 420.748,352.865 419.523,351.808C418.956,351.319 417.91,349.912 417.669,349.583ZM365.668,376.655C365.595,376.359 365.31,376.156 365.31,376.156L365.668,376.655Z"/>
    </g>
    <g transform="matrix(1,0,0,1,-20.1829,-299.498)">
        <path d="M428.972,747.979L428.92,747.938C427.665,746.849 425.763,746.985 424.674,748.24C423.586,749.495 423.721,751.398 424.976,752.486C425.553,752.986 427.444,754.413 428.442,754.776C430.116,755.386 431.348,754.752 432.009,754.101C432.506,753.612 433.676,752.151 432.318,749.529C431.674,748.284 430.278,747.679 428.972,747.979Z"/>
    </g>
    <g transform="matrix(1,0,0,1,-20.1829,-299.498)">
        <path d="M557.315,724.448C556.43,724.833 555.543,725.19 554.674,725.618C552.874,726.504 550.591,727.038 548.6,727.432C540.624,729.011 532.441,729.736 524.356,730.693C501.838,733.358 478.707,731.933 456.058,732.156C447.75,732.238 438.901,731.313 430.653,732.407C428.047,732.752 425.475,732.479 422.871,732.428C421.896,732.409 420.954,732.379 419.985,732.431L419.634,732.397C419.329,732.321 419.008,732.293 418.678,732.32C416.998,732.455 416.477,733.505 416.326,733.753C415.679,734.807 415.614,735.925 416.447,737.084C416.592,737.286 417.07,738.002 418.249,738.273C418.546,738.342 419.9,738.466 420.201,738.447C421.061,738.395 421.892,738.431 422.753,738.448C425.661,738.505 428.534,738.761 431.444,738.375C439.454,737.313 448.049,738.256 456.118,738.177C478.981,737.951 502.332,739.362 525.064,736.672C533.303,735.697 541.641,734.947 549.77,733.338C552.255,732.845 555.089,732.125 557.335,731.018C558.141,730.621 558.967,730.296 559.789,729.937C559.872,729.901 560.014,729.825 560.162,729.74C561.31,729.522 562.275,728.643 562.542,727.43C562.812,726.208 562.396,725.428 562.035,724.928C561.562,724.275 560.892,723.815 559.96,723.69C559.638,723.646 559.24,723.643 558.786,723.754C558.497,723.824 557.576,724.309 557.315,724.448ZM421.283,737.182C420.783,737.818 420.029,738.251 419.16,738.321C420.42,738.22 421.01,737.584 421.283,737.182ZM421.789,734.412C422,734.99 421.998,735.556 421.825,736.107C421.914,735.781 421.948,735.435 421.92,735.079C421.901,734.848 421.857,734.624 421.789,734.412ZM556.596,726.94L556.597,726.947L556.596,726.93L556.596,726.94ZM556.593,726.864C556.586,726.624 556.609,726.379 556.663,726.135C556.604,726.402 556.585,726.645 556.593,726.864Z"/>
    </g>
    <g transform="matrix(1,0,0,1,-20.1829,-299.498)">
        <path d="M545.359,708.804C543.624,709.158 541.856,709.284 540.092,709.469C532.43,710.275 524.843,711.438 517.175,712.17C494.062,714.374 470.891,715.563 447.779,717.832C439.372,718.657 431.061,720.265 422.658,721.149C421.833,721.236 417.03,721.948 416.326,722.053C415.077,721.649 413.661,722.103 412.897,723.249C411.977,724.632 412.352,726.503 413.735,727.423C414.218,727.745 415.161,728.1 416.459,728.087C418.461,728.066 422.367,727.233 423.288,727.137C431.677,726.254 439.974,724.647 448.367,723.823C471.474,721.555 494.64,720.367 517.746,718.163C525.434,717.429 533.041,716.265 540.722,715.456C542.755,715.243 544.79,715.082 546.787,714.657C547.144,714.581 548.429,714.014 548.836,713.831C550.091,713.702 551.18,712.785 551.466,711.485C551.824,709.863 550.797,708.255 549.174,707.898C548.735,707.801 548.137,707.773 547.445,707.95C546.901,708.088 545.663,708.662 545.359,708.804Z"/>
    </g>
    <g transform="matrix(1,0,0,1,-20.1829,-299.498)">
        <path d="M534.457,688.143C534.035,688.259 531.482,688.957 530.824,689.123C527.842,689.874 524.822,690.425 521.835,691.177C512.804,693.452 503.473,694.659 494.324,696.364C482.977,698.479 471.387,699.406 459.979,701.177C443.544,703.727 427.064,706.147 410.425,706.058C408.764,706.049 407.408,707.391 407.399,709.052C407.39,710.713 408.732,712.069 410.393,712.078C427.352,712.169 444.151,709.725 460.902,707.126C472.37,705.346 484.021,704.409 495.427,702.283C504.699,700.554 514.153,699.32 523.305,697.015C526.293,696.263 529.313,695.712 532.295,694.961C533.053,694.77 535.899,693.995 536.197,693.908C538.172,693.334 538.329,691.62 538.338,691.578C538.35,691.511 537.99,687.248 534.62,688.097C534.565,688.111 534.51,688.126 534.457,688.143ZM535.756,693.999L535.712,694.004L535.731,694.003L535.756,693.999ZM533.73,693.548C534.002,693.737 534.393,693.931 534.933,693.996C534.501,693.935 534.091,693.78 533.73,693.548ZM535.915,693.973L535.827,693.989L535.885,693.98L535.915,693.973Z"/>
    </g>
    <g transform="matrix(1,0,0,1,-20.1829,-299.498)">
        <path d="M405.271,698.15C406.132,698.421 407.307,698.52 408.619,698.434C410.756,698.295 413.399,697.681 414.895,697.459C422.107,696.391 429.072,694.773 436.196,693.227C453.163,689.544 470.41,687.267 487.381,683.552C493.423,682.23 499.413,680.72 505.467,679.485C506.959,679.18 508.527,678.598 510.086,678.088C511.199,677.723 512.299,677.372 513.352,677.393C515.013,677.425 516.388,676.103 516.42,674.442C516.453,672.781 515.131,671.406 513.47,671.373C510.526,671.316 507.24,672.978 504.263,673.586C498.181,674.827 492.163,676.342 486.094,677.671C469.126,681.385 451.883,683.661 434.919,687.344C427.927,688.861 421.092,690.455 414.013,691.504C412.803,691.683 410.799,692.146 408.981,692.357C408.236,692.443 407.541,692.553 407.076,692.407C405.491,691.909 403.8,692.791 403.302,694.376C402.804,695.961 403.686,697.652 405.271,698.15Z"/>
    </g>
    <g transform="matrix(1,0,0,1,-20.1829,-299.498)">
        <path d="M400.899,682.562C401.644,682.475 402.436,682.453 403.232,682.428C405.25,682.364 407.299,682.337 409.029,681.963C416.263,680.4 423.429,678.548 430.608,676.74C446.484,672.742 461.649,666.398 477.119,661.101C481.219,659.698 485.303,658.031 489.318,656.402C489.802,656.206 491.955,655.12 492.416,654.887C493.749,654.834 494.933,653.891 495.234,652.527C495.591,650.905 494.565,649.297 492.942,648.939C492.417,648.824 491.647,648.811 490.754,649.083C489.582,649.438 487.681,650.57 487.055,650.823C483.143,652.41 479.164,654.038 475.169,655.405C459.856,660.648 444.851,666.945 429.138,670.902C422.024,672.694 414.925,674.53 407.758,676.079C406.017,676.455 403.888,676.351 401.885,676.458C400.101,676.553 398.398,676.793 396.963,677.352C396.02,677.719 395.523,678.322 395.222,678.918C394.807,679.74 394.725,680.749 395.184,681.763C395.503,682.466 396.232,683.191 396.632,683.455C397.307,683.9 397.916,683.964 398.227,683.977C399.345,684.021 400.346,683.449 400.899,682.562ZM399.272,678.105L399.272,678.105L399.272,678.105ZM399.087,678.051L399.152,678.069L399.116,678.058L399.087,678.051ZM398.924,678.014L399.041,678.04L398.967,678.022L398.924,678.014ZM398.775,677.989L398.919,678.013L398.828,677.996L398.775,677.989ZM398.632,677.972L398.77,677.988L398.697,677.978L398.632,677.972ZM398.611,677.97C398.56,677.966 398.512,677.963 398.466,677.961L398.611,677.97Z"/>
    </g>
    <g transform="matrix(1,0,0,1,-20.1829,-299.498)">
        <path d="M393.233,661.234C391.7,660.79 390.071,661.626 389.549,663.152C389.012,664.724 389.852,666.437 391.424,666.974C392.202,667.241 393.194,667.323 394.278,667.197C395.661,667.037 397.306,666.477 398.302,666.335C405.167,665.354 411.96,663.458 418.586,661.449C433.374,656.967 447.106,650.471 461.341,644.642C466.356,642.589 471.574,640.789 476.64,638.915C478.177,638.346 480.712,637.922 482.063,637.058C483.464,636.164 483.874,634.301 482.98,632.901C482.085,631.501 480.223,631.09 478.822,631.985C478.444,632.226 477.879,632.346 477.318,632.493C476.325,632.753 475.312,632.987 474.551,633.269C469.421,635.167 464.138,636.992 459.06,639.071C445,644.827 431.445,651.261 416.84,655.688C410.505,657.608 404.014,659.438 397.451,660.375C396.696,660.483 395.587,660.809 394.481,661.055C394.07,661.147 393.369,661.221 393.233,661.234Z"/>
    </g>
    <g transform="matrix(1,0,0,1,-20.1829,-299.498)">
        <path d="M386.724,650.358C389.397,648.984 392.439,648.725 395.403,647.782C401.05,645.987 406.813,644.134 412.399,642.167C420.591,639.282 429.236,637.258 437.16,633.657C442.29,631.325 447.076,628.195 452.271,626.022C458.563,623.389 465.259,621.72 471.048,618.022C472.448,617.128 472.858,615.265 471.964,613.865C471.07,612.465 469.207,612.054 467.807,612.949C462.311,616.46 455.921,617.968 449.947,620.468C444.697,622.665 439.854,625.819 434.669,628.176C426.905,631.704 418.426,633.662 410.399,636.488C404.871,638.435 399.167,640.268 393.579,642.045C390.288,643.092 386.939,643.478 383.972,645.003C382.495,645.763 381.911,647.579 382.671,649.056C383.43,650.534 385.246,651.117 386.724,650.358Z"/>
    </g>
    <g transform="matrix(1,0,0,1,-20.1829,-299.498)">
        <path d="M456.414,600.476C454.974,601.29 451.086,603.224 450.101,603.827C446.07,606.295 441.936,608.143 437.693,610.175C425.208,616.156 413.271,622.675 399.809,626.308C395.702,627.416 391.798,628.265 387.57,628.752C385.239,629.02 382.989,629.168 380.819,630.052C380.59,630.101 379.848,630.261 379.545,630.351C379.075,630.492 378.737,630.681 378.548,630.807C376.839,631.95 376.993,633.458 377.405,634.478C378.027,636.018 379.783,636.764 381.324,636.141C381.383,636.117 381.441,636.091 381.498,636.063C381.924,635.961 382.821,635.74 382.982,635.671C384.67,634.944 386.442,634.942 388.259,634.733C392.79,634.211 396.976,633.308 401.377,632.12C415.199,628.391 427.475,621.745 440.294,615.605C444.725,613.482 449.035,611.539 453.245,608.962C454.427,608.238 459.655,605.624 460.248,605.166C462.045,603.778 461.435,602.034 461.235,601.558C460.974,600.938 460.242,599.478 458.076,599.728C457.434,599.802 456.861,600.074 456.414,600.476ZM382.787,634.881C383.365,633.974 383.326,633.062 382.986,632.222C383.351,633.125 383.246,634.102 382.787,634.881ZM456.557,605.081C456.981,605.454 457.67,605.835 458.765,605.709C457.943,605.803 457.159,605.556 456.557,605.081ZM455.461,602.165C455.407,602.454 455.395,602.755 455.43,603.063C455.461,603.33 455.526,603.585 455.621,603.824C455.408,603.35 455.31,602.795 455.461,602.165Z"/>
    </g>
    <g transform="matrix(1,0,0,1,-20.1829,-299.498)">
        <path d="M448.245,586.29C447.767,586.681 446.99,587.314 446.86,587.414C445.54,588.428 444.221,589.45 442.826,590.361C438.047,593.48 433.013,596.49 427.861,598.947C414.646,605.249 401.212,610.863 386.58,612.999C383.997,613.376 381.372,613.296 378.798,613.747C378.093,613.87 375.786,614.511 375.315,614.643C373.944,614.23 372.431,614.847 371.763,616.169C371.015,617.652 371.611,619.464 373.094,620.213C373.875,620.607 374.961,620.785 376.19,620.618C377.459,620.446 379.037,619.817 379.837,619.677C382.354,619.236 384.923,619.325 387.449,618.956C402.685,616.732 416.692,610.943 430.452,604.381C435.844,601.81 441.116,598.666 446.116,595.402C447.641,594.407 449.086,593.295 450.528,592.188C450.879,591.918 453.103,590.097 453.489,589.504C454.187,588.432 454.058,587.478 453.899,586.92C453.713,586.272 453.349,585.731 452.786,585.312C452.371,585.004 451.679,584.596 450.55,584.726C449.535,584.843 448.696,585.453 448.245,586.29ZM449.011,590.063C449.47,590.497 450.162,590.831 451.239,590.707C450.408,590.803 449.616,590.549 449.011,590.063Z"/>
    </g>
    <g transform="matrix(1,0,0,1,-20.1829,-299.498)">
        <path d="M441.427,575.855C440.923,576.164 439.493,577.036 439.232,577.144C434.924,578.93 430.917,581.5 426.692,583.519C416.656,588.314 406.159,590.916 395.369,593.389C386.193,595.492 376.56,597.779 367.326,598.43C365.669,598.547 364.418,599.987 364.535,601.644C364.652,603.301 366.092,604.552 367.749,604.435C377.285,603.763 387.238,601.429 396.714,599.257C407.939,596.684 418.847,593.94 429.288,588.951C433.417,586.978 437.327,584.451 441.538,582.706C442.096,582.474 444.685,581.085 445.663,580.192C446.852,579.106 446.992,577.866 446.914,577.189C446.724,575.539 445.23,574.353 443.58,574.543C442.67,574.648 441.901,575.149 441.427,575.855Z"/>
    </g>
    <g transform="matrix(1,0,0,1,-20.1829,-299.498)">
        <path d="M361.083,579.952C359.816,579.162 358.128,579.42 357.16,580.608C356.111,581.896 356.305,583.793 357.594,584.843C358.489,585.572 359.674,585.946 360.985,585.982C361.904,586.007 362.915,585.814 363.635,585.821C367.648,585.86 371.373,585.868 375.406,585.404C389.635,583.765 404.67,579.701 418.077,574.758C423.796,572.649 429.605,570.364 435.468,568.68C435.681,568.619 437.93,568.166 438.728,568.007C439.064,568.088 439.419,568.113 439.783,568.071C441.433,567.881 442.619,566.387 442.429,564.737C442.307,563.681 441.753,562.512 440.081,562.062C439.709,561.962 439.061,561.889 438.252,561.973C436.771,562.125 434.127,562.801 433.805,562.893C427.802,564.619 421.85,566.95 415.994,569.109C403.024,573.892 388.482,577.838 374.717,579.423C370.94,579.858 367.451,579.837 363.693,579.801C363.225,579.796 362.656,579.853 362.058,579.911C361.776,579.938 361.282,579.949 361.083,579.952ZM436.701,566.333L436.702,566.337L436.701,566.333ZM436.654,566.227L436.671,566.267L436.629,566.163L436.654,566.227ZM436.499,565.73L436.535,565.877C436.549,565.925 436.563,565.973 436.578,566.021L436.628,566.16C436.573,566.021 436.53,565.878 436.499,565.73ZM436.484,565.663L436.498,565.728L436.472,565.593L436.484,565.663ZM436.468,565.57L436.448,565.425C436.453,565.474 436.46,565.522 436.468,565.57Z"/>
    </g>
    <g transform="matrix(1,0,0,1,-20.1829,-299.498)">
        <path d="M500.773,585.895L500.555,586.121C497.637,588.227 494.566,591.146 491.217,592.514C481.653,596.419 470.987,598.257 460.685,597.622C459.027,597.519 457.598,598.783 457.495,600.441C457.393,602.099 458.656,603.528 460.315,603.631C471.509,604.321 483.1,602.331 493.493,598.087C497.293,596.535 500.85,593.314 504.158,590.944C504.459,590.728 506.85,588.464 507.45,587.295C508.458,585.326 507.618,583.865 506.674,583.117C505.998,582.58 505.266,582.376 504.497,582.406C503.824,582.433 502.2,583.341 502.2,583.341C502.2,583.341 502.305,583.275 502.353,583.249C501.347,583.792 500.775,584.826 500.773,585.895Z"/>
    </g>
    <g transform="matrix(1,0,0,1.29591,-309.444,217.03)">
        <rect x="209.65" y="176.476" width="997.304" height="301.659" style="fill:rgb(245,166,1);"/>
    </g>
    <g transform="matrix(1,0,0,1,-20.1829,-299.498)">
        <path d="M492.142,572.059C491.842,572.365 491.559,572.665 491.437,572.818C489.298,575.514 486.201,578.131 483.378,580.081C479.805,582.55 475.958,583.094 472.079,584.828C469.727,585.88 467.635,587.75 465.137,588.468C463.777,588.859 461.667,588.778 459.845,589.123C457.794,589.511 456.037,590.355 454.927,591.76C453.898,593.064 454.12,594.959 455.424,595.988C456.728,597.018 458.622,596.795 459.652,595.492C459.802,595.301 460.069,595.264 460.327,595.188C460.773,595.056 461.261,594.978 461.756,594.916C463.579,594.689 465.487,594.632 466.8,594.254C469.566,593.46 471.933,591.489 474.537,590.324C478.764,588.434 482.906,587.725 486.8,585.034C490.084,582.765 493.665,579.696 496.153,576.56C496.448,576.189 497.246,575.53 497.746,574.921C498.336,574.203 498.677,573.458 498.797,572.867C498.998,571.881 498.8,571.008 498.294,570.255C497.873,569.628 497.11,568.861 495.513,568.652C493.866,568.436 492.353,569.598 492.138,571.246C492.101,571.522 492.104,571.795 492.142,572.059Z"/>
    </g>
    <g transform="matrix(1,0,0,1,-20.1829,-299.498)">
        <path d="M451.707,578.312C450.524,578.264 449.373,578.921 448.848,580.062C448.154,581.572 448.816,583.361 450.325,584.055C451.278,584.493 452.276,584.53 453.277,584.224C454.075,583.981 454.907,583.31 455.493,583.022C458.261,581.658 461.556,580.632 464.476,579.657C472.156,577.094 480.796,573.599 487.22,568.39C489.744,566.343 491.633,563.288 493.579,560.835C494.612,559.534 494.394,557.639 493.092,556.606C491.791,555.573 489.896,555.792 488.863,557.093C487.175,559.221 485.617,561.938 483.428,563.714C477.548,568.482 469.599,571.6 462.57,573.947C459.401,575.004 455.835,576.142 452.833,577.621C452.576,577.747 452.04,578.093 451.707,578.312Z"/>
    </g>
    <g transform="matrix(1,0,0,1,-20.1829,-299.498)">
        <path d="M479.651,545.348L479.167,546.054C478.822,546.58 478.316,546.957 477.848,547.4C475.792,549.347 473.577,550.694 471.359,552.398C464.864,557.387 456.714,559.779 450.335,564.867C449.727,565.352 448.854,565.609 447.977,565.862C446.791,566.206 445.571,566.48 444.545,566.8L444.142,566.753C443.664,566.508 443.114,566.389 442.539,566.434C439.956,566.638 439.669,568.618 439.606,569.089C439.501,569.878 439.569,571.114 440.956,572.03C441.185,572.182 441.985,572.542 443.003,572.698C444.128,572.87 445.538,572.813 446.128,572.614C448.526,571.804 452.073,571.181 454.089,569.573C460.44,564.508 468.561,562.139 475.027,557.172C477.413,555.339 479.776,553.866 481.988,551.771C482.801,551.001 483.603,550.269 484.203,549.353C484.307,549.195 485.083,548.032 485.143,547.907C486.069,545.958 484.808,544.722 484.515,544.439C484.422,544.349 481.971,542.328 479.976,544.842C479.849,545.003 479.74,545.172 479.651,545.348ZM443.223,572.411L443.22,572.412L443.223,572.411ZM484.583,548.714C484.363,548.962 484.109,549.165 483.834,549.322C484.057,549.207 484.317,549.02 484.583,548.714Z"/>
    </g>
    <g transform="matrix(1,0,0,1,-20.1829,-299.498)">
        <path d="M470.513,531.766C469.64,532.394 465.33,535.492 464.314,536.273C459.146,540.244 454.115,543.763 448.493,547.079C441.515,551.195 433.045,552.15 425.44,554.564C413.083,558.487 400.696,562.424 387.833,564.334C380.087,565.485 372.205,567.365 364.331,566.931C361.95,566.799 359.456,566.624 357.126,566.068L357.064,566.056C356.975,565.969 356.878,565.887 356.776,565.811C355.444,564.818 353.556,565.094 352.564,566.427C351.874,567.353 351.816,568.213 351.926,568.921C352.048,569.705 352.437,570.455 353.212,571.038C353.781,571.466 355.201,571.798 355.729,571.924C358.405,572.562 361.265,572.791 363.999,572.942C372.278,573.398 380.574,571.499 388.718,570.289C401.899,568.332 414.598,564.322 427.262,560.303C435.289,557.754 444.185,556.61 451.552,552.265C457.389,548.822 462.615,545.17 467.982,541.047C469.256,540.068 474.449,536.427 475.068,535.764C476.809,533.9 475.617,532.131 475.198,531.647C474.774,531.157 473.998,530.453 472.546,530.62C471.709,530.717 470.992,531.149 470.513,531.766ZM471.065,536.002C471.518,536.381 472.2,536.721 473.235,536.601C472.43,536.694 471.662,536.459 471.065,536.002Z"/>
    </g>
    <g transform="matrix(1,0,0,1,-20.1829,-299.498)">
        <path d="M452.766,523.919C452.153,524.803 451.108,526.321 450.818,526.784C448.196,530.966 443.721,536.079 439.285,538.296C435.052,540.411 430.825,542.994 426.217,544.229C416.976,546.704 407.07,547.774 397.594,548.866C388.22,549.945 378.78,551.298 369.433,549.502C363.819,548.423 359.15,547.859 353.905,545.48C353.372,545.238 350.974,544.211 350.263,543.907C349.726,542.914 348.648,542.265 347.446,542.332C345.787,542.425 344.516,543.848 344.609,545.506C344.661,546.43 345.085,547.46 346.087,548.342C347.376,549.476 350.527,550.559 351.418,550.963C357.127,553.551 362.188,554.241 368.297,555.414C378.249,557.327 388.302,555.996 398.283,554.847C408.048,553.722 418.252,552.595 427.775,550.044C432.772,548.705 437.386,545.975 441.976,543.681C447.297,541.022 452.773,534.998 455.919,529.982C456.325,529.334 457.593,527.806 458.312,526.524C458.933,525.417 459.202,524.352 459.183,523.599C459.161,522.703 458.856,521.962 458.359,521.365C457.903,520.819 457.254,520.344 456.276,520.138C454.65,519.797 453.053,520.839 452.711,522.465C452.606,522.964 452.632,523.461 452.766,523.919Z"/>
    </g>
    <g transform="matrix(1,0,0,1,-20.1829,-299.498)">
        <path d="M439.657,517.393C439.262,517.665 437.94,518.569 437.377,518.883C432.644,521.527 427.55,523.925 422.526,525.964C404.057,533.461 385.664,529.646 366.894,525.703C361.906,524.655 357.131,521.843 353.588,518.192C353.094,517.683 352.309,516.919 351.655,516.084C351.397,515.755 351.058,515.152 350.988,515.025C350.92,513.438 349.618,512.162 348.011,512.146C346.35,512.129 344.987,513.464 344.97,515.126C344.961,516.106 345.275,517.21 345.895,518.297C346.78,519.851 348.37,521.46 349.268,522.385C353.626,526.877 359.519,530.305 365.657,531.595C385.608,535.786 405.159,539.511 424.79,531.542C430.042,529.41 435.365,526.903 440.313,524.139C441.328,523.572 442.888,522.726 443.939,521.672C445.193,520.414 445.845,518.885 445.653,517.218C445.463,515.567 443.968,514.382 442.318,514.572C440.841,514.742 439.736,515.956 439.657,517.393Z"/>
    </g>
    <g transform="matrix(1,0,0,1,-20.1829,-299.498)">
        <path d="M362.162,498.088C362.855,501.395 364.469,503.51 366.59,505.266C368.255,506.645 370.296,507.76 372.364,509.271C387.227,520.125 406.812,522.721 424.79,518.976C428.326,518.24 432.166,516.613 435.49,516.231C437.141,516.04 438.326,514.546 438.136,512.896C437.946,511.245 436.452,510.06 434.801,510.25C431.313,510.651 427.272,512.31 423.562,513.082C407.232,516.484 389.416,514.268 375.914,504.409C374.296,503.227 372.693,502.297 371.282,501.283C369.774,500.198 368.51,499.024 368.055,496.854C367.714,495.227 366.118,494.184 364.492,494.524C362.866,494.865 361.822,496.462 362.162,498.088Z"/>
    </g>
    <g transform="matrix(1,0,0,1,-20.1829,-299.498)">
        <path d="M430.528,504.845C430.323,504.901 429.238,505.191 428.535,505.258C426.848,505.418 425.07,505.389 423.995,505.512C416.57,506.368 408.283,506.45 400.847,504.426C400.21,504.252 396.626,503.297 394.107,502.399C393.636,502.231 393.073,501.991 392.747,501.847C392.339,501.383 391.784,501.04 391.133,500.898C389.51,500.544 387.905,501.575 387.551,503.198C387.362,504.062 387.413,505.384 388.807,506.497C389.335,506.918 390.554,507.523 392.085,508.07C394.768,509.027 398.587,510.05 399.265,510.235C407.432,512.458 416.53,512.432 424.684,511.493C426.258,511.312 429.271,511.414 431.446,510.875C433.066,510.473 434.34,509.714 435.11,508.743C436.143,507.442 435.925,505.547 434.623,504.514C433.376,503.525 431.583,503.684 430.528,504.845ZM393.138,502.408C393.47,503.02 393.593,503.748 393.433,504.481C393.55,503.942 393.634,503.152 393.138,502.408Z"/>
    </g>
    <g transform="matrix(0.881745,0.105238,-0.0992755,0.831786,83.063,-294.872)">
        <path d="M616.863,801.09L1106.42,801.811L1106.42,415.679L549.755,415.679L555.306,674.747" style="fill:white;stroke:black;stroke-width:12.84px;"/>
    </g>
    <g transform="matrix(1,0,0,1,-20.1829,-299.498)">
        <path d="M387.922,499.831C387.483,500.295 387.189,500.902 387.119,501.586C386.909,503.627 388.214,504.365 388.843,504.66C389.472,504.955 390.824,505.412 392.212,504.116C392.358,503.98 392.695,503.598 393.058,502.997C393.719,501.9 394.961,499.49 395.205,498.878C395.63,497.818 395.922,496.158 396.103,494.401L396.572,489.859C396.682,489.718 396.781,489.565 396.866,489.4C397.629,487.924 397.052,486.107 395.576,485.343C394.75,484.915 393.969,484.895 393.246,485.095C392.674,485.253 392.087,485.574 391.588,486.188C391.204,486.66 390.677,487.957 390.479,489.77C390.252,491.849 390.228,495.113 389.616,496.641C389.442,497.076 388.305,499.14 387.922,499.831ZM392.729,500.406C393.003,500.884 393.147,501.441 393.12,502.026C393.16,501.293 392.957,500.772 392.729,500.406ZM392.953,490.759C393.244,490.893 393.528,490.971 393.804,491.002C393.516,490.964 393.23,490.885 392.953,490.759Z"/>
    </g>
    <g transform="matrix(1,0,0,1,-22.0302,-299.836)">
        <path d="M421.384,748.335C421.391,747.496 425.791,752.897 427.793,762.906C429.794,772.91 432.519,783.411 434.997,793.325C442.428,823.049 444.41,855.402 449.406,885.381C459.126,943.698 442.13,1003.3 426.192,1059.09C423.659,1067.95 403.004,1129.58 406.98,1137.53C407.638,1138.85 424.444,1142.5 426.993,1143.14C455.635,1150.3 448.619,1134.1 460.613,1107.12C487.06,1047.61 505.505,979.256 512.645,914.999C515.171,892.262 513.445,868.106 513.445,845.356L513.445,823.743C513.445,819.998 509.996,809.888 512.645,812.537C522.089,821.981 526.536,849.397 531.856,862.167C545.629,895.222 562.815,930.247 568.679,965.429C575.65,1007.26 566.592,1051.2 571.881,1093.51C573.661,1107.75 566.804,1144.99 572.681,1156.75C576.674,1164.73 604.017,1153.54 611.905,1153.54C612.705,1153.54 613.948,1154.26 614.306,1153.54C621.047,1140.06 626.604,1105.24 627.915,1089.51C629.16,1074.56 633.464,1059.57 635.119,1044.68C640.754,993.963 626.961,937.753 611.104,890.184C606.497,876.363 598.161,863.537 594.294,849.359C590.682,836.116 566.886,750.708 559.873,743.695C558.426,742.247 555.168,743.278 552.669,743.695C527.488,747.891 494.632,748.498 468.618,748.498C462.397,748.498 422.625,752.648 426.993,746.096" style="fill:rgb(238,61,90);"/>
    </g>
    <g transform="matrix(1,0,0,1,-20.1829,-299.498)">
        <path d="M395.215,503.368C394.908,503.117 393.334,501.826 392.472,501.096C391.42,500.205 390.379,499.509 389.562,499.213C384.511,497.384 379.351,494.732 374.047,493.326C368.095,491.749 361.98,491.651 355.638,495.265C351.03,497.89 347.86,501.955 345.735,506.684C342.78,513.261 341.885,521.145 341.68,527.721C340.811,555.668 360.177,592.449 370.908,617.5C374.924,626.875 376.354,637.194 380.411,646.577C385.633,658.653 389.196,671.317 393.683,683.674C395.926,689.852 399.108,695.208 401.633,701.174C405.637,710.631 407.74,720.879 411.365,730.472C411.952,732.026 413.691,732.811 415.245,732.224C416.799,731.637 417.584,729.898 416.997,728.344C413.344,718.678 411.211,708.356 407.177,698.827C404.693,692.959 401.548,687.696 399.342,681.62C394.814,669.149 391.206,656.374 385.937,644.188C381.883,634.811 380.456,624.498 376.442,615.13C366.005,590.763 346.853,555.091 347.698,527.908C347.85,522.992 348.386,517.253 350.101,512.064C351.673,507.308 354.229,502.996 358.618,500.496C363.399,497.772 368.018,497.957 372.505,499.146C377.639,500.506 382.623,503.104 387.513,504.874C387.881,505.007 388.29,505.439 388.769,505.851C389.63,506.591 390.53,507.416 391.333,508.011C392.717,509.036 394.082,509.425 395.031,509.348C396.687,509.214 397.923,507.761 397.789,506.105C397.673,504.677 396.577,503.562 395.215,503.368Z"/>
    </g>
    <g transform="matrix(1,0,0,1,-20.1829,-299.498)">
        <path d="M427.448,495.977C427.57,496.734 427.8,498.096 427.94,498.544C428.721,501.045 429.939,503.497 430.512,506.064C432.235,513.792 439.67,519.933 447.319,521.698C453.862,523.207 461.756,525.028 467.292,528.993C474.893,534.437 481.342,543.1 486.994,552.812C495.766,567.882 502.573,585.483 508.377,598.282C512.427,607.216 516.181,615.813 519.989,624.702C520.665,626.281 523.42,632.235 524.294,634.121C524.324,634.74 524.544,635.354 524.965,635.871C526.49,637.746 528.199,637.092 528.619,636.922C529.38,636.613 530.108,636.033 530.412,634.88C530.483,634.61 530.634,633.86 530.274,632.797C529.705,631.113 526.372,624.314 525.523,622.331C521.698,613.404 517.928,604.769 513.86,595.796C507.986,582.841 501.076,565.036 492.198,549.783C486.084,539.28 479.019,529.986 470.798,524.098C464.648,519.694 455.94,517.508 448.673,515.832C443.16,514.56 437.629,510.323 436.388,504.754C435.779,502.026 434.517,499.408 433.687,496.751C433.455,496.008 433.174,493.778 432.997,493.367C432.106,491.3 430.365,491.377 429.534,491.56C429.029,491.671 427.66,491.984 427.2,493.91C427.027,494.635 427.132,495.362 427.448,495.977ZM529.543,631.964L529.635,632.072C529.604,632.034 529.573,631.998 529.543,631.964ZM433.014,495.465C432.945,495.698 432.85,495.916 432.733,496.118C432.84,495.94 432.939,495.725 433.014,495.465Z"/>
    </g>
    <g transform="matrix(1,0,0,1,-20.1829,-299.498)">
        <path d="M499.561,654.25C499.208,653.646 497.794,651.264 497.198,650.677C495.492,648.999 494.659,646.184 493.473,644.055C489.729,637.337 484.011,631.17 479.721,624.67C470.531,610.746 461.858,596.657 453.617,582.193C452.29,579.864 444.069,568.201 442.539,564.5L442.5,564.397C442.349,562.972 441.191,561.817 439.712,561.716C438.054,561.603 436.617,562.858 436.504,564.515C436.462,565.144 436.816,566.681 437.86,568.614C440.441,573.391 447.181,583.058 448.386,585.174C456.692,599.752 465.434,613.952 474.696,627.986C478.905,634.363 484.541,640.394 488.213,646.985C489.665,649.59 490.889,652.916 492.976,654.969C493.559,655.542 494.601,657.712 494.828,658.001C496.02,659.516 497.486,659.209 497.924,659.106C498.858,658.886 500.046,658.312 500.235,656.473C500.32,655.639 500.056,654.849 499.561,654.25ZM494.75,654.474C494.518,654.803 494.309,655.247 494.246,655.858C494.299,655.344 494.478,654.873 494.75,654.474ZM494.778,654.432L494.756,654.465L494.801,654.403L494.778,654.432ZM497.406,653.16C497.618,653.169 497.847,653.203 498.088,653.277C497.915,653.226 497.734,653.19 497.548,653.171L497.406,653.16Z"/>
    </g>
    <g transform="matrix(1,0,0,1,-20.1829,-299.498)">
        <path d="M591.366,721.856C588.861,720.41 586.425,718.919 583.875,717.524C577.214,713.877 570.252,710.868 564.296,706.084C547.943,692.95 528.949,681.922 513.878,667.356C512.222,665.755 501.031,655.076 499.932,654.027C499.613,653.083 498.833,652.318 497.795,652.064C496.181,651.669 494.551,652.659 494.156,654.273C494.038,654.757 493.991,655.409 494.269,656.192C494.451,656.706 495.036,657.665 496.06,658.807C499.336,662.458 508.08,670.124 509.695,671.685C524.896,686.377 544.031,697.53 560.526,710.778C566.759,715.785 574.013,718.988 580.984,722.804C583.877,724.388 586.622,726.096 589.492,727.72C590.111,728.07 591.101,729.06 591.763,729.437C592.513,729.864 593.211,729.988 593.726,729.979C594.511,729.966 595.17,729.704 595.72,729.258C596.254,728.825 596.808,728.148 596.93,726.96C597.066,725.643 596.603,724.574 595.651,723.711C595.258,723.356 594.735,723.032 594.154,722.759C593.888,722.633 593.58,722.553 593.376,722.407C592.77,721.973 592.056,721.796 591.366,721.856Z"/>
    </g>
    <g transform="matrix(1,0,0,1,-20.1829,-299.498)">
        <path d="M601.119,713.682C601.558,714.591 602.445,715.259 603.523,715.369C604.99,715.52 605.754,714.856 606.167,714.42C606.887,713.66 607.452,712.473 606.673,710.902C606.536,710.627 606.265,710.212 605.833,709.787C605.35,709.311 604.228,708.452 604.058,708.323C602.445,706.911 600.692,705.757 598.906,704.531C594.996,701.845 591.591,698.517 587.754,695.643C574.746,685.901 556.781,664.443 546.752,651.371C542.926,646.386 538.147,642.867 533.718,638.511C532.797,637.605 530.381,635.507 528.993,634.314C528.923,632.868 527.814,631.643 526.329,631.474C524.639,631.281 523.728,631.938 523.262,632.393C522.473,633.162 522.042,634.199 522.409,635.575C522.544,636.081 522.94,636.878 523.727,637.721C525.077,639.168 528.203,641.53 529.496,642.803C533.723,646.961 538.324,650.278 541.975,655.036C552.277,668.463 570.784,690.455 584.146,700.462C588.049,703.385 591.52,706.762 595.498,709.493C597.107,710.598 598.696,711.62 600.145,712.898C600.199,712.945 600.716,713.36 601.119,713.682ZM603.682,709.368C603.832,709.361 603.984,709.365 604.138,709.38C603.975,709.364 603.823,709.361 603.682,709.368Z"/>
    </g>
    <g transform="matrix(1,0,0,1,-20.1829,-299.498)">
        <path d="M457.322,462.808C457.312,462.965 457.231,464.067 457.046,464.748C456.449,466.95 455.273,469.327 454.772,470.437C452.814,474.773 449.562,480.161 445.492,484.167C443.023,486.597 440.265,488.533 437.279,489.199C436.913,489.28 435.089,489.551 433.311,489.631C432.762,489.656 432.02,489.617 431.524,489.581C431.04,489.025 430.353,488.644 429.562,488.563C427.91,488.393 426.43,489.597 426.26,491.249C426.086,492.942 426.856,494.475 429.007,495.225C429.842,495.516 431.088,495.675 432.458,495.673C434.999,495.67 438.049,495.195 438.59,495.075C442.602,494.18 446.396,491.724 449.715,488.458C454.328,483.918 458.04,477.829 460.259,472.914C460.95,471.385 462.663,467.797 463.18,464.902C463.521,462.995 463.331,461.294 462.697,460.101C461.919,458.633 460.095,458.074 458.627,458.853C457.198,459.612 456.63,461.362 457.322,462.808ZM432.259,491.74L432.249,491.865C432.253,491.823 432.257,491.781 432.259,491.74Z"/>
    </g>
    <g transform="matrix(1,0,0,1,-20.1829,-299.498)">
        <path d="M399.28,693.915C399.355,693.994 399.798,694.464 400.051,694.848C400.682,695.803 401.298,697.087 401.925,698.608C404.027,703.711 406.102,711.261 408.187,718.835C410.718,728.027 413.274,737.248 415.832,742.518C417.32,745.586 419.05,747.477 420.555,748.143C432.058,753.227 445.051,753.445 458.158,752.375C470.645,751.357 483.228,749.177 494.581,749.44C507.636,749.742 523.324,753.878 535.909,751.969C545.115,750.573 552.87,750.616 561.858,746.366C562.107,746.354 563.47,746.291 564.363,746.305C566.243,746.335 568.204,746.309 569.338,745.987C571.334,745.42 572.176,744.091 572.307,742.711C572.463,741.057 571.248,739.587 569.594,739.43C568.716,739.347 567.889,739.651 567.284,740.202C566.319,740.214 563.884,740.248 562.56,740.282C561.2,740.316 560.08,740.544 559.433,740.853C550.97,744.899 543.658,744.705 535.006,746.017C522.736,747.878 507.449,743.716 494.72,743.421C483.173,743.153 470.37,745.339 457.669,746.375C445.587,747.361 433.592,747.323 422.989,742.636C422.734,742.523 422.575,742.181 422.322,741.807C421.763,740.981 421.217,739.891 420.661,738.604C417.703,731.744 414.796,719.851 411.861,709.602C409.795,702.39 407.685,695.961 405.595,692.371C404.271,690.097 402.761,688.774 401.425,688.292C399.862,687.728 398.136,688.54 397.572,690.103C397.021,691.631 397.785,693.315 399.28,693.915Z"/>
    </g>
    <g transform="matrix(1,0,0,1,-20.1829,-299.498)">
        <path d="M567.96,746.253C568.146,747.605 569.241,748.702 570.657,748.836C572.311,748.993 573.781,747.777 573.938,746.123C573.971,745.771 573.957,745.154 573.674,744.334C573.311,743.286 572.193,741.078 570.524,738.132C562.697,724.315 542.426,692.957 539.525,690.429C538.272,689.337 536.369,689.468 535.278,690.72C534.186,691.973 534.317,693.876 535.569,694.967C538.368,697.406 557.736,727.772 565.285,741.099C566.58,743.385 567.778,745.872 567.96,746.253Z"/>
    </g>
    <g transform="matrix(1,0,0,1,-20.1829,-299.498)">
        <path d="M408.944,1139.81C408.835,1139.34 408.561,1141.36 408.438,1141.73C407.955,1143.18 407.343,1144.53 406.887,1146.01C405.588,1150.21 404.088,1154.03 401.886,1157.92C397.543,1165.6 391.413,1178.68 393.468,1187.91C394.144,1190.95 398.48,1194.14 400.607,1196.2C410.413,1205.68 421.807,1205.16 434.681,1205.92C451.442,1206.92 468.148,1206.76 484.908,1207.55C492.044,1207.88 497.946,1207.73 504.972,1206.73C508.716,1206.19 512.784,1205.83 515.378,1202.69C519.609,1197.57 517.54,1189.82 515.014,1184.67C510.179,1174.81 494.678,1170.46 484.672,1168.89C480.524,1168.25 476.355,1167.82 472.173,1167.38C467.483,1166.9 461.727,1166.9 457.304,1165.19C454.629,1164.15 450.823,1163.01 448.614,1161.18C446.837,1159.71 447.316,1154.39 447.316,1154.39C447.316,1154.39 445.595,1152.82 444.664,1152.12C442.792,1150.72 440.558,1149.52 438.345,1148.8C430.644,1146.31 423.559,1144.37 416.308,1140.76C415.359,1140.29 411.684,1138.71 410.71,1139.08C409.621,1139.49 409.272,1142.26 409.272,1142.26C409.272,1142.26 409.788,1141.26 410.089,1140.79"/>
        <path d="M408.922,1137.16C408.259,1137.14 407.193,1137.33 406.549,1138.65C406.409,1138.93 406.025,1140.71 405.968,1140.98C405.483,1142.42 404.877,1143.78 404.422,1145.24C403.179,1149.26 401.748,1152.93 399.64,1156.65C396.946,1161.41 393.598,1168.19 391.8,1174.91C390.526,1179.68 390.046,1184.42 390.95,1188.48C391.303,1190.06 392.349,1191.73 393.745,1193.28C395.385,1195.1 397.504,1196.79 398.813,1198.05C409.111,1208.01 421.009,1207.7 434.528,1208.5C451.3,1209.49 468.016,1209.33 484.786,1210.12C492.095,1210.47 498.141,1210.31 505.338,1209.28C509.701,1208.66 514.345,1207.99 517.367,1204.34C519.444,1201.82 520.323,1198.81 520.385,1195.67C520.468,1191.43 519.009,1186.96 517.331,1183.54C515.175,1179.14 511.17,1175.67 506.364,1173.05C499.627,1169.37 491.322,1167.32 485.071,1166.35C480.879,1165.69 476.665,1165.25 472.438,1164.82C467.96,1164.36 462.456,1164.41 458.234,1162.78C455.818,1161.85 452.358,1160.88 450.329,1159.25C450.282,1159.12 450.013,1158.31 449.947,1157.82C449.738,1156.25 449.886,1154.62 449.886,1154.62C449.958,1153.82 449.651,1153.03 449.057,1152.49C449.057,1152.49 447.21,1150.8 446.211,1150.05C444.117,1148.49 441.616,1147.15 439.142,1146.35C431.565,1143.89 424.591,1142 417.457,1138.45C416.709,1138.08 414.455,1137.1 412.795,1136.68C411.502,1136.36 410.397,1136.43 409.798,1136.66C409.497,1136.77 409.201,1136.94 408.922,1137.16ZM412.349,1142.03C412.324,1142.08 412.296,1142.12 412.267,1142.17C412.006,1142.58 411.562,1143.44 411.562,1143.44C411.244,1144.06 410.707,1144.5 410.088,1144.7C409.827,1145.38 409.571,1146.06 409.352,1146.77C407.998,1151.15 406.427,1155.14 404.131,1159.19C401.614,1163.64 398.465,1169.97 396.785,1176.25C395.741,1180.15 395.246,1184.03 395.987,1187.35C396.173,1188.19 396.839,1189 397.576,1189.82C399.134,1191.55 401.157,1193.14 402.4,1194.34C411.715,1203.35 422.605,1202.62 434.833,1203.35C451.584,1204.34 468.28,1204.18 485.029,1204.97C491.992,1205.3 497.75,1205.16 504.606,1204.17C506.35,1203.92 508.172,1203.73 509.857,1203.22C511.188,1202.81 512.435,1202.2 513.389,1201.05C515.056,1199.03 515.401,1196.48 515.161,1193.94C514.887,1191.03 513.836,1188.13 512.697,1185.81C510.985,1182.32 507.709,1179.66 503.89,1177.58C497.688,1174.19 490.029,1172.34 484.273,1171.44C480.17,1170.8 476.046,1170.38 471.909,1169.95C467.005,1169.45 460.997,1169.38 456.373,1167.59C453.469,1166.47 449.369,1165.15 446.97,1163.17C446.063,1162.42 445.375,1161.15 445.033,1159.64C444.714,1158.23 444.669,1156.61 444.687,1155.5C444.177,1155.05 443.554,1154.51 443.117,1154.18C441.467,1152.95 439.499,1151.89 437.549,1151.26C429.722,1148.72 422.528,1146.74 415.159,1143.07C414.76,1142.87 413.39,1142.39 412.349,1142.03ZM406.467,1140.53C406.557,1140.85 406.687,1141.09 406.825,1141.28L406.825,1141.28C406.669,1141.06 406.546,1140.81 406.467,1140.53Z"/>
    </g>
    <g transform="matrix(1,0,0,1,-20.1829,-299.498)">
        <path d="M577.51,1159.06C576.87,1158.27 576.455,1164.01 576.359,1164.58C575.693,1168.47 574.022,1171.99 572.985,1175.77C569.909,1186.98 565.722,1198.59 578.126,1205.61C580.216,1206.79 582.643,1207.96 584.906,1208.75C603.703,1215.26 627.696,1203.47 645.081,1197.85C654.217,1194.9 663.809,1193.81 672.899,1190.73C679.255,1188.57 693.533,1187.91 697.603,1181.51C703.732,1171.87 696.148,1163.93 686.982,1161.76C676.911,1159.38 665.328,1158.07 654.979,1157.8C646.37,1157.58 637.284,1158.86 628.763,1157.99C625.525,1157.65 623.333,1157.01 620.62,1155.15C619.058,1154.08 617.447,1151.94 615.422,1151.73"/>
        <path d="M579.483,1160.73C580.266,1159.8 580.307,1158.41 579.515,1157.44C578.898,1156.68 578.192,1156.46 577.601,1156.42C577.026,1156.37 576.445,1156.49 575.887,1156.87C575.514,1157.12 574.849,1157.8 574.53,1159.03C574.149,1160.49 573.888,1163.72 573.815,1164.14C573.164,1167.95 571.512,1171.39 570.497,1175.09C569.229,1179.71 567.794,1184.4 567.328,1188.82C566.544,1196.25 568.271,1202.99 576.855,1207.85C579.076,1209.11 581.656,1210.35 584.061,1211.18C591.998,1213.94 600.812,1213.65 609.707,1211.88C622.446,1209.33 635.362,1203.71 645.875,1200.31C655.023,1197.35 664.626,1196.26 673.728,1193.17C677.53,1191.88 684.177,1191.13 689.761,1189.36C694.14,1187.96 697.871,1185.89 699.78,1182.89C702.766,1178.19 702.976,1173.81 701.563,1170.1C699.549,1164.8 693.944,1160.76 687.576,1159.25C677.339,1156.83 665.566,1155.49 655.045,1155.22C646.501,1155 637.484,1156.29 629.028,1155.42C626.268,1155.13 624.393,1154.61 622.081,1153.02C621.16,1152.39 620.226,1151.38 619.194,1150.63C618.111,1149.84 616.938,1149.29 615.687,1149.16C614.27,1149.02 613.002,1150.05 612.856,1151.46C612.71,1152.88 613.741,1154.15 615.158,1154.29C615.689,1154.35 616.116,1154.75 616.562,1155.11C617.471,1155.85 618.325,1156.7 619.159,1157.28C622.273,1159.42 624.782,1160.17 628.499,1160.55C637.084,1161.44 646.238,1160.16 654.912,1160.38C665.091,1160.64 676.483,1161.93 686.388,1164.28C691.715,1165.54 696.598,1168.92 697.183,1173.71C697.422,1175.67 696.883,1177.83 695.425,1180.12C694.078,1182.24 691.289,1183.45 688.198,1184.44C682.58,1186.22 675.895,1186.99 672.07,1188.28C662.992,1191.36 653.411,1192.44 644.287,1195.4C635.63,1198.2 625.329,1202.54 614.852,1205.36C604.851,1208.06 594.685,1209.41 585.751,1206.31C583.63,1205.57 581.356,1204.47 579.397,1203.36C573.096,1199.79 571.884,1194.82 572.459,1189.37C572.899,1185.2 574.281,1180.8 575.473,1176.45C576.533,1172.59 578.222,1168.99 578.902,1165.01C578.957,1164.69 579.331,1161.87 579.483,1160.73ZM576.873,1161.56C576.353,1161.43 575.869,1161.13 575.506,1160.69C575.942,1161.23 576.412,1161.48 576.873,1161.56Z"/>
    </g>
    <g transform="matrix(1,0,0,1,-20.1829,-299.498)">
        <path d="M590.385,726.348C599.76,728.365 608.701,748.614 618.423,754.684C620.424,755.933 626.803,762.322 629.183,761.401C633.79,759.618 619.905,747.084 622.565,746.055C624.301,745.383 645.06,765.042 647.982,758.434C650.338,753.104 636.286,744.29 633.497,740.918C633.233,740.599 631.351,739.656 632.264,738.902C632.809,738.451 638.538,741.719 639.57,741.968C645.459,743.387 651.483,743.097 657.453,743.662C657.82,743.697 660.279,743.902 660.321,743.459C660.597,740.552 646.318,733.199 643.846,731.927C643.779,731.893 637.48,728.95 638.466,728.569C642.255,727.102 664.786,736.422 666.137,722.169C666.281,720.65 648.251,720.474 646.843,720.341C646.372,720.296 645.901,720.252 645.431,720.207C643.229,719.998 637.094,721.463 638.798,720.053C667.249,696.527 616.76,709.894 601.909,708.486" style="fill:white;"/>
        <path d="M644.223,709.793C644.067,710.152 643.755,710.818 643.389,711.324C642.154,713.031 640.031,715.127 636.88,717.734C635.598,718.794 635.487,719.883 635.493,720.474C635.504,721.61 635.974,722.686 637.364,723.325C637.769,723.512 638.526,723.709 639.544,723.679C640.994,723.637 643.825,723.079 645.147,723.204C645.617,723.248 646.088,723.293 646.559,723.338C647.448,723.422 654.953,723.525 660.348,723.969C661.059,724.027 661.824,724.122 662.505,724.219C660.989,727.186 657.156,727.378 653.391,727.159C649.062,726.907 644.588,725.875 641.651,725.531C639.725,725.306 638.237,725.429 637.38,725.761C636.419,726.133 635.927,726.763 635.643,727.371C635.312,728.08 635.199,728.92 635.58,729.873C635.756,730.311 636.295,731.133 637.358,731.858C638.923,732.925 642.418,734.578 642.469,734.604C643.797,735.287 648.654,737.777 652.659,740.342C648.543,740.154 644.427,740.027 640.378,739.065L636.646,737.27C635.142,736.549 633.718,736.001 633.026,735.895C631.705,735.695 630.831,736.18 630.346,736.582C629.572,737.221 629.233,737.936 629.086,738.608C628.923,739.356 628.999,740.122 629.345,740.872C629.662,741.557 630.911,742.66 631.34,743.025C633.218,745.129 638.778,749.062 642.52,753.008C643.553,754.097 644.436,755.171 644.941,756.207C645.023,756.374 645.116,756.53 645.181,756.68C644.9,756.627 644.572,756.552 644.311,756.46C642.981,755.989 641.455,755.161 639.851,754.174C634.428,750.837 628.292,745.742 625.521,744.044C624.424,743.372 623.537,743.1 623.038,743.047C622.41,742.981 621.893,743.087 621.479,743.247C620.073,743.791 619.352,744.81 619.227,746.251C619.171,746.896 619.294,747.795 619.786,748.834C620.312,749.944 621.402,751.499 622.658,753.186C623.275,754.014 623.935,754.884 624.561,755.749C622.668,754.25 620.911,752.688 620.018,752.13C614.409,748.629 609.165,740.139 603.846,733.554C599.646,728.355 595.288,724.324 591.018,723.405C589.394,723.055 587.792,724.09 587.442,725.714C587.092,727.338 588.127,728.941 589.751,729.29C592.983,729.986 595.983,733.401 599.163,737.337C604.91,744.452 610.77,753.454 616.829,757.237C618.243,758.12 621.828,761.537 624.672,763.193C626.886,764.483 628.96,764.715 630.269,764.208C632.351,763.403 633.203,761.884 633.134,759.847C633.102,758.869 632.746,757.641 632.059,756.307C634.941,758.27 637.921,760.151 640.226,761.26C642.227,762.222 644.052,762.757 645.497,762.801C647.976,762.875 649.762,761.852 650.735,759.651C651.816,757.205 651.114,754.159 648.821,751.123C647.46,749.321 645.504,747.457 643.501,745.712C648.034,746.266 652.616,746.228 657.169,746.659C657.511,746.692 659.257,746.813 660.229,746.679C660.989,746.574 661.564,746.31 661.915,746.075C662.85,745.449 663.236,744.605 663.318,743.743C663.428,742.575 662.828,740.796 661.023,739.083C659.101,737.257 655.562,735.01 652.283,733.107C653.93,733.237 655.572,733.275 657.13,733.159C660.802,732.883 664.031,731.739 666.223,729.398C667.756,727.761 668.842,725.527 669.134,722.453C669.23,721.433 668.904,719.808 666.792,718.959C665.795,718.559 663.551,718.192 660.842,717.969C655.476,717.527 648.011,717.428 647.126,717.344L646.236,717.26C647.914,715.453 648.993,713.925 649.586,712.662C650.707,710.274 650.498,708.379 649.682,706.91C648.708,705.156 646.374,703.74 642.796,703.242C632.943,701.871 611.132,706.337 602.193,705.49C600.539,705.333 599.069,706.549 598.912,708.202C598.755,709.856 599.971,711.326 601.625,711.483C606.216,711.918 614.114,711.019 622.128,710.152C629.626,709.34 637.231,708.546 641.966,709.205C642.695,709.307 643.34,709.441 643.879,709.635C643.984,709.673 644.112,709.735 644.223,709.793Z"/>
    </g>
    <g transform="matrix(1,0,0,1,-20.1829,-299.498)">
        <path d="M425.059,745.829C424.261,745.831 421.864,746.134 422.09,748.606C422.11,748.822 422.299,750.13 422.637,752.356C425.879,773.691 442.997,883.085 446.206,915.172C451.92,972.312 412.977,1121.04 405.167,1136.66C404.887,1137.22 404.804,1137.83 404.985,1138.49C405.074,1138.82 405.283,1139.57 406.262,1140.09C406.347,1140.14 406.85,1140.34 407.734,1140.58C411.491,1141.57 426.083,1145.24 436.925,1149.79C441.252,1151.6 444.973,1153.5 446.949,1155.48C447.037,1155.57 450.274,1157.27 451.23,1154.45C451.305,1154.23 451.683,1152.99 452.31,1150.92C458.435,1130.69 488.996,1028.56 493.129,1014.78C504.136,978.089 515.846,961.385 515.846,924.259L515.846,831.609C517.789,836.422 520.208,842.165 522.944,848.57C539.429,887.157 567.588,950.062 571.815,977.538C573.733,990.007 570.665,1091.73 570.882,1136.45C570.938,1148.09 571.304,1156.02 571.917,1157.86C572.442,1159.44 573.642,1160.64 575.54,1161.34C577.389,1162.02 580.107,1162.2 583.311,1161.91C594.338,1160.9 611.796,1154.57 615.294,1152.47C616.055,1152.01 617.027,1150.91 617.862,1149.01C619.152,1146.07 620.583,1140.68 622.039,1133.55C630.11,1093.98 639.697,999.11 638.314,976.985C635.363,929.774 572.493,754.949 567.134,746.91C566.845,746.477 566.183,745.825 564.894,745.456C563.067,744.932 558.516,744.539 552.088,744.325C521.496,743.307 446.347,745.468 428.473,745.761C426.578,745.792 424.944,745.785 424.944,745.785L425.059,745.829ZM563.179,750.358C562.768,750.274 562.076,750.145 561.393,750.064C559.191,749.805 555.95,749.617 551.916,749.483C521.388,748.467 446.395,750.628 428.558,750.921L427.642,750.932L427.739,751.58C430.986,772.951 448.127,882.52 451.341,914.659C456.872,969.969 421.09,1110.01 411.008,1136.1C416.599,1137.57 429.223,1140.96 438.919,1145.03C442.174,1146.39 445.104,1147.85 447.399,1149.33C453.587,1128.89 484.06,1027.05 488.187,1013.3C499.018,977.193 510.686,960.792 510.686,924.259L510.686,815.881L510.687,815.862C510.701,812.835 511.984,812.283 513.266,812.764C514.549,812.283 515.832,812.835 515.846,815.862L515.846,815.881L515.846,815.913C515.846,816.642 516.288,818.048 516.971,820.06C518.861,825.629 522.755,834.992 527.69,846.543C544.328,885.49 572.649,949.021 576.915,976.754C578.843,989.282 575.824,1091.49 576.042,1136.42C576.094,1147.19 576.245,1154.53 576.813,1156.23C576.851,1156.35 576.998,1156.36 577.126,1156.41C577.344,1156.51 577.592,1156.59 577.865,1156.65C579.167,1156.95 580.883,1156.95 582.842,1156.77C592.951,1155.85 608.882,1150.18 612.478,1148.14C612.611,1147.9 613.235,1146.77 613.616,1145.73C614.681,1142.81 615.81,1138.26 616.983,1132.51C624.984,1093.29 634.534,999.241 633.163,977.307C630.298,931.457 570.344,763.871 563.179,750.358ZM424.375,750.913C424.581,750.943 424.785,750.954 424.987,750.937L424.794,750.934C424.705,750.931 424.616,750.928 424.527,750.924L424.375,750.913ZM426.541,746.571C427.043,747.082 427.208,747.655 427.235,748.177L427.233,748.164C427.202,747.714 427.053,747.278 426.8,746.901C426.717,746.777 426.63,746.667 426.541,746.571Z"/>
    </g>
    <g transform="matrix(1.25593,0.162339,-0.155175,1.2005,-230.4,-200.991)">
        <text x="689.519px" y="283.142px" style="font-family:'AmericanTypewriter', 'American Typewriter', serif;font-size:66.955px;">seja bem</text>
        <text x="689.519px" y="350.097px" style="font-family:'AmericanTypewriter', 'American Typewriter', serif;font-size:66.955px;">vinda(o)</text>
    </g>
</svg>
