<svg width="102" height="101" viewBox="0 0 102 101" fill="none" xmlns="http://www.w3.org/2000/svg">
<ellipse cx="52.5" cy="48.5" rx="46.5" ry="47.5" fill="#F5A601"/>
<path d="M100.5 50.5C100.5 77.5481 78.3521 99.5 51 99.5C23.6479 99.5 1.5 77.5481 1.5 50.5C1.5 23.4519 23.6479 1.5 51 1.5C78.3521 1.5 100.5 23.4519 100.5 50.5Z" stroke="black" stroke-width="3"/>
<path d="M87 46.7162V53.2867L62.3333 65.4567V58.5808L79.7233 49.9999L62.3333 41.3974V34.5432L87 46.7162ZM37.6667 58.5808L20.2767 49.9999L37.6667 41.3974V34.5432L13 46.7162V53.2867L37.6667 65.4567V58.5808ZM59.3949 25.3333H52.9877L40.6205 74.6666H47.0122L59.3949 25.3333Z" fill="white"/>
</svg>
