<svg width="103" height="101" viewBox="0 0 103 101" fill="none" xmlns="http://www.w3.org/2000/svg">
<ellipse cx="49" cy="48.5196" rx="49" ry="48.5196" fill="#F5A601"/>
<path d="M101.5 50.5C101.5 77.5481 79.3521 99.5 52 99.5C24.6479 99.5 2.5 77.5481 2.5 50.5C2.5 23.4519 24.6479 1.5 52 1.5C79.3521 1.5 101.5 23.4519 101.5 50.5Z" stroke="black" stroke-width="3"/>
<path fill-rule="evenodd" clip-rule="evenodd" d="M52.5 26.2083C38.5036 26.2083 26 35.5407 26 48.307C26 52.8341 27.632 57.2795 30.5205 60.7289L26.1192 74.7916L41.4583 68.1666C45.2235 69.136 48.8209 69.5821 52.1997 69.5821C68.0422 69.5821 79 59.7793 79 48.307C79 35.4722 66.4103 26.2083 52.5 26.2083ZM52.5 28.4166C65.8935 28.4166 76.7917 37.3405 76.7917 48.307C76.7917 59.1765 66.2204 67.3738 52.1997 67.3738C48.0458 67.3738 44.6891 66.7135 41.2773 65.839L29.6658 70.8541L32.9894 60.2365C30.1009 56.7826 28.2083 53.3288 28.2083 48.307C28.2083 37.3405 39.1065 28.4166 52.5 28.4166ZM41.4583 44.9791C43.2868 44.9791 44.7708 46.4631 44.7708 48.2916C44.7708 50.1201 43.2868 51.6041 41.4583 51.6041C39.6298 51.6041 38.1458 50.1201 38.1458 48.2916C38.1458 46.4631 39.6298 44.9791 41.4583 44.9791ZM52.5 44.9791C54.3285 44.9791 55.8125 46.4631 55.8125 48.2916C55.8125 50.1201 54.3285 51.6041 52.5 51.6041C50.6715 51.6041 49.1875 50.1201 49.1875 48.2916C49.1875 46.4631 50.6715 44.9791 52.5 44.9791ZM63.5417 44.9791C65.3702 44.9791 66.8542 46.4631 66.8542 48.2916C66.8542 50.1201 65.3702 51.6041 63.5417 51.6041C61.7132 51.6041 60.2292 50.1201 60.2292 48.2916C60.2292 46.4631 61.7132 44.9791 63.5417 44.9791Z" fill="white"/>
</svg>
