<svg width="102" height="102" viewBox="0 0 102 102" fill="none" xmlns="http://www.w3.org/2000/svg">
<path d="M101.48 48.7988C101.48 75.3111 79.7748 96.8035 53 96.8035C26.2252 96.8035 4.52 75.3111 4.52 48.7988C4.52 22.2866 26.2252 0.794113 53 0.794113C79.7748 0.794113 101.48 22.2866 101.48 48.7988Z" fill="#F50057"/>
<path d="M100.5 51.5C100.5 78.5481 78.3521 100.5 51 100.5C23.6479 100.5 1.5 78.5481 1.5 51.5C1.5 24.4519 23.6479 2.5 51 2.5C78.3521 2.5 100.5 24.4519 100.5 51.5Z" stroke="black" stroke-width="3"/>
<path d="M25 31.5V70.5H77V31.5H25ZM39.3498 48.6795L29.3333 61.0555V40.5632L39.3498 48.6795ZM30.3777 35.8333H71.6202L51 52.5448L30.3777 35.8333ZM42.7147 51.4073L51 58.1218L59.2983 51.3965L71.4577 66.1667H30.7698L42.7147 51.4073ZM62.6653 48.6687L72.6667 40.5632V60.8172L62.6653 48.6687Z" fill="white"/>
</svg>
