<svg width="102" height="107" viewBox="0 0 102 107" fill="none" xmlns="http://www.w3.org/2000/svg">
<ellipse cx="51" cy="56.5" rx="51" ry="50.5" fill="#CCCCCC"/>
<path d="M100.5 50.5C100.5 77.5481 78.3521 99.5 51 99.5C23.6479 99.5 1.5 77.5481 1.5 50.5C1.5 23.4519 23.6479 1.5 51 1.5C78.3521 1.5 100.5 23.4519 100.5 50.5Z" stroke="black" stroke-width="3"/>
<path fill-rule="evenodd" clip-rule="evenodd" d="M76 70.0001H26C23.24 70.0001 21 67.7601 21 65.0001V35.0001C21 32.2401 23.24 30.0001 26 30.0001H30.065L30.26 30.7076C30.745 32.2851 31.555 33.7601 32.635 35.0001H27.25C26.56 35.0001 26 35.5601 26 36.2501V50.0001H76V36.2501C76 35.5601 75.44 35.0001 74.75 35.0001H69.365C70.6075 33.5776 71.4975 31.8401 71.9375 30.0001H76C78.76 30.0001 81 32.2401 81 35.0001V65.0001C81 67.7601 78.76 70.0001 76 70.0001ZM26 57.5001V63.7501C26 64.4401 26.56 65.0001 27.25 65.0001H74.75C75.44 65.0001 76 64.4401 76 63.7501V57.5001H26ZM48.2775 45.0001H41C42.46 41.6076 44.2375 37.9201 46 35.0001C44.3825 34.9976 42.07 35.0176 41 35.0001C35.7475 34.9126 33.5325 30.4851 33.5 27.5001C33.46 23.6651 36.5125 19.9826 41 20.0001C44.7475 20.0151 48.035 22.1801 51 25.7826C53.965 22.1801 57.2525 20.0151 61 20.0001C65.49 19.9826 68.54 23.6651 68.5 27.5001C68.4675 30.4851 66.2525 34.9126 61 35.0001C59.93 35.0176 57.6175 34.9976 56 35.0001C57.8475 37.9951 59.7275 41.9301 61 45.0001H53.7225C53.12 41.9051 51.9725 38.3701 51 36.5401C50.03 38.3701 48.745 42.5226 48.2775 45.0001ZM41.895 25.0051C39.0675 25.0051 38.1275 29.8001 42.195 30.0001C42.7875 30.0301 47.7825 30.0001 47.7825 30.0001C45.19 26.4001 43.9825 25.0051 41.895 25.0051ZM60.0725 25.0051C62.9 25.0051 63.84 29.8001 59.7725 30.0001C59.18 30.0301 54.2175 30.0001 54.2175 30.0001C56.81 26.4001 57.985 25.0051 60.0725 25.0051Z" fill="white"/>
</svg>
