<svg width="320" height="240" viewBox="0 0 320 240" fill="none" xmlns="http://www.w3.org/2000/svg">
<g clip-path="url(#clip0)">
<path d="M238.708 237.117C234.279 233.584 231.588 228.004 232.294 222.571C232.999 217.138 237.369 212.144 243.038 210.99C248.707 209.837 255.169 213.03 256.89 218.257C257.838 208.18 258.93 197.681 264.606 189.1C269.745 181.33 278.647 175.77 288.294 174.776C297.941 173.781 308.099 177.538 314.115 184.725C320.132 191.912 321.605 202.361 317.391 210.612C314.287 216.691 308.568 221.214 302.576 224.895C283.213 236.687 259.989 241.482 237.178 238.398" fill="#F2F2F2"/>
<path d="M304.575 177.746C296.615 183.866 289.313 190.71 282.773 198.181C272.539 209.832 264.257 222.894 258.216 236.914C257.774 237.937 259.534 238.382 259.971 237.371C269.854 214.586 285.633 194.503 305.862 178.96C306.771 178.262 305.476 177.054 304.575 177.746Z" fill="white"/>
<path d="M78.2361 239.535H53.1159C52.267 239.534 51.4533 239.215 50.853 238.649C50.2528 238.082 49.9152 237.314 49.9143 236.513V187.233C49.9152 186.432 50.2528 185.664 50.853 185.097C51.4533 184.531 52.267 184.212 53.1159 184.211H78.2361C79.0849 184.212 79.8987 184.531 80.4989 185.097C81.0991 185.664 81.4367 186.432 81.4377 187.233V236.513C81.4367 237.314 81.0991 238.082 80.4989 238.649C79.8987 239.215 79.0849 239.534 78.2361 239.535Z" fill="#F5A601"/>
<path d="M137.835 240H112.715C111.735 239.999 110.796 239.631 110.104 238.978C109.411 238.324 109.022 237.438 109.021 236.513V140.742C109.022 139.818 109.411 138.931 110.104 138.278C110.796 137.624 111.735 137.256 112.715 137.255H137.835C138.815 137.256 139.754 137.624 140.446 138.278C141.139 138.931 141.528 139.818 141.529 140.742V236.513C141.528 237.438 141.139 238.324 140.446 238.978C139.754 239.631 138.815 239.999 137.835 240V240ZM112.715 138.185C111.997 138.186 111.308 138.456 110.8 138.935C110.292 139.414 110.007 140.064 110.006 140.742V236.513C110.007 237.191 110.292 237.841 110.8 238.32C111.308 238.8 111.997 239.069 112.715 239.07H137.835C138.553 239.069 139.242 238.8 139.75 238.32C140.258 237.841 140.543 237.191 140.544 236.513V140.742C140.543 140.064 140.258 139.414 139.75 138.935C139.242 138.456 138.553 138.186 137.835 138.185H112.715Z" fill="#3F3D56"/>
<path d="M197.434 240H172.314C171.334 239.999 170.395 239.631 169.703 238.978C169.01 238.324 168.621 237.438 168.62 236.513V79.8393C168.621 78.9149 169.01 78.0286 169.703 77.3749C170.395 76.7212 171.334 76.3536 172.314 76.3525H197.434C198.413 76.3536 199.353 76.7212 200.045 77.3749C200.738 78.0286 201.127 78.9149 201.128 79.8393V236.513C201.127 237.438 200.738 238.324 200.045 238.978C199.353 239.631 198.413 239.999 197.434 240V240ZM172.314 77.2824C171.596 77.2831 170.907 77.5528 170.399 78.0321C169.891 78.5115 169.606 79.1614 169.605 79.8393V236.513C169.606 237.191 169.891 237.841 170.399 238.32C170.907 238.8 171.596 239.069 172.314 239.07H197.434C198.152 239.069 198.841 238.8 199.349 238.32C199.857 237.841 200.142 237.191 200.143 236.513V79.8393C200.142 79.1614 199.857 78.5115 199.349 78.0321C198.841 77.5528 198.152 77.2831 197.434 77.2824H172.314Z" fill="#3F3D56"/>
<path d="M257.589 239.768H232.469C231.62 239.767 230.807 239.448 230.206 238.881C229.606 238.315 229.269 237.547 229.268 236.746V15.9145C229.269 15.1133 229.606 14.3452 230.206 13.7787C230.807 13.2122 231.62 12.8935 232.469 12.8926H257.589C258.438 12.8935 259.252 13.2122 259.852 13.7787C260.452 14.3452 260.79 15.1133 260.791 15.9145V236.746C260.79 237.547 260.452 238.315 259.852 238.881C259.252 239.448 258.438 239.767 257.589 239.768Z" fill="#F50057"/>
<path d="M101.357 103.376C101.449 102.698 101.381 102.009 101.16 101.359C100.938 100.708 100.569 100.111 100.076 99.6097C99.5841 99.1084 98.9814 98.7152 98.3107 98.4575C97.6401 98.1999 96.9177 98.0842 96.1945 98.1186L87.4386 82.9584L85.4684 89.4671L91.4671 103.361C91.6089 104.504 92.1898 105.558 93.1 106.324C94.0101 107.089 95.1861 107.513 96.4052 107.515C97.6244 107.517 98.8018 107.097 99.7145 106.334C100.627 105.571 101.212 104.519 101.357 103.376V103.376Z" fill="#A0616A"/>
<path d="M33.8956 163.235L38.7724 166.596L54.8271 150.439L47.629 145.479L33.8956 163.235Z" fill="#A0616A"/>
<path d="M44.8722 177.352L29.5439 166.79L33.8675 161.2L43.2735 167.681C44.8442 168.763 45.895 170.39 46.1948 172.204C46.4946 174.018 46.0189 175.869 44.8722 177.352V177.352L44.8722 177.352Z" fill="#2F2E41"/>
<path d="M59.698 181.024L65.7367 181.024L68.6093 159.039L59.697 159.04L59.698 181.024Z" fill="#A0616A"/>
<path d="M77.3829 186.316L58.4044 186.317L58.4041 179.396L70.05 179.395C71.9947 179.395 73.8598 180.124 75.235 181.422C76.6102 182.72 77.3828 184.48 77.3829 186.316V186.316V186.316Z" fill="#2F2E41"/>
<path d="M77.8338 95.2784C77.8338 95.2784 80.7891 122.243 73.4008 140.839L67.9827 176.172H58.6242L59.6093 134.331L56.1614 97.1381C56.1614 97.1381 63.0572 80.4014 77.8338 95.2784Z" fill="#2F2E41"/>
<path d="M45.8178 97.1379L55.6689 129.217L36.4593 158.041L46.0641 165.712L67.9828 133.401L61.5796 93.8835L45.8178 97.1379Z" fill="#2F2E41"/>
<path d="M70.94 25.2045C77.6213 25.2045 83.0376 20.0922 83.0376 13.7859C83.0376 7.47959 77.6213 2.36731 70.94 2.36731C64.2586 2.36731 58.8423 7.47959 58.8423 13.7859C58.8423 20.0922 64.2586 25.2045 70.94 25.2045Z" fill="#A0616A"/>
<path d="M60.8407 29.494C60.8407 29.494 68.229 24.845 76.6024 35.0729L78.8189 99.4626C78.8189 99.4626 72.4157 91.0943 59.1167 98.9977C45.8178 106.901 42.8625 98.0679 42.8625 98.0679C42.8625 98.0679 33.5039 31.5861 60.8407 29.494Z" fill="#CCCCCC"/>
<path d="M76.0064 34.9105C78.1314 35.019 80.1388 35.8652 81.6424 37.2865C83.1461 38.7078 84.0398 40.6037 84.1517 42.6095L85.7146 70.6383L96.0582 97.138L90.1476 101.787L70.938 70.1734L67.0051 44.1883C66.8248 42.9973 66.9266 41.7833 67.303 40.6339C67.6794 39.4845 68.3211 38.4281 69.182 37.5408C70.0428 36.6535 71.1013 35.9574 72.2814 35.5026C73.4614 35.0478 74.7337 34.8456 76.0064 34.9105V34.9105Z" fill="#CCCCCC"/>
<path d="M62.0508 22.3511C64.0285 24.3396 67.7015 23.2721 67.9592 20.5556C67.9794 20.3447 67.9779 20.1324 67.9548 19.9218C67.8217 18.7185 67.0852 17.626 67.2616 16.3555C67.3016 16.0393 67.4264 15.7379 67.6243 15.48C69.2003 13.4881 72.8998 16.371 74.3872 14.5677C75.2992 13.462 74.2271 11.7211 74.927 10.4853C75.8507 8.85421 78.5868 9.65883 80.3025 8.76557C82.2115 7.7717 82.0974 5.00714 80.8407 3.32559C79.3082 1.27488 76.6212 0.180603 73.9677 0.0228832C71.3141 -0.134837 68.6789 0.542226 66.2016 1.45347C63.3869 2.48882 60.5957 3.91972 58.8635 6.25579C56.757 9.09671 56.5543 12.9161 57.6078 16.238C58.2487 18.2587 60.4358 20.7273 62.0508 22.3511Z" fill="#2F2E41"/>
<path d="M319.413 239.803H0.586481C0.431232 239.802 0.282492 239.744 0.172873 239.64C0.0632545 239.536 0.00170898 239.396 0.00170898 239.249C0.00170898 239.103 0.0632545 238.962 0.172873 238.858C0.282492 238.754 0.431232 238.696 0.586481 238.696H319.413C319.569 238.696 319.717 238.754 319.827 238.858C319.937 238.962 319.998 239.103 319.998 239.249C319.998 239.396 319.937 239.536 319.827 239.64C319.717 239.744 319.569 239.802 319.413 239.803Z" fill="#3F3D56"/>
</g>
<defs>
<clipPath id="clip0">
<rect width="320" height="240" fill="white"/>
</clipPath>
</defs>
</svg>
