<svg width="320" height="245" viewBox="0 0 320 245" fill="none" xmlns="http://www.w3.org/2000/svg">
<g clip-path="url(#clip0)">
<path d="M41.5184 226.287L40.6995 222.808C39.2474 222.145 37.7617 221.571 36.2496 221.089L36.1462 222.705L35.7269 220.924C33.8516 220.347 32.5758 220.093 32.5758 220.093C32.5758 220.093 34.2991 227.151 37.9135 232.546L42.1251 233.343L38.8532 233.851C39.3081 234.441 39.7969 234.998 40.3168 235.522C45.5747 240.778 51.4311 243.189 53.3974 240.908C55.3636 238.627 52.6952 232.516 47.4372 227.26C45.7275 225.631 43.7959 224.293 41.7098 223.294L41.5184 226.287Z" fill="#E6E6E6"/>
<path d="M49.3072 222.509L50.2758 219.075C49.3508 217.699 48.3545 216.381 47.2917 215.126L46.4272 216.452L46.9231 214.694C45.5946 213.157 44.6244 212.229 44.6244 212.229C44.6244 212.229 42.7123 219.23 43.2168 225.861L46.4397 228.887L43.395 227.501C43.5016 228.258 43.6522 229.008 43.8462 229.745C45.8245 237.172 49.6803 242.497 52.4585 241.638C55.2367 240.78 55.8851 234.064 53.9068 226.637C53.2253 224.29 52.2138 222.07 50.9075 220.053L49.3072 222.509Z" fill="#E6E6E6"/>
<path d="M107.856 225.442L107.086 222.172C105.721 221.549 104.325 221.009 102.903 220.556L102.806 222.075L102.412 220.401C100.65 219.859 99.4505 219.621 99.4505 219.621C99.4505 219.621 101.07 226.254 104.467 231.325L108.426 232.074L105.351 232.551C105.778 233.105 106.238 233.63 106.726 234.121C111.668 239.062 117.172 241.328 119.02 239.184C120.869 237.04 118.361 231.297 113.419 226.356C111.812 224.825 109.996 223.568 108.036 222.629L107.856 225.442Z" fill="#E6E6E6"/>
<path d="M115.176 221.891L116.087 218.663C115.217 217.37 114.281 216.131 113.282 214.952L112.469 216.198L112.935 214.546C111.687 213.101 110.775 212.229 110.775 212.229C110.775 212.229 108.978 218.809 109.452 225.041L112.481 227.886L109.619 226.583C109.72 227.295 109.861 227.999 110.043 228.692C111.903 235.673 115.527 240.677 118.138 239.87C120.749 239.064 121.359 232.751 119.499 225.771C118.859 223.565 117.908 221.478 116.68 219.583L115.176 221.891Z" fill="#E6E6E6"/>
<path d="M237.141 227.203L236.753 225.555C236.065 225.241 235.361 224.969 234.645 224.741L234.596 225.506L234.398 224.663C233.509 224.39 232.905 224.269 232.905 224.269C233.452 226.368 234.305 228.359 235.433 230.167L237.428 230.545L235.878 230.785C236.094 231.065 236.325 231.329 236.572 231.577C239.062 234.066 241.836 235.208 242.767 234.128C243.698 233.047 242.434 230.153 239.944 227.664C239.134 226.892 238.219 226.258 237.231 225.785L237.141 227.203Z" fill="#E6E6E6"/>
<path d="M240.83 225.413L241.288 223.787C240.85 223.135 240.378 222.511 239.875 221.917L239.466 222.545L239.7 221.712C239.071 220.984 238.612 220.545 238.612 220.545C238.072 222.645 237.847 224.824 237.945 227.001L239.472 228.434L238.029 227.778C238.08 228.137 238.151 228.492 238.243 228.841C239.18 232.358 241.006 234.88 242.322 234.474C243.638 234.067 243.945 230.886 243.008 227.369C242.685 226.257 242.206 225.206 241.588 224.25L240.83 225.413Z" fill="#E6E6E6"/>
<path d="M270.566 224.356L270.056 222.189C269.151 221.776 268.226 221.419 267.284 221.118L267.219 222.125L266.958 221.016C265.79 220.656 264.995 220.498 264.995 220.498C264.995 220.498 266.069 224.895 268.32 228.256L270.944 228.752L268.906 229.069C269.189 229.436 269.494 229.783 269.818 230.109C273.093 233.384 276.742 234.886 277.966 233.465C279.191 232.044 277.529 228.237 274.253 224.963C273.188 223.948 271.985 223.114 270.685 222.492L270.566 224.356Z" fill="#E6E6E6"/>
<path d="M275.418 222.003L276.022 219.864C275.446 219.007 274.825 218.185 274.163 217.404L273.624 218.23L273.933 217.135C273.106 216.177 272.501 215.599 272.501 215.599C272.501 215.599 271.31 219.96 271.624 224.091L273.632 225.976L271.735 225.113C271.802 225.585 271.896 226.052 272.016 226.511C273.249 231.138 275.651 234.455 277.382 233.92C279.112 233.385 279.516 229.201 278.284 224.575C277.859 223.113 277.229 221.729 276.415 220.473L275.418 222.003Z" fill="#E6E6E6"/>
<path d="M207.148 215.721L209.466 212.827C209.116 211.058 208.673 209.311 208.141 207.596L206.768 208.486L207.955 207.004C207.277 204.89 206.703 203.536 206.703 203.536C206.703 203.536 202.039 209.466 199.876 216.157L201.802 220.6L199.393 217.837C199.193 218.624 199.04 219.424 198.933 220.232C197.887 228.382 199.51 235.357 202.559 235.811C205.607 236.265 208.927 230.027 209.974 221.876C210.25 219.275 210.154 216.643 209.689 214.073L207.148 215.721Z" fill="#E6E6E6"/>
<path d="M214.965 220.732L218.338 219.545C218.887 217.835 219.347 216.094 219.714 214.329L218.112 214.327L219.839 213.719C220.273 211.532 220.432 210.054 220.432 210.054C220.432 210.054 213.593 212.533 208.53 217.056L208.047 221.933L207.31 218.226C206.762 218.788 206.246 219.388 205.768 220.02C200.96 226.415 199.002 233.289 201.394 235.375C203.786 237.461 209.622 233.969 214.43 227.574C215.915 225.501 217.095 223.195 217.931 220.736L214.965 220.732Z" fill="#E6E6E6"/>
<path d="M246.222 227.22L247.253 225.933C247.097 225.146 246.9 224.369 246.664 223.606L246.053 224.002L246.581 223.343C246.279 222.403 246.024 221.801 246.024 221.801C244.742 223.486 243.717 225.381 242.988 227.414L243.845 229.39L242.773 228.161C242.684 228.511 242.616 228.867 242.569 229.226C242.103 232.851 242.825 235.953 244.181 236.155C245.537 236.357 247.013 233.582 247.479 229.957C247.602 228.8 247.559 227.63 247.352 226.487L246.222 227.22Z" fill="#E6E6E6"/>
<path d="M249.699 229.448L251.199 228.92C251.443 228.16 251.648 227.386 251.811 226.601L251.098 226.6L251.866 226.33C252.06 225.357 252.13 224.699 252.13 224.699C250.223 225.428 248.436 226.479 246.837 227.814L246.622 229.983L246.294 228.334C246.05 228.584 245.821 228.851 245.608 229.132C243.47 231.976 242.599 235.033 243.663 235.961C244.727 236.889 247.322 235.335 249.461 232.492C250.121 231.569 250.646 230.544 251.018 229.45L249.699 229.448Z" fill="#E6E6E6"/>
<path d="M0.192184 245C0.192184 245 252.178 217.026 319.999 245H0.192184Z" fill="#E6E6E6"/>
<path d="M320 74.322C319.506 33.1307 299.994 0 275.994 0C261.571 0 248.768 11.965 240.74 30.4537L250.179 55.9604L237.134 40.2388C233.844 50.8766 231.976 63.0219 231.976 75.9208C231.95 85.6981 233.068 95.44 235.304 104.916L260.6 100.524L237.961 114.158C245.337 135.934 258.817 150.807 274.355 151.789L271.361 239.525L280.627 239.881L278.647 151.7C300.773 149.431 318.497 118.975 319.917 80.8608L304.626 71.6527L320 74.322Z" fill="#E6E6E6"/>
<path d="M159.752 71.8221L171.929 74.1288L175.988 52.2173L166.179 47.6044L159.752 71.8221Z" fill="#2F2E41"/>
<path d="M174.394 75.3266L186.571 77.6329L190.63 55.7218L180.821 51.1089L174.394 75.3266Z" fill="#2F2E41"/>
<path d="M188.901 216.335V225.446H195.083L194.433 216.685L188.901 216.335Z" fill="#A0616A"/>
<path d="M156.689 216.335V225.446H150.506L151.157 216.685L156.689 216.335Z" fill="#A0616A"/>
<path d="M158.966 131.882L154.023 164.331C152.765 172.593 152.004 180.934 151.748 189.301L150.832 219.138L157.339 218.437L162.22 184.446C162.22 184.446 174.91 133.985 179.465 144.147C184.021 154.309 186.298 186.548 186.298 186.548L188.25 218.087H195.409L196.06 176.737C196.06 176.737 199.964 118.916 190.203 114.01L158.966 131.882Z" fill="#2F2E41"/>
<path d="M195.734 224.044C195.734 224.044 188.576 218.788 187.925 222.993L185.322 233.155C185.322 233.155 181.417 241.215 189.877 241.215C198.337 241.215 195.734 235.258 195.734 235.258V224.044Z" fill="#2F2E41"/>
<path d="M149.856 224.044C149.856 224.044 157.014 218.788 157.665 222.993L160.268 233.155C160.268 233.155 164.172 241.215 155.712 241.215C147.253 241.215 149.856 235.258 149.856 235.258V224.044Z" fill="#2F2E41"/>
<path d="M177.025 67.2283C182.236 67.2283 186.461 62.6785 186.461 57.066C186.461 51.4534 182.236 46.9036 177.025 46.9036C171.813 46.9036 167.589 51.4534 167.589 57.066C167.589 62.6785 171.813 67.2283 177.025 67.2283Z" fill="#A0616A"/>
<path d="M171.005 61.4463C171.005 61.4463 171.981 71.2582 167.101 73.3608L175.235 83.8736L185.973 75.8138C185.973 75.8138 178.164 74.0616 179.465 69.1557C180.767 64.2497 180.767 63.5489 180.767 63.5489L171.005 61.4463Z" fill="#A0616A"/>
<path d="M168.89 72.1343C168.89 72.1343 175.723 77.7411 177.025 77.3907C178.326 77.0402 180.929 73.1855 180.929 73.1855C180.929 73.1855 190.528 73.3608 194.433 76.1642C198.337 78.9676 190.691 96.3137 190.691 96.3137C190.691 96.3137 192.806 104.198 190.203 106.301C187.6 108.403 190.853 113.66 190.853 113.66C190.853 113.66 184.346 126.626 167.101 131.532C167.101 131.532 156.363 136.087 156.689 133.634C157.014 131.181 160.268 103.147 160.268 103.147V74.0616L168.89 72.1343Z" fill="#575A89"/>
<path d="M168.885 44.9859C168.885 44.9859 163.957 46.7549 163.707 53.7411C163.681 54.8585 163.797 55.9744 164.049 57.0585C164.326 58.325 164.505 61.05 162.354 64.611C160.915 66.9621 159.599 69.3989 158.415 71.9098L158.399 71.943L163.811 72.6716L164.962 63.0103C165.52 58.3263 166.715 53.7563 168.509 49.4473L168.547 49.3573C168.547 49.3573 170.914 54.093 175.65 54.093L173.959 52.2716C173.959 52.2716 181.4 55.5502 184.106 55.5502C184.106 55.5502 186.135 57.0073 184.106 59.193C182.076 61.3787 178.018 66.4787 180.385 70.4858C182.753 74.493 180.724 75.5858 180.724 75.5858L184.444 73.4002L186.135 72.3073V73.7644L194.93 72.6716C194.93 72.6716 197.298 72.3073 192.224 66.1145C192.224 66.1145 190.884 63.7096 191.47 61.6354C191.952 60.059 192.079 58.3819 191.84 56.7425C190.703 49.9133 186.243 36.3361 168.885 44.9859Z" fill="#2F2E41"/>
<path d="M131.875 132.758H220.432V185.621H209.184V200.158L197.066 185.621H131.875V132.758Z" fill="#F5A601"/>
<path d="M146.396 151.15H205.911V148.287H146.396V151.15Z" fill="white"/>
<path d="M146.396 160.621H205.911V157.758H146.396V160.621Z" fill="white"/>
<path d="M146.396 170.093H205.911V167.229H146.396V170.093Z" fill="white"/>
<path d="M153.435 102.096L154.411 109.805L161.569 131.181C161.569 131.181 163.196 147.651 167.101 145.549C171.005 143.446 166.45 128.728 166.45 128.728L160.593 108.754L160.919 101.745L153.435 102.096Z" fill="#A0616A"/>
<path d="M164.172 74.7625L161.237 73.7318L159.942 74.4121C159.942 74.4121 155.387 74.7625 154.736 78.2668C154.086 81.771 151.808 103.497 151.808 103.497L163.847 104.198L164.172 74.7625Z" fill="#575A89"/>
<path d="M196.873 102.096L195.897 109.805L188.739 131.181C188.739 131.181 187.112 147.651 183.207 145.549C179.302 143.446 183.858 128.728 183.858 128.728L189.715 108.754L189.389 101.745L196.873 102.096Z" fill="#A0616A"/>
<path d="M186.135 74.7625L187.7 74.2129C188.579 73.9044 189.535 73.9758 190.365 74.4121V74.4121C190.365 74.4121 194.921 74.7625 195.571 78.2667C196.222 81.771 198.5 103.497 198.5 103.497L186.461 104.198L186.135 74.7625Z" fill="#575A89"/>
<path d="M120.095 6.73425H0V78.4235H15.2544V98.1379L31.6878 78.4235H120.095V6.73425Z" fill="#F50057"/>
<path d="M100.402 27.7931H19.6922V31.6762H100.402V27.7931Z" fill="white"/>
<path d="M100.402 40.6374H19.6922V44.5205H100.402V40.6374Z" fill="white"/>
<path d="M100.402 53.4816H19.6922V57.3648H100.402V53.4816Z" fill="white"/>
<path d="M12.9996 107.397C14.7927 107.397 16.2463 105.831 16.2463 103.9C16.2463 101.969 14.7927 100.403 12.9996 100.403C11.2064 100.403 9.75279 101.969 9.75279 103.9C9.75279 105.831 11.2064 107.397 12.9996 107.397Z" fill="#E6E6E6"/>
</g>
<defs>
<clipPath id="clip0">
<rect width="320" height="245" fill="white"/>
</clipPath>
</defs>
</svg>
