<svg width="331" height="293" viewBox="0 0 331 293" fill="none" xmlns="http://www.w3.org/2000/svg">
<path d="M330.522 290.753H0.478324C0.351464 290.753 0.2298 290.691 0.140097 290.581C0.0503943 290.471 0 290.322 0 290.167C0 290.011 0.0503943 289.862 0.140097 289.752C0.2298 289.642 0.351464 289.581 0.478324 289.581H330.522C330.649 289.581 330.77 289.642 330.86 289.752C330.95 289.862 331 290.011 331 290.167C331 290.322 330.95 290.471 330.86 290.581C330.77 290.691 330.649 290.753 330.522 290.753Z" fill="#CCCCCC"/>
<path d="M297.854 188.528H103.655C102.83 188.528 102.039 188.93 101.456 189.644C100.873 190.359 100.546 191.328 100.546 192.338C100.546 193.349 100.873 194.318 101.456 195.032C102.039 195.747 102.83 196.148 103.655 196.148H109.156V287.294C109.156 288.304 109.483 289.273 110.066 289.988C110.649 290.702 111.44 291.104 112.265 291.104C113.089 291.104 113.88 290.702 114.463 289.988C115.046 289.273 115.374 288.304 115.374 287.294L115.421 196.148H285.657V287.294C285.657 288.304 285.985 289.273 286.568 289.988C287.151 290.702 287.942 291.104 288.766 291.104C289.591 291.104 290.381 290.702 290.965 289.988C291.548 289.273 291.875 288.304 291.875 287.294V198.157L292.78 196.148H297.854C298.679 196.148 299.47 195.747 300.053 195.032C300.636 194.318 300.963 193.349 300.963 192.338C300.963 191.328 300.636 190.359 300.053 189.644C299.47 188.93 298.679 188.528 297.854 188.528V188.528Z" fill="#CCCCCC"/>
<path d="M211.321 190.522H152.495C151.356 190.521 150.264 189.966 149.459 188.979C148.654 187.992 148.201 186.653 148.199 185.258V145.57C148.201 144.175 148.654 142.836 149.459 141.849C150.264 140.862 151.356 140.307 152.495 140.306H211.321C212.46 140.307 213.552 140.862 214.357 141.849C215.162 142.836 215.616 144.175 215.617 145.57V185.258C215.616 186.653 215.162 187.992 214.357 188.979C213.552 189.966 212.46 190.521 211.321 190.522V190.522Z" fill="#3F3D56"/>
<path d="M211.32 144.357H152.496C152.233 144.358 151.982 144.486 151.796 144.714C151.611 144.941 151.506 145.249 151.506 145.571V185.259C151.506 185.58 151.611 185.888 151.796 186.116C151.982 186.343 152.233 186.471 152.496 186.472H211.32C211.583 186.471 211.834 186.343 212.02 186.116C212.205 185.888 212.31 185.58 212.31 185.259V145.571C212.31 145.249 212.205 144.941 212.02 144.714C211.834 144.486 211.583 144.358 211.32 144.357V144.357Z" fill="white"/>
<path d="M186.925 172.456C186.925 172.456 179.883 170.468 176.01 174.113C172.137 177.759 180.939 186.044 180.939 186.044L186.925 172.456Z" fill="#2F2E41"/>
<path d="M182.253 168.699C185.921 168.699 188.895 165.055 188.895 160.559C188.895 156.064 185.921 152.419 182.253 152.419C178.584 152.419 175.61 156.064 175.61 160.559C175.61 165.055 178.584 168.699 182.253 168.699Z" fill="#A0616A"/>
<path d="M177.116 149.133C177.559 148.212 178.201 147.458 178.972 146.956C179.742 146.454 180.611 146.222 181.482 146.287C182.393 146.427 183.282 146.732 184.12 147.192L188.462 149.267C189.586 149.804 190.817 150.462 191.304 151.814C191.757 153.069 191.419 154.518 191.077 155.824L189.453 162.033C189.273 160.628 188.964 159.252 188.532 157.932C188.093 156.602 187.3 155.494 186.282 154.788C185.154 154.079 183.824 154.093 182.558 154.168C180.765 154.274 178.815 154.553 177.541 156.103C176.865 156.983 176.406 158.081 176.219 159.268C176.034 160.449 175.941 161.648 175.941 162.85C175.206 161.301 174.586 159.674 174.09 157.988C173.683 156.733 173.45 155.402 173.403 154.052C173.36 152.691 173.729 151.358 174.438 150.308C174.798 149.796 175.268 149.416 175.795 149.213C176.321 149.01 176.884 148.991 177.418 149.159L177.116 149.133Z" fill="#2F2E41"/>
<path d="M198.114 179.514C198.051 179.24 197.924 178.993 197.748 178.807C197.572 178.62 197.355 178.501 197.124 178.465C197.108 178.452 197.092 178.44 197.076 178.43L187.159 171.62C186.876 171.426 186.543 171.372 186.228 171.472C185.914 171.571 185.643 171.815 185.472 172.152L182.76 177.533L178.675 172.528L178.61 172.448C178.4 172.191 178.123 172.033 177.828 172.001C177.533 171.97 177.238 172.067 176.995 172.275L168.845 179.268C168.831 179.268 168.816 179.274 168.802 179.274C168.412 179.354 168.056 179.594 167.792 179.955C167.529 180.317 167.374 180.777 167.353 181.261L167.142 186.472H199.687L198.114 179.514Z" fill="#F50057"/>
<path d="M216.278 185.662H209.999C209.999 185.448 209.929 185.242 209.805 185.09C209.681 184.938 209.513 184.853 209.338 184.853H207.355C207.18 184.853 207.011 184.938 206.887 185.09C206.763 185.242 206.694 185.448 206.694 185.662H204.711C204.711 185.448 204.641 185.242 204.517 185.09C204.393 184.938 204.225 184.853 204.05 184.853H202.067C201.892 184.853 201.724 184.938 201.6 185.09C201.476 185.242 201.406 185.448 201.406 185.662H199.423C199.423 185.448 199.354 185.242 199.23 185.09C199.106 184.938 198.938 184.853 198.762 184.853H196.779C196.604 184.853 196.436 184.938 196.312 185.09C196.188 185.242 196.119 185.448 196.119 185.662H194.136C194.136 185.448 194.066 185.242 193.942 185.09C193.818 184.938 193.65 184.853 193.475 184.853H191.492C191.317 184.853 191.148 184.938 191.024 185.09C190.901 185.242 190.831 185.448 190.831 185.662H188.848C188.848 185.448 188.778 185.242 188.654 185.09C188.53 184.938 188.362 184.853 188.187 184.853H186.204C186.029 184.853 185.861 184.938 185.737 185.09C185.613 185.242 185.543 185.448 185.543 185.662H183.56C183.56 185.448 183.491 185.242 183.367 185.09C183.243 184.938 183.075 184.853 182.899 184.853H180.917C180.741 184.853 180.573 184.938 180.449 185.09C180.325 185.242 180.256 185.448 180.256 185.662H178.273C178.273 185.448 178.203 185.242 178.079 185.09C177.955 184.938 177.787 184.853 177.612 184.853H175.629C175.454 184.853 175.285 184.938 175.162 185.09C175.038 185.242 174.968 185.448 174.968 185.662H172.985C172.985 185.448 172.915 185.242 172.792 185.09C172.668 184.938 172.499 184.853 172.324 184.853H170.341C170.166 184.853 169.998 184.938 169.874 185.09C169.75 185.242 169.68 185.448 169.68 185.662H167.697C167.697 185.448 167.628 185.242 167.504 185.09C167.38 184.938 167.212 184.853 167.036 184.853H165.054C164.878 184.853 164.71 184.938 164.586 185.09C164.462 185.242 164.393 185.448 164.393 185.662H162.41C162.41 185.448 162.34 185.242 162.216 185.09C162.092 184.938 161.924 184.853 161.749 184.853H159.766C159.591 184.853 159.423 184.938 159.299 185.09C159.175 185.242 159.105 185.448 159.105 185.662H157.122C157.122 185.448 157.053 185.242 156.929 185.09C156.805 184.938 156.637 184.853 156.461 184.853H154.478C154.303 184.853 154.135 184.938 154.011 185.09C153.887 185.242 153.817 185.448 153.817 185.662H147.538C147.013 185.663 146.509 185.92 146.138 186.376C145.767 186.831 145.558 187.449 145.558 188.092C145.558 188.736 145.767 189.354 146.138 189.809C146.509 190.265 147.013 190.521 147.538 190.522H216.278C216.804 190.522 217.308 190.266 217.68 189.81C218.052 189.355 218.261 188.737 218.261 188.092C218.261 187.448 218.052 186.83 217.68 186.374C217.308 185.918 216.804 185.662 216.278 185.662V185.662Z" fill="#3F3D56"/>
<path d="M137.317 171.552V187.686H104.33C103.447 187.724 102.566 187.543 101.74 187.154C100.915 186.766 100.161 186.178 99.5253 185.425C98.8892 184.672 98.3833 183.77 98.0378 182.772C97.6923 181.775 97.5143 180.702 97.5143 179.619C97.5143 178.535 97.6923 177.463 98.0378 176.465C98.3833 175.468 98.8892 174.566 99.5253 173.813C100.161 173.06 100.915 172.472 101.74 172.083C102.566 171.695 103.447 171.514 104.33 171.552H137.317Z" fill="#F2F2F2"/>
<path d="M138.127 187.562C138.127 187.726 138.074 187.884 137.979 188C137.884 188.117 137.755 188.182 137.621 188.182H103.743C101.903 188.182 100.138 187.287 98.8373 185.692C97.5363 184.098 96.8053 181.936 96.8053 179.681C96.8053 177.426 97.5363 175.264 98.8373 173.669C100.138 172.075 101.903 171.179 103.743 171.179H137.621C137.755 171.179 137.884 171.245 137.979 171.361C138.074 171.478 138.127 171.635 138.127 171.8C138.127 171.965 138.074 172.122 137.979 172.239C137.884 172.355 137.755 172.421 137.621 172.421H103.743C102.172 172.422 100.667 173.188 99.5569 174.549C98.4469 175.911 97.8234 177.756 97.8234 179.681C97.8234 181.605 98.4469 183.451 99.5569 184.812C100.667 186.174 102.172 186.939 103.743 186.941H137.621C137.755 186.941 137.884 187.007 137.979 187.123C138.074 187.239 138.127 187.397 138.127 187.562V187.562Z" fill="#F50057"/>
<path d="M137.317 175.275H101.869C101.856 175.275 101.843 175.272 101.83 175.266C101.818 175.26 101.807 175.25 101.797 175.239C101.788 175.227 101.78 175.214 101.775 175.199C101.77 175.183 101.767 175.167 101.767 175.151C101.767 175.135 101.77 175.118 101.775 175.103C101.78 175.088 101.788 175.074 101.797 175.063C101.807 175.051 101.818 175.042 101.83 175.036C101.843 175.03 101.856 175.027 101.869 175.027H137.317C137.343 175.027 137.369 175.04 137.388 175.063C137.407 175.087 137.417 175.118 137.417 175.151C137.417 175.184 137.407 175.215 137.388 175.238C137.369 175.262 137.343 175.275 137.317 175.275V175.275Z" fill="#CCCCCC"/>
<path d="M137.317 178.254H101.869C101.856 178.254 101.843 178.251 101.83 178.244C101.818 178.238 101.807 178.229 101.797 178.218C101.788 178.206 101.78 178.192 101.775 178.177C101.77 178.162 101.767 178.146 101.767 178.129C101.767 178.113 101.77 178.097 101.775 178.082C101.78 178.067 101.788 178.053 101.797 178.041C101.807 178.03 101.818 178.021 101.83 178.015C101.843 178.008 101.856 178.005 101.869 178.005H137.317C137.343 178.006 137.369 178.019 137.388 178.042C137.407 178.065 137.417 178.097 137.417 178.129C137.417 178.162 137.407 178.194 137.388 178.217C137.369 178.24 137.343 178.253 137.317 178.254V178.254Z" fill="#CCCCCC"/>
<path d="M137.317 181.232H101.869C101.856 181.232 101.843 181.229 101.83 181.223C101.818 181.217 101.807 181.208 101.797 181.196C101.788 181.185 101.78 181.171 101.775 181.156C101.77 181.141 101.767 181.125 101.767 181.108C101.767 181.092 101.77 181.076 101.775 181.06C101.78 181.045 101.788 181.032 101.797 181.02C101.807 181.009 101.818 180.999 101.83 180.993C101.843 180.987 101.856 180.984 101.869 180.984H137.317C137.343 180.984 137.369 180.997 137.388 181.021C137.407 181.044 137.417 181.075 137.417 181.108C137.417 181.141 137.407 181.172 137.388 181.196C137.369 181.219 137.343 181.232 137.317 181.232V181.232Z" fill="#CCCCCC"/>
<path d="M137.317 184.211H101.869C101.856 184.211 101.843 184.208 101.83 184.202C101.818 184.195 101.807 184.186 101.797 184.175C101.788 184.163 101.78 184.15 101.775 184.134C101.77 184.119 101.767 184.103 101.767 184.087C101.767 184.07 101.77 184.054 101.775 184.039C101.78 184.024 101.788 184.01 101.797 183.999C101.807 183.987 101.818 183.978 101.83 183.972C101.843 183.966 101.856 183.963 101.869 183.963H137.317C137.343 183.963 137.369 183.976 137.388 183.999C137.407 184.023 137.417 184.054 137.417 184.087C137.417 184.12 137.407 184.151 137.388 184.174C137.369 184.197 137.343 184.211 137.317 184.211Z" fill="#CCCCCC"/>
<path d="M131.098 154.554V170.688H98.1122C97.2285 170.725 96.3475 170.545 95.522 170.156C94.6964 169.768 93.9432 169.18 93.3071 168.427C92.671 167.674 92.1651 166.772 91.8196 165.774C91.4741 164.777 91.2961 163.704 91.2961 162.621C91.2961 161.537 91.4741 160.464 91.8196 159.467C92.1651 158.469 92.671 157.567 93.3071 156.815C93.9432 156.062 94.6964 155.474 95.522 155.085C96.3475 154.697 97.2285 154.516 98.1122 154.554H131.098Z" fill="#F2F2F2"/>
<path d="M131.909 170.564C131.909 170.728 131.855 170.886 131.76 171.002C131.665 171.119 131.537 171.184 131.402 171.184H97.5247C96.6137 171.184 95.7115 170.964 94.8698 170.537C94.0281 170.11 93.2633 169.484 92.6191 168.694C91.9749 167.905 91.4639 166.967 91.1152 165.936C90.7666 164.905 90.5871 163.799 90.5871 162.683C90.5871 161.566 90.7666 160.461 91.1152 159.429C91.4639 158.398 91.9749 157.461 92.6191 156.671C93.2633 155.882 94.0281 155.256 94.8698 154.828C95.7115 154.401 96.6137 154.181 97.5247 154.181H131.402C131.537 154.181 131.665 154.247 131.76 154.363C131.855 154.479 131.909 154.637 131.909 154.802C131.909 154.966 131.855 155.124 131.76 155.241C131.665 155.357 131.537 155.422 131.402 155.422H97.5247C95.9543 155.424 94.4487 156.19 93.3387 157.551C92.2287 158.913 91.6052 160.758 91.6052 162.683C91.6052 164.607 92.2287 166.453 93.3387 167.814C94.4487 169.176 95.9543 169.941 97.5247 169.943H131.402C131.537 169.943 131.665 170.008 131.76 170.125C131.855 170.241 131.909 170.399 131.909 170.564V170.564Z" fill="#3F3D56"/>
<path d="M131.099 158.277H95.651C95.6377 158.277 95.6244 158.274 95.6121 158.268C95.5997 158.261 95.5884 158.252 95.579 158.241C95.5695 158.229 95.562 158.215 95.5568 158.2C95.5517 158.185 95.549 158.169 95.549 158.153C95.549 158.136 95.5517 158.12 95.5568 158.105C95.562 158.09 95.5695 158.076 95.579 158.065C95.5884 158.053 95.5997 158.044 95.6121 158.038C95.6244 158.032 95.6377 158.028 95.651 158.029H131.099C131.125 158.029 131.151 158.042 131.17 158.065C131.189 158.088 131.199 158.12 131.199 158.153C131.199 158.185 131.189 158.217 131.17 158.24C131.151 158.263 131.125 158.277 131.099 158.277V158.277Z" fill="#CCCCCC"/>
<path d="M131.099 161.255H95.651C95.6377 161.256 95.6244 161.252 95.6121 161.246C95.5997 161.24 95.5884 161.231 95.579 161.219C95.5695 161.208 95.562 161.194 95.5568 161.179C95.5517 161.164 95.549 161.148 95.549 161.131C95.549 161.115 95.5517 161.099 95.5568 161.084C95.562 161.068 95.5695 161.055 95.579 161.043C95.5884 161.032 95.5997 161.023 95.6121 161.016C95.6244 161.01 95.6377 161.007 95.651 161.007H131.099C131.125 161.007 131.151 161.021 131.17 161.044C131.189 161.067 131.199 161.099 131.199 161.131C131.199 161.164 131.189 161.196 131.17 161.219C131.151 161.242 131.125 161.255 131.099 161.255V161.255Z" fill="#CCCCCC"/>
<path d="M131.099 164.234H95.651C95.6377 164.234 95.6244 164.231 95.6121 164.225C95.5997 164.219 95.5884 164.21 95.579 164.198C95.5695 164.186 95.562 164.173 95.5568 164.158C95.5517 164.143 95.549 164.126 95.549 164.11C95.549 164.094 95.5517 164.077 95.5568 164.062C95.562 164.047 95.5695 164.033 95.579 164.022C95.5884 164.01 95.5997 164.001 95.6121 163.995C95.6244 163.989 95.6377 163.986 95.651 163.986H131.099C131.125 163.986 131.151 163.999 131.17 164.022C131.189 164.046 131.199 164.077 131.199 164.11C131.199 164.143 131.189 164.174 131.17 164.197C131.151 164.221 131.125 164.234 131.099 164.234V164.234Z" fill="#CCCCCC"/>
<path d="M131.099 167.213H95.651C95.6377 167.213 95.6244 167.21 95.6121 167.203C95.5997 167.197 95.5884 167.188 95.579 167.177C95.5695 167.165 95.562 167.151 95.5568 167.136C95.5517 167.121 95.549 167.105 95.549 167.088C95.549 167.072 95.5517 167.056 95.5568 167.041C95.562 167.026 95.5695 167.012 95.579 167C95.5884 166.989 95.5997 166.98 95.6121 166.974C95.6244 166.967 95.6377 166.964 95.651 166.964H131.099C131.125 166.965 131.151 166.978 131.17 167.001C131.189 167.024 131.199 167.056 131.199 167.088C131.199 167.121 131.189 167.153 131.17 167.176C131.151 167.199 131.125 167.212 131.099 167.213Z" fill="#CCCCCC"/>
<path d="M169.472 245.034V230.966C169.472 230.344 169.27 229.748 168.911 229.308C168.552 228.869 168.066 228.622 167.558 228.622H124.031C123.523 228.622 123.037 228.869 122.678 229.308C122.319 229.748 122.118 230.344 122.118 230.966V245.034H169.472Z" fill="#CCCCCC"/>
<path d="M169.472 250.309H122.118V268.479H169.472V250.309Z" fill="#CCCCCC"/>
<path d="M122.118 273.755V287.822C122.118 288.444 122.319 289.04 122.678 289.48C123.037 289.92 123.523 290.167 124.031 290.167H167.558C168.066 290.167 168.552 289.92 168.911 289.48C169.27 289.04 169.472 288.444 169.472 287.822V273.755H122.118Z" fill="#CCCCCC"/>
<path d="M145.555 239.172C146.348 239.172 146.99 238.385 146.99 237.414C146.99 236.443 146.348 235.655 145.555 235.655C144.763 235.655 144.12 236.443 144.12 237.414C144.12 238.385 144.763 239.172 145.555 239.172Z" fill="white"/>
<path d="M145.555 262.618C146.348 262.618 146.99 261.831 146.99 260.86C146.99 259.888 146.348 259.101 145.555 259.101C144.763 259.101 144.12 259.888 144.12 260.86C144.12 261.831 144.763 262.618 145.555 262.618Z" fill="white"/>
<path d="M145.632 285.567C146.425 285.567 147.067 284.78 147.067 283.809C147.067 282.838 146.425 282.05 145.632 282.05C144.84 282.05 144.197 282.838 144.197 283.809C144.197 284.78 144.84 285.567 145.632 285.567Z" fill="white"/>
<path d="M164.103 212.582V228.716H131.117C130.233 228.754 129.352 228.573 128.526 228.184C127.701 227.796 126.947 227.208 126.311 226.455C125.675 225.702 125.169 224.8 124.824 223.803C124.478 222.805 124.3 221.733 124.3 220.649C124.3 219.565 124.478 218.493 124.824 217.495C125.169 216.498 125.675 215.596 126.311 214.843C126.947 214.09 127.701 213.502 128.526 213.113C129.352 212.725 130.233 212.544 131.117 212.582H164.103Z" fill="#F2F2F2"/>
<path d="M164.913 228.592C164.913 228.756 164.86 228.914 164.765 229.031C164.67 229.147 164.541 229.212 164.407 229.212H130.529C129.618 229.213 128.715 228.994 127.872 228.567C127.03 228.14 126.265 227.514 125.62 226.725C124.975 225.935 124.463 224.998 124.114 223.966C123.765 222.934 123.586 221.828 123.586 220.711C123.586 219.594 123.765 218.488 124.114 217.456C124.463 216.424 124.975 215.487 125.62 214.697C126.265 213.908 127.03 213.282 127.872 212.855C128.715 212.428 129.618 212.209 130.529 212.21H164.407C164.541 212.21 164.67 212.275 164.765 212.391C164.86 212.508 164.913 212.666 164.913 212.83C164.913 212.995 164.86 213.153 164.765 213.269C164.67 213.385 164.541 213.451 164.407 213.451H130.529C128.959 213.452 127.453 214.218 126.343 215.579C125.233 216.941 124.61 218.787 124.61 220.711C124.61 222.635 125.233 224.481 126.343 225.842C127.453 227.204 128.959 227.97 130.529 227.971H164.407C164.541 227.971 164.67 228.037 164.765 228.153C164.86 228.269 164.913 228.427 164.913 228.592V228.592Z" fill="#3F3D56"/>
<path d="M164.103 216.305H128.655C128.642 216.305 128.629 216.302 128.616 216.296C128.604 216.29 128.593 216.281 128.583 216.269C128.574 216.258 128.566 216.244 128.561 216.229C128.556 216.214 128.553 216.197 128.553 216.181C128.553 216.165 128.556 216.148 128.561 216.133C128.566 216.118 128.574 216.104 128.583 216.093C128.593 216.081 128.604 216.072 128.616 216.066C128.629 216.06 128.642 216.057 128.655 216.057H164.103C164.13 216.057 164.155 216.07 164.174 216.094C164.193 216.117 164.203 216.148 164.203 216.181C164.203 216.214 164.193 216.245 164.174 216.268C164.155 216.292 164.13 216.305 164.103 216.305V216.305Z" fill="#CCCCCC"/>
<path d="M164.103 219.284H128.655C128.642 219.284 128.629 219.281 128.616 219.275C128.604 219.268 128.593 219.259 128.583 219.248C128.574 219.236 128.566 219.222 128.561 219.207C128.556 219.192 128.553 219.176 128.553 219.16C128.553 219.143 128.556 219.127 128.561 219.112C128.566 219.097 128.574 219.083 128.583 219.072C128.593 219.06 128.604 219.051 128.616 219.045C128.629 219.039 128.642 219.035 128.655 219.036H164.103C164.13 219.036 164.155 219.049 164.174 219.072C164.193 219.095 164.203 219.127 164.203 219.16C164.203 219.192 164.193 219.224 164.174 219.247C164.155 219.27 164.13 219.284 164.103 219.284V219.284Z" fill="#CCCCCC"/>
<path d="M164.103 222.262H128.655C128.642 222.262 128.629 222.259 128.616 222.253C128.604 222.247 128.593 222.238 128.583 222.226C128.574 222.215 128.566 222.201 128.561 222.186C128.556 222.171 128.553 222.155 128.553 222.138C128.553 222.122 128.556 222.106 128.561 222.091C128.566 222.075 128.574 222.062 128.583 222.05C128.593 222.039 128.604 222.03 128.616 222.023C128.629 222.017 128.642 222.014 128.655 222.014H164.103C164.13 222.014 164.155 222.028 164.174 222.051C164.193 222.074 164.203 222.105 164.203 222.138C164.203 222.171 164.193 222.202 164.174 222.226C164.155 222.249 164.13 222.262 164.103 222.262V222.262Z" fill="#CCCCCC"/>
<path d="M164.103 225.241H128.655C128.642 225.241 128.629 225.238 128.616 225.232C128.604 225.226 128.593 225.216 128.583 225.205C128.574 225.193 128.566 225.18 128.561 225.164C128.556 225.149 128.553 225.133 128.553 225.117C128.553 225.1 128.556 225.084 128.561 225.069C128.566 225.054 128.574 225.04 128.583 225.029C128.593 225.017 128.604 225.008 128.616 225.002C128.629 224.996 128.642 224.993 128.655 224.993H164.103C164.13 224.993 164.155 225.006 164.174 225.029C164.193 225.053 164.203 225.084 164.203 225.117C164.203 225.15 164.193 225.181 164.174 225.204C164.155 225.228 164.13 225.241 164.103 225.241V225.241Z" fill="#CCCCCC"/>
<path d="M241.823 183.489H226.794C226.651 183.488 226.51 183.529 226.383 183.606L222.589 185.933C222.465 185.998 222.358 186.106 222.283 186.245C222.208 186.384 222.169 186.546 222.169 186.712C222.169 186.879 222.208 187.041 222.283 187.18C222.358 187.318 222.465 187.427 222.589 187.492L226.383 189.819C226.51 189.896 226.651 189.936 226.794 189.936H241.823C242.03 189.951 242.233 189.865 242.389 189.697C242.545 189.529 242.641 189.293 242.655 189.039V184.385C242.641 184.132 242.545 183.895 242.389 183.728C242.233 183.56 242.03 183.474 241.823 183.489Z" fill="#3F3D56"/>
<path d="M242.655 184.385V189.039C242.641 189.293 242.545 189.529 242.389 189.697C242.233 189.865 242.03 189.951 241.823 189.936H238.829V183.488H241.823C242.03 183.474 242.233 183.56 242.389 183.728C242.545 183.895 242.641 184.132 242.655 184.385V184.385Z" fill="#F50057"/>
<path d="M241.71 148.671C242.39 148.311 243.126 148.132 243.867 148.144C244.608 148.157 245.339 148.361 246.012 148.743C246.684 149.126 247.283 149.679 247.769 150.365C248.255 151.051 248.617 151.855 248.832 152.724C248.899 153 248.95 153.281 248.985 153.565L270.002 166.336L274.866 162.387L280.917 170.924L273.491 178.315C272.598 179.197 271.496 179.703 270.35 179.757C269.204 179.811 268.074 179.411 267.129 178.616L245.805 160.546C245.647 160.629 245.485 160.701 245.32 160.763C244.61 161.026 243.863 161.102 243.128 160.987C242.392 160.872 241.685 160.567 241.052 160.093C240.419 159.62 239.875 158.987 239.456 158.238C239.037 157.489 238.751 156.639 238.618 155.745C238.579 155.486 238.553 155.224 238.541 154.96C238.481 153.641 238.753 152.331 239.32 151.206C239.887 150.082 240.72 149.197 241.71 148.671V148.671Z" fill="#FFB8B8"/>
<path d="M285.483 227.302H262.519C262.519 228.111 238.852 228.767 238.852 228.767C238.48 229.11 238.142 229.503 237.842 229.94C236.943 231.254 236.452 232.914 236.455 234.629V235.801C236.456 237.744 237.086 239.607 238.207 240.981C239.328 242.355 240.849 243.127 242.434 243.128H285.483C287.069 243.126 288.589 242.354 289.71 240.98C290.831 239.606 291.461 237.744 291.462 235.801V234.629C291.46 232.686 290.829 230.824 289.709 229.451C288.588 228.078 287.068 227.305 285.483 227.302V227.302Z" fill="#3F3D56"/>
<path d="M260.503 292.073H266.722V242.837H260.503V292.073Z" fill="#3F3D56"/>
<path d="M242.805 291.805C242.805 292.629 252.228 292.124 263.852 292.124C275.475 292.124 284.898 292.629 284.898 291.805C284.898 290.982 275.475 284.453 263.852 284.453C252.228 284.453 242.805 290.982 242.805 291.805Z" fill="#3F3D56"/>
<path d="M248.419 286.034L242.555 286.034L239.765 267.396L248.42 267.397L248.419 286.034Z" fill="#FFB8B8"/>
<path d="M249.914 293L231.006 292.999V292.706C231.006 291.522 231.196 290.349 231.566 289.255C231.936 288.161 232.478 287.166 233.162 286.329C233.845 285.491 234.656 284.827 235.549 284.374C236.442 283.921 237.399 283.687 238.366 283.688H238.366L249.915 283.688L249.914 293Z" fill="#2F2E41"/>
<path d="M239.648 274.477L227.957 242.352C226.981 239.644 226.873 236.585 227.655 233.784C228.437 230.984 230.051 228.646 232.176 227.238L257.533 210.576L269.104 209.37L279.778 208.181L279.855 208.34C279.953 208.544 282.248 213.402 280.697 218.728C279.52 222.768 276.46 225.924 271.6 228.107C260.257 233.204 247.153 237.56 242.046 239.196C241.82 239.267 241.609 239.395 241.427 239.573C241.245 239.751 241.095 239.974 240.988 240.227C240.881 240.478 240.818 240.753 240.801 241.036C240.785 241.318 240.817 241.601 240.894 241.868L251.756 271.77C251.869 272.149 251.91 272.555 251.875 272.957C251.84 273.359 251.73 273.745 251.554 274.086C251.378 274.428 251.141 274.715 250.86 274.926C250.579 275.137 250.262 275.267 249.933 275.304L241.818 276.028C241.749 276.036 241.68 276.04 241.612 276.04C241.197 276.04 240.79 275.892 240.441 275.615C240.093 275.337 239.817 274.942 239.648 274.477V274.477Z" fill="#2F2E41"/>
<path d="M251.289 286.034L245.425 286.034L242.635 267.396L251.29 267.397L251.289 286.034Z" fill="#FFB8B8"/>
<path d="M252.784 293L233.876 292.999V292.706C233.876 291.522 234.066 290.349 234.436 289.255C234.806 288.161 235.348 287.166 236.032 286.329C236.715 285.491 237.526 284.827 238.419 284.374C239.312 283.921 240.269 283.687 241.236 283.688H241.236L252.785 283.688L252.784 293Z" fill="#2F2E41"/>
<path d="M242.996 276.235L231.306 244.11C230.33 241.402 230.222 238.344 231.003 235.543C231.785 232.742 233.399 230.405 235.524 228.997L260.881 212.334L272.453 211.128L283.126 209.939L283.203 210.099C283.302 210.303 285.597 215.16 284.045 220.486C282.869 224.526 279.808 227.682 274.948 229.866C263.605 234.962 250.501 239.318 245.394 240.954C245.169 241.025 244.958 241.154 244.775 241.331C244.593 241.509 244.444 241.732 244.337 241.986C244.229 242.237 244.166 242.512 244.15 242.794C244.133 243.076 244.165 243.36 244.243 243.626L255.104 273.528C255.217 273.908 255.258 274.314 255.223 274.715C255.188 275.117 255.079 275.503 254.903 275.845C254.727 276.186 254.489 276.474 254.208 276.685C253.927 276.896 253.61 277.025 253.282 277.062L245.166 277.787C245.097 277.795 245.029 277.799 244.96 277.799C244.545 277.798 244.138 277.651 243.79 277.373C243.441 277.096 243.166 276.701 242.996 276.235V276.235Z" fill="#2F2E41"/>
<path d="M237.169 178.097C232.257 170.089 228.373 161.208 225.654 151.76C225.496 151.195 225.507 150.58 225.685 150.024C225.863 149.468 226.196 149.007 226.625 148.724L243.436 137.686C243.708 137.506 244.01 137.405 244.319 137.389C244.628 137.374 244.935 137.445 245.218 137.598C245.507 137.751 245.762 137.983 245.966 138.276C246.17 138.569 246.317 138.915 246.396 139.288C248.352 148.392 252.03 156.803 257.132 163.842C257.342 164.129 257.496 164.47 257.582 164.84C257.668 165.211 257.684 165.6 257.628 165.98C257.575 166.353 257.453 166.706 257.272 167.012C257.09 167.319 256.854 167.571 256.581 167.749L239.77 178.787C239.34 179.068 238.843 179.153 238.367 179.026C237.89 178.9 237.466 178.57 237.169 178.097V178.097Z" fill="#CCCCCC"/>
<path d="M238.317 177.04C238.407 177.179 238.534 177.274 238.676 177.31C238.817 177.346 238.965 177.32 239.092 177.237L255.903 166.198C255.985 166.146 256.056 166.072 256.11 165.98C256.164 165.889 256.2 165.784 256.216 165.673C256.233 165.555 256.228 165.434 256.201 165.32C256.174 165.205 256.126 165.1 256.06 165.012C250.808 157.765 247.022 149.106 245.007 139.734C244.984 139.618 244.939 139.511 244.876 139.42C244.813 139.329 244.734 139.257 244.645 139.209C244.561 139.163 244.469 139.142 244.377 139.146C244.285 139.151 244.195 139.182 244.114 139.236L227.303 150.274C227.176 150.359 227.077 150.495 227.022 150.659C226.968 150.824 226.963 151.006 227.007 151.175C229.678 160.454 233.492 169.176 238.317 177.04V177.04Z" fill="white"/>
<path d="M293.018 175.152L279.852 181.283L276.637 170.342C276.211 168.889 276.217 167.298 276.655 165.85C277.092 164.402 277.934 163.19 279.03 162.429V162.429C280.139 161.659 281.436 161.4 282.687 161.699C283.938 161.999 285.061 162.836 285.852 164.061L293.018 175.152Z" fill="#F50057"/>
<path d="M259.53 218.503C259.253 218.263 259.021 217.954 258.849 217.595C258.677 217.236 258.57 216.837 258.534 216.423C256.847 197.133 258.022 182.038 262.124 170.273C262.846 168.244 263.935 166.442 265.307 165.003C266.68 163.563 268.301 162.524 270.048 161.962L280.691 161.304L280.746 161.336C283.147 162.778 285.106 165.129 286.331 168.042C287.556 170.955 287.983 174.274 287.547 177.507C284.124 188.564 281.258 200.075 283.444 209.362C283.535 209.75 283.562 210.157 283.522 210.558C283.483 210.959 283.377 211.347 283.212 211.697C283.053 212.035 282.838 212.33 282.582 212.562C282.325 212.795 282.033 212.961 281.722 213.05L261.451 218.959C261.123 219.055 260.782 219.064 260.451 218.985C260.119 218.907 259.806 218.742 259.53 218.503Z" fill="#F50057"/>
<path d="M277.139 156.433C283.627 156.433 288.887 149.987 288.887 142.036C288.887 134.086 283.627 127.64 277.139 127.64C270.651 127.64 265.391 134.086 265.391 142.036C265.391 149.987 270.651 156.433 277.139 156.433Z" fill="#FFB8B8"/>
<path d="M244.54 153.439L235.384 158.391C235.036 158.579 234.641 158.59 234.286 158.422C233.931 158.253 233.646 157.919 233.492 157.493L233.265 156.864C233.112 156.437 233.103 155.954 233.241 155.519C233.378 155.084 233.651 154.734 233.999 154.545L243.154 149.593C243.503 149.405 243.897 149.394 244.252 149.563C244.607 149.731 244.893 150.065 245.047 150.491L245.273 151.12C245.426 151.547 245.435 152.03 245.298 152.465C245.16 152.9 244.888 153.25 244.54 153.439V153.439Z" fill="#CCCCCC"/>
<path d="M247.888 161.059L238.732 166.011C238.384 166.199 237.989 166.21 237.634 166.042C237.28 165.873 236.994 165.539 236.84 165.113L236.614 164.484C236.46 164.057 236.451 163.574 236.589 163.139C236.726 162.704 236.999 162.354 237.347 162.165L246.503 157.213C246.851 157.025 247.246 157.014 247.6 157.182C247.955 157.351 248.241 157.685 248.395 158.111L248.621 158.74C248.775 159.167 248.783 159.65 248.646 160.085C248.509 160.52 248.236 160.87 247.888 161.059V161.059Z" fill="#CCCCCC"/>
<path d="M254.949 190.821L234.537 171.088C234.374 171.158 234.209 171.218 234.041 171.267C233.321 171.474 232.573 171.492 231.846 171.322C231.12 171.151 230.43 170.795 229.823 170.276C229.212 169.757 228.699 169.084 228.317 168.303C227.936 167.521 227.695 166.648 227.61 165.743C227.474 164.296 227.74 162.835 228.366 161.597C228.992 160.359 229.941 159.416 231.059 158.921C231.757 158.615 232.499 158.492 233.239 158.562C233.978 158.631 234.697 158.891 235.348 159.325C236 159.759 236.569 160.356 237.019 161.078C237.469 161.8 237.789 162.631 237.959 163.515C238.012 163.796 238.048 164.08 238.069 164.366L258.388 178.731L263.445 175.164L269.047 184.151L261.196 191.008C260.276 191.804 259.172 192.216 258.047 192.182C256.922 192.149 255.835 191.671 254.949 190.821V190.821Z" fill="#FFB8B8"/>
<path d="M271.538 186.949L259.891 177.244L265.365 167.745C266.091 166.483 267.159 165.577 268.378 165.187C269.597 164.796 270.889 164.947 272.027 165.611V165.611C273.178 166.283 274.094 167.437 274.611 168.865C275.128 170.293 275.212 171.9 274.846 173.397L271.538 186.949Z" fill="#F50057"/>
<path d="M272.832 139.892C269.812 142.425 265.847 145.028 262.763 142.331C260.738 140.56 260.1 137.281 260.922 134.403C262.398 129.229 266.456 126.95 270.335 125.204C275.379 122.934 280.871 121.128 286.077 122.754C291.284 124.379 295.886 130.557 294.946 137.04C294.19 142.253 290.177 146.591 290.747 151.84C291.32 157.122 296.168 159.903 300.448 160.847C304.728 161.791 309.517 162.094 312.593 165.861C316.517 170.667 315.537 179.257 311.845 184.33C308.153 189.404 302.581 191.704 297.182 193.268C290.029 195.339 282.292 196.428 275.499 192.99C268.705 189.552 263.418 180.297 265.386 171.619C266.218 167.954 268.176 164.856 270.068 161.84C271.961 158.824 273.877 155.67 274.599 151.97C275.201 148.886 274.756 145.306 273.087 142.993C272.783 142.588 272.592 142.076 272.541 141.53C272.49 140.984 272.582 140.432 272.803 139.953L272.832 139.892Z" fill="#2F2E41"/>
<path d="M52.1718 209.839C49.1446 211.143 45.8943 211.469 42.7341 210.787C39.5739 210.105 36.6103 208.437 34.1289 205.944C27.8093 199.444 25.8279 188.736 24.2157 178.82C22.6262 169.044 21.0367 159.268 19.4472 149.492L29.4306 157.916C36.6101 163.974 43.9513 170.226 48.9223 179C53.8934 187.775 56.0632 199.753 52.0692 209.247" fill="#E6E6E6"/>
<path d="M51.3184 245.347C52.3289 236.327 53.3679 227.192 52.6591 218.076C52.0296 209.98 50.014 202.073 45.9105 195.589C43.7324 192.154 41.082 189.211 38.0785 186.892C37.2953 186.287 36.5745 187.808 37.3543 188.411C42.5511 192.436 46.5707 198.379 48.8335 205.383C51.3327 213.173 51.734 221.664 51.3034 229.939C51.0429 234.943 50.4909 239.914 49.9347 244.879C49.8908 245.104 49.9182 245.34 50.0112 245.541C50.1043 245.742 50.256 245.892 50.4358 245.961C50.6193 246.021 50.8148 245.991 50.9801 245.876C51.1453 245.761 51.2669 245.571 51.3184 245.347H51.3184Z" fill="#F2F2F2"/>
<path d="M41.5859 229.387C40.2876 231.805 38.5029 233.772 36.4039 235.1C34.3049 236.428 31.9622 237.07 29.6017 236.966C23.535 236.613 18.4774 231.425 13.9245 226.499L0.458145 211.929L9.37066 211.406C15.78 211.03 22.3547 210.68 28.4594 213.102C34.5641 215.524 40.1942 221.353 41.3104 229.096" fill="#E6E6E6"/>
<path d="M54.174 250.531C49.3106 239.986 43.6694 228.266 33.5895 224.52C30.7868 223.482 27.848 223.11 24.9313 223.425C24.0121 223.522 24.2416 225.258 25.1592 225.161C30.0482 224.664 34.9277 226.246 38.9763 229.641C42.8722 232.89 45.9056 237.408 48.473 242.199C50.0456 245.133 51.4543 248.193 52.8632 251.248C53.3135 252.224 54.6296 251.519 54.174 250.531V250.531Z" fill="#F2F2F2"/>
<path d="M61.9667 261.631C61.8029 259.304 61.1211 257.077 59.9958 255.192C58.8705 253.308 57.3447 251.837 55.5846 250.942V244.845H47.2403V251.134C45.5668 252.073 44.1266 253.54 43.0665 255.384C42.0064 257.228 41.3643 259.384 41.2056 261.631L39.2435 289.581H63.9288L61.9667 261.631Z" fill="#F2F2F2"/>
</svg>
