<svg width="808" height="681" viewBox="0 0 808 681" fill="none" xmlns="http://www.w3.org/2000/svg">
<path d="M150 598C63 541 21.0001 461 35.0001 241C35.0001 241 42.0001 135 30.0001 83C18.0001 31 8.00009 14.0001 1.00009 7.62939e-05C-5.99991 -13.9999 808 -1.28746e-05 808 -1.28746e-05C640 148 751.7 176.631 643.676 252.883C535.651 329.135 688.385 275.01 669.093 341.844C624.612 495.937 438.486 410.342 367 458C295.513 505.658 330.235 716.085 150 598Z" fill="url(#paint0_linear)"/>
<path opacity="0.1" d="M237.071 368.728C263.415 368.728 284.771 364.893 284.771 360.163C284.771 355.433 263.415 351.598 237.071 351.598C210.728 351.598 189.372 355.433 189.372 360.163C189.372 364.893 210.728 368.728 237.071 368.728Z" fill="black"/>
<path opacity="0.1" d="M234.572 381.247C214.105 381.243 194.055 387.397 176.738 398.998C159.42 410.6 145.541 427.176 136.705 446.811C146.862 434.876 159.261 425.339 173.1 418.819C186.939 412.298 201.91 408.938 217.046 408.956C276.95 408.956 325.514 460.61 325.514 524.326C325.538 541.564 321.915 558.586 314.913 574.132C333.047 552.927 343.078 525.281 343.039 496.617C343.039 432.901 294.475 381.247 234.572 381.247Z" fill="black"/>
<path opacity="0.3" d="M325.514 523.822C325.538 541.06 321.915 558.082 314.913 573.628C304.756 585.564 292.357 595.1 278.518 601.621C264.679 608.141 249.708 611.501 234.572 611.483C174.668 611.483 126.104 559.829 126.104 496.113C126.08 478.876 129.703 461.853 136.705 446.308C146.862 434.372 159.261 424.835 173.1 418.315C186.939 411.794 201.91 408.434 217.046 408.452C276.95 408.452 325.514 460.107 325.514 523.822Z" fill="#F50057"/>
<path d="M234.572 612.05C174.469 612.05 125.571 560.041 125.571 496.113C125.528 478.789 129.17 461.678 136.224 446.062C145.104 426.331 159.051 409.673 176.454 398.015C193.856 386.356 214.005 380.172 234.572 380.176C294.675 380.176 343.572 432.185 343.572 496.113C343.573 511.339 340.754 526.415 335.277 540.482C329.799 554.548 321.77 567.329 311.648 578.095C301.527 588.861 289.51 597.401 276.285 603.227C263.06 609.053 248.886 612.051 234.572 612.05ZM234.572 381.31C193.273 381.31 155.047 406.919 137.185 446.553C130.2 462.015 126.594 478.958 126.637 496.113C126.637 559.416 175.056 610.916 234.572 610.916C248.746 610.918 262.782 607.949 275.877 602.18C288.973 596.411 300.872 587.954 310.895 577.294C320.918 566.633 328.868 553.977 334.292 540.048C339.716 526.119 342.507 511.19 342.506 496.113C342.506 432.81 294.087 381.31 234.572 381.31V381.31Z" fill="white"/>
<path d="M427.859 462.915C407.288 449.208 402.432 420.36 417.011 398.48C431.59 376.601 460.084 369.975 480.655 383.682C501.225 397.389 506.082 426.238 491.503 448.117C476.923 469.996 448.429 476.622 427.859 462.915Z" fill="url(#paint1_linear)"/>
<path d="M346.591 409.882C320.205 449.441 333.103 478.001 360.374 496.193C361.007 496.616 361.643 497.029 362.28 497.432C363.563 498.246 364.855 499.019 366.155 499.751C392.004 514.317 420.814 512.554 445.353 475.764C470.747 437.691 457.048 359.126 455.987 353.285C455.984 353.283 455.984 353.283 455.983 353.278C455.943 353.055 455.922 352.943 455.922 352.943C455.922 352.943 372.975 370.326 346.591 409.882Z" fill="url(#paint2_linear)"/>
<path d="M366.207 491.341L366.05 452.451L364.287 494.318L362.28 497.432C363.563 498.246 364.855 499.019 366.155 499.751L390.606 458.878L390.825 458.582L390.83 458.501L393.14 454.638L431.209 436.885L394.954 451.8L394.379 452.563L412.853 421.682L448.975 401.189L416.167 416.3L455.987 353.285L456.118 353.074L455.983 353.277L423.628 402.336L421.09 372.637L420.887 406.591L403.438 433.638L406.128 398.306L400.87 437.612L391.167 452.652L394.055 402.9L387.785 457.9L366.207 491.341Z" fill="#3F3D56"/>
<path opacity="0.1" d="M353.995 635.518C403.697 635.518 443.989 631.683 443.989 626.953C443.989 622.223 403.697 618.389 353.995 618.389C304.292 618.389 264 622.223 264 626.953C264 631.683 304.292 635.518 353.995 635.518Z" fill="black"/>
<path d="M422.16 598.002C414.282 608.961 415.183 623.771 415.183 623.771C415.183 623.771 428.856 620.814 436.734 609.855C444.612 598.897 443.711 584.086 443.711 584.086C443.711 584.086 430.038 587.044 422.16 598.002Z" fill="#D0CDE1"/>
<path d="M427.322 600.463C425.793 614.162 415.445 624.118 415.445 624.118C415.445 624.118 407.575 611.862 409.103 598.163C410.632 584.464 420.981 574.509 420.981 574.509C420.981 574.509 428.851 586.765 427.322 600.463Z" fill="#F50057"/>
<path d="M354.794 307.74C349.105 297.515 337.85 297.039 337.85 297.039C337.85 297.039 326.882 295.547 319.846 311.119C313.288 325.634 304.237 339.648 318.389 343.045L320.945 334.583L322.528 343.675C324.543 343.83 326.564 343.866 328.583 343.785C343.738 343.265 358.171 343.938 357.706 338.153C357.089 330.464 360.268 317.578 354.794 307.74Z" fill="#2F2E41"/>
<path d="M329.695 403.683L331.159 419.248L365.061 415.357L365.793 403.683H329.695Z" fill="#A0616A"/>
<path d="M326.037 412.244L325.061 421.323C325.061 421.323 313.841 437.927 314.817 466.463C315.793 495 299.451 621.859 311.158 622.897C322.866 623.935 343.841 625.491 344.817 621.6C345.793 617.708 347.744 470.095 347.744 470.095C347.744 470.095 352.866 621.784 361.646 622.303C370.427 622.822 399.939 623.859 399.939 619.968C399.939 616.077 374.085 442.337 374.085 442.337L369.939 427.809L365.793 409.909C365.793 409.909 339.939 414.578 332.866 412.762C325.793 410.946 326.037 412.244 326.037 412.244Z" fill="#2F2E41"/>
<path d="M337.744 340.383C346.365 340.383 353.354 332.949 353.354 323.779C353.354 314.61 346.365 307.176 337.744 307.176C329.123 307.176 322.134 314.61 322.134 323.779C322.134 332.949 329.123 340.383 337.744 340.383Z" fill="#A0616A"/>
<path d="M365.061 351.278L362.098 355.865L360.2 358.799L357.012 363.731L341.159 365.028C341.159 365.028 337.307 363.705 332.863 361.772C331.222 361.056 329.498 360.257 327.859 359.409C321.5 356.125 316.398 352.116 322.134 349.463C323.153 348.997 324.131 348.438 325.059 347.792C325.902 347.205 326.688 346.529 327.402 345.773C328.872 344.207 329.96 342.283 330.572 340.168C331.184 338.053 331.302 335.812 330.915 333.638L346.281 331.303C345.834 335.448 349.71 339.97 354.054 343.662C355.481 344.878 356.961 346.002 358.354 346.993C362.005 349.592 365.061 351.278 365.061 351.278Z" fill="#A0616A"/>
<path d="M344.085 356.208C344.085 356.208 329.085 353.484 325.671 347.776C325.671 347.776 310.915 349.722 312.134 358.024C313.354 366.325 325.549 411.725 325.549 411.725C325.549 411.725 356.037 405.499 367.256 410.168L374.085 352.316C374.085 352.316 371.646 346.609 367.012 348.166C362.378 349.722 360.549 348.295 360.549 348.295C360.549 348.295 355.305 356.208 344.085 356.208Z" fill="#D0CDE1"/>
<path d="M357.744 447.266C357.744 447.266 368.232 459.718 362.378 461.794C356.525 463.869 349.452 453.492 349.452 453.492L357.744 447.266Z" fill="#A0616A"/>
<path d="M361.159 448.304C361.159 448.304 352.622 454.53 355.793 458.681C358.964 462.832 369.939 455.049 369.939 453.492C369.939 451.936 361.159 448.304 361.159 448.304Z" fill="#A0616A"/>
<path d="M340.183 414.578L333.11 415.875L328.476 379.296C328.743 372.66 328.537 366.012 327.859 359.409C327.342 354.999 326.478 350.76 325.059 347.792C325.902 347.205 326.688 346.529 327.403 345.773C329.1 348.635 332.198 354.695 332.863 361.772C333.038 363.544 333.038 365.331 332.866 367.103C331.646 379.296 331.89 381.631 331.89 381.631L340.183 414.578Z" fill="#2F2E41"/>
<path d="M323.842 349.982C323.842 349.982 312.378 346.609 311.403 353.873C310.427 361.137 311.646 379.815 314.329 386.82C317.012 393.824 326.281 416.654 326.281 416.654C326.281 416.654 343.11 439.483 343.842 444.931C344.573 450.379 348.232 456.087 348.232 456.087L359.939 448.044L337.012 406.796L327.012 378.259C327.012 378.259 331.159 352.316 323.842 349.982Z" fill="#D0CDE1"/>
<path d="M368.72 351.019L374.086 352.316C374.086 352.316 378.964 374.627 377.013 386.56C375.061 398.494 374.818 402.645 374.818 402.645L373.11 436.629C373.11 436.629 373.598 458.421 370.183 455.049C366.769 451.676 359.939 450.12 359.939 450.12C359.939 450.12 360.671 440.521 363.354 438.186C363.354 438.186 366.525 420.286 364.574 412.503C362.622 404.72 368.72 351.019 368.72 351.019Z" fill="#D0CDE1"/>
<path d="M370.671 376.183L364.451 414.449L360.671 412.762L367.256 376.183L360.2 358.799L354.054 343.662C355.481 344.879 356.961 346.002 358.354 346.993L362.098 355.865L370.671 376.183Z" fill="#2F2E41"/>
<path d="M352.279 306.754L341.159 300.559L325.803 303.093L322.626 318.018L330.535 317.695L332.744 312.211V317.605L336.393 317.455L338.511 308.725L339.835 318.018L352.808 317.737L352.279 306.754Z" fill="#2F2E41"/>
<path d="M330.312 626.953C334.497 626.953 337.89 625.6 337.89 623.93C337.89 622.261 334.497 620.908 330.312 620.908C326.126 620.908 322.733 622.261 322.733 623.93C322.733 625.6 326.126 626.953 330.312 626.953Z" fill="#2F2E41"/>
<path d="M442.033 642.466C446.218 642.466 449.611 641.113 449.611 639.443C449.611 637.774 446.218 636.421 442.033 636.421C437.847 636.421 434.454 637.774 434.454 639.443C434.454 641.113 437.847 642.466 442.033 642.466Z" fill="#2F2E41"/>
<path d="M250.458 555.785C242.706 561.151 233.773 564.274 224.539 564.846C215.306 565.418 206.092 563.419 197.807 559.047L198.98 556.502C208.967 561.72 220.286 563.314 231.206 561.039C242.125 558.764 252.043 552.745 259.441 543.905C266.838 535.064 271.309 523.889 272.167 512.089C273.026 500.289 270.225 488.515 264.194 478.569C258.163 468.623 249.234 461.054 238.774 457.019C228.314 452.984 216.899 452.706 206.276 456.228C195.653 459.75 186.408 466.877 179.956 476.519C173.503 486.161 170.199 497.787 170.55 509.616L167.886 509.703C167.591 499.75 169.754 489.888 174.159 481.101C178.564 472.314 185.057 464.909 192.991 459.623C200.926 454.337 210.024 451.355 219.379 450.975C228.735 450.595 238.02 452.83 246.311 457.457C254.601 462.083 261.607 468.94 266.629 477.344C271.651 485.748 274.515 495.406 274.935 505.354C275.354 515.302 273.315 525.193 269.02 534.042C264.726 542.89 258.326 550.387 250.458 555.785Z" fill="white"/>
<path d="M226.354 504.528C218.474 506.383 207.987 507.514 200.345 506.334L209.938 514.103L183.083 532.526L184.527 534.908L211.382 516.485L214.082 528.987C216.223 521.096 221.516 511.401 226.354 504.528Z" fill="white"/>
<ellipse cx="503" cy="55" rx="157" ry="142" fill="url(#paint3_linear)"/>
<defs>
<linearGradient id="paint0_linear" x1="327.547" y1="140.093" x2="44.7777" y2="682.597" gradientUnits="userSpaceOnUse">
<stop stop-color="#690FA0"/>
<stop offset="1" stop-color="#BB0048"/>
</linearGradient>
<linearGradient id="paint1_linear" x1="480.655" y1="383.682" x2="427.859" y2="462.915" gradientUnits="userSpaceOnUse">
<stop stop-color="#FF6584"/>
<stop offset="1" stop-color="#FF6584" stop-opacity="0"/>
</linearGradient>
<linearGradient id="paint2_linear" x1="455.881" y1="352.916" x2="360.398" y2="496.209" gradientUnits="userSpaceOnUse">
<stop stop-color="#F5A601" stop-opacity="0"/>
<stop offset="0.911458" stop-color="#F5A601"/>
</linearGradient>
<linearGradient id="paint3_linear" x1="359" y1="-22" x2="503" y2="197" gradientUnits="userSpaceOnUse">
<stop stop-color="#FF6584"/>
<stop offset="1" stop-color="#C4C4C4" stop-opacity="0"/>
</linearGradient>
</defs>
</svg>
