<svg viewBox="0 0 482 47" fill="none" xmlns="http://www.w3.org/2000/svg">
<path d="M29.125 46.8125H0V43.1562H29.125V46.8125ZM64.0625 41H59.7812V20.0625C59.7812 18.3958 59.4896 17.1042 58.9062 16.1875C58.3229 15.2708 57.4792 14.8125 56.375 14.8125C54.75 14.8125 53.5521 15.6667 52.7812 17.375C52.0312 19.0833 51.6562 21.4792 51.6562 24.5625V41H47.3438V20.0625C47.3438 18.3958 47.0417 17.1042 46.4375 16.1875C45.8542 15.2708 45.0104 14.8125 43.9062 14.8125C42.8854 14.8125 42.0729 15.1146 41.4688 15.7188C40.8646 16.3229 40.3854 17.0938 40.0312 18.0312C39.6979 18.9688 39.4792 20.0104 39.375 21.1562C39.2708 22.3021 39.2188 23.4375 39.2188 24.5625V41H34.9375V11.875H39.2188V16.0938C40.1146 12.8229 42.0625 11.1875 45.0625 11.1875C47.9167 11.1875 49.8542 12.6146 50.875 15.4688C52.2917 12.6146 54.2917 11.1875 56.875 11.1875C59.3542 11.1875 61.1667 11.9271 62.3125 13.4062C63.4792 14.8646 64.0625 17.0833 64.0625 20.0625V41ZM74.1562 27.9375C74.4688 31.0208 75.5938 33.4792 77.5312 35.3125C79.4688 37.1458 81.9896 38.0625 85.0938 38.0625C87.2812 38.0625 89.2292 37.6146 90.9375 36.7188C92.6458 35.8229 93.9271 34.7083 94.7812 33.375L97.7812 35.4375C96.3229 37.4792 94.5833 39.0417 92.5625 40.125C90.5417 41.1875 88.0521 41.7188 85.0938 41.7188C82.8438 41.7188 80.7812 41.3438 78.9062 40.5938C77.0312 39.8438 75.4062 38.8021 74.0312 37.4688C72.6771 36.1146 71.625 34.5104 70.875 32.6562C70.125 30.8021 69.75 28.7396 69.75 26.4688C69.75 24.2604 70.0833 22.2292 70.75 20.375C71.4375 18.5 72.4167 16.8854 73.6875 15.5312C74.9792 14.1562 76.5417 13.0938 78.375 12.3438C80.2083 11.5729 82.2604 11.1875 84.5312 11.1875C87.0104 11.1875 89.1771 11.6042 91.0312 12.4375C92.8854 13.2708 94.4271 14.4271 95.6562 15.9062C96.9062 17.3646 97.8229 19.1146 98.4062 21.1562C99.0104 23.1979 99.3125 25.4583 99.3125 27.9375H74.1562ZM94.7812 24.2812C94.3021 21.0938 93.1458 18.7188 91.3125 17.1562C89.4792 15.5938 87.2188 14.8125 84.5312 14.8125C83.1562 14.8125 81.8854 15.0417 80.7188 15.5C79.5521 15.9375 78.5208 16.5729 77.625 17.4062C76.7292 18.2396 75.9792 19.25 75.375 20.4375C74.7708 21.6042 74.3854 22.8854 74.2188 24.2812H94.7812ZM132.406 41H128.094V23.0312C128.094 20.4271 127.531 18.4062 126.406 16.9688C125.281 15.5312 123.458 14.8125 120.938 14.8125C119.354 14.8125 117.917 15.1771 116.625 15.9062C115.354 16.6354 114.271 17.6146 113.375 18.8438C112.479 20.0521 111.792 21.4479 111.312 23.0312C110.854 24.5938 110.625 26.2292 110.625 27.9375V41H106.344V11.875H110.625V19.1875C112.688 13.8542 116.365 11.1875 121.656 11.1875C128.823 11.1875 132.406 15.1354 132.406 23.0312V41ZM169.188 31.7188C168.854 34.7812 167.646 37.2188 165.562 39.0312C163.5 40.8229 160.917 41.7188 157.812 41.7188C156.104 41.7188 154.542 41.4375 153.125 40.875C151.708 40.3125 150.5 39.5312 149.5 38.5312C148.5 37.5312 147.719 36.3333 147.156 34.9375C146.615 33.5208 146.344 31.9792 146.344 30.3125V15.5312H139.75V11.875H146.344V0.21875H150.625V11.875H163.031V15.5312H150.625V30.3125C150.625 31.375 150.792 32.375 151.125 33.3125C151.479 34.25 151.958 35.0729 152.562 35.7812C153.188 36.4896 153.938 37.0521 154.812 37.4688C155.688 37.8646 156.688 38.0625 157.812 38.0625C159.938 38.0625 161.708 37.4062 163.125 36.0938C164.562 34.7604 165.385 33.0417 165.594 30.9375L169.188 31.7188ZM204.562 26.5312C204.562 28.8021 204.198 30.8646 203.469 32.7188C202.76 34.5729 201.729 36.1667 200.375 37.5C199.042 38.8125 197.438 39.8438 195.562 40.5938C193.688 41.3438 191.594 41.7188 189.281 41.7188C187.01 41.7188 184.938 41.3438 183.062 40.5938C181.188 39.8438 179.573 38.8125 178.219 37.5C176.885 36.1667 175.854 34.5729 175.125 32.7188C174.417 30.8646 174.062 28.8021 174.062 26.5312C174.062 24.3229 174.417 22.2708 175.125 20.375C175.854 18.4583 176.885 16.8333 178.219 15.5C179.573 14.1458 181.188 13.0938 183.062 12.3438C184.938 11.5729 187.01 11.1875 189.281 11.1875C191.594 11.1875 193.688 11.5729 195.562 12.3438C197.438 13.0938 199.042 14.1458 200.375 15.5C201.729 16.8333 202.76 18.4583 203.469 20.375C204.198 22.2708 204.562 24.3229 204.562 26.5312ZM200.281 26.5312C200.281 24.8646 200.031 23.3333 199.531 21.9375C199.052 20.5208 198.333 19.2812 197.375 18.2188C196.417 17.1562 195.25 16.3229 193.875 15.7188C192.521 15.1146 190.99 14.8125 189.281 14.8125C187.573 14.8125 186.031 15.1146 184.656 15.7188C183.302 16.3229 182.156 17.1562 181.219 18.2188C180.281 19.2812 179.562 20.5208 179.062 21.9375C178.583 23.3333 178.344 24.8646 178.344 26.5312C178.344 28.1979 178.583 29.7396 179.062 31.1562C179.562 32.5521 180.281 33.7604 181.219 34.7812C182.156 35.8021 183.302 36.6042 184.656 37.1875C186.031 37.7708 187.573 38.0625 189.281 38.0625C190.99 38.0625 192.521 37.7708 193.875 37.1875C195.25 36.6042 196.417 35.8021 197.375 34.7812C198.333 33.7604 199.052 32.5521 199.531 31.1562C200.031 29.7396 200.281 28.1979 200.281 26.5312ZM237.156 15.9688C235.615 15.1979 233.781 14.8125 231.656 14.8125C229.906 14.8125 228.344 15.1875 226.969 15.9375C225.594 16.6875 224.427 17.6771 223.469 18.9062C222.51 20.1146 221.771 21.5104 221.25 23.0938C220.75 24.6562 220.5 26.2708 220.5 27.9375V37.3438H227.094V41H209.625V37.3438H216.219V15.5312H209.625V11.875H220.5V19.1875C222.458 13.8542 226.177 11.1875 231.656 11.1875C233.135 11.1875 234.417 11.2812 235.5 11.4688C236.604 11.6562 237.625 11.9896 238.562 12.4688L237.156 15.9688ZM262.031 6.0625H256.219V0.21875H262.031V6.0625ZM267.844 41H250.375V37.3438H256.969V15.5312H250.375V11.875H261.281V37.3438H267.844V41ZM279.438 33.125C279.438 31.2917 279.896 29.7604 280.812 28.5312C281.729 27.2812 282.927 26.3021 284.406 25.5938C285.906 24.8646 287.615 24.3438 289.531 24.0312C291.469 23.6979 293.438 23.5312 295.438 23.5312C296.208 23.5312 296.896 23.5417 297.5 23.5625C298.125 23.5833 298.708 23.6146 299.25 23.6562C299.812 23.6979 300.375 23.75 300.938 23.8125C301.5 23.875 302.115 23.9479 302.781 24.0312V21.9375C302.781 20.5208 302.469 19.3542 301.844 18.4375C301.24 17.5208 300.49 16.8021 299.594 16.2812C298.698 15.7396 297.76 15.3646 296.781 15.1562C295.802 14.9271 294.969 14.8125 294.281 14.8125C292.115 14.8125 290.115 15.1042 288.281 15.6875C286.448 16.2708 284.74 17.0521 283.156 18.0312L281.219 14.8125C282.969 13.75 284.927 12.8854 287.094 12.2188C289.281 11.5312 291.677 11.1875 294.281 11.1875C295.865 11.1875 297.417 11.3958 298.938 11.8125C300.479 12.2083 301.854 12.8333 303.062 13.6875C304.292 14.5208 305.271 15.625 306 17C306.729 18.375 307.094 20.0208 307.094 21.9375V41H302.781V36.125C302.031 37.0625 301.177 37.8854 300.219 38.5938C299.281 39.3021 298.292 39.8854 297.25 40.3438C296.208 40.7812 295.167 41.1146 294.125 41.3438C293.083 41.5938 292.094 41.7188 291.156 41.7188C287.302 41.7188 284.385 40.9792 282.406 39.5C280.427 38.0208 279.438 35.8958 279.438 33.125ZM291.156 38.0625C292.948 38.0625 294.552 37.8021 295.969 37.2812C297.406 36.7396 298.625 36.0729 299.625 35.2812C300.625 34.4896 301.396 33.6458 301.938 32.75C302.5 31.8542 302.781 31.0417 302.781 30.3125V27.5625C301.385 27.3542 300.042 27.2396 298.75 27.2188C297.479 27.1979 296.375 27.1875 295.438 27.1875C293.896 27.1875 292.406 27.2917 290.969 27.5C289.552 27.7083 288.312 28.0521 287.25 28.5312C286.188 28.9896 285.333 29.5938 284.688 30.3438C284.042 31.0938 283.719 32.0208 283.719 33.125C283.719 34.3542 284.312 35.4896 285.5 36.5312C286.708 37.5521 288.594 38.0625 291.156 38.0625Z" fill="#EE3D5A"/>
<path d="M331.906 41H326.094V35.1875H331.906V41Z" fill="#F5A601"/>
<path d="M378.812 31.7188C378.479 34.7812 377.271 37.2188 375.188 39.0312C373.125 40.8229 370.542 41.7188 367.438 41.7188C365.729 41.7188 364.167 41.4375 362.75 40.875C361.333 40.3125 360.125 39.5312 359.125 38.5312C358.125 37.5312 357.344 36.3333 356.781 34.9375C356.24 33.5208 355.969 31.9792 355.969 30.3125V15.5312H349.375V11.875H355.969V0.21875H360.25V11.875H372.656V15.5312H360.25V30.3125C360.25 31.375 360.417 32.375 360.75 33.3125C361.104 34.25 361.583 35.0729 362.188 35.7812C362.812 36.4896 363.562 37.0521 364.438 37.4688C365.312 37.8646 366.312 38.0625 367.438 38.0625C369.562 38.0625 371.333 37.4062 372.75 36.0938C374.188 34.7604 375.01 33.0417 375.219 30.9375L378.812 31.7188ZM388.594 27.9375C388.906 31.0208 390.031 33.4792 391.969 35.3125C393.906 37.1458 396.427 38.0625 399.531 38.0625C401.719 38.0625 403.667 37.6146 405.375 36.7188C407.083 35.8229 408.365 34.7083 409.219 33.375L412.219 35.4375C410.76 37.4792 409.021 39.0417 407 40.125C404.979 41.1875 402.49 41.7188 399.531 41.7188C397.281 41.7188 395.219 41.3438 393.344 40.5938C391.469 39.8438 389.844 38.8021 388.469 37.4688C387.115 36.1146 386.062 34.5104 385.312 32.6562C384.562 30.8021 384.188 28.7396 384.188 26.4688C384.188 24.2604 384.521 22.2292 385.188 20.375C385.875 18.5 386.854 16.8854 388.125 15.5312C389.417 14.1562 390.979 13.0938 392.812 12.3438C394.646 11.5729 396.698 11.1875 398.969 11.1875C401.448 11.1875 403.615 11.6042 405.469 12.4375C407.323 13.2708 408.865 14.4271 410.094 15.9062C411.344 17.3646 412.26 19.1146 412.844 21.1562C413.448 23.1979 413.75 25.4583 413.75 27.9375H388.594ZM409.219 24.2812C408.74 21.0938 407.583 18.7188 405.75 17.1562C403.917 15.5938 401.656 14.8125 398.969 14.8125C397.594 14.8125 396.323 15.0417 395.156 15.5C393.99 15.9375 392.958 16.5729 392.062 17.4062C391.167 18.2396 390.417 19.25 389.812 20.4375C389.208 21.6042 388.823 22.8854 388.656 24.2812H409.219ZM447.281 35.4375C446.052 37.3542 444.365 38.8854 442.219 40.0312C440.094 41.1562 437.562 41.7188 434.625 41.7188C432.354 41.7188 430.271 41.3438 428.375 40.5938C426.479 39.8438 424.854 38.8021 423.5 37.4688C422.167 36.1146 421.125 34.5104 420.375 32.6562C419.625 30.8021 419.25 28.7396 419.25 26.4688C419.25 24.2604 419.594 22.2188 420.281 20.3438C420.969 18.4479 421.948 16.8333 423.219 15.5C424.49 14.1458 426.042 13.0938 427.875 12.3438C429.729 11.5729 431.781 11.1875 434.031 11.1875C434.927 11.1875 435.844 11.2917 436.781 11.5C437.719 11.7083 438.604 12.0312 439.438 12.4688C440.271 12.8854 441.021 13.3958 441.688 14C442.354 14.5833 442.854 15.2812 443.188 16.0938V11.875H447.031V23.5312H443.188C443.188 22.2396 442.948 21.0625 442.469 20C442.01 18.9375 441.375 18.0208 440.562 17.25C439.75 16.4792 438.781 15.8854 437.656 15.4688C436.531 15.0312 435.323 14.8125 434.031 14.8125C432.281 14.8125 430.75 15.1146 429.438 15.7188C428.146 16.3229 427.062 17.1458 426.188 18.1875C425.312 19.2292 424.646 20.4583 424.188 21.875C423.75 23.2708 423.531 24.8021 423.531 26.4688C423.531 28.1354 423.781 29.6771 424.281 31.0938C424.802 32.4896 425.542 33.6979 426.5 34.7188C427.479 35.7396 428.646 36.5521 430 37.1562C431.375 37.7604 432.917 38.0625 434.625 38.0625C436.792 38.0625 438.719 37.6354 440.406 36.7812C442.094 35.9271 443.385 34.7917 444.281 33.375L447.281 35.4375ZM481.781 41H477.469V23.0312C477.469 20.4271 476.906 18.4062 475.781 16.9688C474.656 15.5312 472.833 14.8125 470.312 14.8125C468.729 14.8125 467.292 15.1771 466 15.9062C464.729 16.6354 463.646 17.6146 462.75 18.8438C461.854 20.0521 461.167 21.4479 460.688 23.0312C460.229 24.5938 460 26.2292 460 27.9375V41H455.719V0.21875H460V19.1875C462.062 13.8542 465.74 11.1875 471.031 11.1875C478.198 11.1875 481.781 15.1354 481.781 23.0312V41Z" fill="black"/>
</svg>
