<?xml version="1.0" encoding="utf-8"?>
<!-- Generator: Adobe Illustrator 24.2.1, SVG Export Plug-In . SVG Version: 6.00 Build 0)  -->
<svg version="1.1" id="Camada_1" xmlns="http://www.w3.org/2000/svg" xmlns:xlink="http://www.w3.org/1999/xlink" x="0px" y="0px"
	 viewBox="0 0 810 90" style="enable-background:new 0 0 810 90;" xml:space="preserve">
<style type="text/css">
	.st0{fill:#F61068;}
	.st1{fill:#FFB800;}
	.st2{fill:#232A49;}
</style>
<g>
	<g>
		<path class="st0" d="M4.6,85.3v-9.7h48.4v9.7H4.6z"/>
		<path class="st0" d="M111,75.7h-10.7V42.5c0-2.3-0.2-4-0.7-5.1c-0.5-1.1-1.3-1.6-2.5-1.6c-2.1,0-3.5,1.2-4.1,3.6
			c-0.6,2.4-0.9,5.9-0.9,10.5v25.7H81.4V42.5c0-2.3-0.2-4-0.7-5.1c-0.5-1.1-1.3-1.6-2.5-1.6c-2.1,0-3.4,1.2-4,3.6
			c-0.5,2.4-0.8,5.9-0.8,10.5v25.7H62.6V27.3h10.8v7c0.8-2.7,1.9-4.7,3.4-6.1c1.5-1.4,3.5-2.1,6-2.1c2.1,0,3.8,0.6,5.2,1.9
			c1.4,1.3,2.4,3,2.9,5.2c1.2-2.4,2.5-4.2,3.8-5.4c1.3-1.2,3.3-1.7,6-1.7c3.3,0,5.9,1.2,7.7,3.7c1.8,2.4,2.7,6.1,2.7,11.1V75.7z"/>
		<path class="st0" d="M130.5,55.6c0.5,3.3,2.1,6.1,4.7,8.3c2.6,2.2,6.2,3.3,10.7,3.3c3.5,0,6.5-0.5,9.1-1.6
			c2.6-1.1,4.8-2.5,6.7-4.3l5.5,7.6c-3.1,3.1-6.4,5.2-9.9,6.3c-3.5,1.1-7.3,1.7-11.4,1.7c-3.7,0-7.2-0.6-10.4-1.9
			c-3.2-1.2-6-3-8.4-5.2c-2.4-2.2-4.2-4.9-5.5-8c-1.3-3.1-2-6.5-2-10.3c0-3.7,0.6-7,1.8-10.1c1.2-3.1,3-5.8,5.2-8
			c2.2-2.3,4.9-4,8-5.3c3.1-1.3,6.6-1.9,10.3-1.9c3.9,0,7.5,0.7,10.6,2c3.2,1.3,5.9,3.3,8.2,5.8c2.3,2.5,4,5.6,5.3,9.3
			c1.3,3.7,1.9,7.8,1.9,12.4H130.5z M158.8,46.2c-0.6-3.1-2.2-5.6-4.8-7.5c-2.7-1.9-5.7-2.8-9.1-2.8s-6.4,0.9-9.1,2.8
			c-2.7,1.9-4.3,4.4-4.9,7.5H158.8z"/>
		<path class="st0" d="M224.4,75.7h-10.7V45.8c0-3.8-0.7-6.4-2.1-7.8c-1.4-1.5-3.5-2.2-6.2-2.2c-4,0-7.2,1.6-9.7,4.8
			c-2.5,3.2-3.8,7.7-3.8,13.3v21.7h-10.7V27.3h10.7v12.1c1.1-4.2,3.1-7.4,6-9.8c2.9-2.3,6.5-3.5,10.7-3.5c4.9,0,8.8,1.6,11.6,4.8
			c2.8,3.2,4.2,8.2,4.2,14.8V75.7z"/>
		<path class="st0" d="M285.5,60.3c-0.6,5.1-2.6,9.1-6,12.1c-3.4,3-7.7,4.5-12.9,4.5c-2.8,0-5.4-0.5-7.8-1.4c-2.4-0.9-4.4-2.2-6-3.9
			c-1.7-1.7-3-3.7-3.9-6s-1.4-4.9-1.4-7.7V37h-10.9v-9.7h10.9V8h10.7v19.4h20.3V37h-20.3v21c0,3.1,0.8,5.4,2.3,7
			c1.5,1.5,3.5,2.3,6,2.3c3,0,5.3-0.9,6.8-2.6c1.5-1.8,2.4-3.9,2.6-6.4L285.5,60.3z"/>
		<path class="st0" d="M344.3,51.6c0,3.8-0.6,7.2-1.8,10.3c-1.2,3.1-2.9,5.7-5.1,8c-2.2,2.2-4.9,4-8,5.2c-3.1,1.2-6.6,1.9-10.4,1.9
			c-3.8,0-7.2-0.6-10.3-1.9c-3.1-1.2-5.8-3-8-5.2c-2.2-2.2-3.9-4.9-5.1-8c-1.2-3.1-1.8-6.5-1.8-10.3c0-3.7,0.6-7.1,1.8-10.2
			c1.2-3.1,2.9-5.8,5.1-8.1c2.2-2.3,4.9-4,8-5.2c3.1-1.2,6.6-1.8,10.3-1.8c3.8,0,7.3,0.6,10.4,1.8c3.1,1.2,5.8,3,8,5.2
			c2.2,2.3,3.9,5,5.1,8.1C343.7,44.5,344.3,47.9,344.3,51.6z M333.5,51.6c0-2.2-0.3-4.3-1-6.2c-0.7-2-1.6-3.6-2.9-5
			c-1.3-1.4-2.8-2.5-4.6-3.3c-1.8-0.8-3.8-1.2-6.1-1.2c-2.3,0-4.3,0.4-6.1,1.2c-1.8,0.8-3.3,1.9-4.6,3.3c-1.2,1.4-2.2,3.1-2.9,5
			c-0.7,2-1,4-1,6.2c0,2.3,0.3,4.4,1,6.2c0.7,1.9,1.6,3.5,2.9,4.9c1.2,1.4,2.8,2.5,4.6,3.3c1.8,0.8,3.8,1.2,6.1,1.2
			c2.2,0,4.3-0.4,6.1-1.2s3.4-1.9,4.6-3.3c1.3-1.4,2.2-3.1,2.9-4.9C333.2,55.9,333.5,53.9,333.5,51.6z"/>
		<path class="st0" d="M399.8,38.8c-1.3-0.6-2.6-1.1-3.9-1.4c-1.3-0.3-2.9-0.5-4.6-0.5c-2.4,0-4.6,0.4-6.7,1.1s-3.9,1.8-5.4,3.2
			c-1.5,1.4-2.7,3.2-3.6,5.3c-0.8,2.1-1.3,4.6-1.3,7.6v12h10.8v9.7h-32.5V66h10.9V37h-10.9v-9.7h21.7v12.1c1.8-4.8,4.4-8.3,7.8-10.3
			c3.4-2,7.5-3,12.3-3c1.5,0,3,0.2,4.7,0.5c1.6,0.3,3.2,0.9,4.8,1.7L399.8,38.8z"/>
		<path class="st0" d="M451.2,75.7h-32.5V66h10.7V37h-10.7v-9.7h21.4V66h11.1V75.7z M441.4,21h-13.1V8h13.1V21z"/>
		<path class="st0" d="M468.5,61.8c0-2.8,0.8-5.3,2.3-7.4c1.5-2.1,3.5-3.9,6-5.3c2.5-1.4,5.3-2.5,8.5-3.2c3.2-0.7,6.5-1.1,9.8-1.1
			c1.8,0,3.4,0,4.7,0.1c1.3,0.1,2.6,0.2,4,0.3v-1.9c0-2.5-1-4.4-2.9-5.7c-2-1.2-4.5-1.9-7.7-1.9c-2.9,0-5.9,0.4-8.9,1.2
			c-3,0.8-5.9,2-8.6,3.6l-4.4-8.4c3.2-1.8,6.6-3.3,10.2-4.3c3.6-1.1,7.5-1.6,11.5-1.6c2.6,0,5.2,0.3,7.8,0.9
			c2.5,0.6,4.8,1.6,6.8,2.9c2,1.3,3.6,3.1,4.9,5.3c1.2,2.2,1.8,4.8,1.8,8v32.4h-10.6v-7.2c-1.7,2.6-4.2,4.7-7.5,6.2
			c-3.3,1.5-6.9,2.2-10.7,2.2c-2.4,0-4.6-0.3-6.7-1c-2.1-0.6-3.9-1.6-5.4-2.9c-1.5-1.3-2.7-2.9-3.7-4.8
			C468.9,66.4,468.5,64.2,468.5,61.8z M488.4,67.2c2.1,0,4.1-0.3,5.9-0.8c1.9-0.5,3.5-1.3,4.9-2.2c1.4-0.9,2.5-2.1,3.3-3.4
			c0.8-1.3,1.2-2.8,1.2-4.4v-1.8c-1.7-0.3-3.3-0.4-4.8-0.5c-1.5,0-2.8-0.1-3.9-0.1c-5.3,0-9.2,0.7-11.9,2.1c-2.7,1.4-4,3.1-4,5.1
			C479.1,65.2,482.2,67.2,488.4,67.2z"/>
		<path class="st1" d="M557.4,75.7h-13.1V62.6h13.1V75.7z"/>
		<path class="st2" d="M633.6,60.3c-0.6,5.1-2.6,9.1-6,12.1c-3.4,3-7.7,4.5-12.9,4.5c-2.8,0-5.4-0.5-7.8-1.4c-2.4-0.9-4.4-2.2-6-3.9
			c-1.7-1.7-3-3.7-3.9-6c-0.9-2.3-1.4-4.9-1.4-7.7V33.4h-10.9v-6.1h10.9V8h7.1v19.4h20.6v6.1h-20.6v24.5c0,1.8,0.3,3.4,0.9,5
			c0.6,1.6,1.4,2.9,2.4,4.1c1,1.2,2.3,2.1,3.7,2.8c1.5,0.7,3.1,1,5,1c3.5,0,6.5-1.1,8.8-3.3c2.4-2.2,3.7-5,4.1-8.5L633.6,60.3z"/>
		<path class="st2" d="M649.8,54c0.5,5.1,2.4,9.2,5.6,12.2c3.2,3,7.4,4.6,12.6,4.6c3.6,0,6.9-0.7,9.7-2.2c2.8-1.5,5-3.3,6.4-5.6
			l5,3.4c-2.4,3.4-5.3,6-8.7,7.8c-3.4,1.8-7.5,2.7-12.4,2.7c-3.7,0-7.2-0.6-10.3-1.9c-3.1-1.2-5.8-3-8.1-5.2c-2.3-2.2-4-4.9-5.3-8
			c-1.2-3.1-1.9-6.5-1.9-10.3c0-3.7,0.6-7,1.7-10.1c1.1-3.1,2.8-5.8,4.9-8c2.1-2.3,4.7-4,7.8-5.3c3-1.3,6.5-1.9,10.2-1.9
			c4.1,0,7.7,0.7,10.8,2.1c3.1,1.4,5.6,3.3,7.7,5.7c2.1,2.4,3.6,5.4,4.6,8.7c1,3.4,1.5,7.1,1.5,11.3H649.8z M684.1,47.9
			c-0.8-5.3-2.7-9.2-5.8-11.8c-3-2.6-6.8-3.9-11.3-3.9c-2.3,0-4.4,0.4-6.3,1.1s-3.6,1.8-5.1,3.2c-1.5,1.4-2.7,3-3.7,5
			c-1,1.9-1.6,4.1-1.9,6.4H684.1z"/>
		<path class="st2" d="M747.3,66.4c-2,3.2-4.8,5.7-8.4,7.6c-3.5,1.9-7.8,2.8-12.6,2.8c-3.8,0-7.2-0.6-10.4-1.9
			c-3.1-1.2-5.8-3-8.1-5.2c-2.2-2.2-4-4.9-5.2-8c-1.2-3.1-1.9-6.5-1.9-10.3c0-3.7,0.6-7.1,1.7-10.2c1.1-3.1,2.8-5.8,4.9-8
			c2.1-2.2,4.7-4,7.8-5.2c3.1-1.3,6.5-1.9,10.2-1.9c1.5,0,3,0.2,4.6,0.5c1.6,0.3,3,0.9,4.4,1.6c1.4,0.7,2.6,1.6,3.7,2.5
			c1.1,1,1.9,2.2,2.5,3.5v-7h6.4v19.4h-6.4c0-2.1-0.4-4.1-1.2-5.9c-0.8-1.8-1.8-3.3-3.2-4.6c-1.3-1.3-3-2.3-4.8-3
			c-1.9-0.7-3.9-1.1-6-1.1c-2.9,0-5.4,0.5-7.6,1.5c-2.2,1-4,2.4-5.4,4.1c-1.5,1.7-2.6,3.8-3.3,6.1c-0.7,2.3-1.1,4.9-1.1,7.6
			c0,2.8,0.4,5.3,1.3,7.6c0.8,2.3,2.1,4.3,3.7,6c1.6,1.7,3.5,3,5.8,4c2.3,1,4.8,1.5,7.7,1.5c3.6,0,6.8-0.7,9.6-2.1
			c2.8-1.4,4.9-3.3,6.4-5.7L747.3,66.4z"/>
		<path class="st2" d="M804.6,75.7h-7.2V45.9c0-4.3-0.9-7.7-2.8-10.1c-1.9-2.4-4.9-3.6-9.1-3.6c-2.6,0-5,0.6-7.1,1.8
			c-2.1,1.2-3.9,2.8-5.4,4.8s-2.6,4.3-3.4,6.9c-0.8,2.6-1.2,5.3-1.2,8.2v21.7h-7.1V8h7.1v31.5c3.4-8.9,9.5-13.3,18.3-13.3
			c11.9,0,17.9,6.6,17.9,19.7V75.7z"/>
	</g>
</g>
</svg>
