<svg viewBox="0 0 20 20" fill="none" xmlns="http://www.w3.org/2000/svg">
<g clip-path="url(#clip0)">
<path fill-rule="evenodd" clip-rule="evenodd" d="M10.4167 14.6C11.5958 13.7217 13.4367 13.0617 15 12.9333V18.3325C13.5508 18.5517 11.8708 19.2525 10.4167 19.9992V14.6ZM9.58333 14.6C8.40416 13.7217 6.56333 13.0617 5 12.9333V18.3325C6.44916 18.5517 8.12916 19.2525 9.58333 19.9992V14.6ZM4.16666 17.0308C2.45916 16.4692 1.67 15.8333 1.67 15.8333L1.66666 14.1458C1.66 12.3733 1.74 11.3592 3.87333 10.8883C6.21083 10.3725 8.70583 9.79083 7.4075 7.95417C4.15666 3.35167 6.73333 0 10 0C13.2675 0 15.83 3.32583 12.5917 7.95417C11.3175 9.775 13.7383 10.3608 16.1267 10.8883C18.2683 11.3617 18.3408 12.3808 18.3325 14.1667L18.33 15.8333C18.33 15.8333 17.5408 16.4692 15.8333 17.0308V12.0283L14.9317 12.1025C13.22 12.2433 11.2983 12.9375 10 13.8758C8.70083 12.9375 6.78083 12.2433 5.06833 12.1025L4.16666 12.0283V17.0308Z" fill="white"/>
</g>
<defs>
<clipPath id="clip0">
<rect width="20" height="20" fill="white"/>
</clipPath>
</defs>
</svg>
