<?xml version="1.0" encoding="UTF-8" standalone="no"?>
<!DOCTYPE svg PUBLIC "-//W3C//DTD SVG 1.1//EN" "http://www.w3.org/Graphics/SVG/1.1/DTD/svg11.dtd">
<svg width="100%" height="100%" viewBox="0 0 1642 1169" version="1.1" xmlns="http://www.w3.org/2000/svg" xmlns:xlink="http://www.w3.org/1999/xlink" xml:space="preserve" xmlns:serif="http://www.serif.com/" style="fill-rule:evenodd;clip-rule:evenodd;stroke-linejoin:round;stroke-miterlimit:2;">
    <g id="Artboard1" transform="matrix(0.923183,0,0,0.964941,-742.242,76.738)">
        <rect x="804.004" y="-79.526" width="1777.83" height="1210.52" style="fill:none;"/>
        <clipPath id="_clip1">
            <rect x="804.004" y="-79.526" width="1777.83" height="1210.52"/>
        </clipPath>
        <g clip-path="url(#_clip1)">
            <g id="Layer-3" serif:id="Layer 3" transform="matrix(1.08321,0,0,1.03633,-214.828,3.38055)">
                <path d="M1510.79,418.278L2577.79,418.278L2576.75,1047.21L1609.29,833.174L1510.79,418.278Z" style="fill:url(#_Linear2);"/>
            </g>
            <g transform="matrix(1.13028,0,0,1.03633,-292.105,3.38055)">
                <g id="Layer-5" serif:id="Layer 5">
                    <path d="M2556.05,264.845C2549.05,269.845 1702.79,319.278 1650.79,384.278C1598.79,449.278 1773.79,461.278 2006.79,468.278C2239.79,475.278 2410.79,504.278 2435.79,523.278C2460.79,542.278 2436.79,753.278 2431.79,905.278C2426.79,1057.28 2430.36,999.848 2430.36,999.848C2430.36,999.848 2467.25,1016.24 2539.66,1038.1C2601.11,1056.65 2563.05,259.845 2556.05,264.845Z" style="fill:url(#_Linear3);"/>
                </g>
            </g>
            <g id="Layer-4" serif:id="Layer 4" transform="matrix(1.08321,0,0,1.03633,-214.828,3.38055)">
                <path d="M2474.79,522.278C2474.44,495.447 1916.79,708.278 1744.79,698.278C1610.19,690.452 1616.3,642.608 1639.35,818.146C1644.01,853.673 2281.37,971.141 2337.46,983.454C2449.49,1008.04 2497.31,1025.81 2497.31,1025.81C2497.31,1025.81 2476.79,675.278 2474.79,522.278Z" style="fill:url(#_Linear4);"/>
            </g>
            <g transform="matrix(1.0773,0.00184712,-0.00192519,1.02775,-200.692,6.3694)">
                <g id="Layer-1" serif:id="Layer 1">
                    <path d="M2725.45,154.277C2723.39,232.53 2706.91,125.447 2729.57,207.818C2752.22,290.19 2422.73,292.249 2235.34,306.664C2047.94,321.079 1514.59,391.095 1697.86,432.281C1881.14,473.467 2496.87,428.162 2476.27,537.305C2455.68,646.447 1984.1,627.913 1753.46,743.233C1522.82,858.554 2366.46,934.443 2584.74,1039.47C2803.03,1144.49 2735.51,1292.96 2651.68,1117.34C2622.99,1057.23 2236.61,994.296 1787.73,931.295C1687.08,917.169 1333.76,905.835 1191.24,924.708C1041.27,944.568 1027.46,937.255 942.946,960.007C933.434,962.569 1019.1,931.539 1277.77,765.886C1414.15,678.544 1717.1,636.679 2039.7,597.024C2659.55,520.83 2323.89,496.119 1846.13,479.644C1201.31,457.409 1674.63,355.314 1694.24,350.142C1756.81,333.642 2402.15,255.328 2519.52,246.945C2634.84,238.708 2800.49,164.962 2797.52,154.277C2766.63,43.075 2504.19,25.7 2806.9,21.582C3109.62,17.463 2727.51,76.024 2725.45,154.277Z" style="fill:url(#_Linear5);"/>
                </g>
            </g>
        </g>
    </g>
    <defs>
        <linearGradient id="_Linear2" x1="0" y1="0" x2="1" y2="0" gradientUnits="userSpaceOnUse" gradientTransform="matrix(429,50,-50,429,1510.79,757.282)"><stop offset="0" style="stop-color:rgb(18,0,33);stop-opacity:1"/><stop offset="0.02" style="stop-color:rgb(18,0,33);stop-opacity:1"/><stop offset="0.97" style="stop-color:rgb(37,1,71);stop-opacity:1"/><stop offset="1" style="stop-color:rgb(37,1,71);stop-opacity:1"/></linearGradient>
        <linearGradient id="_Linear3" x1="0" y1="0" x2="1" y2="0" gradientUnits="userSpaceOnUse" gradientTransform="matrix(926.08,0,0,926.08,1641.59,701.674)"><stop offset="0" style="stop-color:rgb(25,2,40);stop-opacity:1"/><stop offset="0.03" style="stop-color:rgb(25,2,40);stop-opacity:1"/><stop offset="1" style="stop-color:rgb(30,0,66);stop-opacity:1"/></linearGradient>
        <linearGradient id="_Linear4" x1="0" y1="0" x2="1" y2="0" gradientUnits="userSpaceOnUse" gradientTransform="matrix(843.17,0,0,843.17,1644.64,888.362)"><stop offset="0" style="stop-color:rgb(31,3,51);stop-opacity:1"/><stop offset="0.02" style="stop-color:rgb(31,3,51);stop-opacity:1"/><stop offset="0.98" style="stop-color:rgb(35,4,73);stop-opacity:1"/><stop offset="1" style="stop-color:rgb(35,4,73);stop-opacity:1"/></linearGradient>
        <linearGradient id="_Linear5" x1="0" y1="0" x2="1" y2="0" gradientUnits="userSpaceOnUse" gradientTransform="matrix(1763.17,0,0,1763.17,1069.17,663.934)"><stop offset="0" style="stop-color:rgb(102,5,132);stop-opacity:1"/><stop offset="0.02" style="stop-color:rgb(102,5,132);stop-opacity:1"/><stop offset="1" style="stop-color:rgb(33,0,55);stop-opacity:1"/></linearGradient>
    </defs>
</svg>
