<svg width="103" height="103" viewBox="0 0 103 103" fill="none" xmlns="http://www.w3.org/2000/svg">
<ellipse cx="49" cy="53" rx="49" ry="50" fill="#CCCCCC"/>
<path d="M101.5 50.5C101.5 77.5481 79.3521 99.5 52 99.5C24.6479 99.5 2.5 77.5481 2.5 50.5C2.5 23.4519 24.6479 1.5 52 1.5C79.3521 1.5 101.5 23.4519 101.5 50.5Z" stroke="black" stroke-width="3"/>
<path d="M52 24.3333C66.704 24.3333 78.6667 36.296 78.6667 51C78.6667 65.704 66.704 77.6667 52 77.6667C37.296 77.6667 25.3333 65.704 25.3333 51C25.3333 36.296 37.296 24.3333 52 24.3333ZM52 19C34.328 19 20 33.328 20 51C20 68.672 34.328 83 52 83C69.672 83 84 68.672 84 51C84 33.328 69.672 19 52 19ZM44 64.3333V37.6667L68 51.3893L44 64.3333Z" fill="white"/>
</svg>
