<svg width="318" height="240" viewBox="0 0 318 240" fill="none" xmlns="http://www.w3.org/2000/svg">
<path d="M230.731 225.161L229.079 201.092L224.358 226.545C224.358 226.545 224.42 232.966 224.577 240H230.625C230.829 231.959 230.731 225.161 230.731 225.161Z" fill="#F2F2F2"/>
<path d="M145.775 233.721C145.31 231.47 144.981 229.184 144.792 226.879L144.132 218.552C143.854 216.272 143.568 214.263 143.281 212.489C141.177 199.844 139.004 199.387 139.004 199.387C138.911 199.471 138.82 199.564 138.726 199.659C138.471 199.932 138.233 200.226 138.015 200.539C134.555 205.694 132.208 219.063 130.974 227.932C130.293 232.831 129.954 236.356 129.954 236.356C129.954 236.356 130.262 237.858 130.683 240H146.473C146.413 237.886 146.179 235.783 145.775 233.721V233.721Z" fill="#F2F2F2"/>
<path d="M269.934 0H48.066C21.6297 0 0 25.3513 0 56.3362V183.664C0 214.649 21.6297 240 48.066 240H118.386L117.479 234.993C117.479 234.993 115.145 217.34 117.479 203.576C118.232 199.258 118.749 194.888 119.027 190.492C119.319 185.529 120.011 180.61 121.094 175.801C121.156 175.523 121.225 175.248 121.289 174.971C120.72 174.79 120.459 174.645 120.591 174.553C120.955 174.301 121.156 173.528 121.256 172.547C121.878 166.052 123.063 159.649 124.794 153.436C122.436 155.171 120.87 155.356 119.845 154.683C116.243 153.53 117.738 144.034 117.738 144.034C117.738 144.034 119.977 123.495 120.72 116.058C121.148 111.784 126.626 109.361 131.475 108.046C131.986 106.762 132.354 105.467 132.121 104.109C132.105 104.018 132.082 103.929 132.062 103.84C131.445 102.235 130.192 100.914 129.721 99.2522C129.513 98.8049 129.366 98.3217 129.286 97.8206C128.87 94.9708 131.143 92.509 131.799 89.7681C131.13 89.0112 130.631 88.0727 130.345 87.0359C129.346 84.6345 129.833 81.7522 133.041 79.5268C133.681 79.0826 134.36 78.6904 135.049 78.3142C135.302 78.1229 135.576 77.9753 135.865 77.876C138.16 76.6591 140.467 75.4817 141.84 73.1125C142.194 72.5024 142.504 71.7946 143.077 71.4738C143.346 71.3386 143.635 71.2629 143.928 71.2504C148.351 70.8525 152.355 75.2976 156.757 74.6606C158.09 74.4676 159.451 73.8106 160.731 74.2835C161.572 74.5942 162.229 75.3514 162.794 76.1343C164.332 78.2866 165.446 80.8104 166.056 83.5255C166.666 86.2406 166.757 89.0801 166.323 91.8413C165.765 95.2398 164.408 98.7427 165.386 102.012C166.104 104.415 168.028 106.365 168.042 108.906C168.053 110.998 166.787 112.666 165.563 114.294C165.722 114.484 165.877 114.68 166.028 114.881C169.019 118.875 168.454 122.283 168.032 123.648L168.032 123.649L166.494 141.042L165.197 152.711C165.197 152.711 164.877 157.5 161.857 158.55C160.977 159.027 159.824 159.153 158.309 158.613C157.326 158.262 156.498 157.912 155.795 157.571C156.459 160.058 157.603 165.136 157.417 170.065C157.158 176.947 157.936 177.545 157.936 177.545C157.887 177.616 157.832 177.68 157.771 177.736C160.851 185.714 160.88 193.898 157.676 202.08C154.046 211.356 157.936 232.898 157.936 232.898C157.936 232.898 158.213 236.259 158.337 240H214.034C213.148 230.097 212.084 220.183 211.611 219.075C210.832 217.248 211.821 187.149 212.191 176.695C212.027 176.646 211.866 176.597 211.715 176.546C211.452 176.457 211.215 176.365 210.996 176.271C210.985 176.803 211.033 177.334 211.139 177.852C211.467 178.748 210.681 179.407 209.345 179.857C210.122 184.302 211.082 192.572 207.834 194.175C204.494 195.823 204.427 185.81 204.611 180.591C204.189 180.609 203.767 180.618 203.349 180.618C199.337 180.618 204.53 126.115 204.294 122.519C204.058 118.922 206.182 104.259 206.182 104.259C206.182 104.259 206.89 101.216 209.015 100.662C211.139 100.109 221.289 93.1924 221.289 93.1924C221.86 92.2524 222.582 91.4518 223.414 90.8351V90.4258C223.678 90.1368 223.96 89.8698 224.256 89.6267C224.132 87.2093 223.853 84.0906 223.65 81.9836C222.509 80.6209 221.738 78.8925 221.435 77.0166C221 76.6188 220.587 76.1889 220.199 75.7295C219.224 74.4197 218.665 72.7557 218.616 71.0187C218.573 69.2934 218.786 67.5724 219.245 65.9327C219.366 65.3878 219.55 64.8652 219.792 64.3796C220.126 63.8166 220.545 63.3299 221.028 62.9436C221.171 62.819 221.319 62.7024 221.467 62.5848C221.78 61.8722 222.239 61.2617 222.803 60.808C224.007 59.8809 225.558 59.9567 226.998 59.9988C227.02 59.9994 227.042 59.9992 227.064 59.9994C227.331 59.949 227.599 59.9073 227.868 59.8743C228.026 59.8378 228.17 59.7482 228.285 59.6166C228.4 59.485 228.479 59.3171 228.514 59.1334C228.709 59.3529 228.904 59.5725 229.099 59.7921C229.391 59.7871 229.684 59.793 229.976 59.8097C230.105 59.4626 230.257 59.1276 230.431 58.8079C230.538 59.1653 230.645 59.5227 230.752 59.8801C231.045 59.9167 231.338 59.9629 231.629 60.0222C231.858 59.8085 232.088 59.5948 232.317 59.3811C232.368 59.3337 232.551 60.0339 232.643 60.2742C232.801 60.3217 232.958 60.3722 233.114 60.4289C233.358 60.4158 233.629 60.3623 233.78 60.3652C234.61 60.3323 235.432 60.5724 236.152 61.0584C236.781 61.5945 237.296 62.2923 237.66 63.0981C238.587 64.8179 239.163 66.7653 239.342 68.7888C239.793 69.5205 240.111 70.3529 240.276 71.2343C240.666 74.0116 238.414 76.3324 237.968 79.098C237.73 80.5734 238.001 82.2074 237.36 83.5074C237.079 84.0309 236.712 84.4828 236.279 84.8362C236.023 85.0599 235.756 85.2659 235.48 85.453C235.494 87.126 235.658 88.7926 235.968 90.4258L236.272 91.7907C236.744 92.1898 237.253 92.6511 237.813 93.1924C237.813 93.1924 244.422 96.5124 246.782 98.1724C248.858 99.6317 251.114 99.8098 251.79 101.711L251.976 101.769C251.976 101.769 254.336 132.479 254.572 137.735C254.808 142.992 257.641 175.362 257.169 176.745C256.994 177.257 255.881 177.845 254.537 178.312C255.321 182.513 256.587 191.651 253.156 193.345C249.677 195.062 249.749 184.129 249.956 179.137C249.492 179.088 249.188 178.946 249.143 178.682C249.105 178.457 248.982 177.441 248.804 175.892C248.51 175.946 248.205 176.001 247.88 176.059C247.815 176.07 247.746 176.082 247.68 176.094C250.673 187.128 244.045 216.39 242.77 222.118C242.103 225.111 241.385 232.511 240.737 240H269.934C296.37 240 318 214.649 318 183.664V56.3362C318 25.3513 296.37 0 269.934 0Z" fill="#F2F2F2"/>
<path d="M71.194 101.503C88.9814 101.503 103.401 86.1238 103.401 67.1523C103.401 48.1807 88.9814 32.8013 71.194 32.8013C53.4067 32.8013 38.9872 48.1807 38.9872 67.1523C38.9872 86.1238 53.4067 101.503 71.194 101.503Z" fill="#3F3D56"/>
<path d="M124.251 179.404C124.251 179.404 135.099 170.662 135.099 166.689C135.099 162.715 142.558 136.887 146.626 148.411C150.694 159.934 140.862 176.225 140.862 176.225C140.862 176.225 130.014 199.272 123.572 203.245C117.131 207.219 111.707 204.834 111.707 204.834V194.106L117.905 183.355C118.606 182.138 119.551 181.142 120.658 180.453C121.764 179.764 122.998 179.404 124.251 179.404V179.404Z" fill="#FFB9B9"/>
<path d="M93.4146 118.544C93.4146 118.544 109.673 124.57 111.368 127.351C113.063 130.132 113.741 125.364 118.487 143.642C123.233 161.921 124.42 179.603 124.42 179.603C124.42 179.603 112.724 184.172 114.08 202.053C115.436 219.934 112.046 239.404 112.046 239.404H107.813L98.4851 205.629L109.673 154.371C109.673 154.371 93.7684 122.85 93.4146 118.544Z" fill="#575A89"/>
<path d="M87.9755 101.921C99.2096 101.921 108.317 91.2466 108.317 78.0796C108.317 64.9125 99.2096 54.2385 87.9755 54.2385C76.7414 54.2385 67.6343 64.9125 67.6343 78.0796C67.6343 91.2466 76.7414 101.921 87.9755 101.921Z" fill="#FFB9B9"/>
<path d="M95.7729 95.9601C95.7729 95.9601 90.0096 118.212 95.0949 121.391C100.18 124.569 105.943 138.874 105.943 138.874L97.129 150.397H76.7878L67.6343 138.477L63.9051 118.212L68.9904 113.444C68.9904 113.444 74.4147 97.5495 74.4147 89.2051C74.4147 80.8608 95.7729 95.9601 95.7729 95.9601Z" fill="#FFB9B9"/>
<path d="M97.468 120.596C97.468 120.596 93.3998 119.404 95.7729 124.172C98.1461 128.94 100.519 137.682 92.0437 138.079C83.5682 138.477 75.0928 133.311 72.3806 122.583C69.6684 111.854 68.6514 112.649 67.6343 113.046C66.6173 113.444 55.7687 126.556 55.7687 126.556L59.4979 151.192L60.8539 239.404H110.351C110.351 239.404 112.385 213.973 108.995 208.013C105.604 202.053 112.046 186.954 112.046 186.954C112.046 186.954 117.809 176.622 113.402 156.755C108.995 136.887 99.1631 120.596 97.468 120.596Z" fill="#F5A601"/>
<path d="M70.0075 113.046C70.0075 113.046 64.9222 110.265 60.5149 115.033C56.1077 119.801 46.2761 123.775 46.2761 126.159C46.2761 128.543 54.7516 196.49 48.9883 208.411C43.2249 220.331 37.1226 239.404 37.1226 239.404H65.4013C65.4013 239.404 70.0075 219.536 74.7537 208.808C79.5 198.08 79.161 167.881 77.8049 158.742C76.4488 149.603 70.0075 113.046 70.0075 113.046Z" fill="#575A89"/>
<path d="M40.1738 218.344L41.8248 239.404H60.1478L58.4808 213.179L40.1738 218.344Z" fill="#FFB9B9"/>
<path d="M123.572 207.219L127.98 239.404H225.956L234.432 174.636L123.572 207.219Z" fill="#3F3D56"/>
<path d="M238.161 170.265L239.178 176.225L112.385 211.987V206.821L238.161 170.265Z" fill="#3F3D56"/>
<path d="M184.596 180.993L183.918 187.748L191.376 186.556L188.325 179.801L184.596 180.993Z" fill="#3F3D56"/>
<path d="M143.575 112.649C143.575 112.649 158.491 111.457 162.56 124.967C166.628 138.477 176.12 162.715 179.85 166.291C183.579 169.867 187.647 179.404 186.969 182.583" stroke="#3F3D56" stroke-width="5" stroke-miterlimit="10"/>
<path d="M145.778 112.45C145.778 114.316 144.086 115.828 141.371 115.828C138.656 115.828 137.303 114.316 137.303 112.45C137.303 110.585 138.656 109.073 141.371 109.073C144.086 109.073 145.778 110.585 145.778 112.45Z" fill="#F50057"/>
<path d="M120.691 174.437C120.691 174.437 123.233 161.921 118.487 143.642C113.741 125.364 113.063 130.132 111.368 127.351C109.673 124.57 93.4146 118.544 93.4146 118.544C93.5308 119.959 95.3262 124.313 97.6845 129.52C97.26 127.643 96.6167 125.844 95.7729 124.172C93.3998 119.404 97.468 120.596 97.468 120.596C99.1631 120.596 108.995 136.887 113.402 156.755C117.809 176.623 112.046 186.954 112.046 186.954L120.691 174.437Z" fill="#575A89"/>
<path d="M93.5693 118.411C93.5693 118.411 95.5764 127.334 97.285 128.634C98.9936 129.934 109.127 142.273 109.127 142.273L107.808 132.318L102.384 122.782L100.941 121.554L93.5693 118.411Z" fill="#575A89"/>
<path opacity="0.1" d="M48.4797 145.828L48.9524 125.364C48.9524 125.364 37.8006 130.927 36.7836 154.768C35.7665 178.609 38.4787 223.51 42.2079 223.907C45.9371 224.305 63.5661 219.536 63.5661 219.536C63.5661 219.536 66.2782 161.921 65.2612 154.371C64.2441 146.821 48.4797 145.828 48.4797 145.828Z" fill="black"/>
<path d="M49.3273 125.364H46.5793C46.5793 125.364 35.4275 130.927 34.4104 154.768C33.3934 178.609 36.1055 223.51 39.8348 223.907C43.564 224.305 61.193 219.536 61.193 219.536C61.193 219.536 63.9051 161.921 62.8881 154.371C61.871 146.821 49.3273 125.364 49.3273 125.364Z" fill="#575A89"/>
<path d="M63.7356 99.3378C75.3442 99.3378 84.7548 86.9737 84.7548 71.7219C84.7548 56.47 75.3442 44.106 63.7356 44.106C52.127 44.106 42.7164 56.47 42.7164 71.7219C42.7164 86.9737 52.127 99.3378 63.7356 99.3378Z" fill="#3F3D56"/>
<path d="M78.822 94.1722C81.1624 94.1722 83.0597 90.8811 83.0597 86.8212C83.0597 82.7614 81.1624 79.4702 78.822 79.4702C76.4815 79.4702 74.5842 82.7614 74.5842 86.8212C74.5842 90.8811 76.4815 94.1722 78.822 94.1722Z" fill="#FFB9B9"/>
<path d="M42.7164 64.3709C52.2654 64.3709 60.0064 55.298 60.0064 44.106C60.0064 32.914 52.2654 23.8411 42.7164 23.8411C33.1674 23.8411 25.4264 32.914 25.4264 44.106C25.4264 55.298 33.1674 64.3709 42.7164 64.3709Z" fill="#3F3D56"/>
<path d="M44.9512 60.3405C42.4394 61.8384 39.6532 62.594 36.8354 62.5413C34.0175 62.4887 31.2533 61.6294 28.7836 60.0384C26.3138 58.4474 24.2133 56.1729 22.665 53.4129C21.1167 50.6529 20.1676 47.4911 19.9002 44.2029C19.531 47.0413 19.6807 49.9393 20.3394 52.7048C20.998 55.4703 22.1506 58.0401 23.7207 60.2441C25.2909 62.448 27.2427 64.2356 29.4469 65.4885C31.6511 66.7415 34.0572 67.431 36.506 67.5116C38.9548 67.5921 41.3902 67.0617 43.6508 65.9556C45.9115 64.8496 47.9458 63.193 49.6189 61.0957C51.292 58.9985 52.5657 56.5084 53.3556 53.7905C54.1455 51.0727 54.4336 48.1891 54.2007 45.3308C53.7893 48.5149 52.7355 51.5379 51.1267 54.1485C49.5179 56.7591 47.4008 58.8819 44.9512 60.3405V60.3405Z" fill="#3F3D56"/>
<path d="M33.2309 47.4554C31.4947 44.8535 30.3275 41.7936 29.831 38.5422C29.3345 35.2907 29.5236 31.9463 30.382 28.8001C31.2404 25.6539 32.742 22.8014 34.7561 20.4909C36.7701 18.1804 39.2355 16.482 41.9376 15.5436C39.4901 15.6634 37.0921 16.3916 34.9028 17.6798C32.7135 18.968 30.7828 20.7869 29.2386 23.0158C27.6944 25.2447 26.5719 27.8329 25.9457 30.6087C25.3194 33.3845 25.2037 36.2846 25.6061 39.1169C26.0084 41.9491 26.9198 44.6487 28.2797 47.0369C29.6396 49.4251 31.417 51.4473 33.4941 52.9695C35.5712 54.4917 37.9006 55.4791 40.328 55.8663C42.7553 56.2534 45.2252 56.0316 47.5738 55.2154C44.8287 55.3531 42.0953 54.7208 39.6006 53.3711C37.106 52.0214 34.9222 49.9933 33.2309 47.4554Z" fill="#3F3D56"/>
<path d="M89.162 69.9337C95.9025 69.9337 101.367 65.3083 101.367 59.6026C101.367 53.8969 95.9025 49.2715 89.162 49.2715C82.4216 49.2715 76.9574 53.8969 76.9574 59.6026C76.9574 65.3083 82.4216 69.9337 89.162 69.9337Z" fill="#3F3D56"/>
</svg>
