<?xml version="1.0" encoding="UTF-8" standalone="no"?> <!-- Created with Vectornator for iOS (http://vectornator.io/) --><!DOCTYPE svg PUBLIC "-//W3C//DTD SVG 1.1//EN" "http://www.w3.org/Graphics/SVG/1.1/DTD/svg11.dtd">
<svg height="100%" style="fill-rule:evenodd;clip-rule:evenodd;stroke-linecap:round;stroke-linejoin:round;" xmlns:xlink="http://www.w3.org/1999/xlink" xmlns="http://www.w3.org/2000/svg" xml:space="preserve" width="100%" xmlns:vectornator="http://vectornator.io" version="1.1" viewBox="0 0 2560 1100">
<metadata>
<vectornator:setting key="DimensionsVisible" value="1"/>
<vectornator:setting key="New" value="1"/>
<vectornator:setting key="SnapToPoints" value="0"/>
<vectornator:setting key="GuidesVisible" value="1"/>
<vectornator:setting key="RulersVisible" value="1"/>
<vectornator:setting key="CMYKEnabledKey" value="0"/>
<vectornator:setting key="SnapToEdges" value="0"/>
<vectornator:setting key="DisplayWhiteBackground" value="0"/>
<vectornator:setting key="SnapToGuides" value="1"/>
<vectornator:setting key="GridSpacing" value="36"/>
<vectornator:setting key="Units" value="Pixels"/>
<vectornator:setting key="DynamicGuides" value="0"/>
<vectornator:setting key="SnapToGrid" value="0"/>
</metadata>
<defs>
<linearGradient y1="1373.77" id="LinearGradient" x1="-77.4433" y2="47.5863" x2="2622.29" gradientUnits="userSpaceOnUse" gradientTransform="matrix(1 0 0 0.650637 10.4228 33.2654)">
<stop stop-color="#410584" offset="0.0218447"/>
<stop stop-color="#210037" offset="0.757282"/>
</linearGradient>
<linearGradient y1="1031.56" id="LinearGradient_2" x1="1544.29" y2="1081.56" x2="1973.29" gradientUnits="userSpaceOnUse" gradientTransform="matrix(1 0 0 1 -33.4996 -274.278)">
<stop stop-color="#120021" offset="0.0194175"/>
<stop stop-color="#250147" offset="0.968447"/>
</linearGradient>
<linearGradient y1="975.952" id="LinearGradient_3" x1="1675.09" y2="975.952" x2="2601.17" gradientUnits="userSpaceOnUse" gradientTransform="matrix(1 0 0 1 -33.4996 -274.278)">
<stop stop-color="#190228" offset="0.0291262"/>
<stop stop-color="#1e0042" offset="1"/>
</linearGradient>
<linearGradient y1="1162.64" id="LinearGradient_4" x1="1678.14" y2="1162.64" x2="2521.31" gradientUnits="userSpaceOnUse" gradientTransform="matrix(1 0 0 1 -33.4996 -274.278)">
<stop stop-color="#1f0333" offset="0.0194175"/>
<stop stop-color="#230449" offset="0.98301"/>
</linearGradient>
<linearGradient y1="938.212" id="LinearGradient_5" x1="1102.67" y2="938.212" x2="2865.84" gradientUnits="userSpaceOnUse" gradientTransform="matrix(1 0 0 1 -33.4996 -274.278)">
<stop stop-color="#660584" offset="0.0218447"/>
<stop stop-color="#210037" offset="1"/>
</linearGradient>
</defs>
<g id="Layer 2" vectornator:layerName="Layer 2">
<path stroke="#ffffff" stroke-width="0.1" d="M-26.2092+212.95C144.712+203.571+811.922+265.204+993.139+73.6057C1174.36-117.993+2430.52-150.149+2591.15+10.6328C2751.77+171.415+2729.12+610.885+2679.7+744.87C2630.27+878.855+2678.01+950.771+2297.05+893.762C1912.46+836.209+1413.61+872.156+900.845+967.285C388.082+1062.41+93.7038+1069.16-161.748+1030.26" fill="url(#LinearGradient)" stroke-linecap="butt" opacity="1" stroke-linejoin="round"/>
</g>
<g id="Layer 3" vectornator:layerName="Layer 3">
<path d="M1510.79+418.278L2577.79+418.278L2576.75+1047.21L1609.29+833.174L1510.79+418.278Z" opacity="1" fill="url(#LinearGradient_2)"/>
</g>
<g id="Layer 5" vectornator:layerName="Layer 5">
<path d="M2556.05+264.845C2549.05+269.845+1702.79+319.278+1650.79+384.278C1598.79+449.278+1773.79+461.278+2006.79+468.278C2239.79+475.278+2410.79+504.278+2435.79+523.278C2460.79+542.278+2436.79+753.278+2431.79+905.278C2426.79+1057.28+2430.36+999.848+2430.36+999.848C2430.36+999.848+2467.25+1016.24+2539.66+1038.1C2601.11+1056.65+2563.05+259.845+2556.05+264.845Z" opacity="1" fill="url(#LinearGradient_3)"/>
</g>
<g id="Layer 4" vectornator:layerName="Layer 4">
<path d="M2474.79+522.278C2474.44+495.447+1916.79+708.278+1744.79+698.278C1610.19+690.452+1616.3+642.608+1639.35+818.146C1644.01+853.673+2281.37+971.141+2337.46+983.454C2449.49+1008.04+2497.31+1025.81+2497.31+1025.81C2497.31+1025.81+2476.79+675.278+2474.79+522.278Z" opacity="1" fill="url(#LinearGradient_4)"/>
</g>
<g id="Layer 1" vectornator:layerName="Layer 1">
<path d="M2725.45+154.277C2723.39+232.53+2706.91+125.447+2729.57+207.818C2752.22+290.19+2422.73+292.249+2235.34+306.664C2047.94+321.079+1514.59+391.095+1697.86+432.281C1881.14+473.467+2496.87+428.162+2476.27+537.305C2455.68+646.447+1984.1+627.913+1753.46+743.233C1522.82+858.554+2366.46+934.443+2584.74+1039.47C2803.03+1144.49+2735.51+1292.96+2651.68+1117.34C2622.99+1057.23+2236.61+994.296+1787.73+931.295C1687.08+917.169+1333.76+905.835+1191.24+924.708C1041.27+944.568+1027.46+937.255+942.946+960.007C933.434+962.569+1019.1+931.539+1277.77+765.886C1414.15+678.544+1717.1+636.679+2039.7+597.024C2659.55+520.83+2323.89+496.119+1846.13+479.644C1201.31+457.409+1674.63+355.314+1694.24+350.142C1756.81+333.642+2402.15+255.328+2519.52+246.945C2634.84+238.708+2800.49+164.962+2797.52+154.277C2766.63+43.0751+2383.61+22.4822+2686.32+18.3636C2989.04+14.245+2727.51+76.0237+2725.45+154.277Z" opacity="1" fill="url(#LinearGradient_5)"/>
</g>
</svg>
