<?xml version="1.0" encoding="UTF-8" standalone="no"?>
<!DOCTYPE svg PUBLIC "-//W3C//DTD SVG 1.1//EN" "http://www.w3.org/Graphics/SVG/1.1/DTD/svg11.dtd">
<svg width="100%" height="100%" viewBox="0 0 867 606" version="1.1" xmlns="http://www.w3.org/2000/svg" xmlns:xlink="http://www.w3.org/1999/xlink" xml:space="preserve" xmlns:serif="http://www.serif.com/" style="fill-rule:evenodd;clip-rule:evenodd;stroke-linejoin:round;stroke-miterlimit:2;">
    <g transform="matrix(1,0,0,1,-166.835,-147.13)">
        <path d="M898.303,567.789C896.782,566.108 895.939,563.919 895.939,561.652C895.939,558.503 897.565,555.568 900.234,553.898L892.982,522.216L908.801,528.134L913.262,557.312C913.98,558.65 914.356,560.145 914.356,561.663C914.356,566.707 910.205,570.858 905.161,570.858C902.544,570.858 900.047,569.741 898.303,567.789L898.303,567.789Z" style="fill:rgb(255,184,184);fill-rule:nonzero;"/>
    </g>
    <g transform="matrix(1,0,0,1,-166.835,-147.13)">
        <path d="M897.209,542.644L883.303,515.759L885.183,448.062L886.077,449.945C887.118,452.138 911.517,503.791 909.777,521.083L912.566,536.885L897.209,542.644Z" style="fill:rgb(63,61,86);fill-rule:nonzero;"/>
    </g>
    <path d="M721.307,594.201L732.458,594.201L737.762,551.192L721.305,551.193L721.307,594.201Z" style="fill:rgb(255,184,184);fill-rule:nonzero;"/>
    <g transform="matrix(1,0,0,1,-166.835,-147.13)">
        <path d="M885.298,737.691L907.258,737.69C914.935,737.69 921.252,744.007 921.252,751.684L921.252,752.138L885.298,752.14L885.298,737.691Z" style="fill:rgb(47,46,65);fill-rule:nonzero;"/>
    </g>
    <path d="M611.134,585.727L621.877,588.714L638.511,548.699L622.655,544.29L611.134,585.727Z" style="fill:rgb(255,184,184);fill-rule:nonzero;"/>
    <g transform="matrix(1,0,0,1,-166.835,-147.13)">
        <path d="M776.204,728.588L797.36,734.47L797.361,734.471C804.757,736.528 809.151,744.306 807.094,751.702L806.972,752.14L772.333,742.509L776.204,728.588Z" style="fill:rgb(47,46,65);fill-rule:nonzero;"/>
    </g>
    <g transform="matrix(1,0,0,1,-166.835,-147.13)">
        <path d="M877.024,724.564L854.521,563.438L805.916,723.653L767.699,710.603L822.474,496.071L822.834,496.045L880.215,492.054L921.672,711.542L877.024,724.564Z" style="fill:rgb(47,46,65);fill-rule:nonzero;"/>
    </g>
    <g transform="matrix(1,0,0,1,-166.835,-147.13)">
        <path d="M871.073,420.145C871.073,420.145 850.154,409.231 821.959,413.779C821.959,413.779 806.952,449.984 821.959,464.396L826.052,500.637C826.052,500.637 864.252,523.375 876.985,496.999L875.166,466.985C875.166,466.985 884.261,452.59 876.985,442.052C872.624,435.616 870.542,427.901 871.073,420.145Z" style="fill:rgb(245,0,87);fill-rule:nonzero;"/>
    </g>
    <g transform="matrix(1,0,0,1,-166.835,-147.13)">
        <path d="M873.723,584.987L877.395,508.799L867.003,418.165L867.48,418.093C881.111,416.037 885.483,439.52 885.663,440.521L909.388,574.663L873.723,584.987Z" style="fill:rgb(63,61,86);fill-rule:nonzero;"/>
    </g>
    <g transform="matrix(1,0,0,1,-166.835,-147.13)">
        <path d="M827.466,585.781L785.523,581.12L785.534,580.662C785.683,574.452 789.293,428.458 799.408,418.118C809.584,407.717 828.786,412.217 829.598,412.415L830.003,412.513L826.551,474.289L827.466,585.781Z" style="fill:rgb(63,61,86);fill-rule:nonzero;"/>
    </g>
    <g transform="matrix(1,0,0,1,-166.835,-147.13)">
        <path d="M835.191,498.523C834.271,498.825 833.309,498.979 832.34,498.979C827.804,498.979 823.92,495.605 823.284,491.114L791.389,484.865L803.225,472.816L831.698,480.598C831.925,480.581 832.153,480.572 832.381,480.572C837.426,480.572 841.577,484.723 841.577,489.768C841.577,493.753 838.986,497.305 835.191,498.523L835.191,498.523Z" style="fill:rgb(255,184,184);fill-rule:nonzero;"/>
    </g>
    <g transform="matrix(1,0,0,1,-166.835,-147.13)">
        <path d="M818.171,491.209L807.779,488.975C792.436,493.589 765.657,477.345 754.833,470.13C752.796,468.772 752.136,466.082 752.869,462.136C753.952,456.617 756.996,451.673 761.436,448.221L799.556,417.996L809.178,416.387L812.036,432.582L787.748,458.668L823.501,478.128L818.171,491.209Z" style="fill:rgb(63,61,86);fill-rule:nonzero;"/>
    </g>
    <g transform="matrix(1,0,0,1,-166.835,-147.13)">
        <path d="M814.061,400.068L814.061,379.068C814.061,360.691 829.183,345.568 847.561,345.568C865.938,345.568 881.061,360.691 881.061,379.068L881.061,400.068C881.058,402.536 879.029,404.565 876.561,404.568L818.561,404.568C816.093,404.565 814.064,402.536 814.061,400.068Z" style="fill:rgb(47,46,65);fill-rule:nonzero;"/>
    </g>
    <circle cx="679.38" cy="232.671" r="24.561" style="fill:rgb(255,184,184);"/>
    <g transform="matrix(1,0,0,1,-166.835,-147.13)">
        <path d="M820.979,379.706C820.505,379.158 820.291,378.43 820.394,377.713L823.304,357.453C823.421,356.616 823.954,355.893 824.718,355.534C839.568,348.584 854.628,348.575 869.478,355.508C870.279,355.887 870.822,356.662 870.907,357.544L872.849,377.83C872.857,377.909 872.86,377.989 872.86,378.069C872.86,379.44 871.732,380.568 870.361,380.568L865.435,380.568C864.466,380.566 863.581,380.003 863.169,379.126L861.044,374.571C860.798,374.044 860.266,373.705 859.684,373.705C858.931,373.705 858.289,374.272 858.196,375.019L857.776,378.378C857.619,379.622 856.55,380.567 855.295,380.568L822.869,380.568C822.144,380.568 821.454,380.253 820.979,379.706Z" style="fill:rgb(47,46,65);fill-rule:nonzero;"/>
    </g>
    <rect x="0" y="40.366" width="551" height="343.114" style="fill:rgb(230,230,230);"/>
    <rect x="36.949" y="106.466" width="100.916" height="65.595" style="fill:white;"/>
    <rect x="162.344" y="106.466" width="100.916" height="65.595" style="fill:white;"/>
    <rect x="287.74" y="106.466" width="100.916" height="65.595" style="fill:white;"/>
    <rect x="413.135" y="106.466" width="100.916" height="65.595" style="fill:white;"/>
    <rect x="36.949" y="199.309" width="100.916" height="65.595" style="fill:white;"/>
    <rect x="162.344" y="199.309" width="100.916" height="65.595" style="fill:white;"/>
    <rect x="287.74" y="199.309" width="100.916" height="65.595" style="fill:white;"/>
    <rect x="413.135" y="199.309" width="100.916" height="65.595" style="fill:white;"/>
    <rect x="36.949" y="292.151" width="100.916" height="65.595" style="fill:white;"/>
    <rect x="162.344" y="292.151" width="100.916" height="65.595" style="fill:white;"/>
    <rect x="287.74" y="292.151" width="100.916" height="65.595" style="fill:white;"/>
    <rect x="413.135" y="292.151" width="100.916" height="65.595" style="fill:white;"/>
    <circle cx="144.31" cy="65.595" r="15.137" style="fill:white;"/>
    <circle cx="394.581" cy="65.595" r="15.137" style="fill:white;"/>
    <rect x="138.255" y="0" width="12.11" height="69.632" style="fill:rgb(230,230,230);"/>
    <rect x="388.526" y="0" width="12.11" height="69.632" style="fill:rgb(230,230,230);"/>
    <g transform="matrix(1,0,0,1,-166.835,-147.13)">
        <path d="M653.249,286.394C653.237,298.869 642.968,309.129 630.492,309.129C618.008,309.129 607.735,298.856 607.735,286.372C607.735,273.888 618.008,263.616 630.492,263.616C638.285,263.616 645.555,267.618 649.722,274.203C652.029,277.85 653.253,282.079 653.249,286.394Z" style="fill:rgb(245,0,87);fill-rule:nonzero;"/>
    </g>
    <g transform="matrix(1,0,0,1,-166.835,-147.13)">
        <path d="M649.722,274.203L627.258,296.663C625.846,294.477 617.98,284.319 617.98,284.319C618.988,283.3 620.064,282.351 621.2,281.477L627.723,290.174L647.091,270.805C648.073,271.852 648.954,272.99 649.722,274.203Z" style="fill:white;fill-rule:nonzero;"/>
    </g>
    <g transform="matrix(1,0,0,1,-166.835,-147.13)">
        <path d="M402.458,379.236C402.446,391.712 392.177,401.971 379.701,401.971C367.217,401.971 356.945,391.699 356.945,379.215C356.945,366.731 367.217,356.458 379.701,356.458C387.494,356.458 394.764,360.461 398.931,367.046C401.238,370.692 402.462,374.921 402.458,379.236Z" style="fill:rgb(245,0,87);fill-rule:nonzero;"/>
    </g>
    <g transform="matrix(1,0,0,1,-166.835,-147.13)">
        <path d="M398.931,367.046L376.467,389.506C375.055,387.32 367.189,377.162 367.189,377.162C368.197,376.143 369.273,375.193 370.409,374.319L376.932,383.016L396.3,363.648C397.282,364.695 398.163,365.833 398.931,367.046Z" style="fill:white;fill-rule:nonzero;"/>
    </g>
    <g transform="matrix(1,0,0,1,-166.835,-147.13)">
        <path d="M277.062,379.236C277.05,391.712 266.781,401.971 254.306,401.971C241.822,401.971 231.549,391.699 231.549,379.215C231.549,366.731 241.822,356.458 254.306,356.458C262.098,356.458 269.368,360.461 273.535,367.046C275.843,370.692 277.066,374.921 277.062,379.236Z" style="fill:rgb(245,166,0);fill-rule:nonzero;"/>
    </g>
    <g transform="matrix(1,0,0,1,-166.835,-147.13)">
        <path d="M273.535,367.046L251.071,389.506C249.66,387.32 241.794,377.162 241.794,377.162C242.802,376.143 243.878,375.193 245.014,374.319L251.536,383.016L270.905,363.648C271.887,364.695 272.768,365.833 273.535,367.046Z" style="fill:white;fill-rule:nonzero;"/>
    </g>
    <g transform="matrix(1,0,0,1,-166.835,-147.13)">
        <path d="M1032.16,752.87L651.165,752.87C650.617,752.87 650.165,752.419 650.165,751.87C650.165,751.321 650.617,750.87 651.165,750.87L1032.16,750.87C1032.71,750.87 1033.16,751.321 1033.16,751.87C1033.16,752.419 1032.71,752.87 1032.16,752.87Z" style="fill:rgb(63,61,86);fill-rule:nonzero;"/>
    </g>
</svg>
