<?xml version="1.0" encoding="UTF-8" standalone="no"?>
<!DOCTYPE svg PUBLIC "-//W3C//DTD SVG 1.1//EN" "http://www.w3.org/Graphics/SVG/1.1/DTD/svg11.dtd">
<svg width="100%" height="100%" viewBox="0 0 268 467" version="1.1" xmlns="http://www.w3.org/2000/svg" xmlns:xlink="http://www.w3.org/1999/xlink" xml:space="preserve" xmlns:serif="http://www.serif.com/" style="fill-rule:evenodd;clip-rule:evenodd;stroke-linejoin:round;stroke-miterlimit:2;">
    <g id="Artboard1" transform="matrix(1,0,0,1,8.75128,-188.193)">
        <rect x="-8.751" y="188.193" width="267.208" height="466.361" style="fill:none;"/>
        <g>
            <g transform="matrix(1,0,0,1,-172.633,-125.077)">
                <path d="M299.279,598.872C298.503,597.415 298.097,595.79 298.097,594.14C298.097,589.792 300.916,585.914 305.052,584.574L305.789,548.847L321.078,559.387L318.034,591.698C318.238,592.507 318.341,593.338 318.341,594.172C318.341,599.718 313.777,604.282 308.231,604.282C304.479,604.282 301.023,602.194 299.279,598.872Z" style="fill:rgb(160,97,106);fill-rule:nonzero;"/>
            </g>
            <g transform="matrix(1,0,0,1,-172.633,-125.077)">
                <path d="M316.184,461.302L301.22,573.816L319.235,574.495L334.29,456.383L330.677,454.251C329.189,453.374 327.493,452.911 325.765,452.911C320.942,452.911 316.82,456.521 316.184,461.302Z" style="fill:rgb(245,0,87);fill-rule:nonzero;"/>
            </g>
            <g transform="matrix(1,0,0,1,0.248717,0.192734)">
                <path d="M191.064,637.552L203.323,637.551L209.156,590.263L191.061,590.264L191.064,637.552Z" style="fill:rgb(160,97,106);fill-rule:nonzero;"/>
            </g>
            <g transform="matrix(-1,4.57276e-05,-4.57276e-05,-1,588.57,1408.43)">
                <path d="M361.319,759.318L399.849,759.318L399.849,774.204L376.206,774.204C368.039,774.204 361.319,767.484 361.319,759.318Z" style="fill:rgb(47,46,65);fill-rule:nonzero;"/>
            </g>
            <g transform="matrix(1,0,0,1,0.248717,0.192734)">
                <path d="M89.061,622.9L100.186,628.05L125.346,587.589L108.926,579.988L89.061,622.9Z" style="fill:rgb(160,97,106);fill-rule:nonzero;"/>
            </g>
            <g transform="matrix(-0.907476,-0.420104,0.420104,-0.907476,33.911,1437.88)">
                <path d="M256.121,751.292L294.651,751.292L294.651,766.179L271.008,766.179C262.841,766.179 256.121,759.459 256.121,751.292Z" style="fill:rgb(47,46,65);fill-rule:nonzero;"/>
            </g>
            <g transform="matrix(1,0,0,1,-172.633,-125.077)">
                <path d="M376.798,752.83C376.619,752.829 376.439,752.819 376.261,752.798L366.562,751.657C364.468,751.401 362.817,749.714 362.608,747.615L350.964,625.474C350.891,624.708 350.24,624.116 349.471,624.116C348.926,624.116 348.421,624.414 348.158,624.892L283.377,742.258C282.377,744.081 280.234,744.981 278.233,744.419L267.337,741.392C265.394,740.854 264.04,739.073 264.04,737.058C264.04,736.574 264.118,736.092 264.272,735.633C273.761,707.239 321.305,564.933 325.37,551.835C330.227,536.185 366.485,530.018 369.609,529.515L371.404,527.72L371.749,528.185C387.753,549.728 395.497,578.26 393.555,608.526L393.554,608.538L381.27,748.722C381.067,751.029 379.115,752.823 376.798,752.83Z" style="fill:rgb(47,46,65);fill-rule:nonzero;"/>
            </g>
            <g transform="matrix(1,0,0,1,0.248717,0.192734)">
                <circle cx="152.817" cy="285.848" r="24.561" style="fill:rgb(160,97,106);"/>
            </g>
            <g transform="matrix(1,0,0,1,-172.633,-125.077)">
                <path d="M326.952,548.072L312.378,472.11C309.862,458.868 318.148,445.778 331.192,442.386C339.143,440.318 347.616,442.826 353.16,448.888C360.599,457.008 370.048,468.826 372.821,479.012C375.167,487.658 381.771,520.057 381.838,520.383L381.89,520.641L381.708,520.83C381.673,520.866 378.134,524.523 372.627,529.087C369.395,531.766 366.092,534.252 362.809,536.477C353.59,542.702 328.509,547.761 327.446,547.973L326.952,548.072Z" style="fill:rgb(245,0,87);fill-rule:nonzero;"/>
            </g>
            <g transform="matrix(1,0,0,1,-172.633,-125.077)">
                <path d="M362.528,536.063C366.188,533.583 369.508,531.023 372.308,528.703C371.298,513.763 349.288,482.483 340.368,482.483C340.368,482.483 338.258,530.693 362.528,536.063Z" style="fill-opacity:0.2;fill-rule:nonzero;"/>
            </g>
            <g transform="matrix(1,0,0,1,-172.633,-125.077)">
                <path d="M407.832,575.3C403.863,573.861 401.204,570.069 401.204,565.847C401.204,564.079 401.67,562.342 402.555,560.812L379.196,533.769L397.61,531.372L416.969,557.42C419.767,559.296 421.45,562.45 421.45,565.818C421.45,571.364 416.886,575.928 411.34,575.928C410.142,575.928 408.955,575.716 407.832,575.3Z" style="fill:rgb(160,97,106);fill-rule:nonzero;"/>
            </g>
            <g transform="matrix(1,0,0,1,-172.633,-125.077)">
                <path d="M342.526,444.008C343.543,444.029 344.556,444.145 345.552,444.355C349.643,445.289 352.999,448.225 354.47,452.154L383.348,512.483L414.348,545.483L398.848,557.983L349.848,513.983L330.272,460.702C329.858,459.429 329.648,458.099 329.648,456.761C329.648,449.765 335.405,444.007 342.402,444.007C342.443,444.007 342.485,444.008 342.526,444.008Z" style="fill:rgb(245,0,87);fill-rule:nonzero;"/>
            </g>
            <g transform="matrix(1,0,0,1,-172.633,-125.077)">
                <path d="M324.245,435.453C320.749,430.22 317.991,422.965 321.839,417.987C325.638,413.073 333.132,413.797 338.95,411.622C347.054,408.593 351.754,399.073 350.288,390.546C348.822,382.02 341.978,374.952 333.824,372.06C325.67,369.168 316.476,370.109 308.491,373.439C298.662,377.539 290.23,385.469 286.694,395.515C283.158,405.561 285.048,417.623 292.383,425.345C300.247,433.623 312.589,435.829 324.006,435.695" style="fill:rgb(47,46,65);fill-rule:nonzero;"/>
            </g>
            <g transform="matrix(1,0,0,1,-172.633,-125.077)">
                <path d="M285.676,406.493C284.676,412.084 278.542,415.259 272.905,415.957C267.269,416.655 261.438,415.76 255.95,417.226C246.276,419.811 239.895,429.114 236.383,438.492C232.871,447.869 231.314,457.99 226.751,466.903C222.188,475.817 213.34,483.675 203.362,482.841C207.246,492.62 216.754,499.074 227.276,499.074C238.403,499.074 248.327,491.857 251.756,481.272C255.422,469.955 251.214,456.459 257.624,446.438C261.172,440.893 267.297,437.632 273.204,434.725C279.11,431.819 285.309,428.836 289.269,423.578C293.229,418.319 294.021,410.015 289.141,405.597" style="fill:rgb(47,46,65);fill-rule:nonzero;"/>
            </g>
        </g>
    </g>
</svg>
