<?xml version="1.0" encoding="UTF-8" standalone="no"?>
<!DOCTYPE svg PUBLIC "-//W3C//DTD SVG 1.1//EN" "http://www.w3.org/Graphics/SVG/1.1/DTD/svg11.dtd">
<svg width="100%" height="100%" viewBox="0 0 955 713" version="1.1" xmlns="http://www.w3.org/2000/svg" xmlns:xlink="http://www.w3.org/1999/xlink" xml:space="preserve" xmlns:serif="http://www.serif.com/" style="fill-rule:evenodd;clip-rule:evenodd;stroke-linejoin:round;stroke-miterlimit:2;">
    <rect x="308.254" y="245.868" width="480" height="379" style="fill:rgb(242,242,242);"/>
    <g transform="matrix(1,0,0,1,-122.937,-93.8729)">
        <path d="M844.19,674.741L362.19,674.741L362.19,293.741L844.19,293.741L844.19,674.741ZM364.19,672.741L842.19,672.741L842.19,295.741L364.19,295.741L364.19,672.741Z" style="fill:rgb(63,61,86);fill-rule:nonzero;"/>
    </g>
    <rect x="21.541" y="698.167" width="556.108" height="2.361" style="fill:rgb(63,61,86);"/>
    <path d="M413.254,503.238L412.973,305.238L637.113,403.921L413.254,503.238Z" style="fill:rgb(208,205,225);fill-rule:nonzero;"/>
    <g transform="matrix(1,0,0,1,-122.937,-93.8729)">
        <path d="M490.666,407.724C490.666,407.724 511.782,383.994 516.167,393.037C520.551,402.08 494.706,415.828 494.706,415.828L490.666,407.724Z" style="fill:rgb(160,97,106);fill-rule:nonzero;"/>
    </g>
    <g transform="matrix(1,0,0,1,-122.937,-93.8729)">
        <path d="M501.72,417.511C501.72,417.511 492.33,420.961 489.61,425.151C486.89,429.351 477.84,433.731 477.84,433.731L477.05,434.201L468.51,439.291L457.32,445.951L421.9,467.051L375.15,485.771C374.79,479.241 374.44,472.711 374.11,466.531C374.01,464.681 373.99,462.841 374.03,461.001C374.62,460.821 375.22,460.661 375.83,460.531C389.66,457.581 395.54,453.291 395.54,453.291L422.58,436.981C422.58,436.981 443.81,423.451 457.28,417.101C459.17,416.201 460.91,415.451 462.41,414.901C474.61,410.421 494.33,403.181 494.33,403.181L494.56,403.631L499.44,413.081L501.72,417.511Z" style="fill:rgb(208,205,225);fill-rule:nonzero;"/>
    </g>
    <g transform="matrix(1,0,0,1,-122.937,-93.8729)">
        <path d="M501.72,417.511C501.72,417.511 492.33,420.961 489.61,425.151C486.89,429.351 477.84,433.731 477.84,433.731L477.05,434.201L468.51,439.291L457.32,445.951L421.9,467.051L375.15,485.771C374.79,479.241 374.44,472.711 374.11,466.531C374.01,464.681 373.99,462.841 374.03,461.001C374.62,460.821 375.22,460.661 375.83,460.531C389.66,457.581 395.54,453.291 395.54,453.291L422.58,436.981C422.58,436.981 443.81,423.451 457.28,417.101C459.17,416.201 460.91,415.451 462.41,414.901C474.61,410.421 494.33,403.181 494.33,403.181L494.56,403.631L499.44,413.081L501.72,417.511Z" style="fill-opacity:0.1;fill-rule:nonzero;"/>
    </g>
    <path d="M371.394,503.027L371.114,305.027L595.254,403.709L371.394,503.027Z" style="fill:rgb(245,166,0);fill-rule:nonzero;"/>
    <path d="M580.932,397.404L371.376,490.375L371.394,503.027L595.254,403.709L580.932,397.404Z" style="fill-opacity:0.2;fill-rule:nonzero;"/>
    <path d="M308.754,666.368L308.754,687.368L324.754,687.368L322.754,665.368L308.754,666.368Z" style="fill:rgb(160,97,106);fill-rule:nonzero;"/>
    <path d="M246.754,665.368L241.754,689.368L261.754,690.368L261.754,665.368L246.754,665.368Z" style="fill:rgb(160,97,106);fill-rule:nonzero;"/>
    <g transform="matrix(1,0,0,1,-122.937,-93.8729)">
        <path d="M377.69,569.241C377.69,569.241 372.69,567.241 371.69,585.241C370.69,603.241 369.69,665.241 369.69,665.241C369.69,665.241 359.69,720.241 363.69,736.241C367.69,752.241 367.69,763.241 367.69,763.241L385.69,763.241L386.69,753.241L387.69,726.241C387.69,726.241 397.69,701.241 394.69,678.241L418.69,605.241L430.69,683.241C430.69,683.241 425.69,702.241 426.69,722.241C427.69,742.241 427.69,768.241 427.69,768.241L447.69,766.241L463.69,672.241C463.69,672.241 472.69,578.241 463.69,573.241C454.69,568.241 377.69,569.241 377.69,569.241Z" style="fill:rgb(47,46,65);fill-rule:nonzero;"/>
    </g>
    <g transform="matrix(1,0,0,1,-122.937,-93.8729)">
        <path d="M437.69,774.241C437.69,774.241 428.69,762.241 424.69,771.241C420.69,780.241 411.69,792.241 418.69,798.241C425.69,804.241 434.69,806.241 437.69,804.241C440.69,802.241 471.69,786.241 471.69,786.241C471.69,786.241 477.69,769.241 465.69,768.241C453.69,767.241 449.69,764.241 449.69,764.241L437.69,774.241Z" style="fill:rgb(47,46,65);fill-rule:nonzero;"/>
    </g>
    <g transform="matrix(1,0,0,1,-122.937,-93.8729)">
        <path d="M368.69,777.241C368.69,777.241 368.69,767.241 364.69,770.241C360.69,773.241 357.69,786.241 357.69,786.241C357.69,786.241 333.69,805.241 356.69,805.241C379.69,805.241 394.69,809.241 392.69,800.241C390.69,791.241 387.69,776.241 387.69,776.241C387.69,776.241 377.69,763.241 368.69,777.241Z" style="fill:rgb(47,46,65);fill-rule:nonzero;"/>
    </g>
    <circle cx="308.754" cy="277.368" r="25" style="fill:rgb(160,97,106);"/>
    <g transform="matrix(1,0,0,1,-122.937,-93.8729)">
        <path d="M412.19,379.741C412.19,379.741 408.19,408.741 402.19,412.741C396.19,416.741 442.19,417.741 442.19,417.741C442.19,417.741 439.19,394.741 442.19,388.741L412.19,379.741Z" style="fill:rgb(160,97,106);fill-rule:nonzero;"/>
    </g>
    <g transform="matrix(1,0,0,1,-122.937,-93.8729)">
        <path d="M490.69,578.241C490.69,578.241 505.69,606.241 495.69,607.241C485.69,608.241 481.69,579.241 481.69,579.241L490.69,578.241Z" style="fill:rgb(160,97,106);fill-rule:nonzero;"/>
    </g>
    <g transform="matrix(1,0,0,1,-122.937,-93.8729)">
        <path d="M408.593,389.395C416.378,393.19 425.832,391.088 431.275,384.352C434.639,379.956 436.589,373.555 441.953,372.188C445.454,371.296 449.493,372.98 452.62,371.168C458.454,367.787 454.357,357.069 459.774,353.054C454.968,352.987 450.965,349.203 450.629,344.408C450.491,346.28 448.03,347.119 446.234,346.572C444.439,346.024 443.029,344.643 441.353,343.799C438.424,342.323 434.958,342.592 431.693,342.896C423.348,343.672 414.346,344.731 408.216,350.446C402.457,355.815 400.542,364.402 401.664,372.196C402.785,379.99 404.766,382.548 408.958,389.214L408.593,389.395Z" style="fill:rgb(47,46,65);fill-rule:nonzero;"/>
    </g>
    <g transform="matrix(1,0,0,1,-122.937,-93.8729)">
        <path d="M470.69,423.241L470.55,424.241L468.51,439.291L460.14,500.951L459.69,504.241C459.69,504.241 460.68,506.651 461.92,510.491C464.02,516.961 466.86,527.491 466.97,537.411C467.004,539.359 466.911,541.306 466.69,543.241C465.19,555.991 464.81,568.741 464.72,574.321C464.69,576.181 464.69,577.241 464.69,577.241L373.69,574.241C374.259,572.961 374.763,571.652 375.2,570.321C378.488,560.657 379.678,550.402 378.69,540.241C377.8,531.781 376.41,508.731 375.15,485.771C374.79,479.241 374.44,472.711 374.11,466.531C374.01,464.681 373.99,462.841 374.03,461.001C374.525,439.245 384.668,418.798 401.69,405.241C418.713,391.684 403.53,405.321 406.43,405.491C415.55,406.021 435.19,407.401 441.36,409.671C441.644,409.771 441.921,409.888 442.19,410.021C445.17,411.491 451.4,414.401 457.28,417.101C464.23,420.301 470.69,423.241 470.69,423.241Z" style="fill:rgb(208,205,225);fill-rule:nonzero;"/>
    </g>
    <g transform="matrix(1,0,0,1,-122.937,-93.8729)">
        <path d="M456.69,424.241L470.69,424.241C470.69,424.241 482.69,438.241 480.69,452.241C478.69,466.241 480.69,473.241 480.69,473.241L486.69,504.241C486.69,504.241 493.69,536.241 493.69,549.241L493.69,583.241L477.69,585.241C477.69,585.241 477.69,575.241 474.69,571.241C471.69,567.241 470.69,557.241 470.69,557.241L458.69,493.241L456.69,424.241Z" style="fill:rgb(208,205,225);fill-rule:nonzero;"/>
    </g>
    <g transform="matrix(0.932676,-0.360716,0.360716,0.932676,-260.147,22.5145)">
        <rect x="227.734" y="410.853" width="30.913" height="29.842" style="fill:rgb(245,0,87);"/>
    </g>
    <g transform="matrix(1,0,0,1,-122.937,-93.8729)">
        <path d="M257.778,431.92L227.429,443.658L216.098,414.36L246.447,402.622L257.778,431.92ZM228.38,441.606L255.694,431.042L245.496,404.674L218.182,415.238L228.38,441.606Z" style="fill:rgb(63,61,86);fill-rule:nonzero;"/>
    </g>
    <g transform="matrix(0.325122,0.945672,-0.945672,0.325122,732.323,-880.657)">
        <rect x="963.413" y="190.902" width="30.913" height="29.842" style="fill:rgb(245,0,87);"/>
    </g>
    <g transform="matrix(1,0,0,1,-122.937,-93.8729)">
        <path d="M972.175,220.168L961.595,189.396L991.302,179.183L1001.88,209.955L972.175,220.168ZM963.61,190.424L973.131,218.119L999.867,208.927L990.345,181.233L963.61,190.424Z" style="fill:rgb(63,61,86);fill-rule:nonzero;"/>
    </g>
    <g transform="matrix(1,0,0,1,-122.937,-93.8729)">
        <path d="M207.43,793.546L206.163,793.071C205.884,792.966 178.17,782.348 165.188,758.272C152.205,734.194 158.562,705.205 158.628,704.916L158.927,703.596L160.194,704.071C160.472,704.175 188.185,714.794 201.169,738.87C214.152,762.947 207.794,791.937 207.729,792.226L207.43,793.546ZM167.267,757.151C178.243,777.508 200.144,787.943 205.692,790.325C206.747,784.377 210.056,760.328 199.09,739.991C188.124,719.656 166.215,709.205 160.664,706.817C159.608,712.768 156.301,736.815 167.267,757.151Z" style="fill:rgb(63,61,86);fill-rule:nonzero;"/>
    </g>
    <g transform="matrix(1,0,0,1,-122.937,-93.8729)">
        <path d="M175.11,749.826C198.441,763.863 207.426,791.744 207.426,791.744C207.426,791.744 178.585,796.867 155.253,782.83C131.922,768.793 122.937,740.912 122.937,740.912C122.937,740.912 151.778,735.789 175.11,749.826Z" style="fill:rgb(245,0,87);fill-rule:nonzero;"/>
    </g>
    <rect x="21.127" y="25.061" width="933" height="2" style="fill:rgb(63,61,86);"/>
    <circle cx="40.188" cy="9.061" r="9.061" style="fill:rgb(63,61,86);"/>
    <circle cx="68.127" cy="9.061" r="9.061" style="fill:rgb(63,61,86);"/>
    <circle cx="96.066" cy="9.061" r="9.061" style="fill:rgb(63,61,86);"/>
    <rect x="367.48" y="93.454" width="213.403" height="2.398" style="fill:rgb(63,61,86);"/>
    <rect x="367.48" y="110.239" width="213.403" height="2.398" style="fill:rgb(63,61,86);"/>
    <rect x="367.48" y="127.024" width="213.403" height="2.398" style="fill:rgb(63,61,86);"/>
</svg>
